<svg width="17" height="22" viewBox="0 0 17 22" fill="none" xmlns="http://www.w3.org/2000/svg">
<g id="canada_c_PE_01">
<g id="_Elements / _canada_c_base">
<g id="stretchable-items">
<path id="shape01" d="M1.5 1.5H15.5V13.5C15.5 17.366 12.366 20.5 8.5 20.5C4.63401 20.5 1.5 17.366 1.5 13.5V1.5Z" fill="white" stroke="#53C2AE"/>
<rect id="shape02" x="2" y="2" width="13" height="6" fill="#53C2AE"/>
</g>
<g id="non-stretchable-items">
<path id="var02_symbol02" fill-rule="evenodd" clip-rule="evenodd" d="M13.2667 6.99654C14.2765 6.64354 15 5.69104 15 4.57143C15 3.15127 13.8359 2 12.4 2C10.9641 2 9.8 3.15127 9.8 4.57143C9.8 5.69104 10.5235 6.64354 11.5333 6.99654V7.99993H13.2667V6.99654ZM3.7334 7.14293C3.73338 7.14293 3.73336 7.14293 3.73333 7.14293C2.77604 7.14293 2 6.37541 2 5.42864C2 4.48187 2.77604 3.71436 3.73333 3.71436C4.04906 3.71436 4.34507 3.79784 4.60003 3.94371C4.85499 3.79784 5.151 3.71436 5.46673 3.71436C5.78241 3.71436 6.07838 3.79782 6.33331 3.94365C6.58824 3.79782 6.88421 3.71436 7.19989 3.71436C8.15718 3.71436 8.93322 4.48187 8.93322 5.42864C8.93322 6.06312 8.5847 6.6171 8.06667 6.91352V7.99993H7.2V7.14293C7.19996 7.14293 7.19992 7.14293 7.19989 7.14293C6.88422 7.14293 6.58826 7.05947 6.33333 6.91365V7.99993H5.46667V7.14293C5.15098 7.14292 4.855 7.05944 4.60007 6.91359V7.99993H3.7334V7.14293Z" fill="white"/>
</g>
</g>
</g>
</svg>
