<svg width="21" height="19" viewBox="0 0 21 19" fill="none" xmlns="http://www.w3.org/2000/svg">
<g id="detailedshield_g_01">
<g id="_Elements / _detailedshield_g_base">
<g id="stretchable-items">
<path id="shape01" d="M1.5 2.76854L3.34787 1.60754C4.09743 2.11282 5.25416 2.469 6.47487 2.54713C7.78445 2.63096 9.25912 2.40153 10.5 1.60681C11.7409 2.40153 13.2156 2.63096 14.5251 2.54713C15.7458 2.469 16.9026 2.11282 17.6521 1.60754L19.5 2.76854V5.33968C19.2588 5.3982 18.9952 5.50384 18.7527 5.68071C18.296 6.01378 17.9609 6.5669 17.9609 7.38117C17.9609 8.16955 18.294 8.71473 18.7412 9.04807C18.9809 9.22671 19.2437 9.33795 19.4884 9.40083C19.3273 12.3681 17.5153 14.3589 15.4897 15.6423C14.429 16.3144 13.3236 16.7819 12.401 17.0808C11.4633 17.3847 10.7596 17.5 10.5 17.5C10.2404 17.5 9.53673 17.3847 8.59897 17.0808C7.67644 16.7819 6.571 16.3144 5.51026 15.6423C3.4847 14.3589 1.67268 12.3681 1.51162 9.40083C1.75634 9.33795 2.01912 9.22671 2.25878 9.04807C2.70599 8.71473 3.03906 8.16955 3.03906 7.38117C3.03906 6.5669 2.70395 6.01378 2.24727 5.68071C2.00475 5.50384 1.74125 5.3982 1.5 5.33968V2.76854Z" fill="white" stroke="#888B8F"/>
<path id="shape02" d="M1.56006 5.36542C1.5397 5.35984 1.51967 5.35464 1.5 5.34978V2.76431L3.35301 1.60374C3.52117 1.71415 3.75729 1.85159 4.06144 1.98766C4.71323 2.27925 5.67315 2.5625 6.9375 2.5625C8.20185 2.5625 9.16177 2.27925 9.81356 1.98766C10.1047 1.85742 10.3335 1.72592 10.5 1.61808C10.6665 1.72592 10.8953 1.85742 11.1864 1.98766C11.8382 2.27925 12.7981 2.5625 14.0625 2.5625C15.3269 2.5625 16.2868 2.27925 16.9386 1.98766C17.2427 1.85159 17.4788 1.71415 17.647 1.60374L19.5 2.76431V5.34978C19.4803 5.35464 19.4603 5.35984 19.4399 5.36542C19.1933 5.43298 18.8753 5.56214 18.5944 5.8125H2.40564C2.12475 5.56214 1.80671 5.43298 1.56006 5.36542Z" fill="white" stroke="#888B8F"/>
</g>
</g>
</g>
</svg>
