<svg width="19" height="18" viewBox="0 0 19 18" fill="none" xmlns="http://www.w3.org/2000/svg">
<g id="simpleshield_f_01">
<g id="_Elements / _simpleshield_f_base">
<g id="stretchable-items">
<path id="shape" d="M17.5002 7.39179L17.5002 7.39179V7.39999C17.5002 9.979 16.1088 12.2566 14.3627 13.9089C13.4931 14.7318 12.5492 15.3858 11.6765 15.8318C10.7927 16.2835 10.0248 16.5 9.50012 16.5C8.97546 16.5 8.20758 16.2835 7.32372 15.8318C6.45102 15.3858 5.50707 14.7318 4.63746 13.9089C2.89133 12.2566 1.49998 9.979 1.5 7.39999C1.50002 5.54728 2.10171 4.03294 2.70853 2.97704C3.01163 2.44964 3.31419 2.03989 3.53916 1.76388C3.62855 1.6542 3.70546 1.56592 3.765 1.50003L15.2213 1.5C15.2838 1.57526 15.3648 1.67581 15.4588 1.79949C15.6913 2.10528 16.0019 2.5503 16.3108 3.10249C16.9317 4.21248 17.5276 5.72354 17.5002 7.39179Z" fill="#5397F0" stroke="white"/>
</g>
</g>
</g>
</svg>
