<svg width="20" height="20" viewBox="0 0 20 20" fill="none" xmlns="http://www.w3.org/2000/svg">
<g id="usa_h_UT_01">
<g id="_Elements / _usa_h_base">
<g id="stretchable-items">
<path id="UT-stretchable" d="M8.00795 2.20404L8.18619 2.2012L8.32244 2.08624C8.74828 1.72693 9.37369 1.5 10 1.5C10.6263 1.5 11.2517 1.72693 11.6776 2.08624L11.8138 2.2012L11.9921 2.20404C12.8993 2.21846 13.6374 2.71819 14.066 3.48513L14.1755 3.6811L14.3947 3.72947C15.3712 3.94493 16.1345 4.73408 16.3126 5.72422L16.3546 5.95781L16.5621 6.07295C17.4672 6.57514 17.9751 7.62239 17.8192 8.6443L17.7854 8.8657L17.9281 9.03832C18.4648 9.68747 18.4456 10.6764 18.0407 11.6179L17.9466 11.8367L18.0572 12.0476C18.5869 13.0579 18.558 13.9312 18.3344 14.6798L17.7244 15.0828L16.3363 16H18H18.5V18.5H10H1.5V16H2H3.66375L2.27563 15.0828L1.66561 14.6798C1.44197 13.9312 1.41305 13.0579 1.94281 12.0476L2.05343 11.8367L1.95932 11.6179C1.55438 10.6764 1.5352 9.68747 2.07188 9.03832L2.21459 8.8657L2.1808 8.6443C2.02486 7.62239 2.53281 6.57514 3.4379 6.07295L3.64542 5.95781L3.68742 5.72422C3.86545 4.73408 4.62881 3.94493 5.60529 3.72947L5.82451 3.6811L5.93402 3.48513C6.36264 2.71819 7.10075 2.21846 8.00795 2.20404Z" fill="white" stroke="#888B8F"/>
</g>
<g id="non-stretchable-items">
<path id="utha-non-stretchable" d="M9.99987 14.5C8.5 14.5 8.5 15.75 8.5 17H11.5001C11.5001 15.75 11.4997 14.5 9.99987 14.5Z" fill="#888B8F"/>
</g>
</g>
</g>
</svg>
