<svg width="19" height="18" viewBox="0 0 19 18" fill="none" xmlns="http://www.w3.org/2000/svg">
<g id="usa_a_AK_01">
<g id="_Elements / _usa_a_base">
<g id="stretchable-items">
<rect id="background-stroke" x="1.5" y="1.5" width="16" height="15" fill="white" stroke="#888B8F"/>
</g>
<g id="non-stretchable-items">
<g id="AK">
<path id="star" d="M13.4375 4.03534L12.8968 2.42578L12.3561 4.03534H10.6064L12.022 5.0301L11.4813 6.63965L12.8968 5.64489L14.3124 6.63965L13.7717 5.0301L15.1872 4.03534H13.4375Z" fill="#888B8F"/>
<path id="AK_2" d="M5.99268 5.68008H4.90768L4.71268 6.45508H3.94768L5.01268 2.99508H5.90768L6.96768 6.45508H6.18768L5.99268 5.68008ZM5.85268 5.13508L5.44768 3.54008L5.04768 5.13508H5.85268ZM8.02236 6.45508H7.28736V2.99508H8.02236V6.45508ZM8.83236 4.55508L10.0774 6.45508H9.21736L8.05236 4.61008L9.20236 2.99508H9.98736L8.83236 4.55508Z" fill="#888B8F"/>
</g>
</g>
</g>
</g>
</svg>
