<svg width="19" height="19" viewBox="0 0 19 19" fill="none" xmlns="http://www.w3.org/2000/svg">
<g id="usa_d_KS_01">
<g id="_Elements / _usa_d_base">
<g id="stretchable-items">
<path id="KS" d="M16.8627 7.72372L16.7114 8.05313L16.9774 8.29936C17.6807 8.95034 17.6735 10.0533 16.9777 10.6977L16.7117 10.944L16.8631 11.2733C17.2776 12.175 16.8101 13.1541 15.9371 13.4783L15.5984 13.6041L15.6115 13.9652C15.6482 14.9762 14.8511 15.6662 13.921 15.633L13.5611 15.6202L13.4349 15.9575C13.0822 16.9003 12.1141 17.2423 11.2518 16.8501L10.9248 16.7014L10.6795 16.9639C10.0079 17.6826 8.99172 17.6746 8.32754 16.9642L8.08217 16.7017L7.75516 16.8506C6.88442 17.2469 5.92049 16.8897 5.57182 15.9585L5.44552 15.6213L5.08561 15.6342C4.14793 15.6679 3.35844 14.9646 3.39472 13.9669L3.40786 13.6057L3.06895 13.48C2.18823 13.1533 1.73339 12.1667 2.14258 11.2753L2.29377 10.9459L2.02781 10.6997C1.32216 10.0466 1.32909 8.94796 2.02735 8.30131L2.29332 8.055L2.14191 7.72563C1.72739 6.82386 2.19478 5.84533 3.06792 5.52118L3.40679 5.39538L3.39357 5.03415C3.35657 4.0234 4.15398 3.33325 5.08401 3.36644L5.44392 3.37928L5.57013 3.04197C5.92295 2.09902 6.89072 1.75704 7.75295 2.14923L8.08016 2.29806L8.32546 2.03529C8.9968 1.31615 10.0137 1.32414 10.6776 2.03498L10.923 2.29769L11.2502 2.14877C12.1208 1.75249 13.0846 2.1098 13.4332 3.04095L13.5595 3.37822L13.9194 3.36529C14.8574 3.33159 15.6463 4.03457 15.6103 5.03271L15.5973 5.39378L15.9361 5.51948C16.8115 5.84433 17.2791 6.81719 16.8627 7.72372Z" fill="#FFF9BA" stroke="#888B8F"/>
</g>
</g>
</g>
</svg>
