<svg width="21" height="21" viewBox="0 0 21 21" fill="none" xmlns="http://www.w3.org/2000/svg">
<g id="usa_WA_01">
<g id="_Elements / _usa_WA_base">
<g id="stretchable-items">
<path id="WA" d="M18.8132 9.59774L18.8147 9.59955L16.8872 14.9318C16.827 15.0695 16.8256 15.2028 16.8339 15.2928C16.8429 15.3891 16.8671 15.4779 16.8928 15.5503C16.9423 15.6898 17.02 15.8321 17.1053 15.9359L17.3995 16.2934L17.7785 16.0275L18.3499 15.6267L18.614 16.0707C18.5521 16.2465 18.4978 16.4276 18.4476 16.5946C18.4207 16.6841 18.395 16.7696 18.3701 16.848C18.2685 17.1674 18.165 17.4254 18.015 17.6314L17.8574 17.8477L17.9501 18.0988L18.2826 19H4.56017C4.61794 18.7312 4.71587 18.4912 4.85355 18.3536C5.10138 18.1057 5.40697 17.7913 5.61914 17.4317C5.83772 17.0612 5.98394 16.5969 5.8403 16.0764L5.81729 15.993L5.7676 15.9222C5.57289 15.6447 5.29702 15.4805 5.03281 15.3753C4.77044 15.2708 4.48173 15.21 4.22065 15.1633C4.11451 15.1444 4.01599 15.1281 3.9217 15.1126C3.76516 15.0868 3.62031 15.0629 3.47173 15.0317C3.24119 14.9832 3.07312 14.9296 2.95649 14.8643C2.85443 14.8071 2.76754 14.7055 2.70075 14.5197C2.63145 14.327 2.59589 14.0746 2.58632 13.7721C2.57684 13.4722 2.5933 13.1553 2.61141 12.8376C2.61251 12.8183 2.61362 12.7988 2.61474 12.7793C2.63123 12.4922 2.64841 12.193 2.63777 11.9434L2.62018 11.5307L2.2115 11.4701C1.95499 11.4321 1.76317 11.3838 1.62382 11.2981C1.58973 11.2771 1.55408 11.2484 1.53 11.2165C1.51031 11.1905 1.5 11.1657 1.5 11.1294C1.5 10.7632 1.66581 10.4552 1.94481 10.069C1.98902 10.0078 2.03774 9.94296 2.08908 9.87458C2.33225 9.55075 2.63412 9.14874 2.79329 8.6903C2.91768 8.33202 2.90678 7.95961 2.89875 7.68539C2.89818 7.66603 2.89763 7.64715 2.89714 7.6288C2.8888 7.31669 2.89304 7.10488 2.96762 6.91361C3.14682 6.454 3.37188 5.90232 3.66211 5.41272C3.95824 4.91319 4.28369 4.54573 4.63119 4.3787C4.80398 4.29564 4.95174 4.19194 5.06658 4.05439C5.1837 3.9141 5.24127 3.76877 5.27529 3.64476C5.29406 3.57633 5.3131 3.47757 5.32551 3.41321C5.32991 3.39041 5.33347 3.37192 5.33589 3.36064C5.35107 3.28999 5.36818 3.2315 5.39705 3.17115C5.45065 3.05909 5.63241 2.8882 6.03773 2.7079C6.4201 2.5378 6.91245 2.3981 7.44074 2.28889C8.49889 2.07016 9.60975 1.99187 10.0667 2.00064L10.067 2.00065C11.2074 2.02194 12.2927 2.06085 13.3293 2.34339C14.4402 2.64617 15.5122 3.2298 16.2412 4.36958C16.9183 5.42822 17.2608 5.9878 17.449 6.37825C17.6214 6.73579 17.6844 7.11173 17.7642 7.58777C17.7675 7.60735 17.7708 7.62709 17.7741 7.64701C17.9213 8.523 18.4133 9.11584 18.8132 9.59774Z" fill="white" stroke="#888B8F"/>
</g>
</g>
</g>
</svg>
