<svg width="19" height="21" viewBox="0 0 19 21" fill="none" xmlns="http://www.w3.org/2000/svg">
<g id="usa_MD_01">
<g id="_Elements / _usa_MD_base">
<g id="stretchable-items">
<rect id="background" x="1.5" y="2" width="16" height="17" fill="white" stroke="#888B8F"/>
<rect id="rectangle" x="1.5" y="2" width="16" height="7" fill="white" stroke="#888B8F"/>
</g>
<g id="non-stretchable-items">
<path id="MD" d="M9.40495 7.5H8.56975L8.48275 5.8702C8.45568 5.383 8.44215 4.96927 8.44215 4.629C8.44215 4.44727 8.44408 4.3158 8.44795 4.2346L7.76935 7.0708H6.96315L6.23815 4.2288C6.25361 4.46467 6.26135 4.72953 6.26135 5.0234C6.26135 5.3366 6.25361 5.62467 6.23815 5.8876L6.15115 7.5H5.32175L5.63495 3.4864H6.71955L7.38075 6.253L8.00135 3.4864H9.09755L9.40495 7.5ZM11.6112 3.4864C12.2376 3.4864 12.7383 3.62947 13.1134 3.9156C13.4923 4.19787 13.6818 4.71793 13.6818 5.4758C13.6818 6.2182 13.4962 6.74213 13.125 7.0476C12.7577 7.3492 12.2859 7.5 11.7098 7.5H10.5614V3.4864H11.6112ZM11.414 4.1128V6.8736H11.762C12.0907 6.8736 12.3439 6.77307 12.5218 6.572C12.7035 6.36707 12.7944 6.00167 12.7944 5.4758C12.7944 5.11233 12.748 4.83007 12.6552 4.629C12.5663 4.42793 12.4464 4.2926 12.2956 4.223C12.1448 4.14953 11.9611 4.1128 11.7446 4.1128H11.414Z" fill="#888B8F"/>
</g>
</g>
</g>
</svg>
