<svg width="22" height="21" viewBox="0 0 22 21" fill="none" xmlns="http://www.w3.org/2000/svg">
<g id="usa_NE_01">
<g id="_Elements / _usa_NE_base">
<g id="stretchable-items">
<path id="NE-stretchable" d="M20.4304 2L18.2244 18.8758C18.1993 18.8698 18.1733 18.8636 18.1467 18.8573C17.7436 18.7617 17.1646 18.6347 16.4557 18.5078C15.0396 18.2544 13.0971 18 11 18C8.90294 18 6.96036 18.2544 5.54428 18.5078C4.83539 18.6347 4.25636 18.7617 3.85335 18.8573C3.82666 18.8636 3.80074 18.8698 3.7756 18.8758L1.56961 2H20.4304Z" fill="white" stroke="#888B8F"/>
</g>
<g id="non-stretchable-items">
<path id="NE-non-stretchable" fill-rule="evenodd" clip-rule="evenodd" d="M7.2943 17.9179L7.54888 17.1518L7.49536 16.8599L6.56646 16.1626L6.69961 15.7598L6.53078 15.5464L6.51294 15.1409L6.83447 15.4976L7.85257 15.2057L8.01333 14.6219L8.24545 14.93H8.90635L9.03144 14.4436L9.42495 15.2379L9.70974 15.2826C9.48084 14.7258 9.27901 14.2231 9.33857 13.5705C9.39814 12.918 10.0029 12.2337 10.9942 12.1398C11.9854 12.0459 12.8391 12.7047 12.9226 13.5705C12.9791 14.1567 12.678 14.93 12.3898 15.3029C12.363 15.4678 12.3898 15.7139 12.6075 15.8101C12.8986 15.6157 13.1889 15.3065 13.3826 14.9756C13.6103 14.5865 13.6355 13.9044 13.5819 13.643C14.1365 14.5967 13.6052 15.4678 13.0356 15.94C13.1689 15.98 13.3639 16.042 13.5817 16.1136C13.9546 15.9776 14.1943 15.7459 14.3855 15.3761C14.5933 14.9746 14.5089 14.5469 14.4451 14.2373C14.5483 14.3655 14.7201 14.9051 14.6794 15.3029C14.6469 15.6216 14.4802 15.9795 14.1261 16.2984C14.2176 16.3306 14.3056 16.3621 14.3893 16.3929C14.6422 16.3087 14.9879 15.9943 15.0821 15.7834C15.1824 15.5584 15.1356 14.926 15.1356 14.926L15.4869 15.2663C15.4869 15.2663 15.5061 15.77 15.4229 16.0763C15.3247 16.4379 14.9751 16.9248 14.9751 16.9248L14.8469 18.1678L7.2943 17.9179ZM8.0813 15.9686L8.40388 16.7536L8.70829 17.6166L9.70136 17.4841L9.40518 16.8917L8.70829 16.6652L8.0813 15.9686ZM10.3808 16.1325L9.61425 15.9688L9.17869 16.3339H9.61425L10.3808 17.4841L10.7507 17.2681L10.675 16.5413L10.3808 16.1325ZM11.0885 15.0835C11.5987 15.0835 12.0123 14.6357 12.0123 14.0832C12.0123 13.5307 11.5987 13.0829 11.0885 13.0829C10.5784 13.0829 10.1648 13.5307 10.1648 14.0832C10.1648 14.6357 10.5784 15.0835 11.0885 15.0835ZM13.0949 17.0177C13.095 16.7306 12.8539 16.4981 12.6311 16.4558C12.3204 16.3968 12.1446 16.5192 12.0755 16.7994C12.0011 17.1009 12.2748 17.4014 12.6308 17.4784C12.9395 17.5452 13.0948 17.3048 13.0949 17.0177ZM14.0652 16.8299C14.2444 16.8639 14.4382 17.0509 14.4382 17.2817C14.4381 17.5125 14.3133 17.7059 14.065 17.6522C13.7788 17.5903 13.5587 17.3486 13.6185 17.1062C13.6741 16.8809 13.8155 16.7825 14.0652 16.8299Z" fill="#888B8F"/>
</g>
</g>
</g>
</svg>
