<svg width="19" height="21" viewBox="0 0 19 21" fill="none" xmlns="http://www.w3.org/2000/svg">
<g id="usa_MN_01">
<g id="_Elements / _usa_MN_base">
<g id="stretchable-items">
<rect id="background" x="1.5" y="2" width="16" height="17" fill="#5397F0" stroke="#FFD28A"/>
<rect id="rectangle" x="1" y="1.5" width="17" height="6" fill="#FFD28A"/>
</g>
<g id="non-stretchable-items">
<path id="MN" d="M9.58987 6.5H8.86987L8.79487 5.095C8.77154 4.675 8.75987 4.31833 8.75987 4.025C8.75987 3.86833 8.76154 3.755 8.76487 3.685L8.17987 6.13H7.48487L6.85987 3.68C6.87321 3.88333 6.87987 4.11167 6.87987 4.365C6.87987 4.635 6.87321 4.88333 6.85987 5.11L6.78487 6.5H6.06987L6.33987 3.04H7.27487L7.84487 5.425L8.37987 3.04H9.32487L9.58987 6.5ZM12.7658 6.5H11.8208L10.7208 3.755C10.7508 3.99167 10.7741 4.215 10.7908 4.425C10.8108 4.63167 10.8208 4.875 10.8208 5.155V6.5H10.1558V3.04H11.0808L12.2008 5.79C12.1341 5.34333 12.1008 4.93333 12.1008 4.56V3.04H12.7658V6.5Z" fill="#888B8F"/>
</g>
</g>
</g>
</svg>
