<svg width="1335" height="1250" viewBox="0 0 1335 1250" fill="none" xmlns="http://www.w3.org/2000/svg">
<path fill-rule="evenodd" clip-rule="evenodd" d="M869.039 779.287V779.276L850.929 638.957H1070.49L1088.6 779.287H869.039Z" fill="#ECF6FF"/>
<path fill-rule="evenodd" clip-rule="evenodd" d="M649.898 784.651C649.898 817.124 623.574 843.448 591.101 843.448C558.629 843.448 532.305 817.124 532.305 784.651C532.305 752.178 558.629 725.854 591.101 725.854C623.574 725.854 649.898 752.178 649.898 784.651" fill="#B6D4FF"/>
<path fill-rule="evenodd" clip-rule="evenodd" d="M1107.37 784.651C1107.37 817.124 1081.05 843.448 1048.57 843.448C1016.1 843.448 989.776 817.124 989.776 784.651C989.776 752.178 1016.1 725.854 1048.57 725.854C1081.05 725.854 1107.37 752.178 1107.37 784.651" fill="#B6D4FF"/>
<path fill-rule="evenodd" clip-rule="evenodd" d="M901.65 779.292H257.38C218.3 779.292 185.291 750.271 180.291 711.512L171.001 639.522L295.371 638.962L295.36 638.912L261.581 409.502H767.98L850.281 637.182L850.93 638.962L901.65 779.292Z" fill="#CCE3FF"/>
<path fill-rule="evenodd" clip-rule="evenodd" d="M901.65 779.292H749.951L735.701 739.882L729.77 723.462L699.23 638.962L616.291 409.502H767.98L850.281 637.182L850.93 638.962L901.65 779.292Z" fill="white"/>
<path fill-rule="evenodd" clip-rule="evenodd" d="M649.59 638.912H490.83L457.05 409.502H566.66L599.95 501.601L611.42 533.321L638.59 608.481L641.44 616.351L649.59 638.912Z" fill="white"/>
<path fill-rule="evenodd" clip-rule="evenodd" d="M944.01 779.282H692.01V638.962H843.733C890.721 638.962 930.403 673.851 936.417 720.454L944.01 779.282Z" fill="#CCE3FF"/>
<path fill-rule="evenodd" clip-rule="evenodd" d="M984.7 638.962V779.282H944.01L925.899 638.962H984.7Z" fill="#CCE3FF"/>
<path fill-rule="evenodd" clip-rule="evenodd" d="M944.009 779.288V779.277L925.899 638.958H1077.59C1116.4 638.958 1149.18 667.774 1154.15 706.266L1163.57 779.288H944.009Z" fill="#ECF6FF"/>
<path fill-rule="evenodd" clip-rule="evenodd" d="M292.055 780.489C292.055 741.384 325.306 709.683 366.324 709.683C407.341 709.683 440.592 741.384 440.592 780.489H292.055Z" fill="white"/>
<path fill-rule="evenodd" clip-rule="evenodd" d="M749.526 780.489C749.526 741.384 782.777 709.683 823.795 709.683C864.812 709.683 898.063 741.384 898.063 780.489H749.526Z" fill="white"/>
<path fill-rule="evenodd" clip-rule="evenodd" d="M882.592 784.651C882.592 817.124 856.268 843.448 823.795 843.448C791.323 843.448 764.999 817.124 764.999 784.651C764.999 752.178 791.323 725.854 823.795 725.854C856.268 725.854 882.592 752.178 882.592 784.651" fill="#B6D4FF"/>
<path fill-rule="evenodd" clip-rule="evenodd" d="M1138.03 708.389C1138.03 722.388 1128.79 733.737 1117.38 733.737C1105.97 733.737 1096.72 722.388 1096.72 708.389C1096.72 694.389 1105.97 683.04 1117.38 683.04C1128.79 683.04 1138.03 694.389 1138.03 708.389" fill="white"/>
<path fill-rule="evenodd" clip-rule="evenodd" d="M1007.56 708.389C1007.56 722.388 998.316 733.737 986.908 733.737C975.5 733.737 966.253 722.388 966.253 708.389C966.253 694.389 975.5 683.04 986.908 683.04C998.316 683.04 1007.56 694.389 1007.56 708.389" fill="white"/>
<path fill-rule="evenodd" clip-rule="evenodd" d="M425.119 784.651C425.119 817.124 398.796 843.448 366.323 843.448C333.85 843.448 307.526 817.124 307.526 784.651C307.526 752.178 333.85 725.854 366.323 725.854C398.796 725.854 425.119 752.178 425.119 784.651" fill="#B6D4FF"/>
<path fill-rule="evenodd" clip-rule="evenodd" d="M1033.66 719.341H1076.65V697.437H1033.66V719.341Z" fill="#CCE3FF"/>
<path fill-rule="evenodd" clip-rule="evenodd" d="M518.121 638.912V638.932H406.291L372.511 409.502H484.331L518.121 638.912Z" fill="white"/>
<path fill-rule="evenodd" clip-rule="evenodd" d="M364.31 638.912H252.48L174.375 638.961L265.914 409.5L330.52 409.502L364.31 638.912Z" fill="white"/>
<path d="M850.927 638.958L850.277 637.179L767.979 409.502" stroke="#CCE3FF" stroke-width="7"/>
<path d="M176.048 678.648H773.795" stroke="white" stroke-width="3"/>
<path d="M174.375 638.961L265.914 409.5H766.628" stroke="#CCE3FF" stroke-width="7"/>
<path fill-rule="evenodd" clip-rule="evenodd" d="M661.453 626.83H593.145C575.473 626.83 561.145 612.503 561.145 594.83C561.145 577.157 575.473 562.83 593.145 562.83H661.453V626.83Z" fill="#B6D4FF"/>
</svg>
