<svg width="1335" height="1250" viewBox="0 0 1335 1250" fill="none" xmlns="http://www.w3.org/2000/svg">
<path fill-rule="evenodd" clip-rule="evenodd" d="M579.9 839.033C579.9 871.505 553.576 897.829 521.103 897.829C488.631 897.829 462.307 871.505 462.307 839.033C462.307 806.561 488.631 780.237 521.103 780.237C553.576 780.237 579.9 806.561 579.9 839.033" fill="#B6D4FF"/>
<path fill-rule="evenodd" clip-rule="evenodd" d="M1057.37 839.033C1057.37 871.505 1031.05 897.829 998.575 897.829C966.102 897.829 939.778 871.505 939.778 839.033C939.778 806.561 966.102 780.237 998.575 780.237C1031.05 780.237 1057.37 806.561 1057.37 839.033" fill="#B6D4FF"/>
<path fill-rule="evenodd" clip-rule="evenodd" d="M901.65 833.67H189.041L171.001 693.9L295.371 693.34L245.621 355.5H728.81L850.28 691.56L850.93 693.34L901.65 833.67Z" fill="#CCE3FF"/>
<path fill-rule="evenodd" clip-rule="evenodd" d="M901.649 833.67H749.949L735.699 794.26L729.769 777.84L699.229 693.34L577.109 355.5H728.809L850.279 691.56L850.929 693.34L901.649 833.67Z" fill="white"/>
<path fill-rule="evenodd" clip-rule="evenodd" d="M649.59 693.29H490.83L441.09 355.5H527.489L599.949 555.98L611.42 587.7L638.59 662.86L641.44 670.73L649.59 693.29Z" fill="white"/>
<path fill-rule="evenodd" clip-rule="evenodd" d="M692.008 833.668H984.704V693.344H692.008V833.668Z" fill="#CCE3FF"/>
<path fill-rule="evenodd" clip-rule="evenodd" d="M1163.57 833.669H944.015L925.902 693.343H1145.46L1163.57 833.669Z" fill="#ECF6FF"/>
<path fill-rule="evenodd" clip-rule="evenodd" d="M222.057 834.87C222.057 795.765 255.308 764.064 296.326 764.064C337.343 764.064 370.594 795.765 370.594 834.87H222.057Z" fill="white"/>
<path fill-rule="evenodd" clip-rule="evenodd" d="M699.528 834.87C699.528 795.765 732.779 764.064 773.797 764.064C814.814 764.064 848.065 795.765 848.065 834.87H699.528Z" fill="white"/>
<path fill-rule="evenodd" clip-rule="evenodd" d="M832.594 839.033C832.594 871.505 806.27 897.829 773.797 897.829C741.324 897.829 715.001 871.505 715.001 839.033C715.001 806.561 741.324 780.237 773.797 780.237C806.27 780.237 832.594 806.561 832.594 839.033" fill="#B6D4FF"/>
<path fill-rule="evenodd" clip-rule="evenodd" d="M1138.03 762.771C1138.03 776.77 1128.79 788.119 1117.38 788.119C1105.97 788.119 1096.72 776.77 1096.72 762.771C1096.72 748.771 1105.97 737.423 1117.38 737.423C1128.79 737.423 1138.03 748.771 1138.03 762.771" fill="white"/>
<path fill-rule="evenodd" clip-rule="evenodd" d="M1007.56 762.771C1007.56 776.77 998.317 788.119 986.91 788.119C975.502 788.119 966.255 776.77 966.255 762.771C966.255 748.771 975.502 737.423 986.91 737.423C998.317 737.423 1007.56 748.771 1007.56 762.771" fill="white"/>
<path fill-rule="evenodd" clip-rule="evenodd" d="M638.594 670.73H606.793C597.9 670.73 590.691 663.521 590.691 654.627V570.554C590.691 561.661 597.9 554.451 606.793 554.451H638.594V670.73Z" fill="#B6D4FF"/>
<path fill-rule="evenodd" clip-rule="evenodd" d="M638.594 670.73H658.656V620.779H638.594V670.73Z" fill="#B6D4FF"/>
<path fill-rule="evenodd" clip-rule="evenodd" d="M355.121 839.033C355.121 871.505 328.798 897.829 296.325 897.829C263.852 897.829 237.528 871.505 237.528 839.033C237.528 806.561 263.852 780.237 296.325 780.237C328.798 780.237 355.121 806.561 355.121 839.033" fill="#B6D4FF"/>
<path d="M611.418 670.73V554.451" stroke="white" stroke-width="3"/>
<path fill-rule="evenodd" clip-rule="evenodd" d="M1033.66 773.723H1076.65V751.818H1033.66V773.723Z" fill="#CCE3FF"/>
<path fill-rule="evenodd" clip-rule="evenodd" d="M452.881 693.29H341.051L291.311 355.5H403.131L452.881 693.29Z" fill="white"/>
<path d="M850.93 693.34L850.28 691.56L726.81 355.5H249.24" stroke="#CCE3FF" stroke-width="7"/>
<path d="M176.05 733.03H773.797" stroke="white" stroke-width="3"/>
</svg>
