<svg width="390" height="341" viewBox="0 0 390 341" fill="none" xmlns="http://www.w3.org/2000/svg">
<path fill-rule="evenodd" clip-rule="evenodd" d="M238.997 295.945C238.997 295.945 223.802 265.966 231.135 249.196C233.699 243.334 247.168 241.687 247.168 241.687C247.168 241.687 268.663 265.749 270.587 269.424C272.51 273.097 276.068 291.289 275.899 294.884C275.729 298.477 264.644 314.628 264.644 314.628C257.766 312.989 262.258 304.648 262.258 304.648C262.258 304.648 256.097 309.714 253.536 309.629C229.415 308.83 230.707 296.953 231.278 295.466C232.559 292.126 238.997 295.945 238.997 295.945ZM65.0117 272.941C62.6757 266.229 60.0707 260.691 60.0707 260.691L25.3097 262.334C22.098 271.234 21.554 276.358 20.8501 282.988C20.7359 284.064 20.6175 285.179 20.4827 286.357C19.6847 293.338 19.6297 300.359 22.3437 309.701C24.0887 315.704 25.9507 320.807 26.9207 320.592C29.3637 320.051 29.4557 316.992 29.4557 316.992L28.3047 311.307L27.7827 305.757C27.7827 305.757 36.4607 330.33 37.1957 330.194C39.7957 329.715 40.2097 325.409 40.2097 325.409C40.2097 325.409 42.9277 333.89 44.2967 333.583C47.7787 332.8 47.4487 328.873 47.4487 328.873C47.4487 328.873 48.5477 329.811 49.3917 329.574C52.5461 328.686 52.4506 323.236 52.3947 320.045C52.3902 319.791 52.386 319.551 52.3837 319.328C52.3837 319.328 50.9877 309.282 51.2737 306.185C52.7253 290.411 55.23 286.658 56.6031 284.601C56.733 284.406 56.8529 284.226 56.9607 284.053C59.1156 285.484 59.9136 287.933 60.7607 290.534C61.3768 292.425 62.0189 294.396 63.2277 296.112C66.9047 301.337 77.1637 306.272 71.4287 294.304C68.2435 287.658 67.4519 283.569 66.7171 279.773C66.2862 277.547 65.8748 275.422 65.0117 272.941Z" fill="#E576C6"/>
<mask id="mask0" mask-type="alpha" maskUnits="userSpaceOnUse" x="20" y="241" width="256" height="93">
<path fill-rule="evenodd" clip-rule="evenodd" d="M238.997 295.945C238.997 295.945 223.802 265.966 231.135 249.196C233.699 243.334 247.168 241.687 247.168 241.687C247.168 241.687 268.663 265.749 270.587 269.424C272.51 273.097 276.068 291.289 275.899 294.884C275.729 298.477 264.644 314.628 264.644 314.628C257.766 312.989 262.258 304.648 262.258 304.648C262.258 304.648 256.097 309.714 253.536 309.629C229.415 308.83 230.707 296.953 231.278 295.466C232.559 292.126 238.997 295.945 238.997 295.945ZM65.0117 272.941C62.6757 266.229 60.0707 260.691 60.0707 260.691L25.3097 262.334C22.098 271.234 21.554 276.358 20.8501 282.988C20.7359 284.064 20.6175 285.179 20.4827 286.357C19.6847 293.338 19.6297 300.359 22.3437 309.701C24.0887 315.704 25.9507 320.807 26.9207 320.592C29.3637 320.051 29.4557 316.992 29.4557 316.992L28.3047 311.307L27.7827 305.757C27.7827 305.757 36.4607 330.33 37.1957 330.194C39.7957 329.715 40.2097 325.409 40.2097 325.409C40.2097 325.409 42.9277 333.89 44.2967 333.583C47.7787 332.8 47.4487 328.873 47.4487 328.873C47.4487 328.873 48.5477 329.811 49.3917 329.574C52.5461 328.686 52.4506 323.236 52.3947 320.045C52.3902 319.791 52.386 319.551 52.3837 319.328C52.3837 319.328 50.9877 309.282 51.2737 306.185C52.7253 290.411 55.23 286.658 56.6031 284.601C56.733 284.406 56.8529 284.226 56.9607 284.053C59.1156 285.484 59.9136 287.933 60.7607 290.534C61.3768 292.425 62.0189 294.396 63.2277 296.112C66.9047 301.337 77.1637 306.272 71.4287 294.304C68.2435 287.658 67.4519 283.569 66.7171 279.773C66.2862 277.547 65.8748 275.422 65.0117 272.941Z" fill="white"/>
</mask>
<g mask="url(#mask0)">
<rect x="20" y="253" width="256" height="81" fill="#E576C6"/>
</g>
<path opacity="0.147205" d="M243.923 263.352C243.923 263.352 247.308 275.786 258.924 279.661C262.986 281.015 261.971 297.007 271.927 295.094" stroke="black" stroke-width="3"/>
<path fill-rule="evenodd" clip-rule="evenodd" d="M268.969 250.144L225.449 274.364L214.749 253.644L215.019 225.984H151.509L144.469 225.974H82.0287L81.0987 191.915L69.7687 260.234L20.0287 262.584C20.0287 262.584 19.0487 191.434 28.5187 150.274C34.5487 124.054 64.0087 75.3335 91.9087 58.5835C96.3687 55.9035 102.289 54.0235 108.899 52.7235C111.309 52.2435 113.809 51.8435 116.359 51.5135C141.599 48.2435 172.149 51.5235 172.149 51.5235C174.569 52.4035 176.839 53.2735 178.959 54.1535C180.249 54.6835 181.479 55.2135 182.659 55.7435C184.279 56.4735 185.799 57.1935 187.229 57.9235L187.309 57.9635C207.549 68.2335 210.439 78.7235 216.819 91.9145C224.999 108.794 233.469 160.644 233.469 160.644L268.969 250.144Z" fill="#2F2F3D"/>
<path fill-rule="evenodd" clip-rule="evenodd" d="M176.405 53.822L180.88 54.0009L177.52 33.6599L170.35 33.3199L159.53 49.9099L148.89 32.2899L121.97 31.0009L114.33 51.3409L129.674 51.9542L162.15 96.9617L176.405 53.822Z" fill="#FCBDA4"/>
<path fill-rule="evenodd" clip-rule="evenodd" d="M141.835 37.2778L134.092 56.3798L154.876 49.2568L141.835 37.2778ZM175.323 39.8747L162.852 50.1347L179.54 57.6797L175.323 39.8747Z" fill="#EA847A"/>
<path opacity="0.201218" d="M80.1908 200.045L86.7588 152.683L107.1 121.05" stroke="black" stroke-width="5"/>
<path opacity="0.202962" d="M215.019 225.98L219.366 150.819" stroke="black" stroke-width="5"/>
</svg>
