<svg width="390" height="341" viewBox="0 0 390 341" fill="none" xmlns="http://www.w3.org/2000/svg">
<path fill-rule="evenodd" clip-rule="evenodd" d="M232.13 248.05C234.694 242.188 248.163 240.541 248.163 240.541C248.163 240.541 269.658 264.603 271.582 268.277C273.505 271.951 277.063 290.143 276.894 293.737C276.724 297.331 265.639 313.482 265.639 313.482C258.761 311.843 263.253 303.502 263.253 303.502C263.253 303.502 257.092 308.568 254.531 308.483C230.41 307.683 231.702 295.807 232.273 294.32C233.554 290.98 239.992 294.799 239.992 294.799C239.992 294.799 224.797 264.82 232.13 248.05ZM61.6001 259.523C61.6001 259.523 63.6721 263.083 66.0071 269.795C68.3431 276.507 67.3711 280.614 72.4241 291.158C78.1591 303.126 67.9011 298.19 64.2231 292.966C61.3521 288.889 61.6781 283.377 57.9561 280.908C56.7091 282.91 53.8591 285.772 52.2691 303.04C51.9841 306.136 53.3801 316.182 53.3801 316.182C53.4101 319.192 53.7931 325.469 50.3881 326.427C49.5431 326.666 48.4441 325.727 48.4441 325.727C48.4441 325.727 48.7741 329.655 45.2921 330.437C43.9241 330.744 41.2051 322.263 41.2051 322.263C41.2051 322.263 40.7911 326.57 38.1911 327.048C37.4561 327.184 28.7791 302.612 28.7791 302.612L29.3011 308.162L30.4521 313.846C30.4521 313.846 30.3601 316.905 27.9161 317.447C26.9461 317.662 25.0841 312.558 23.3401 306.555C20.6251 297.212 20.6801 290.193 21.4781 283.211C22.4431 274.775 22.6971 271.529 26.4301 261.184L61.6001 259.523Z" fill="#E576C6"/>
<path opacity="0.150646" d="M244.918 262.205C244.918 262.205 248.303 274.639 259.919 278.513C263.981 279.868 262.966 295.86 272.922 293.947" stroke="black" stroke-width="3"/>
<path fill-rule="evenodd" clip-rule="evenodd" d="M122.12 49.83L126.597 31L146.057 32.21L159.437 48.77L168.137 33.57L174.347 33.96L176.277 51.5405C204.604 62.4063 209.546 73.0355 215.745 86.3692C216.412 87.8031 217.093 89.2682 217.82 90.7683C225.995 107.651 216.015 224.834 216.015 224.834L93.3096 219.178C93.3096 219.178 109.937 51.1023 120.828 49.9603C121.258 49.9152 121.689 49.8718 122.12 49.83Z" fill="#EFEFEF"/>
<path d="M213.524 225.034L219.279 132.359" stroke="#12173A" stroke-width="5"/>
<path fill-rule="evenodd" clip-rule="evenodd" d="M66.5056 295.482L57.7689 335.279L123.443 340.665C123.443 340.665 129.084 150.189 128.53 94.1895C128.276 68.5455 120.829 49.9695 120.829 49.9695C120.829 49.9695 91.6399 58.5595 85.0229 62.9545C69.4339 73.3085 35.5489 122.91 29.5189 149.13C20.0489 190.29 21.0289 261.439 21.0289 261.439L70.7689 259.089L85.0989 181.77L87.2849 201.562L69.2147 283.426C69.2147 283.426 70.1474 286.488 70.7689 288.049C72.8445 293.264 74.0333 296.3 73.7832 297.433C73.5506 298.487 72.5288 299.12 70.0236 297.836C69.0271 297.325 66.5056 295.482 66.5056 295.482ZM219.679 259.1L226.449 273.219L269.969 248.999L234.469 159.499C234.469 159.499 225.234 90.1782 219.669 80.9222C208.907 63.0252 176.489 51.6292 176.489 51.6292C176.489 51.6292 176.499 51.6392 176.499 51.6492C176.821 52.4786 177.081 57.281 177.663 68.0459C178.056 75.3229 178.597 85.3245 179.403 98.6652C181.187 128.166 198.109 339.9 198.109 339.9L221.519 337.129L219.679 259.1Z" fill="#CE3D29"/>
<path fill-rule="evenodd" clip-rule="evenodd" d="M98.1632 108.224L127.698 170.974C127.698 170.974 128.568 101.948 128.166 85.3406C127.883 73.6536 120.829 49.9696 120.829 49.9696L109.104 59.6836C101.661 65.8496 99.7462 76.4816 104.569 84.8576L104.724 85.1276L102.348 87.2816C96.5002 92.5826 94.8022 101.082 98.1632 108.224ZM206.273 111.931L184.741 170.379L176.49 51.6294L191.708 63.9144C198.026 69.0154 201.011 77.1894 199.465 85.1604L199.054 87.2814L199.971 88.0564C206.883 93.8984 209.401 103.44 206.273 111.931Z" fill="#3C3C42"/>
<path opacity="0.197498" d="M84.8638 183.038L87.7548 168.599L102.378 141.597" stroke="black" stroke-width="5"/>
</svg>
