<svg width="390" height="341" viewBox="0 0 390 341" fill="none" xmlns="http://www.w3.org/2000/svg">
<path fill-rule="evenodd" clip-rule="evenodd" d="M239.081 295.086C239.081 295.086 223.886 265.107 231.219 248.337C233.783 242.475 247.252 240.827 247.252 240.827C247.252 240.827 268.747 264.89 270.671 268.564C272.594 272.238 276.152 290.43 275.983 294.024C275.813 297.618 264.728 313.768 264.728 313.768C257.85 312.13 262.342 303.788 262.342 303.788C262.342 303.788 256.181 308.855 253.62 308.77C229.499 307.97 230.791 296.094 231.362 294.607C232.643 291.267 239.081 295.086 239.081 295.086ZM60.5291 261.523L56.1561 253.173L31.5121 250.414C29.7341 253.164 26.3761 259.615 24.8361 263.883C21.8524 272.149 21.5274 275.619 21.0249 280.984C20.8986 282.333 20.761 283.802 20.5671 285.498C19.7691 292.48 19.7141 299.499 22.4281 308.841C24.1731 314.845 26.0351 319.948 27.0051 319.734C29.4481 319.192 29.5401 316.132 29.5401 316.132L28.3891 310.448L27.8671 304.899C27.8671 304.899 36.5451 329.471 37.2801 329.335C39.8801 328.856 40.2941 324.55 40.2941 324.55C40.2941 324.55 43.0121 333.03 44.3811 332.723C47.8631 331.941 47.5331 328.014 47.5331 328.014C47.5331 328.014 48.6321 328.952 49.4761 328.714C52.6305 327.826 52.535 322.377 52.479 319.186C52.4746 318.931 52.4703 318.691 52.4681 318.469C52.4681 318.469 51.0731 308.423 51.3581 305.326C52.8108 289.548 55.3154 285.796 56.6881 283.74C56.8178 283.546 56.9374 283.366 57.0451 283.194C59.2 284.624 59.998 287.073 60.8451 289.674C61.4612 291.565 62.1033 293.536 63.3121 295.253C66.9891 300.477 77.2481 305.412 71.5131 293.444C68.3277 286.797 67.5362 282.709 66.8014 278.913C66.3705 276.687 65.9591 274.562 65.0961 272.081C62.7601 265.369 60.5291 261.523 60.5291 261.523Z" fill="#E576C6"/>
<path opacity="0.147531" d="M244.007 262.492C244.007 262.492 247.391 274.925 259.008 278.8C263.07 280.155 262.055 296.146 272.011 294.234" stroke="black" stroke-width="3"/>
<path fill-rule="evenodd" clip-rule="evenodd" d="M115.386 50.7951L121.112 31.0001L149.712 32.7801L159.622 49.0501L169.532 34.0101L176.662 34.4501L179.061 53.3011C180.344 53.8287 181.568 54.3563 182.743 54.8839C184.363 55.6139 185.883 56.3339 187.313 57.0639L187.393 57.1039C205.334 66.2065 209.643 75.4835 214.834 86.6601L214.834 86.6611C215.499 88.0929 216.179 89.556 216.903 91.0539C225.083 107.933 233.553 159.784 233.553 159.784L269.053 249.284L225.533 273.504L214.833 252.784L215.103 225.124H151.593L144.553 225.114H82.113L81.183 191.054L69.853 259.374L20.113 261.723C20.113 261.723 19.133 190.574 28.603 149.413C34.633 123.194 64.093 74.4729 91.993 57.7229C96.453 55.0439 102.373 53.1629 108.983 51.8639C111.059 51.4504 113.202 51.0963 115.386 50.7951ZM152.778 232.198C152.778 234.464 150.942 236.3 148.676 236.3C146.41 236.3 144.573 234.464 144.573 232.198C144.573 229.932 146.41 228.095 148.676 228.095C150.942 228.095 152.778 229.932 152.778 232.198ZM193.802 236.528C196.069 236.528 197.905 234.692 197.905 232.426C197.905 230.159 196.069 228.323 193.802 228.323C191.537 228.323 189.7 230.159 189.7 232.426C189.7 234.692 191.537 236.528 193.802 236.528Z" fill="#FCBDA4"/>
<path opacity="0.197266" d="M81.3977 198.751L90.5527 150.952L113.194 112.593" stroke="black" stroke-width="5"/>
<path opacity="0.195754" d="M213.103 225.32L217.428 155.672" stroke="black" stroke-width="5"/>
<path fill-rule="evenodd" clip-rule="evenodd" d="M143.367 36.8018L135.624 61.6028L156.408 52.3538L143.367 36.8018ZM174.253 38.7916L161.782 52.1116L178.47 61.9076L174.253 38.7916Z" fill="#EA847A"/>
<path opacity="0.198451" fill-rule="evenodd" clip-rule="evenodd" d="M64.7776 251.37C64.7776 253.579 62.9866 255.37 60.7776 255.37C58.5686 255.37 56.7776 253.579 56.7776 251.37C56.7776 249.161 58.5686 247.37 60.7776 247.37C62.9866 247.37 64.7776 249.161 64.7776 251.37" fill="black"/>
<path opacity="0.199033" fill-rule="evenodd" clip-rule="evenodd" d="M262.009 246.138C262.009 248.348 260.218 250.138 258.009 250.138C255.8 250.138 254.009 248.348 254.009 246.138C254.009 243.929 255.8 242.138 258.009 242.138C260.218 242.138 262.009 243.929 262.009 246.138" fill="black"/>
<path opacity="0.202567" d="M20.0887 240.138L73.2187 237.78" stroke="black" stroke-width="4"/>
<path opacity="0.198684" d="M215.103 253.728L260.842 228.575" stroke="black" stroke-width="4"/>
<path opacity="0.197661" fill-rule="evenodd" clip-rule="evenodd" d="M151.593 225.124L144.553 225.114C144.143 139.844 130.173 82.9538 108.983 51.8638V51.8538L116.123 50.1938C116.233 50.3438 116.343 50.4938 116.443 50.6538C138.083 81.0538 152.403 137.654 151.593 225.124" fill="black"/>
<path opacity="0.196777" fill-rule="evenodd" clip-rule="evenodd" d="M199.053 225.124H191.883C201.943 143.104 195.583 86.3538 179.043 53.2938C179.013 53.2138 178.973 53.1438 178.933 53.0638L182.743 54.8838L187.313 57.0638L187.393 57.1038C204.673 89.3338 210.503 141.314 199.053 225.124" fill="black"/>
</svg>
