<svg width="390" height="341" viewBox="0 0 390 341" fill="none" xmlns="http://www.w3.org/2000/svg">
<path fill-rule="evenodd" clip-rule="evenodd" d="M238.993 295.086C238.993 295.086 223.797 265.106 231.131 248.337C233.694 242.474 247.164 240.828 247.164 240.828C247.164 240.828 268.659 264.89 270.582 268.564C272.506 272.238 276.064 290.43 275.895 294.024C275.725 297.618 264.64 313.768 264.64 313.768C257.762 312.129 262.254 303.789 262.254 303.789C262.254 303.789 256.093 308.855 253.531 308.77C229.41 307.97 230.702 296.093 231.274 294.607C232.555 291.266 238.993 295.086 238.993 295.086ZM60.4404 261.523L56.0674 253.173L31.4234 250.414C29.6444 253.164 26.2884 259.614 24.7474 263.882C21.7637 272.149 21.4388 275.619 20.9363 280.984C20.8099 282.334 20.6723 283.803 20.4784 285.498C19.6804 292.479 19.6254 299.499 22.3394 308.841C24.0844 314.844 25.9464 319.948 26.9164 319.733C29.3594 319.192 29.4524 316.132 29.4524 316.132L28.3004 310.448L27.7784 304.898C27.7784 304.898 36.4564 329.47 37.1914 329.335C39.7914 328.856 40.2064 324.549 40.2064 324.549C40.2064 324.549 42.9234 333.03 44.2934 332.723C47.7744 331.941 47.4444 328.013 47.4444 328.013C47.4444 328.013 48.5434 328.951 49.3874 328.714C52.5422 327.826 52.4465 322.379 52.3904 319.187C52.386 318.932 52.3817 318.691 52.3794 318.468C52.3794 318.468 50.9844 308.422 51.2694 305.326C52.7222 289.549 55.2268 285.797 56.5995 283.74C56.7292 283.546 56.8488 283.367 56.9564 283.194C59.111 284.624 59.909 287.074 60.7563 289.675C61.3723 291.566 62.0142 293.536 63.2224 295.253C66.9014 300.477 77.1594 305.412 71.4244 293.444C68.2398 286.797 67.4481 282.709 66.7131 278.913C66.2821 276.688 65.8705 274.562 65.0074 272.081C62.6714 265.369 60.4404 261.523 60.4404 261.523Z" fill="#E576C6"/>
<path opacity="0.145089" d="M243.918 262.492C243.918 262.492 247.303 274.925 258.92 278.8C262.981 280.155 261.967 296.147 271.923 294.234" stroke="black" stroke-width="3"/>
<path fill-rule="evenodd" clip-rule="evenodd" d="M119.829 50.2461L121.025 31.0005L176.574 34.4495L175.489 51.9088C203.629 62.7462 208.562 73.3554 214.745 86.6557C215.412 88.0896 216.093 89.5547 216.82 91.0548C224.994 107.938 233.469 159.786 233.469 159.786L268.969 249.286L225.449 273.506L214.747 252.779L215.015 225.12L82.0297 225.116L81.0997 191.056L69.7697 259.376L20.0297 261.726C20.0297 261.726 19.0447 190.574 28.5157 149.413C34.5447 123.194 64.0047 74.4748 91.9007 57.7218C98.7125 53.6303 108.938 51.3889 119.829 50.2461Z" fill="#72A065"/>
<path opacity="0.203544" d="M81.3096 198.75L90.4636 150.952L113.106 112.593" stroke="black" stroke-width="5"/>
<path opacity="0.1988" d="M213.015 225.32L217.34 155.672" stroke="black" stroke-width="5"/>
</svg>
