<svg width="390" height="341" viewBox="0 0 390 341" fill="none" xmlns="http://www.w3.org/2000/svg">
<path fill-rule="evenodd" clip-rule="evenodd" d="M302.217 108.008C291.18 129.806 252.438 201.362 224.819 189.949C204.14 181.403 179.384 110.554 179.384 110.554L219.625 86.4636L237.707 135.152L274.628 94.8045C273.374 86.8095 272.37 76.3584 274.869 72.6741C279.124 66.4031 300.652 47.0821 300.652 47.0821L304.572 79.8181L305.257 77.0584C305.256 76.9048 305.293 76.7384 305.37 76.5586C305.378 76.5413 305.386 76.524 305.394 76.5067L306.978 70.1187C306.313 69.7809 306.041 69.2996 306.328 68.6333C306.562 68.0925 307.071 67.4998 307.783 66.8768L313.194 45.0669C313.194 45.0669 314.969 45.8614 317.573 47.0518C321.76 46.1832 336.924 56.5524 337.154 56.71L337.157 56.7119C340.245 58.7179 332.901 91.8729 326.936 98.0319C322.692 102.414 309.487 106.192 302.217 108.008V108.008ZM55.686 255.85L58.151 260.557C58.151 260.557 60.382 264.403 62.718 271.116C65.053 277.828 64.083 281.935 69.135 292.478C74.87 304.446 64.612 299.511 60.934 294.287C58.063 290.209 58.389 284.698 54.667 282.228C53.42 284.23 50.57 287.092 48.98 304.36C48.695 307.457 50.091 317.503 50.091 317.503C50.121 320.513 50.505 326.79 47.098 327.748C46.254 327.986 45.155 327.047 45.155 327.047C45.155 327.047 45.485 330.975 42.004 331.757C40.635 332.064 37.916 323.583 37.916 323.583C37.916 323.583 37.502 327.89 34.902 328.369C34.167 328.504 25.489 303.932 25.489 303.932L26.011 309.482L27.163 315.166C27.163 315.166 27.07 318.226 24.627 318.767C23.657 318.982 21.795 313.879 20.05 307.875C17.336 298.533 17.391 291.513 18.19 284.532C19.154 276.096 18.725 273.262 22.458 262.917C22.9044 261.68 23.5036 260.259 24.1728 258.798C22.1246 241.013 16.3528 188.954 17.0602 172.972C17.9172 153.587 38.3352 110.554 38.3352 110.554L79.7882 133.865L56.9402 175.741L55.686 255.85V255.85ZM154.858 63.0188C130.848 61.5988 120.718 46.5888 118.408 42.5288C133.642 41.4708 135.234 41.6258 155.526 43.7398C163.756 44.5978 169.528 46.3588 175.118 47.8988C176.328 52.0288 178.048 64.3788 154.858 63.0188Z" fill="#E576C6"/>
<path fill-rule="evenodd" clip-rule="evenodd" d="M78.5378 220.019H211.528L216.401 137.447L239.742 123.763L223.388 85.9436L223.245 85.9717C222.564 84.5973 221.816 83.1704 220.998 81.689C210.849 63.299 193.488 52.9288 175.118 47.8988C174.821 47.817 174.701 47.7589 174.687 47.7782C174.652 47.8268 175.289 48.3659 175.471 50.2527C175.726 52.8887 174.899 56.4667 174.028 57.5546C171.974 60.1194 168.872 61.5754 167.624 61.9179C166.376 62.2603 165.387 62.4596 164.283 62.6803C163.509 62.835 159.109 63.1627 158.349 63.1228C152.087 62.7946 149.018 62.5028 145.075 61.5608C143.679 61.2273 142.235 60.8471 140.522 60.1223C140.201 59.9864 139.849 59.8411 139.472 59.6852C137.621 58.9202 135.156 57.9012 132.652 56.4939C130.005 55.0059 127.307 53.0434 125.354 51.039C125.166 50.8453 124.982 50.6571 124.803 50.474C122.753 48.3726 121.354 46.9391 120.385 45.5014C119.729 44.5285 119.481 44.205 119.336 44.0152C119.248 43.9001 119.197 43.8341 119.116 43.7022C118.901 43.3528 118.716 43.0449 118.663 42.8382C118.606 42.6158 118.81 42.5212 118.802 42.4986C118.797 42.4843 118.707 42.4991 118.408 42.5288C109.048 43.4588 98.9878 45.889 88.0178 51.039C54.0878 66.959 34.2578 106.959 34.2578 106.959L76.3078 138.589L78.5378 220.019Z" fill="#5E93D1"/>
<path opacity="0.200521" d="M76.3059 138.585L86.9729 145.846L112.614 115.898" stroke="black" stroke-width="5"/>
<path fill-rule="evenodd" clip-rule="evenodd" d="M319.834 85.647L317.976 94.7898H287.887L302.08 21.9998H332.169C331.389 25.9998 329.552 35.4209 326.658 50.2631L320.742 47.5125L318.899 47.0001L317.448 47.0818L316.819 47.5125V49.281L323.251 58.5598L318.331 60.7101L310.761 64.6936L308.574 66.2128L307.726 67L307.034 67.6218L306.593 68.1558L306.328 68.6333L306.215 69.2534L306.328 69.5278L306.46 69.7389L306.651 69.9294L309.133 70.8088L314.793 69.2534H320.387L312.92 70.8088L308 73.7617L306.328 75.3425L305.384 76.5042V77.5669L307.034 78.312L317.448 77.1129L314 78.9946L311.715 80.416L309.62 81.5L308 83.5967V84.6313L308.574 85.239L310.028 86.0149H312.246H316.714L319.834 85.647Z" fill="#5E93D1"/>
<path fill-rule="evenodd" clip-rule="evenodd" d="M287.884 94.7898H282.905L297.098 21.9998H302.076L287.884 94.7898Z" fill="#020101"/>
<path fill-rule="evenodd" clip-rule="evenodd" d="M307.258 30.4514C306.842 32.5774 305.609 34.1264 304.504 33.9094C303.4 33.6934 302.841 31.7944 303.257 29.6684C303.673 27.5414 304.906 25.9934 306.011 26.2094C307.116 26.4264 307.674 28.3254 307.258 30.4514" fill="#020101"/>
</svg>
