<svg width="390" height="341" viewBox="0 0 390 341" fill="none" xmlns="http://www.w3.org/2000/svg">
<path fill-rule="evenodd" clip-rule="evenodd" d="M317.083 63.0514L316.583 54.3714C316.583 54.3714 316.593 48.3314 317.373 41.8114C318.153 35.2914 322.653 27.5814 317.893 16.0714C313.133 4.57139 324.513 12.5114 327.033 17.9814C329.133 22.5414 328.023 32.1314 330.603 35.6414C332.783 34.4514 334.233 32.9014 334.233 32.9014L358.763 1.08139C359.553 0.0113949 361.013 -0.308605 362.183 0.321395L363.503 1.04139C364.893 1.80139 365.333 3.58139 364.443 4.88139C359.653 11.9114 344.813 32.5314 345.213 32.7414L345.863 33.5314L374.673 3.15139C375.573 2.14139 377.083 1.96139 378.193 2.73139L379.923 3.93139C381.183 4.80139 381.453 6.54139 380.513 7.74139C374.783 15.1414 353.283 38.6314 353.693 38.8614L354.553 39.6914L381.373 16.0014C382.323 14.9414 383.943 14.8214 385.043 15.7114L386.353 16.7814C387.503 17.7114 387.673 19.4014 386.733 20.5414L361.403 44.3614L362.133 45.5114L384.123 30.0614C385.133 29.1614 386.653 29.1614 387.673 30.0514L388.283 30.6014C389.363 31.5614 389.483 33.2114 388.543 34.3214C385.323 38.1314 375.323 44.5114 367.463 52.3814C361.363 58.4914 358.373 64.2814 349.853 71.1414C346.253 74.0514 343.043 75.5714 339.983 77.1814L317.083 63.0514ZM119.373 43.1364C119.373 43.1364 136.32 43.1034 148.551 43.0624C160.781 43.0204 176.161 48.1914 176.161 48.1914C176.161 48.1914 184.164 66.2674 156.364 64.6304C128.564 62.9914 119.373 43.1364 119.373 43.1364ZM0.166062 179.995C-0.448938 157.226 26.6801 116.284 26.6801 116.284L74.1661 137.534L54.6271 179.38L108.355 254.691L86.2371 272.805C86.2371 272.805 0.892062 206.841 0.166062 179.995Z" fill="#E576C6"/>
<path fill-rule="evenodd" clip-rule="evenodd" d="M101.928 221.864L115.14 239.687L75.3453 274.559C75.3453 274.559 2.31828 220.749 0.0632839 178.559C-1.37272 151.687 22.0123 113.328 22.0123 113.328C22.0123 113.328 51.3643 66.1673 85.2943 50.2513C92.2573 46.9849 109.139 44.2604 119.373 43.1364C122.51 42.7919 120.634 44.0206 121.711 46.1003C122.837 48.273 126.261 51.4924 128.63 53.8987C133.562 58.9072 143.28 62.6997 148.5 63.4761C152.478 64.0677 160.166 64.9855 163.865 64.4861C167.563 63.9867 171.584 62.3082 172.659 61.311C173.733 60.3138 175.332 59.0662 176.161 57.1443C176.99 55.2224 176.948 55.7729 176.948 54C176.948 52.2271 176.857 52.4893 176.685 51.6455C176.512 50.8018 176.512 50.2945 176.41 49.8585C175.96 47.9291 176.161 48.1914 176.161 48.1914C196.191 54.2731 206.336 56.5238 213.633 65.3712L269.397 104.713L307.551 54.6621L356.781 87.8921C356.781 87.8921 313.192 169.533 281.602 178.559C256.155 185.83 230.376 163.218 221.312 154.149L232.081 209.108C233.807 218.597 225.542 222.188 218.178 221.852L101.928 221.864Z" fill="#72A065"/>
<path opacity="0.201242" fill-rule="evenodd" clip-rule="evenodd" d="M221.143 154.182L214.478 127.703L232.474 163.89L221.143 154.182Z" fill="black"/>
<path opacity="0.200591" d="M96.9864 215.482L65.9094 171.174L103.448 113.943" stroke="black" stroke-width="5"/>
</svg>
