<svg width="390" height="341" viewBox="0 0 390 341" fill="none" xmlns="http://www.w3.org/2000/svg">
<path fill-rule="evenodd" clip-rule="evenodd" d="M235.373 129.215L216.103 139.505L211.333 220.215H78.3445L76.1135 138.785L34.0635 107.155C34.0635 107.155 53.8945 67.155 87.8235 51.235C96.6635 47.095 107.783 44.895 118.894 43.845C141.173 41.735 163.383 44.185 166.993 44.625L167.503 44.685C168.133 44.875 168.764 45.065 169.373 45.255C169.383 45.255 169.394 45.265 169.403 45.265C171.203 45.825 172.903 46.365 174.523 46.895C197.033 54.305 204.153 60.305 216.764 78.065C228.753 94.945 235.373 129.215 235.373 129.215" fill="#FCBDA4"/>
<path opacity="0.200219" d="M76.1138 138.782L86.7798 146.043L112.422 116.094" stroke="black" stroke-width="5"/>
<path fill-rule="evenodd" clip-rule="evenodd" d="M181.043 196.645C181.043 196.645 185.243 197.715 185.323 200.355C185.323 201.105 159.733 205.945 159.733 205.945L165.304 206.275L171.094 205.995C171.094 205.995 174.104 206.555 174.273 209.055C174.333 210.045 169.003 211.105 162.804 211.915C153.163 213.185 146.233 212.065 139.453 210.215C138.883 210.055 138.333 209.915 137.804 209.775L143.314 174.345C145.163 176.035 148.663 179.035 163.724 182.795C166.743 183.545 176.883 183.685 176.883 183.685C179.863 184.115 186.123 184.695 186.554 188.205C186.663 189.075 185.573 190.015 185.573 190.015C185.573 190.015 189.503 190.285 189.743 193.845C189.844 195.245 181.043 196.645 181.043 196.645" fill="#18181C"/>
<path fill-rule="evenodd" clip-rule="evenodd" d="M224.659 245.985H131.628L152.491 117.575H245.523L224.659 245.985Z" fill="#18181C"/>
<path fill-rule="evenodd" clip-rule="evenodd" d="M229.659 245.985H136.628L157.491 117.575H250.523L229.659 245.985Z" fill="#5E93D1"/>
<path fill-rule="evenodd" clip-rule="evenodd" d="M208 241.575H229.42L234.225 212L244.074 254.078C250.153 261.052 257.171 269.284 258.232 271.311C260.155 274.985 263.714 293.177 263.544 296.771C263.374 300.365 252.289 316.515 252.289 316.515C245.411 314.876 249.903 306.536 249.903 306.536C249.903 306.536 243.743 311.602 241.181 311.517C217.059 310.717 218.352 298.84 218.923 297.354C220.204 294.013 226.642 297.833 226.642 297.833C226.642 297.833 215.46 275.771 216.91 258.912C214.405 254.181 211.324 248.243 208 241.575L208 241.575ZM115.367 169.283L121.823 167.075C121.823 167.075 125.963 165.455 132.953 164.165C137.344 163.355 140.523 163.675 145.054 163.185L143.514 173.075C143.224 173.285 142.963 173.535 142.713 173.805C142.903 173.965 143.094 174.145 143.314 174.345C145.163 176.035 148.663 179.035 163.724 182.795C166.743 183.545 176.883 183.685 176.883 183.685C179.863 184.115 186.123 184.695 186.554 188.205C186.663 189.075 185.573 190.015 185.573 190.015C185.573 190.015 189.503 190.285 189.743 193.845C189.844 195.245 181.043 196.645 181.043 196.645C181.043 196.645 185.243 197.715 185.323 200.355C185.323 201.105 159.733 205.945 159.733 205.945L165.304 206.275L171.094 205.995C171.094 205.995 174.104 206.555 174.273 209.055C174.333 210.045 169.003 211.105 162.804 211.915C153.163 213.185 146.233 212.065 139.453 210.215C138.883 210.055 138.333 209.915 137.804 209.775C130.823 207.945 127.713 207.605 118.733 202.715C117.902 202.262 116.989 201.716 116.042 201.116C92.9949 203.304 23.1406 208.684 16.1388 194.293C2.29378 165.831 38.7328 110.751 38.7328 110.751L79.0678 138.959L66.2498 160.733L115.367 169.283V169.283ZM154.673 63.215C132.503 61.905 122.173 49.015 118.894 43.845C141.173 41.735 163.383 44.185 166.993 44.625C167.844 44.845 168.644 45.055 169.373 45.255C169.383 45.255 169.394 45.265 169.403 45.265C172.493 46.115 174.463 46.775 174.463 46.775C174.463 46.775 174.484 46.815 174.524 46.895C175.144 48.445 181.153 64.765 154.673 63.215Z" fill="#E576C6"/>
<path opacity="0.199382" d="M231.807 269.649C231.807 269.649 235.192 282.082 246.808 285.957C250.87 287.312 249.855 303.304 259.811 301.391" stroke="black" stroke-width="3"/>
<path fill-rule="evenodd" clip-rule="evenodd" d="M166.178 127.934C165.762 130.06 164.529 131.609 163.424 131.392C162.32 131.176 161.761 129.277 162.177 127.151C162.593 125.025 163.826 123.476 164.931 123.693C166.036 123.909 166.594 125.808 166.178 127.934" fill="#020101"/>
</svg>
