<svg width="390" height="341" viewBox="0 0 390 341" fill="none" xmlns="http://www.w3.org/2000/svg">
<path fill-rule="evenodd" clip-rule="evenodd" d="M8.15989 154.138C10.3922 184.254 35.8251 199.137 55.6826 206.208L54.131 214.517C51.717 227.446 62.479 239.269 76.664 239.269H206.511C220.437 239.269 231.129 227.853 229.145 215.103L227.863 206.867C248.396 200.127 276.853 186.116 276.139 160.35C275.034 120.516 231.401 83.0415 208.2 65.8828C199.805 56.7922 187.761 53.1896 170.45 48.0115C168.491 47.4254 166.464 46.8191 164.367 46.1824C164.367 46.1824 108.664 37.1024 80.459 50.3334C73.0626 53.8029 66.9766 58.7573 61.9813 64.3841C39.0009 82.9996 5.39898 116.88 8.15989 154.138Z" fill="#1E9DBC"/>
<path opacity="0.199009" d="M210.149 127.916L207.891 128.989L209.342 132.046L211.838 129.76L210.149 127.916ZM212.014 126.208L213.858 124.52L212.17 122.676L210.326 124.365L212.014 126.208ZM215.391 129.896L217.08 131.739L218.924 130.051L217.235 128.207L215.391 129.896ZM194.33 149.185L192.486 150.873L194.175 152.717L196.018 151.028L194.33 149.185ZM190.953 145.497L189.265 143.654L187.421 145.342L189.109 147.186L190.953 145.497ZM206.292 131.449L207.98 133.293L209.342 132.046L208.55 130.377L206.292 131.449ZM190.383 97.9371L189.311 95.6787L187.052 96.7508L188.125 99.0092L190.383 97.9371ZM194.9 95.7929L197.158 94.7208L196.086 92.4623L193.828 93.5344L194.9 95.7929ZM211.838 129.76L213.703 128.052L210.326 124.365L208.461 126.073L211.838 129.76ZM210.171 127.897L213.548 131.584L217.235 128.207L213.858 124.52L210.171 127.897ZM213.703 128.052L192.641 147.341L196.018 151.028L217.08 131.739L213.703 128.052ZM196.174 147.496L192.797 143.809L189.109 147.186L192.486 150.873L196.174 147.496ZM192.641 147.341L207.98 133.293L204.603 129.606L189.265 143.654L192.641 147.341ZM208.55 130.377L192.641 96.865L188.125 99.0092L204.033 132.521L208.55 130.377ZM191.455 100.196L195.972 98.0513L193.828 93.5344L189.311 95.6787L191.455 100.196ZM192.641 96.865L207.891 128.989L212.408 126.844L197.158 94.7208L192.641 96.865Z" fill="black"/>
<path opacity="0.199637" d="M90.4297 127.109L88.1895 125.999L87.0832 128.232L89.3127 129.345L90.4297 127.109ZM126.462 145.104L128.699 146.221L129.816 143.985L127.579 142.868L126.462 145.104ZM124.228 149.577L123.111 151.814L125.348 152.931L126.465 150.694L124.228 149.577ZM74.727 124.855L72.4904 123.738L71.3734 125.975L73.61 127.092L74.727 124.855ZM76.961 120.382L78.078 118.146L75.8414 117.029L74.7244 119.265L76.961 120.382ZM85.9565 124.875L84.8395 127.111L87.0832 128.232L88.1966 125.985L85.9565 124.875ZM104.697 87.0487L105.806 84.8085L103.566 83.6987L102.456 85.9388L104.697 87.0487ZM109.177 89.2683L111.417 90.3782L112.527 88.138L110.287 87.0282L109.177 89.2683ZM89.3127 129.345L125.345 147.341L127.579 142.868L91.5467 124.872L89.3127 129.345ZM124.225 143.987L121.991 148.46L126.465 150.694L128.699 146.221L124.225 143.987ZM125.345 147.341L75.844 122.619L73.61 127.092L123.111 151.814L125.345 147.341ZM76.9636 125.972L79.1976 121.499L74.7244 119.265L72.4904 123.738L76.9636 125.972ZM75.844 122.619L84.8395 127.111L87.0735 122.638L78.078 118.146L75.844 122.619ZM88.1966 125.985L106.937 88.1585L102.456 85.9388L83.7163 123.765L88.1966 125.985ZM103.587 89.2888L108.067 91.5085L110.287 87.0282L105.806 84.8085L103.587 89.2888ZM106.937 88.1585L88.1895 125.999L92.6698 128.219L111.417 90.3782L106.937 88.1585Z" fill="black"/>
<path opacity="0.203218" fill-rule="evenodd" clip-rule="evenodd" d="M159.818 83.7996C159.818 87.2556 157.017 90.0556 153.562 90.0556C150.106 90.0556 147.305 87.2556 147.305 83.7996C147.305 80.3446 153.562 71.5436 153.562 71.5436C153.562 71.5436 159.818 80.3446 159.818 83.7996" fill="black"/>
<path opacity="0.195964" d="M99.1003 208.389C99.1003 208.389 125.205 208.035 125.345 143.777" stroke="black" stroke-width="5"/>
<path opacity="0.199009" d="M213.703 205.389C213.703 205.389 193.809 205.066 193.703 146.389" stroke="black" stroke-width="5"/>
<path opacity="0.203497" d="M154.896 90.0556C158.768 117.98 169.074 144.777 162.417 239.235" stroke="black" stroke-width="3"/>
<path fill-rule="evenodd" clip-rule="evenodd" d="M72.1516 53.9808C72.1516 53.9808 78.8496 20.9138 121.573 20.9998C141.612 21.0401 145.8 32.1611 144.597 43.9597C144.563 44.2997 143.304 44.1258 142.513 44.0164C142.339 43.9924 142.187 43.9714 142.076 43.9597C139.039 43.6404 137.856 43.5744 135.932 43.467L135.932 43.467L135.931 43.4669C135.576 43.4471 135.196 43.4259 134.774 43.4014C134.699 43.397 134.624 43.3929 134.549 43.389L152.977 63.7855L164.872 32.3905L188.767 52.9575L152.537 75.9535C152.537 75.9535 114.742 52.0901 102.305 44.6665L72.1516 53.9808ZM213.69 223.441H161.989H99.2647L100.265 208.797C116 203.233 124.904 184.219 124.635 143.777L160.554 144.308L192.329 144.777C192.642 180.158 199.082 196.158 212.69 207.797L213.69 223.441Z" fill="#EFEFEF"/>
<path opacity="0.201474" d="M154.896 90.0556C159.073 115.399 169.146 144.542 162.489 239" stroke="black" stroke-width="3"/>
</svg>
