<svg width="945" height="1250" viewBox="0 0 945 1250" fill="none" xmlns="http://www.w3.org/2000/svg">
<path fill-rule="evenodd" clip-rule="evenodd" d="M302 1074.58H328.534V988.374H302V1074.58Z" fill="#DCEEFF"/>
<path fill-rule="evenodd" clip-rule="evenodd" d="M523.018 1074.58H549.552V988.374H523.018V1074.58Z" fill="#DCEEFF"/>
<path fill-rule="evenodd" clip-rule="evenodd" d="M396.111 1074.58H422.644V988.374H396.111V1074.58Z" fill="#B6D4FF"/>
<path fill-rule="evenodd" clip-rule="evenodd" d="M617.129 1074.58H643.663V988.374H617.129V1074.58Z" fill="#B6D4FF"/>
<path fill-rule="evenodd" clip-rule="evenodd" d="M395.959 1003.67H643.508V271.411H395.959V1003.67Z" fill="#B6D4FF"/>
<path fill-rule="evenodd" clip-rule="evenodd" d="M302.498 1003.67H550.049V271.411H302.498V1003.67Z" fill="#DCEEFF"/>
<path fill-rule="evenodd" clip-rule="evenodd" d="M470.966 221.618C470.966 242.658 459.851 261.118 443.179 271.411H381.976C365.302 261.118 354.188 242.658 354.188 221.618C354.188 211.827 356.597 202.609 360.843 194.514H464.312C468.557 202.609 470.966 211.827 470.966 221.618" fill="#DCEEFF"/>
<path fill-rule="evenodd" clip-rule="evenodd" d="M486.488 271.398H511.723V175H486.488V271.398Z" fill="#DCEEFF"/>
<path fill-rule="evenodd" clip-rule="evenodd" d="M461.252 271.398H486.487V175H461.252V271.398Z" fill="#CCE3FF"/>
<path fill-rule="evenodd" clip-rule="evenodd" d="M511.723 271.398H536.958V175H511.723V271.398Z" fill="#CCE3FF"/>
<path fill-rule="evenodd" clip-rule="evenodd" d="M604.747 271.398H536.957V175H604.747C607.579 175 609.875 177.295 609.875 180.128V266.27C609.875 269.102 607.579 271.398 604.747 271.398" fill="#B6D4FF"/>
<path fill-rule="evenodd" clip-rule="evenodd" d="M559.197 213.314H587.638V203.769H559.197V213.314Z" fill="#CCE3FF"/>
<path fill-rule="evenodd" clip-rule="evenodd" d="M324.658 979.54H527.984V768.779H324.658V979.54Z" fill="#CCE3FF"/>
<path fill-rule="evenodd" clip-rule="evenodd" d="M324.66 979.54H394.807V768.779H324.66V979.54Z" fill="#B6D4FF"/>
<path fill-rule="evenodd" clip-rule="evenodd" d="M324.658 742.624H527.984V531.864H324.658V742.624Z" fill="#CCE3FF"/>
<path fill-rule="evenodd" clip-rule="evenodd" d="M324.66 742.624H394.807V531.864H324.66V742.624Z" fill="#B6D4FF"/>
<path fill-rule="evenodd" clip-rule="evenodd" d="M324.658 505.708H527.984V294.948H324.658V505.708Z" fill="#CCE3FF"/>
<path fill-rule="evenodd" clip-rule="evenodd" d="M324.66 505.708H394.807V294.948H324.66V505.708Z" fill="#B6D4FF"/>
<path fill-rule="evenodd" clip-rule="evenodd" d="M373.344 979.54H393.468V902.666H373.344V979.54Z" fill="#DCEEFF"/>
<path fill-rule="evenodd" clip-rule="evenodd" d="M353.219 979.54H373.343V902.666H353.219V979.54Z" fill="#CCE3FF"/>
<path fill-rule="evenodd" clip-rule="evenodd" d="M393.467 979.54H413.591V902.666H393.467V979.54Z" fill="#CCE3FF"/>
<path fill-rule="evenodd" clip-rule="evenodd" d="M466.611 979.54H413.59V902.666H466.611C469.444 902.666 471.74 904.962 471.74 907.794V974.411C471.74 977.244 469.444 979.54 466.611 979.54" fill="#B6D4FF"/>
<path fill-rule="evenodd" clip-rule="evenodd" d="M422.207 921.476H463.122V913.865H422.207V921.476Z" fill="#CCE3FF"/>
<path fill-rule="evenodd" clip-rule="evenodd" d="M431.324 933.219H454.005V925.608H431.324V933.219Z" fill="#CCE3FF"/>
<path fill-rule="evenodd" clip-rule="evenodd" d="M443.782 473.068C442.222 486.178 435.582 497.738 425.883 505.708H362.452C352.753 497.738 346.112 486.178 344.543 473.068H443.782Z" fill="#DCEEFF"/>
<path fill-rule="evenodd" clip-rule="evenodd" d="M443.782 445.82C440.83 470.597 419.74 489.82 394.164 489.82C368.587 489.82 347.498 470.597 344.545 445.82H443.782Z" fill="#DCEEFF"/>
<path fill-rule="evenodd" clip-rule="evenodd" d="M443.782 418.612C442.222 431.722 435.582 443.282 425.883 451.252H362.452C352.753 443.282 346.112 431.722 344.543 418.612H443.782Z" fill="#DCEEFF"/>
<path fill-rule="evenodd" clip-rule="evenodd" d="M443.782 391.363C440.83 416.141 419.74 435.364 394.164 435.364C368.587 435.364 347.498 416.141 344.545 391.363H443.782Z" fill="#DCEEFF"/>
<path fill-rule="evenodd" clip-rule="evenodd" d="M411.105 691.994C411.105 711.289 409.048 728.937 405.618 742.624H369.674C366.251 728.937 364.186 711.289 364.186 691.994" fill="#ECF6FF"/>
<path d="M409.327 700.472C417.477 702.081 422.78 709.993 421.171 718.143C419.561 726.293 411.65 731.596 403.5 729.987" stroke="#ECF6FF" stroke-width="8"/>
<path fill-rule="evenodd" clip-rule="evenodd" d="M483.105 691.994C483.105 711.289 481.048 728.937 477.618 742.624H441.674C438.251 728.937 436.186 711.289 436.186 691.994" fill="#ECF6FF"/>
<path d="M473.534 700.472C481.684 702.081 486.987 709.993 485.378 718.143C483.768 726.293 475.857 731.596 467.707 729.987" stroke="#ECF6FF" stroke-width="8"/>
</svg>
