<svg width="945" height="1250" viewBox="0 0 945 1250" fill="none" xmlns="http://www.w3.org/2000/svg">
<path fill-rule="evenodd" clip-rule="evenodd" d="M606.195 347.247H588.506C573.24 347.247 560.865 334.872 560.865 319.606V273.108C560.865 268.511 564.591 264.785 569.188 264.785H625.512C630.11 264.785 633.837 268.511 633.837 273.108V319.606C633.837 334.872 621.462 347.247 606.195 347.247" fill="#DCEEFF"/>
<path fill-rule="evenodd" clip-rule="evenodd" d="M578.434 306.015H616.271V231.504H578.434V306.015Z" fill="#DCEEFF"/>
<path fill-rule="evenodd" clip-rule="evenodd" d="M396.354 299.551V299.551C396.354 306.455 401.951 312.051 408.855 312.051H521.324V287.051H408.855C401.951 287.051 396.354 292.647 396.354 299.551" fill="#CCE3FF"/>
<path fill-rule="evenodd" clip-rule="evenodd" d="M472 299.551V299.551C472 303.548 475.239 306.788 479.236 306.788H521.022C521.189 306.788 521.324 306.653 521.324 306.487V292.615C521.324 292.449 521.189 292.314 521.022 292.314H479.236C475.239 292.314 472 295.554 472 299.551" fill="#DCEEFF"/>
<path fill-rule="evenodd" clip-rule="evenodd" d="M380.656 312.052V337.053H503.415C510.319 337.053 515.916 331.456 515.916 324.552C515.916 317.649 510.319 312.052 503.415 312.052H380.656Z" fill="#CCE3FF"/>
<path fill-rule="evenodd" clip-rule="evenodd" d="M380.656 317.385V331.719H431.13C435.089 331.719 438.297 328.51 438.297 324.552C438.297 320.593 435.089 317.385 431.13 317.385H380.656Z" fill="#DCEEFF"/>
<path fill-rule="evenodd" clip-rule="evenodd" d="M427.82 271.809L435.804 194H460.771L468.756 271.809C469.592 279.963 463.194 287.051 454.998 287.051H441.578C433.382 287.051 426.983 279.963 427.82 271.809" fill="#DCEEFF"/>
<path fill-rule="evenodd" clip-rule="evenodd" d="M222.875 1007.79H593.228V348.225H222.875V1007.79Z" fill="#E6F4FF"/>
<path fill-rule="evenodd" clip-rule="evenodd" d="M222.877 1055.08H244.201V348.225H222.877V1055.08Z" fill="#E6F4FF"/>
<path fill-rule="evenodd" clip-rule="evenodd" d="M244.199 1055.08H265.522V1007.79H244.199V1055.08Z" fill="#B6D4FF"/>
<path fill-rule="evenodd" clip-rule="evenodd" d="M374.01 1055.08H395.333V1007.79H374.01V1055.08Z" fill="#B6D4FF"/>
<path fill-rule="evenodd" clip-rule="evenodd" d="M593.229 1055.08H614.552V1007.79H593.229V1055.08Z" fill="#B6D4FF"/>
<path fill-rule="evenodd" clip-rule="evenodd" d="M680.393 1055.08H701.716V1007.79H680.393V1055.08Z" fill="#C5E0FC"/>
<path fill-rule="evenodd" clip-rule="evenodd" d="M571.904 1055.08H593.227V348.225H571.904V1055.08Z" fill="#E6F4FF"/>
<path fill-rule="evenodd" clip-rule="evenodd" d="M701.715 1055.73H723.038V1007.79H701.715V1055.73Z" fill="#B6D4FF"/>
<path fill-rule="evenodd" clip-rule="evenodd" d="M352.688 1055.08H374.01V1007.79H352.688V1055.08Z" fill="#C5E0FC"/>
<path fill-rule="evenodd" clip-rule="evenodd" d="M244.199 978.52H393.919V851.95H244.199V978.52Z" fill="#CCE3FF"/>
<path fill-rule="evenodd" clip-rule="evenodd" d="M422.189 978.521H571.909V851.951H422.189V978.521Z" fill="#CCE3FF"/>
<path fill-rule="evenodd" clip-rule="evenodd" d="M244.199 823.681H393.919V697.121H244.199V823.681Z" fill="#CCE3FF"/>
<path fill-rule="evenodd" clip-rule="evenodd" d="M422.189 823.681H571.909V697.121H422.189V823.681Z" fill="#CCE3FF"/>
<path fill-rule="evenodd" clip-rule="evenodd" d="M244.199 668.849H571.904V542.285H244.199V668.849Z" fill="#CCE3FF"/>
<path fill-rule="evenodd" clip-rule="evenodd" d="M244.199 668.849H345.578V542.285H244.199V668.849Z" fill="#B6D4FF"/>
<path fill-rule="evenodd" clip-rule="evenodd" d="M244.199 514.015H571.904V387.451H244.199V514.015Z" fill="#CCE3FF"/>
<path fill-rule="evenodd" clip-rule="evenodd" d="M244.199 514.015H345.578V387.451H244.199V514.015Z" fill="#B6D4FF"/>
<path fill-rule="evenodd" clip-rule="evenodd" d="M593.229 1007.79H723.039V348.225H593.229V1007.79Z" fill="#B6D4FF"/>
<path fill-rule="evenodd" clip-rule="evenodd" d="M588.979 357.685H214.692C203.816 357.685 195 348.868 195 337.993V336.808H588.979V357.685Z" fill="#E6F4FF"/>
<path fill-rule="evenodd" clip-rule="evenodd" d="M731 357.685H588.979V336.808H750.692V337.993C750.692 348.868 741.876 357.685 731 357.685" fill="#B6D4FF"/>
<path fill-rule="evenodd" clip-rule="evenodd" d="M222.875 366.818H593.228V357.685H222.875V366.818Z" fill="#CCE3FF"/>
<path fill-rule="evenodd" clip-rule="evenodd" d="M317.623 514.015H337.747V437.141H317.623V514.015Z" fill="#DCEEFF"/>
<path fill-rule="evenodd" clip-rule="evenodd" d="M297.5 514.015H317.624V437.141H297.5V514.015Z" fill="#CCE3FF"/>
<path fill-rule="evenodd" clip-rule="evenodd" d="M337.748 514.015H357.872V437.141H337.748V514.015Z" fill="#CCE3FF"/>
<path fill-rule="evenodd" clip-rule="evenodd" d="M410.892 514.015H357.871V437.141H410.892C413.724 437.141 416.021 439.437 416.021 442.269V508.887C416.021 511.719 413.724 514.015 410.892 514.015" fill="#B6D4FF"/>
<path fill-rule="evenodd" clip-rule="evenodd" d="M366.488 455.952H407.403V448.341H366.488V455.952Z" fill="#CCE3FF"/>
<path fill-rule="evenodd" clip-rule="evenodd" d="M375.605 467.695H398.286V460.084H375.605V467.695Z" fill="#CCE3FF"/>
<path fill-rule="evenodd" clip-rule="evenodd" d="M535.417 624.73V626.368C535.417 633.886 529.321 639.982 521.803 639.982H403.848V611.116H521.803C529.321 611.116 535.417 617.211 535.417 624.73" fill="#B6D4FF"/>
<path fill-rule="evenodd" clip-rule="evenodd" d="M455.775 625.075V626.023C455.775 630.376 452.247 633.905 447.893 633.905H404.01C403.92 633.905 403.846 633.832 403.846 633.741V617.357C403.846 617.266 403.92 617.193 404.01 617.193H447.893C452.247 617.193 455.775 620.722 455.775 625.075" fill="#DCEEFF"/>
<path fill-rule="evenodd" clip-rule="evenodd" d="M551.942 639.983V668.849H423.153C415.634 668.849 409.539 662.754 409.539 655.235V653.597C409.539 646.079 415.634 639.983 423.153 639.983H551.942Z" fill="#B6D4FF"/>
<path fill-rule="evenodd" clip-rule="evenodd" d="M551.942 646.141V662.692H499.062C494.752 662.692 491.256 659.197 491.256 654.885V653.947C491.256 649.636 494.752 646.141 499.062 646.141H551.942Z" fill="#DCEEFF"/>
<path fill-rule="evenodd" clip-rule="evenodd" d="M355.699 861.951H282.419C276.895 861.951 272.418 857.473 272.418 851.95H365.7C365.7 857.473 361.222 861.951 355.699 861.951" fill="#B6D4FF"/>
<path fill-rule="evenodd" clip-rule="evenodd" d="M533.689 861.951H460.408C454.885 861.951 450.408 857.473 450.408 851.95H543.69C543.69 857.473 539.212 861.951 533.689 861.951" fill="#B6D4FF"/>
<path fill-rule="evenodd" clip-rule="evenodd" d="M533.689 707.121H460.408C454.885 707.121 450.408 702.643 450.408 697.121H543.69C543.69 702.643 539.212 707.121 533.689 707.121" fill="#B6D4FF"/>
<path fill-rule="evenodd" clip-rule="evenodd" d="M355.699 707.121H282.419C276.895 707.121 272.418 702.643 272.418 697.121H365.7C365.7 702.643 361.222 707.121 355.699 707.121" fill="#B6D4FF"/>
</svg>
