<svg width="945" height="1250" viewBox="0 0 945 1250" fill="none" xmlns="http://www.w3.org/2000/svg">
<path fill-rule="evenodd" clip-rule="evenodd" d="M601.015 301.78H599.241C574.73 301.78 554.859 281.91 554.859 257.399V231H645.397V257.399C645.397 281.91 625.527 301.78 601.015 301.78" fill="#DCEEFF"/>
<path fill-rule="evenodd" clip-rule="evenodd" d="M273.353 1019.43H252.867V969.832H283.921L273.353 1019.43Z" fill="#B6D4FF"/>
<path fill-rule="evenodd" clip-rule="evenodd" d="M232.381 969.832H588.2V314.814H232.381V969.832Z" fill="#ECF6FF"/>
<path fill-rule="evenodd" clip-rule="evenodd" d="M252.868 1019.43H232.381V969.832H262.475L252.868 1019.43Z" fill="#ECF6FF"/>
<path fill-rule="evenodd" clip-rule="evenodd" d="M604.67 1019.43H588.199V969.832H612.394L604.67 1019.43Z" fill="#CCE3FF"/>
<path fill-rule="evenodd" clip-rule="evenodd" d="M567.712 1019.43H588.198V969.832H558.105L567.712 1019.43Z" fill="#ECF6FF"/>
<path fill-rule="evenodd" clip-rule="evenodd" d="M398.071 1019.43H377.584V969.832H405.757L398.071 1019.43Z" fill="#B6D4FF"/>
<path fill-rule="evenodd" clip-rule="evenodd" d="M694.048 1019.43H675.179L668.1 969.832H694.048V1019.43Z" fill="#B6D4FF"/>
<path fill-rule="evenodd" clip-rule="evenodd" d="M712.916 1019.43H694.048L687.854 969.832H712.916V1019.43Z" fill="#CCE3FF"/>
<path fill-rule="evenodd" clip-rule="evenodd" d="M377.582 1019.43H357.096L349.41 969.832H377.582V1019.43Z" fill="#C5E0FC"/>
<path fill-rule="evenodd" clip-rule="evenodd" d="M247.428 691.154H573.153V575.393H247.428V691.154Z" fill="#B6D4FF"/>
<path fill-rule="evenodd" clip-rule="evenodd" d="M247.428 691.154H348.195V575.393H247.428V691.154Z" fill="#CCE3FF"/>
<path fill-rule="evenodd" clip-rule="evenodd" d="M247.428 818.059H573.153V702.297H247.428V818.059Z" fill="#B6D4FF"/>
<path fill-rule="evenodd" clip-rule="evenodd" d="M247.428 818.059H348.195V702.297H247.428V818.059Z" fill="#CCE3FF"/>
<path fill-rule="evenodd" clip-rule="evenodd" d="M247.428 944.965H573.153V829.203H247.428V944.965Z" fill="#B6D4FF"/>
<path fill-rule="evenodd" clip-rule="evenodd" d="M247.428 944.965H348.195V829.203H247.428V944.965Z" fill="#CCE3FF"/>
<path fill-rule="evenodd" clip-rule="evenodd" d="M247.428 441.894H573.153V326.133H247.428V441.894Z" fill="#B6D4FF"/>
<path fill-rule="evenodd" clip-rule="evenodd" d="M247.428 441.894H348.195V326.133H247.428V441.894Z" fill="#CCE3FF"/>
<path fill-rule="evenodd" clip-rule="evenodd" d="M247.428 564.249H573.153V453.83H247.428V564.249Z" fill="#B6D4FF"/>
<path fill-rule="evenodd" clip-rule="evenodd" d="M247.428 564.249H348.195V453.83H247.428V564.249Z" fill="#CCE3FF"/>
<path fill-rule="evenodd" clip-rule="evenodd" d="M588.199 969.832H712.916V314.814H588.199V969.832Z" fill="#CCE3FF"/>
<path fill-rule="evenodd" clip-rule="evenodd" d="M224 314.814H576.426V293.564H224V314.814Z" fill="#E6F4FF"/>
<path fill-rule="evenodd" clip-rule="evenodd" d="M576.426 314.814H721.083V293.564H576.426V314.814Z" fill="#CCE3FF"/>
<path fill-rule="evenodd" clip-rule="evenodd" d="M528.738 787.436V787.437C528.738 793.074 524.168 797.644 518.53 797.644H436.52V777.229H518.53C524.168 777.229 528.738 781.799 528.738 787.436" fill="#CCE3FF"/>
<path fill-rule="evenodd" clip-rule="evenodd" d="M472.917 787.435V787.436C472.917 790.7 470.271 793.345 467.008 793.345H436.642C436.574 793.345 436.52 793.29 436.52 793.222V781.649C436.52 781.581 436.574 781.526 436.642 781.526H467.008C470.271 781.526 472.917 784.171 472.917 787.435" fill="#DCEEFF"/>
<path fill-rule="evenodd" clip-rule="evenodd" d="M540.321 797.644V818.06H450.716C445.079 818.06 440.508 813.49 440.508 807.852C440.508 802.214 445.079 797.644 450.716 797.644H540.321Z" fill="#CCE3FF"/>
<path fill-rule="evenodd" clip-rule="evenodd" d="M540.322 801.999V813.704H503.639C500.407 813.704 497.787 811.084 497.787 807.852C497.787 804.619 500.407 801.999 503.639 801.999H540.322Z" fill="#DCEEFF"/>
<path fill-rule="evenodd" clip-rule="evenodd" d="M539.941 756.812V777.228H456.216C450.579 777.228 446.008 772.658 446.008 767.02C446.008 761.382 450.579 756.812 456.216 756.812H539.941Z" fill="#CCE3FF"/>
<path fill-rule="evenodd" clip-rule="evenodd" d="M539.941 761.168V772.873H509.138C505.906 772.873 503.285 770.253 503.285 767.021C503.285 763.788 505.906 761.168 509.138 761.168H539.941Z" fill="#DCEEFF"/>
<path fill-rule="evenodd" clip-rule="evenodd" d="M324.832 691.38H380.97V612.895H324.832V691.38Z" fill="#DCEEFF"/>
<path fill-rule="evenodd" clip-rule="evenodd" d="M324.832 610.123H380.97V605.273H324.832V610.123Z" fill="#DCEEFF"/>
<path fill-rule="evenodd" clip-rule="evenodd" d="M383.093 623.703H322.709C319.369 623.703 316.662 620.995 316.662 617.655V616.17C316.662 612.83 319.369 610.123 322.709 610.123H383.093C386.433 610.123 389.14 612.83 389.14 616.17V617.655C389.14 620.995 386.433 623.703 383.093 623.703" fill="#E6F4FF"/>
<path fill-rule="evenodd" clip-rule="evenodd" d="M280.367 944.965H367.079V884.16H280.367V944.965Z" fill="#ECF6FF"/>
<path fill-rule="evenodd" clip-rule="evenodd" d="M367.08 944.965H431.004V884.16H367.08V944.965Z" fill="#CCE3FF"/>
<path fill-rule="evenodd" clip-rule="evenodd" d="M350.056 914.562H298.191C298.191 909.239 302.505 904.924 307.828 904.924H340.418C345.741 904.924 350.056 909.239 350.056 914.562" fill="#CCE3FF"/>
<path fill-rule="evenodd" clip-rule="evenodd" d="M403.676 944.965H490.388V884.16H403.676V944.965Z" fill="#ECF6FF"/>
<path fill-rule="evenodd" clip-rule="evenodd" d="M490.387 944.965H554.311V884.16H490.387V944.965Z" fill="#CCE3FF"/>
<path fill-rule="evenodd" clip-rule="evenodd" d="M473.365 914.562H421.5C421.5 909.239 425.814 904.924 431.137 904.924H463.727C469.05 904.924 473.365 909.239 473.365 914.562" fill="#CCE3FF"/>
<path fill-rule="evenodd" clip-rule="evenodd" d="M303.787 441.894H390.499V381.09H303.787V441.894Z" fill="#ECF6FF"/>
<path fill-rule="evenodd" clip-rule="evenodd" d="M390.5 441.894H454.424V381.09H390.5V441.894Z" fill="#CCE3FF"/>
<path fill-rule="evenodd" clip-rule="evenodd" d="M373.476 411.493H321.611V411.493C321.611 406.17 325.925 401.855 331.248 401.855H363.838C369.161 401.855 373.476 406.17 373.476 411.493Z" fill="#CCE3FF"/>
<path fill-rule="evenodd" clip-rule="evenodd" d="M487.728 549.007L495.712 471.198H520.68L528.665 549.007C529.501 557.16 523.103 564.249 514.906 564.249H501.486C493.29 564.249 486.891 557.16 487.728 549.007" fill="#CCE3FF"/>
<path fill-rule="evenodd" clip-rule="evenodd" d="M294.059 818.059H314.183V741.185H294.059V818.059Z" fill="#DCEEFF"/>
<path fill-rule="evenodd" clip-rule="evenodd" d="M273.934 818.059H294.058V741.185H273.934V818.059Z" fill="#ECF6FF"/>
<path fill-rule="evenodd" clip-rule="evenodd" d="M314.182 818.059H334.306V741.185H314.182V818.059Z" fill="#ECF6FF"/>
<path fill-rule="evenodd" clip-rule="evenodd" d="M387.327 818.06H334.307V741.186H387.327C390.159 741.186 392.455 743.482 392.455 746.314V812.931C392.455 815.764 390.159 818.06 387.327 818.06" fill="#DCEEFF"/>
<path fill-rule="evenodd" clip-rule="evenodd" d="M342.924 759.996H383.839V752.385H342.924V759.996Z" fill="#CCE3FF"/>
<path fill-rule="evenodd" clip-rule="evenodd" d="M352.039 771.739H374.721V764.128H352.039V771.739Z" fill="#CCE3FF"/>
<path fill-rule="evenodd" clip-rule="evenodd" d="M453.212 697.473V697.473C428.7 697.473 408.83 677.602 408.83 653.091V640.35H497.594V653.091C497.594 677.602 477.724 697.473 453.212 697.473" fill="#ECF6FF"/>
<path fill-rule="evenodd" clip-rule="evenodd" d="M499.655 528.865C499.655 543.816 491.757 556.934 479.909 564.249H436.416C424.568 556.934 416.67 543.816 416.67 528.865C416.67 521.908 418.382 515.357 421.399 509.604H494.926C497.943 515.357 499.655 521.908 499.655 528.865" fill="#DCEEFF"/>
</svg>
