<svg width="945" height="716" viewBox="0 0 945 716" fill="none" xmlns="http://www.w3.org/2000/svg">
<path fill-rule="evenodd" clip-rule="evenodd" d="M666.07 475.578C666.07 502.122 635.009 523.641 596.694 523.641C558.379 523.641 527.317 502.122 527.317 475.578C527.317 449.034 558.379 427.516 596.694 427.516C635.009 427.516 666.07 449.034 666.07 475.578" fill="#D2E9FC"/>
<path fill-rule="evenodd" clip-rule="evenodd" d="M599.19 424.436C601.164 437.869 594.454 449.327 594.454 449.327C594.454 449.327 584.545 439.005 582.572 425.572C580.598 412.138 587.307 400.681 587.307 400.681C587.307 400.681 597.216 411.003 599.19 424.436" fill="#CCE3FF"/>
<path fill-rule="evenodd" clip-rule="evenodd" d="M596.303 433.211C605.129 445.295 604.81 457.63 604.81 457.63C604.81 457.63 590.18 450.373 581.353 438.288C572.527 426.204 572.847 413.869 572.847 413.869C572.847 413.869 587.477 421.127 596.303 433.211" fill="#CCE3FF"/>
<path fill-rule="evenodd" clip-rule="evenodd" d="M607.384 425.897C605.039 439.303 594.847 449.496 594.847 449.496C594.847 449.496 588.455 437.954 590.8 424.548C593.144 411.143 603.337 400.95 603.337 400.95C603.337 400.95 609.728 412.492 607.384 425.897" fill="#CCE3FF"/>
<path fill-rule="evenodd" clip-rule="evenodd" d="M614.734 435.608C607.348 448.133 593.613 456.163 593.613 456.163C593.613 456.163 591.852 443.884 599.239 431.359C606.626 418.833 620.361 410.804 620.361 410.804C620.361 410.804 622.121 423.083 614.734 435.608" fill="#CCE3FF"/>
<path fill-rule="evenodd" clip-rule="evenodd" d="M634.128 561.255H559.263C546.034 561.255 535.312 550.532 535.312 537.304C535.312 524.077 546.034 513.354 559.263 513.354H634.128C647.356 513.354 658.079 524.077 658.079 537.304C658.079 550.532 647.356 561.255 634.128 561.255" fill="#CCE3FF"/>
<path d="M557.052 441.661L544.264 431.695" stroke="#B6D4FF" stroke-width="9"/>
<path d="M538.827 493.228L527.317 501.154" stroke="#B6D4FF" stroke-width="9"/>
<path d="M572.277 488.904L592.139 492.145" stroke="#B6D4FF" stroke-width="9"/>
<path d="M623.066 440.04L635.059 425.222" stroke="#B6D4FF" stroke-width="9"/>
<path d="M644.971 456.163L658.079 447.769" stroke="#B6D4FF" stroke-width="9"/>
<path d="M647.527 499.529L659.996 507.567" stroke="#B6D4FF" stroke-width="9"/>
<path d="M578.043 459.483L572.109 445.69" stroke="#B6D4FF" stroke-width="9"/>
<path d="M634.802 474.525L620.544 481.313" stroke="#B6D4FF" stroke-width="9"/>
<path d="M565.834 466.636L552.26 457.606" stroke="#B6D4FF" stroke-width="9"/>
<path d="M740.377 138V579.077" stroke="#B6D4FF" stroke-width="20"/>
<path d="M222.476 141.605V575.143" stroke="#ECF6FF" stroke-width="22"/>
<path d="M484.279 152.238V576.649" stroke="#ECF6FF" stroke-width="22"/>
<path fill-rule="evenodd" clip-rule="evenodd" d="M194.001 579.077H731.153V138H194.001V579.077ZM213.001 560.077H712.153V157H213.001V560.077Z" fill="#DCEEFF"/>
<path d="M466.802 139.885V578.012" stroke="#DCEEFF" stroke-width="22"/>
<path d="M194.001 358.539H731.153" stroke="#DCEEFF" stroke-width="22"/>
<path fill-rule="evenodd" clip-rule="evenodd" d="M225.414 173.577H712.222V156.824H225.414V173.577Z" fill="#CCE3FF"/>
<path fill-rule="evenodd" clip-rule="evenodd" d="M225.414 203.214H712.222V186.461H225.414V203.214Z" fill="#CCE3FF"/>
<path fill-rule="evenodd" clip-rule="evenodd" d="M225.414 232.852H712.222V216.099H225.414V232.852Z" fill="#CCE3FF"/>
<path fill-rule="evenodd" clip-rule="evenodd" d="M225.414 262.489H712.222V245.736H225.414V262.489Z" fill="#CCE3FF"/>
<path fill-rule="evenodd" clip-rule="evenodd" d="M225.414 292.127H712.222V275.374H225.414V292.127Z" fill="#CCE3FF"/>
</svg>
