<svg width="945" height="716" viewBox="0 0 945 716" fill="none" xmlns="http://www.w3.org/2000/svg">
<path d="M389.015 148.718V525.249" stroke="#B6D4FF" stroke-width="18"/>
<path d="M579.773 148.718V525.249" stroke="#B6D4FF" stroke-width="18"/>
<path d="M213.005 148.718V525.249" stroke="#B6D4FF" stroke-width="18"/>
<path fill-rule="evenodd" clip-rule="evenodd" d="M747.109 534.418H765.251V139.547H747.109V534.418Z" fill="#B6D4FF"/>
<path fill-rule="evenodd" clip-rule="evenodd" d="M197.086 534.418H755.114V139.547H197.086V534.418ZM214.086 517.418H738.114V156.547H214.086V517.418Z" fill="#DCEEFF"/>
<path fill-rule="evenodd" clip-rule="evenodd" d="M180.784 552.611H724.336V534.417H180.784V552.611Z" fill="#CCE3FF"/>
<path fill-rule="evenodd" clip-rule="evenodd" d="M724.335 552.611H769.883V534.417H724.335V552.611Z" fill="#B6D4FF"/>
<path d="M380.721 144.597V529.37" stroke="#DCEEFF" stroke-width="16"/>
<path d="M571.479 144.597V529.37" stroke="#DCEEFF" stroke-width="16"/>
<path d="M206.562 336.983H740.023" stroke="#DCEEFF" stroke-width="16"/>
<path fill-rule="evenodd" clip-rule="evenodd" d="M272.399 628.572C272.399 459.144 184.858 298.426 184.858 298.426H154.914V628.572H272.399Z" fill="#CCE3FF"/>
<path fill-rule="evenodd" clip-rule="evenodd" d="M272.399 98.067C272.399 200.89 184.858 298.426 184.858 298.426H154.914V98.067H272.399Z" fill="#CCE3FF"/>
<path fill-rule="evenodd" clip-rule="evenodd" d="M197.618 312.869L143.999 315.196V286.601L197.618 288.928V312.869Z" fill="#ECF6FF"/>
<path fill-rule="evenodd" clip-rule="evenodd" d="M681.388 628.572C681.388 459.144 765.458 298.426 765.458 298.426H794.216V628.572H681.388Z" fill="#CCE3FF"/>
<path fill-rule="evenodd" clip-rule="evenodd" d="M681.388 98.067C681.388 200.89 765.458 298.426 765.458 298.426H794.216V98.067H681.388Z" fill="#CCE3FF"/>
<path fill-rule="evenodd" clip-rule="evenodd" d="M752.311 312.869L802.418 315.196V286.6L752.311 288.928V312.869Z" fill="#ECF6FF"/>
<path fill-rule="evenodd" clip-rule="evenodd" d="M105.569 113.073H839.215V98.067H105.569V113.073Z" fill="#CCE3FF"/>
<path fill-rule="evenodd" clip-rule="evenodd" d="M507.046 507.642V507.642C501.248 507.642 496.504 502.898 496.504 497.101V403.324C496.504 397.527 501.248 392.783 507.046 392.783C512.844 392.783 517.587 397.527 517.587 403.324V497.101C517.587 502.898 512.844 507.642 507.046 507.642" fill="#CCE3FF"/>
<path fill-rule="evenodd" clip-rule="evenodd" d="M479.946 444.481H504.061C507.181 444.481 509.735 441.928 509.735 438.808V438.524C509.735 435.404 507.181 432.852 504.061 432.852H479.946C476.826 432.852 474.273 435.404 474.273 438.524V438.808C474.273 441.928 476.826 444.481 479.946 444.481" fill="#CCE3FF"/>
<path fill-rule="evenodd" clip-rule="evenodd" d="M481.157 444.48H481.156C477.371 444.48 474.273 441.382 474.273 437.596V417.718C474.273 413.932 477.371 410.834 481.156 410.834H481.157C484.942 410.834 488.04 413.932 488.04 417.718V437.596C488.04 441.382 484.942 444.48 481.157 444.48" fill="#CCE3FF"/>
<path fill-rule="evenodd" clip-rule="evenodd" d="M535.807 475.549H513.193C510.073 475.549 507.52 472.996 507.52 469.876V466.456C507.52 463.336 510.073 460.783 513.193 460.783H535.807C538.927 460.783 541.48 463.336 541.48 466.456V469.876C541.48 472.996 538.927 475.549 535.807 475.549" fill="#CCE3FF"/>
<path fill-rule="evenodd" clip-rule="evenodd" d="M534.409 475.549H535.365C538.727 475.549 541.479 472.798 541.479 469.434V447.416C541.479 444.053 538.727 441.301 535.365 441.301H534.409C531.047 441.301 528.295 444.053 528.295 447.416V469.434C528.295 472.798 531.047 475.549 534.409 475.549" fill="#CCE3FF"/>
<path fill-rule="evenodd" clip-rule="evenodd" d="M479.336 487.642H538.583L532.328 534.321H485.591L479.336 487.642Z" fill="#B6D4FF"/>
<path fill-rule="evenodd" clip-rule="evenodd" d="M607.882 502.503C601.784 512.748 605.148 525.996 615.393 532.094C625.638 538.191 638.886 534.828 644.983 524.583C651.08 514.338 647.718 501.09 637.473 494.993C627.228 488.895 613.98 492.258 607.882 502.503" fill="#B6D4FF"/>
<path fill-rule="evenodd" clip-rule="evenodd" d="M615.138 484.545C617.562 491.656 625.323 495.445 625.323 495.445C625.323 495.445 629.154 487.706 626.731 480.595C624.307 473.484 616.546 469.694 616.546 469.694C616.546 469.694 612.715 477.434 615.138 484.545" fill="#B6D4FF"/>
<path fill-rule="evenodd" clip-rule="evenodd" d="M123.139 105.57L105.57 123.14L87.999 105.57L105.57 88.0009L123.139 105.57Z" fill="#CCE3FF"/>
<path fill-rule="evenodd" clip-rule="evenodd" d="M856.785 107.385L839.216 124.955L821.646 107.385L839.216 89.8154L856.785 107.385Z" fill="#CCE3FF"/>
</svg>
