<svg width="945" height="716" viewBox="0 0 945 716" fill="none" xmlns="http://www.w3.org/2000/svg">
<path fill-rule="evenodd" clip-rule="evenodd" d="M327.781 661.211H357.449V102.715H327.781V661.211Z" fill="#ECF6FF"/>
<path fill-rule="evenodd" clip-rule="evenodd" d="M625.314 675.654H634.912V89.551H625.314V675.654Z" fill="#B6D4FF"/>
<path d="M517.021 89.7502V381.963" stroke="#DCEEFF" stroke-width="15"/>
<path d="M418.82 89.7502V381.963" stroke="#DCEEFF" stroke-width="15"/>
<path d="M625.314 382.603H348.253" stroke="#DCEEFF" stroke-width="15"/>
<path fill-rule="evenodd" clip-rule="evenodd" d="M311.62 675.654H625.314V89.552H311.62V675.654ZM340.619 646.654H596.314V118.551H340.619V646.654Z" fill="#DCEEFF"/>
<path fill-rule="evenodd" clip-rule="evenodd" d="M303.74 646.704H633.193V633.461H303.74V646.704Z" fill="#ECF6FF"/>
<path fill-rule="evenodd" clip-rule="evenodd" d="M633.192 646.704H641.325V633.461H633.192V646.704Z" fill="#B6D4FF"/>
<path fill-rule="evenodd" clip-rule="evenodd" d="M527.743 562.431C530.501 586.397 521.531 606.874 521.531 606.874C521.531 606.874 508.09 588.496 505.332 564.53C502.573 540.565 511.543 520.087 511.543 520.087C511.543 520.087 524.984 538.466 527.743 562.431" fill="#D2E9FC"/>
<path fill-rule="evenodd" clip-rule="evenodd" d="M452.255 581.172C451.394 605.281 439.459 624.184 439.459 624.184C439.459 624.184 428.921 604.001 429.782 579.892C430.643 555.784 442.577 536.88 442.577 536.88C442.577 536.88 453.116 557.064 452.255 581.172" fill="#D2E9FC"/>
<path fill-rule="evenodd" clip-rule="evenodd" d="M521.923 581.66C533.916 603.189 533.573 625.205 533.573 625.205C533.573 625.205 513.784 612.316 501.79 590.787C489.797 569.259 490.14 547.243 490.14 547.243C490.14 547.243 509.929 560.131 521.923 581.66" fill="#D2E9FC"/>
<path fill-rule="evenodd" clip-rule="evenodd" d="M538.807 565.003C535.74 588.938 522.061 607.174 522.061 607.174C522.061 607.174 513.356 586.604 516.423 562.669C519.491 538.733 533.169 520.498 533.169 520.498C533.169 520.498 541.874 541.068 538.807 565.003" fill="#D2E9FC"/>
<path fill-rule="evenodd" clip-rule="evenodd" d="M548.792 582.303C538.916 604.69 520.442 619.08 520.442 619.08C520.442 619.08 517.98 597.175 527.856 574.787C537.732 552.401 556.206 538.01 556.206 538.01C556.206 538.01 558.667 559.916 548.792 582.303" fill="#D2E9FC"/>
<path fill-rule="evenodd" clip-rule="evenodd" d="M252 62.249H686.29V42H252V62.249Z" fill="#DCEEFF"/>
<path fill-rule="evenodd" clip-rule="evenodd" d="M682.658 62.249H692.933V42H682.658V62.249Z" fill="#B6D4FF"/>
<path fill-rule="evenodd" clip-rule="evenodd" d="M682.526 186.98H688.907V173.984H682.526V186.98Z" fill="#B6D4FF"/>
<path fill-rule="evenodd" clip-rule="evenodd" d="M263.143 173.984H677.836V62.25H263.143V173.984Z" fill="#DCEEFF"/>
<path fill-rule="evenodd" clip-rule="evenodd" d="M256.405 186.98H683.958V173.984H256.405V186.98Z" fill="#CCE3FF"/>
<path fill-rule="evenodd" clip-rule="evenodd" d="M263.143 79.24H677.836V62.249H263.143V79.24Z" fill="#B6D4FF"/>
<path fill-rule="evenodd" clip-rule="evenodd" d="M495.286 588.797H551.974L545.989 633.461H501.27L495.286 588.797Z" fill="#B6D4FF"/>
<path fill-rule="evenodd" clip-rule="evenodd" d="M444.585 587.507C454.491 608.64 452.567 630.185 452.567 630.185C452.567 630.185 434.58 617.465 424.674 596.331C414.767 575.197 416.69 553.653 416.69 553.653C416.69 553.653 434.678 566.373 444.585 587.507" fill="#D2E9FC"/>
<path fill-rule="evenodd" clip-rule="evenodd" d="M459.532 597.834C450.781 619.479 433.5 633.183 433.5 633.183C433.5 633.183 430.408 611.794 439.16 590.149C447.912 568.505 465.192 554.8 465.192 554.8C465.192 554.8 468.284 576.189 459.532 597.834" fill="#D2E9FC"/>
<path fill-rule="evenodd" clip-rule="evenodd" d="M420.674 598.979H464.44L459.819 633.46H425.295L420.674 598.979Z" fill="#B6D4FF"/>
</svg>
