<svg width="309" height="352" viewBox="0 0 309 352" fill="none" xmlns="http://www.w3.org/2000/svg">
<path fill-rule="evenodd" clip-rule="evenodd" d="M227.302 250.409C227.302 250.409 188.469 188.348 186.531 172.955C184.478 156.646 186.321 135.586 186.321 135.586L212.544 119.976L219.179 158.794L247.476 247.606" fill="#E576C6"/>
<path fill-rule="evenodd" clip-rule="evenodd" d="M19.057 246.865C19.057 246.865 17.828 156.911 23.543 142.097C29.258 127.283 39.602 107.422 39.602 107.422L70.279 127.932L53.825 154.577L42.484 245.456" fill="#E576C6"/>
<path fill-rule="evenodd" clip-rule="evenodd" d="M158.907 38.8602L163.497 169.98L142.197 169.66L144.037 39.3502L143.298 38.8102L144.067 38.8602C144.067 38.8602 132.008 26.3602 127.327 21.6602C130.407 21.8702 133.447 22.1002 136.437 22.2602C144.577 22.6802 151.517 22.9602 157.588 23.4202C158.347 24.4502 160.037 27.2602 159.838 31.7602C159.667 35.4302 159.397 37.2102 159.197 38.0702C159.057 38.6702 158.947 38.8202 158.917 38.8502L158.907 38.8602Z" fill="#CE3D29"/>
<path d="M106.532 93.0256L87.0446 122.551" stroke="#FF9929" stroke-width="3"/>
<path fill-rule="evenodd" clip-rule="evenodd" d="M126.218 170.477H171.603V30.4771H126.218V170.477Z" fill="#FCBDA4"/>
<path fill-rule="evenodd" clip-rule="evenodd" d="M237.311 248.597L216.523 257.362C216.577 254.176 217.07 251.144 218.197 248.493C220.348 243.434 231.65 242.013 231.65 242.013C231.65 242.013 234.118 244.855 237.311 248.597V248.597ZM243.744 256.223C247.416 260.639 250.658 264.685 251.301 265.946C252.915 269.117 255.9 284.814 255.758 287.915C255.615 291.016 246.314 304.952 246.314 304.952C240.543 303.538 244.312 296.341 244.312 296.341C244.312 296.341 239.142 300.712 236.994 300.639C216.753 299.949 217.838 289.701 218.316 288.418C219.391 285.536 224.794 288.831 224.794 288.831C224.794 288.831 219.57 278.234 217.423 266.811L243.744 256.223V256.223ZM147.658 42.6301C130.145 40.9861 122.34 26.3341 119.491 20.7341C125.71 20.6641 131.706 21.4011 137.517 21.7401C149.192 22.4181 158.091 22.7271 165.405 24.0421C165.891 25.7961 169.522 44.6731 147.658 42.6301ZM46.7626 249.354L49.5883 258.39C49.5883 258.39 50.3453 263.451 50.4793 269.37C50.6123 275.288 50.5413 278.876 53.8583 288.013C56.1703 294.38 47.0133 291.784 44.6873 288.142C42.2873 284.385 42.2593 269.794 37.5013 272.291C32.7443 274.787 30.0333 289.247 29.7553 303.088C29.7123 305.263 27.9483 306.896 26.7473 307.423C24.8003 308.278 22.8883 299.542 22.8883 299.542C22.8883 299.542 21.6353 302.453 18.7993 300.961C17.7963 300.434 15.2213 294.384 15.2213 294.384C15.2213 294.384 13.0763 291.332 12.1063 288.04C10.3923 282.228 9.5373 271.631 10.2553 268.597C11.1722 264.72 13.6439 257.638 15.7748 251.81L46.7626 249.354Z" fill="#E576C6"/>
<path fill-rule="evenodd" clip-rule="evenodd" d="M42.7718 281.596C43.3223 284.301 43.8658 286.856 44.6873 288.142C47.0133 291.784 56.1703 294.38 53.8583 288.013C50.5413 278.876 50.6123 275.288 50.4793 269.37C50.3453 263.451 49.5883 258.39 49.5883 258.39L46.6676 249.05L47.7462 240.04L10.2862 243.1C10.2862 243.1 11.5572 164 26.7362 120.92C40.0172 83.2498 64.2462 42.3398 83.1662 30.4298C84.2972 29.7198 85.4272 29.0498 86.5472 28.4398L82.8172 23.3698L123.847 11.9998C123.847 11.9998 122.587 16.9298 126.897 21.2298C127.026 21.3698 127.177 21.5098 127.326 21.6598C132.007 26.3598 144.067 38.8598 144.067 38.8598L143.297 38.8098L144.036 39.3498L142.196 169.66L139.637 351.71L34.7572 348.55L42.7718 281.596V281.596Z" fill="#CE3D29"/>
<path opacity="0.146601" d="M228.926 260.707C228.926 260.707 231.767 271.436 241.514 274.779C244.922 275.948 244.071 289.748 252.425 288.097" stroke="black" stroke-width="3"/>
<path fill-rule="evenodd" clip-rule="evenodd" d="M203.635 262.796L248.506 243.876L251.91 252.938L206.27 271.297L203.635 262.796ZM14.3187 242.758L64.9357 238.374V247.913L14.4747 251.913L14.3187 242.758Z" fill="#FCBDA4"/>
<path fill-rule="evenodd" clip-rule="evenodd" d="M251.827 242.47L201.307 263.77L180.838 71.5399L174.348 37.2999L181.817 36.5399L188.638 32.9199C189.457 33.5599 190.267 34.2499 191.067 34.9899C217.307 59.0699 221.138 146.99 221.138 146.99L251.827 242.47Z" fill="#CE3D29"/>
<path fill-rule="evenodd" clip-rule="evenodd" d="M201.307 263.77L200.017 264.32L180.117 197.66L186.067 170.31L163.496 169.98L158.907 38.8598L158.916 38.8498C158.947 38.8198 159.057 38.6698 159.197 38.0698C159.397 37.2098 159.666 35.4298 159.837 31.7598C160.036 27.2598 158.347 24.4498 157.587 23.4198C157.367 23.1298 157.227 22.9798 157.227 22.9798L157.967 15.9998L190.327 32.0298L188.637 32.9198L181.817 36.5398L174.347 37.2998L180.837 71.5398L201.307 263.77Z" fill="#CE3D29"/>
<path fill-rule="evenodd" clip-rule="evenodd" d="M158.916 38.85L159.196 38.07C159.057 38.67 158.946 38.82 158.916 38.85" fill="#CE3D29"/>
<path fill-rule="evenodd" clip-rule="evenodd" d="M210.677 351.71H169.857L163.496 169.981L186.067 170.31L180.116 197.66L200.017 264.32L201.307 263.77L210.677 351.71Z" fill="#CE3D29"/>
<path opacity="0.20459" d="M82.8158 23.3674C82.8158 23.3674 96.3258 40.6864 111.757 43.7634C126.358 46.6754 144.068 38.8574 144.068 38.8574" stroke="black" stroke-width="3"/>
<path opacity="0.20459" d="M190.328 32.0344C190.328 32.0344 189.141 40.6304 183.528 42.7844C173.692 46.5574 160.875 38.2064 160.875 38.2064" stroke="black" stroke-width="3"/>
<path opacity="0.201265" d="M201.331 263.951L189.926 100.477" stroke="black" stroke-width="3"/>
<path opacity="0.201265" fill-rule="evenodd" clip-rule="evenodd" d="M177.403 107.942C177.299 111.38 174.913 114.098 172.072 114.013C169.231 113.927 167.012 111.07 167.117 107.632C167.22 104.194 169.607 101.476 172.447 101.562C175.288 101.647 177.507 104.504 177.403 107.942" fill="black"/>
<path opacity="0.201265" fill-rule="evenodd" clip-rule="evenodd" d="M174.84 62.0827C174.736 65.5207 172.35 68.2387 169.51 68.1537C166.669 68.0677 164.45 65.2107 164.554 61.7727C164.657 58.3347 167.044 55.6167 169.885 55.7027C172.726 55.7877 174.944 58.6447 174.84 62.0827" fill="black"/>
<path opacity="0.201265" fill-rule="evenodd" clip-rule="evenodd" d="M179.964 153.801C179.86 157.239 177.474 159.957 174.633 159.872C171.793 159.786 169.574 156.929 169.678 153.491C169.781 150.053 172.168 147.335 175.008 147.421C177.849 147.506 180.068 150.363 179.964 153.801" fill="black"/>
<path opacity="0.196568" d="M106.532 86.78L87.0446 145.092L78.3726 236.887L14.3186 242.758" stroke="black" stroke-width="3"/>
<path opacity="0.201265" d="M79.7885 221.898L21.9625 226.989" stroke="black" stroke-width="3"/>
<path opacity="0.201265" d="M201.331 250.409L238.167 233.759" stroke="black" stroke-width="3"/>
</svg>
