<svg width="309" height="352" viewBox="0 0 309 352" fill="none" xmlns="http://www.w3.org/2000/svg">
<path fill-rule="evenodd" clip-rule="evenodd" d="M226.851 251.213C226.851 251.213 188.018 189.152 186.08 173.76C184.027 157.45 185.869 136.39 185.869 136.39L212.092 120.78L218.727 159.599L247.024 248.411" fill="#E576C6"/>
<path fill-rule="evenodd" clip-rule="evenodd" d="M225.574 243.079C227.725 238.019 239.027 236.599 239.027 236.599C239.027 236.599 257.063 257.361 258.678 260.532C260.292 263.702 263.277 279.399 263.135 282.501C262.992 285.602 253.691 299.538 253.691 299.538C247.92 298.124 251.689 290.927 251.689 290.927C251.689 290.927 246.519 295.298 244.371 295.225C224.131 294.535 225.215 284.287 225.693 283.004C226.768 280.122 232.172 283.417 232.172 283.417C232.172 283.417 219.421 257.549 225.574 243.079ZM39.6105 233.127L47.1355 257.192C47.1355 257.192 47.8925 262.254 48.0265 268.172C48.1605 274.091 48.0895 277.679 51.4065 286.816C53.7175 293.183 44.5605 290.587 42.2345 286.944C39.8355 283.188 39.8065 268.597 35.0495 271.093C30.2925 273.589 27.5815 288.049 27.3035 301.891C27.2595 304.065 25.4965 305.698 24.2955 306.226C22.3475 307.08 20.4355 298.345 20.4355 298.345C20.4355 298.345 19.1835 301.256 16.3475 299.764C15.3435 299.236 12.7685 293.187 12.7685 293.187C12.7685 293.187 10.6245 290.134 9.65352 286.843C7.93952 281.03 7.08552 270.434 7.80252 267.399C9.54152 260.052 13.1145 247.556 16.8675 241.182C20.5805 234.874 29.3815 239.775 39.6105 233.127Z" fill="#E576C6"/>
<path opacity="0.15139" d="M236.305 255.293C236.305 255.293 239.145 266.022 248.892 269.365C252.3 270.534 251.449 284.333 259.803 282.683" stroke="black" stroke-width="3"/>
<path fill-rule="evenodd" clip-rule="evenodd" d="M18.6057 235.226C18.6057 235.226 17.3767 153.299 23.0907 139.806C28.8057 126.314 39.1497 108.226 39.1497 108.226L69.8267 126.905L53.3727 151.174L42.0317 233.943" fill="#E576C6"/>
<path fill-rule="evenodd" clip-rule="evenodd" d="M113.984 22.0614L119.798 10.0002L139.751 11.4752L146.66 23.5732L154.197 12.7432L160.487 14.0242L163.581 24.8315C174.965 26.169 183.034 28.8261 190.62 35.7848C216.86 59.8748 218.78 150.055 218.78 150.055L251.309 219.136C256.51 230.185 250.42 243.246 238.62 246.365L230.29 248.576C215.849 252.395 200.849 244.706 195.52 230.746L190.32 217.136L185.62 171.105L98.8003 169.826C98.8003 169.826 99.5503 161.745 97.7003 150.046C95.2903 134.756 86.5903 123.356 86.5903 123.356L70.8703 142.696L62.8093 215.895C61.4803 227.966 51.8903 237.456 39.8093 238.655L23.4503 240.286C10.8493 241.536 -0.0596926 231.605 0.000307373 218.945C0.130307 192.546 2.03031 149.845 11.9203 121.805C25.1903 84.1358 63.7903 43.1448 82.7103 31.2248C93.7105 24.2952 104.094 22.3176 113.984 22.0614Z" fill="#72A065"/>
<path opacity="0.199335" d="M184.821 170.88C188.028 130.137 210.233 121.522 194.233 75.8296" stroke="black" stroke-width="3"/>
<path opacity="0.199335" d="M106.079 93.8293L86.5923 123.354" stroke="black" stroke-width="3"/>
<path fill-rule="evenodd" clip-rule="evenodd" d="M136.66 15.3416L141.968 24.4186L129.045 28.7266L136.66 15.3416ZM155.693 15.366L162.328 28.75L151.069 24.443L155.693 15.366Z" fill="#125475"/>
</svg>
