<svg width="309" height="352" viewBox="0 0 309 352" fill="none" xmlns="http://www.w3.org/2000/svg">
<path fill-rule="evenodd" clip-rule="evenodd" d="M106.002 169.691L99.092 169.59C99.092 169.59 99.102 169.481 99.111 169.251C101.491 169.42 103.792 169.56 106.002 169.691" fill="#C83820"/>
<path fill-rule="evenodd" clip-rule="evenodd" d="M246.802 244.571L223.991 247.43L187.252 189.97L185.911 170.871L129.942 170.041L106.052 169.691H106.002C103.792 169.56 101.491 169.421 99.1118 169.251C69.0218 167.151 27.3318 161.3 24.4718 145.1C19.2818 115.76 58.5418 58.8207 63.1818 52.2207C63.4718 51.8107 63.6208 51.5907 63.6208 51.5907C70.2008 42.1907 76.8218 34.8807 83.0018 30.9907C95.0218 23.4207 106.292 21.7597 117.002 21.7907L119.871 1.00073L163.562 7.02973L161.182 24.3107C174.012 25.5407 182.741 28.0497 190.911 35.5497C217.142 59.6307 219.072 149.821 219.072 149.821L246.802 244.571Z" fill="#C83820"/>
<path fill-rule="evenodd" clip-rule="evenodd" d="M129.942 170.04V170.44C129.942 170.44 119.922 170.46 106.052 169.69L129.942 170.04Z" fill="#C83820"/>
<path opacity="0.201149" d="M185.108 170.639C188.316 129.896 210.521 121.281 194.521 75.5881" stroke="black" stroke-width="3"/>
<path fill-rule="evenodd" clip-rule="evenodd" d="M222.884 221.043L139.446 211.426C136.713 211.11 134.914 208.424 135.663 205.778L168.631 89.3002C169.227 87.1952 171.261 85.8332 173.435 86.0832L256.873 95.7002C259.605 96.0152 261.405 98.7022 260.655 101.348L227.688 217.825C227.092 219.931 225.057 221.293 222.884 221.043" fill="#18181C"/>
<path fill-rule="evenodd" clip-rule="evenodd" d="M144.413 211.999L227.851 221.616C230.025 221.866 232.059 220.504 232.655 218.398L265.622 101.921C266.372 99.2747 264.572 96.5877 261.84 96.2737L178.402 86.6557C176.229 86.4057 174.194 87.7677 173.598 89.8727L156.656 149.73C159.191 150.994 163.233 152.509 170.023 154.204C172.605 154.846 181.274 154.965 181.274 154.965C181.462 154.993 181.666 155.02 181.882 155.05C184.586 155.419 189.201 156.05 189.542 158.829C189.636 159.573 188.704 160.377 188.704 160.377C188.704 160.377 192.063 160.608 192.268 163.651C192.354 164.848 184.831 166.045 184.831 166.045C184.831 166.045 188.422 166.96 188.49 169.217C188.49 169.858 166.612 173.996 166.612 173.996L171.374 174.278L176.324 174.039C176.324 174.039 178.897 174.518 179.043 176.655C179.094 177.501 174.537 178.407 169.236 179.1C160.995 180.186 155.07 179.229 149.273 177.647C149.111 177.602 148.95 177.558 148.791 177.515L140.63 206.351C139.881 208.997 141.681 211.683 144.413 211.999Z" fill="#FCBDA4"/>
<path fill-rule="evenodd" clip-rule="evenodd" d="M246.406 244.621C251.649 250.792 258.035 258.463 258.965 260.29C260.579 263.461 263.564 279.158 263.422 282.26C263.28 285.36 253.978 299.297 253.978 299.297C248.207 297.883 251.976 290.686 251.976 290.686C251.976 290.686 246.807 295.057 244.658 294.983C224.418 294.293 225.502 284.046 225.981 282.762C227.056 279.88 232.459 283.176 232.459 283.176C232.459 283.176 222.072 262.103 224.572 247.357L246.406 244.621ZM184.831 166.045C184.831 166.045 188.422 166.96 188.49 169.217C188.49 169.858 166.612 173.996 166.612 173.996L171.374 174.278L176.324 174.039C176.324 174.039 178.897 174.518 179.043 176.655C179.094 177.501 174.537 178.407 169.236 179.1C160.995 180.186 155.07 179.229 149.273 177.647C148.786 177.51 148.316 177.39 147.863 177.271C141.895 175.706 139.236 175.415 131.56 171.234C128.156 169.379 123.138 165.703 121.044 163.839L126.575 143.372L134.201 140.765C134.201 140.765 137.74 139.379 143.717 138.276C147.47 137.584 151.133 137.858 155.006 137.439L152.806 145.502C152.558 145.681 152.274 146.287 152.06 146.519C152.224 146.655 152.386 146.809 152.574 146.98C154.155 148.425 157.147 150.989 170.023 154.204C172.605 154.846 181.274 154.965 181.274 154.965C183.822 155.332 189.174 155.828 189.542 158.829C189.636 159.573 188.704 160.377 188.704 160.377C188.704 160.377 192.063 160.608 192.268 163.651C192.354 164.848 184.831 166.045 184.831 166.045Z" fill="#E576C6"/>
<path opacity="0.148065" d="M236.592 255.051C236.592 255.051 239.432 265.78 249.179 269.123C252.588 270.292 251.737 284.092 260.09 282.442" stroke="black" stroke-width="3"/>
<path fill-rule="evenodd" clip-rule="evenodd" d="M182.075 97.5066C181.418 99.5706 180.016 100.968 178.943 100.627C177.87 100.286 177.533 98.3346 178.19 96.2706C178.847 94.2056 180.249 92.8086 181.322 93.1496C182.395 93.4916 182.732 95.4416 182.075 97.5066" fill="#020101"/>
<path opacity="0.200498" d="M98.0295 83.667L76.9695 118.539L129.332 139.258" stroke="black" stroke-width="3"/>
</svg>
