<svg width="309" height="352" viewBox="0 0 309 352" fill="none" xmlns="http://www.w3.org/2000/svg">
<path fill-rule="evenodd" clip-rule="evenodd" d="M259.032 98.8603C258.372 92.3926 258.114 84.6543 260.169 81.8828C263.94 76.7968 282.585 61.4218 282.585 61.4218L283.579 74.2523L287.992 59.1897C287.992 59.1897 292.88 60.6383 297.611 63.1138C301.833 65.3224 305.838 68.5044 307.587 69.7477C310.094 71.5297 302.806 98.9477 297.611 103.882C294.044 107.268 283.527 109.894 277.286 111.207C265.365 130.458 233.595 178.558 216.043 174.59C197.809 170.468 180.892 106.73 180.892 106.73L211.647 91.7479L225.038 133.021L259.032 98.8603V98.8603ZM50.0452 238.542L57.5308 257.686C57.5308 257.686 58.6679 262.615 59.3034 268.44C59.938 274.265 60.1818 277.808 64.0388 286.548C66.7268 292.638 58.0282 290.819 55.5613 287.417C53.0181 283.908 51.7317 269.524 47.5445 272.37C43.3573 275.217 42.0956 289.693 43.0323 303.362C43.1791 305.509 41.6883 307.262 40.6223 307.88C38.8932 308.881 36.3701 300.421 36.3701 300.421C36.3701 300.421 35.4626 303.394 32.7092 302.153C31.7345 301.713 28.8305 295.958 28.8305 295.958C28.8305 295.958 26.582 293.121 25.3994 289.954C23.3118 284.363 21.6074 273.985 22.0093 270.936C22.9584 263.749 25.0941 251.619 27.9015 244.899C26.2441 227.632 19.8906 158.307 23.3955 145.138C27.4068 130.07 35.2668 109.651 35.2668 109.651L65.4271 127.389L52.4976 154.992L50.0452 238.542V238.542ZM154.286 23.3187C154.286 23.3187 162.34 29.0107 168.356 39.1887C176.589 53.1127 172.285 65.1257 159.618 65.1457C146.057 65.1687 130.493 60.5527 123.932 40.0127C120.613 29.6227 117.478 21.5427 117.478 21.5427L154.286 23.3187Z" fill="#E576C6"/>
<path fill-rule="evenodd" clip-rule="evenodd" d="M298.19 63.5024C295.412 61.9101 292.769 60.7185 291.474 61.0206C289.207 61.5493 293.355 67.4933 296.381 71.4071L296.347 71.5565C291.463 73.5215 285.063 76.4352 284.034 78.5682C283.316 80.0576 286.122 80.5443 289.599 80.61C286.399 82.1445 283.607 83.8031 282.958 85.1502C282.126 86.8751 286.021 87.255 290.211 87.194C286.511 88.8822 283.044 90.8007 282.31 92.3221C281.375 94.2622 286.42 94.5008 291.138 94.3242L289.925 99.6236C289.554 101.249 288.074 102.377 286.408 102.304L268.306 101.512C266.152 101.418 264.61 99.3946 265.091 97.2926L277.917 41.2346C278.289 39.6096 279.768 38.4816 281.433 38.5546L299.536 39.3456C301.69 39.4406 303.231 41.4636 302.751 43.5656L298.19 63.5024V63.5024Z" fill="#020101"/>
<path fill-rule="evenodd" clip-rule="evenodd" d="M301.88 65.7759C298.039 63.2709 293.347 60.5836 291.474 61.0206C289.187 61.5539 293.429 67.5989 296.461 71.5105C291.563 73.4758 285.071 76.4185 284.034 78.5682C283.315 80.0576 286.122 80.5442 289.599 80.61C286.399 82.1444 283.607 83.8031 282.958 85.1502C282.126 86.875 286.021 87.255 290.211 87.1939C286.511 88.8821 283.044 90.8007 282.31 92.3221C281.072 94.8911 290.32 94.4767 295.407 94.0653L294.094 99.8052C293.723 101.43 292.243 102.558 290.577 102.485L272.475 101.694C270.321 101.6 268.779 99.5762 269.26 97.4742L282.086 41.4162C282.458 39.7912 283.937 38.6642 285.602 38.7362L303.705 39.5272C305.859 39.6222 307.4 41.6462 306.92 43.7472L301.88 65.7759Z" fill="#5E93D1"/>
<path fill-rule="evenodd" clip-rule="evenodd" d="M286.754 46.1633C286.332 48.0003 285.249 49.3053 284.334 49.0763C283.42 48.8473 283.02 47.1723 283.441 45.3353C283.863 43.4973 284.947 42.1933 285.861 42.4223C286.776 42.6513 287.176 44.3263 286.754 46.1633" fill="#020101"/>
<path fill-rule="evenodd" clip-rule="evenodd" d="M284.637 55.6704C284.215 57.5074 283.132 58.8124 282.217 58.5834C281.302 58.3544 280.903 56.6794 281.324 54.8424C281.746 53.0044 282.829 51.7004 283.744 51.9294C284.659 52.1584 285.059 53.8334 284.637 55.6704" fill="#020101"/>
<path fill-rule="evenodd" clip-rule="evenodd" d="M129.609 22.128L117.478 21.5427C117.478 21.5427 120.613 29.6227 123.932 40.0127C130.493 60.5527 146.057 65.1687 159.618 65.1457C172.285 65.1257 176.589 53.1127 168.356 39.1887C163.057 30.2241 156.177 24.7396 154.612 23.5593C170.607 24.6407 180.567 26.6488 189.79 35.2997C207.351 51.7707 221.571 82.1347 227.418 112.133L195.327 126.454L183.897 170.621L99.9119 169.341C99.9119 169.341 100.647 161.251 98.8359 149.561C96.4769 134.271 87.9609 122.861 87.9609 122.861L79.5139 135.701L26.9789 104.731C44.1779 73.3677 68.1679 41.0297 84.1629 30.7397C95.4627 23.4673 105.809 21.6419 115.918 21.5427C120.515 21.4976 125.131 21.8103 129.609 22.128Z" fill="#5E93D1"/>
<path opacity="0.202962" d="M184.272 171.388C187.48 130.645 208.685 121.03 192.685 75.3374" stroke="black" stroke-width="3"/>
<path opacity="0.202055" d="M154.286 23.3187C154.286 23.3187 162.34 29.0107 168.356 39.1887C176.589 53.1127 172.285 65.1257 159.618 65.1457C146.057 65.1687 130.493 60.5527 123.932 40.0127C120.613 29.6227 117.478 21.5427 117.478 21.5427" stroke="black" stroke-width="3"/>
<path opacity="0.202962" d="M109.531 94.3379L90.0441 123.863" stroke="black" stroke-width="3"/>
</svg>
