<svg width="309" height="352" viewBox="0 0 309 352" fill="none" xmlns="http://www.w3.org/2000/svg">
<path fill-rule="evenodd" clip-rule="evenodd" d="M242.568 239.008L242.974 238.957L208.235 155.207C208.235 155.207 217.315 60.0274 191.075 35.9374C179.538 25.345 166.874 24.7191 143.147 23.5466C141.002 23.4406 138.767 23.3301 136.434 23.2074C134.345 23.0984 132.235 22.9499 130.103 22.7999C115.623 21.7811 100.126 20.6907 83.1637 31.3774C64.2447 43.2974 44.0137 84.2074 30.7347 121.877C15.7054 164.517 18.9856 237.344 19.0527 238.795C15.398 245.296 11.9523 257.375 10.2546 264.549C9.53761 267.583 10.3916 278.179 12.1056 283.991C13.0766 287.283 15.2206 290.336 15.2206 290.336C15.2206 290.336 17.7956 296.385 18.7996 296.913C21.6356 298.405 22.8876 295.493 22.8876 295.493C22.8876 295.493 24.7996 303.23 26.7476 302.375C26.8161 302.345 26.8863 302.315 26.958 302.284L26.9584 302.284C28.1443 301.77 29.7141 301.09 29.7556 299.04C30.0336 285.198 32.7446 270.738 37.5016 268.242C40.5559 266.64 41.6611 272.081 42.6959 277.176C43.2728 280.016 43.8279 282.749 44.6866 284.093C47.0126 287.735 56.1696 290.332 53.8586 283.965C53.2609 282.319 52.7733 281.015 52.3746 279.949C51.4398 277.45 50.9942 276.259 50.7667 275.027C50.5594 273.904 50.5334 272.748 50.4835 270.539L50.4786 270.321C50.3446 264.402 49.5876 254.341 49.5876 254.341L42.0626 230.276C41.9749 230.333 41.8873 230.389 41.7998 230.445L58.3247 140.847L81.0437 106.507C81.0437 106.507 95.7447 134.907 98.1547 150.197C100.004 161.887 99.2537 169.977 99.2537 169.977L186.075 171.257L188.284 191.042L220.155 241.817L220.737 241.744C218.236 256.49 228.624 277.566 228.624 277.566C228.624 277.566 223.22 274.27 222.145 277.152C221.667 278.435 220.583 288.683 240.823 289.373C242.971 289.447 248.141 285.075 248.141 285.075C248.141 285.075 244.372 292.272 250.143 293.686C250.143 293.686 259.444 279.75 259.587 276.649C259.729 273.548 256.744 257.851 255.13 254.681C254.199 252.853 247.812 245.18 242.568 239.008Z" fill="#E576C6"/>
<path opacity="0.152762" d="M232.757 249.441C232.757 249.441 235.597 260.169 245.344 263.513C248.752 264.682 247.901 278.481 256.255 276.831" stroke="black" stroke-width="3"/>
<path opacity="0.398112" d="M120.827 22.1836L126.164 65.3976" stroke="#2B2B38" stroke-width="3"/>
<path opacity="0.398112" d="M191.187 70.5581C191.187 70.5581 178.264 40.8551 157.841 24.1111" stroke="#2B2B38" stroke-width="3"/>
<path opacity="0.148693" d="M81.0439 106.507L93.2379 87.3423" stroke="black" stroke-width="3"/>
<path fill-rule="evenodd" clip-rule="evenodd" d="M185.514 171.248L99.2538 169.978C99.2538 169.978 100.121 161.869 98.1548 150.198C96.0388 137.644 86.5128 119.2 84.9248 114.397C84.9248 114.397 86.3928 119.072 91.8018 112.83C99.5468 103.893 126.164 62.3977 126.164 62.3977C126.164 62.3977 151.285 87.7867 171.445 87.0077C185.341 86.4707 190.315 64.9577 190.315 64.9577C212.585 113.358 188.007 107.343 185.514 171.248" fill="#FCBDA4"/>
</svg>
