<svg width="309" height="352" viewBox="0 0 309 352" fill="none" xmlns="http://www.w3.org/2000/svg">
<path fill-rule="evenodd" clip-rule="evenodd" d="M247.806 246.705C252.77 252.572 258.272 259.233 259.13 260.918C260.744 264.089 263.73 279.786 263.587 282.887C263.445 285.988 254.144 299.924 254.144 299.924C248.372 298.51 252.142 291.313 252.142 291.313C252.142 291.313 246.973 295.684 244.823 295.611C224.583 294.921 225.668 284.673 226.146 283.39C227.221 280.508 232.624 283.803 232.624 283.803C232.624 283.803 222.356 262.973 224.695 248.241L196.159 196.749C206.009 190.759 216.829 184.179 225.499 178.919L247.806 246.705V246.705ZM42.7212 237.62L49.5879 259.58C49.5879 259.58 50.3449 264.641 50.4789 270.56C50.6129 276.479 50.5419 280.067 53.8589 289.204C56.1699 295.571 47.0129 292.974 44.6869 289.332C42.2879 285.576 42.2589 270.984 37.5019 273.481C32.7449 275.977 30.0339 290.437 29.7559 304.279C29.7119 306.453 27.9479 308.086 26.7479 308.613C24.7999 309.468 22.8879 300.732 22.8879 300.732C22.8879 300.732 21.6359 303.643 18.7999 302.152C17.7959 301.624 15.2209 295.574 15.2209 295.574C15.2209 295.574 13.0769 292.522 12.1059 289.23C10.3919 283.418 9.53785 272.822 10.2549 269.787C11.9525 262.609 15.4021 250.52 19.0581 244.022C19.0404 242.522 18.5156 196.101 21.0586 156.909L56.7386 166.659L42.7212 237.62V237.62Z" fill="#E576C6"/>
<path opacity="0.146066" d="M236.757 255.679C236.757 255.679 239.597 266.408 249.344 269.751C252.753 270.92 251.902 284.72 260.255 283.069" stroke="black" stroke-width="3"/>
<path fill-rule="evenodd" clip-rule="evenodd" d="M225.499 178.92C216.829 184.18 206.009 190.76 196.159 196.75L187.029 180L186.069 171.5L99.2488 170.22C99.2488 170.22 99.9988 162.13 98.1588 150.44C95.7388 135.15 83.0888 117.67 83.0888 117.67L60.6188 147.05L56.7388 166.66L21.0588 156.91C22.5688 144.96 23.8688 133.48 27.3088 123.74C40.5788 86.0696 64.2488 43.5396 83.1588 31.6196C102.619 19.3596 120.159 22.5896 136.439 23.4496C164.579 24.9196 178.489 24.6296 191.069 36.1796C217.309 60.2596 216.519 151.2 216.519 151.2L225.499 178.92Z" fill="#72A065"/>
<path opacity="0.203265" d="M185.272 171.266C188.48 130.523 210.685 121.908 194.685 76.2163" stroke="black" stroke-width="3"/>
<path fill-rule="evenodd" clip-rule="evenodd" d="M117.186 22.2848L119.018 9L162.707 15.023L161.439 24.2193C169.671 25.5201 174.168 27.0415 174.168 27.0415L165.84 88.3445L109.03 22.4215C109.03 22.4215 111.58 22.3249 117.186 22.2848V22.2848Z" fill="#2437A8"/>
<path opacity="0.203265" d="M101.752 90.1782L83.0847 117.665" stroke="black" stroke-width="3"/>
</svg>
