<svg width="309" height="352" viewBox="0 0 309 352" fill="none" xmlns="http://www.w3.org/2000/svg">
<path fill-rule="evenodd" clip-rule="evenodd" d="M226.944 258.968C226.944 258.968 188.111 196.907 186.173 181.515C184.12 165.205 185.962 144.146 185.962 144.146L212.185 128.535L218.82 167.354L247.117 256.166" fill="#E576C6"/>
<path fill-rule="evenodd" clip-rule="evenodd" d="M232.265 291.173C232.265 291.173 219.515 265.304 225.668 250.834C227.819 245.775 239.121 244.355 239.121 244.355C239.121 244.355 257.158 265.117 258.772 268.288C260.386 271.458 263.371 287.155 263.229 290.257C263.086 293.358 253.785 307.293 253.785 307.293C248.014 305.88 251.783 298.683 251.783 298.683C251.783 298.683 246.614 303.054 244.465 302.98C224.225 302.291 225.309 292.042 225.788 290.759C226.863 287.877 232.265 291.173 232.265 291.173ZM47.733 269.755L43.729 244.86C38.2656 247.383 33.5484 247.175 29.621 247.002C25.5871 246.824 22.3866 246.683 20.067 249.577C15.44 255.349 10.116 267.204 7.34395 274.228C6.19895 277.128 5.52895 287.738 6.39295 293.736C6.88295 297.132 8.56895 300.46 8.56895 300.46C8.56895 300.46 10.251 306.816 11.169 307.482C13.762 309.364 15.418 306.662 15.418 306.662C15.418 306.662 16.061 315.582 18.11 315.015C19.374 314.665 21.354 313.301 21.708 311.155C23.964 297.495 28.716 283.572 33.7819 281.782C37.0349 280.633 37.3497 286.177 37.6445 291.368C37.8088 294.262 37.9669 297.045 38.624 298.499C40.4049 302.437 49.097 306.317 47.72 299.685C45.8346 290.599 46.2812 286.96 46.9467 281.536C46.9784 281.278 47.0105 281.016 47.0429 280.749C47.7579 274.872 47.733 269.755 47.733 269.755Z" fill="#E576C6"/>
<path opacity="0.152414" d="M236.398 263.048C236.398 263.048 239.238 273.777 248.985 277.12C252.394 278.289 251.542 292.088 259.896 290.438" stroke="black" stroke-width="3"/>
<path fill-rule="evenodd" clip-rule="evenodd" d="M18.6991 246.981C18.6991 246.981 17.4701 162.473 23.1851 148.557C28.9001 134.64 39.2431 115.981 39.2431 115.981L69.9201 135.25L53.4661 160.281L42.1251 245.658" fill="#E576C6"/>
<path fill-rule="evenodd" clip-rule="evenodd" d="M116.809 29.7914L119.676 8.99976L163.366 15.0238L160.983 32.3021C173.808 33.5407 182.539 36.0437 190.709 43.5447C216.949 67.6347 218.879 157.815 218.879 157.815L246.609 252.565L223.789 255.425C223.789 255.425 185.589 204.805 177.149 177.585H98.899C98.899 177.585 99.639 169.495 97.799 157.805C95.379 142.515 86.689 131.115 86.689 131.115L70.969 150.455L43.729 246.935L18.699 251.425C18.699 251.425 11.189 172.555 26.379 129.485C39.659 91.8147 63.889 50.9047 82.809 38.9847C94.8198 31.4138 106.102 29.7537 116.809 29.7914Z" fill="#C83820"/>
<path opacity="0.195894" d="M184.914 178.635C188.122 137.892 210.327 129.277 194.327 83.585" stroke="black" stroke-width="3"/>
<path opacity="0.195894" d="M106.173 101.585L86.6858 131.11" stroke="black" stroke-width="3"/>
</svg>
