<svg width="309" height="352" viewBox="0 0 309 352" fill="none" xmlns="http://www.w3.org/2000/svg">
<path fill-rule="evenodd" clip-rule="evenodd" d="M225.441 244.99C216.835 230.99 188.801 184.584 187.162 171.564C185.109 155.255 186.951 134.195 186.951 134.195L213.175 118.585L219.809 157.404L246.839 242.242C252.146 248.481 258.808 256.467 259.761 258.337C261.374 261.508 264.36 277.205 264.218 280.306C264.075 283.407 254.774 297.343 254.774 297.343C249.002 295.929 252.772 288.732 252.772 288.732C252.772 288.732 247.602 293.104 245.453 293.03C225.213 292.34 226.298 282.092 226.776 280.809C227.851 277.927 233.254 281.223 233.254 281.223C233.254 281.223 222.671 259.752 225.441 244.99V244.99ZM42.1471 235.783L47.5241 258.197C47.5241 258.197 47.9381 263.297 47.6711 269.211C47.4051 275.126 47.0921 278.7 49.7841 288.041C51.6601 294.55 42.6991 291.341 40.6241 287.549C38.4841 283.639 39.4421 269.079 34.5261 271.249C29.6111 273.418 25.9301 287.661 24.7181 301.453C24.5271 303.62 22.6571 305.13 21.4231 305.574C19.4231 306.296 18.1051 297.45 18.1051 297.45C18.1051 297.45 16.6591 300.271 13.9301 298.591C12.9651 297.996 10.8051 291.787 10.8051 291.787C10.8051 291.787 8.87112 288.596 8.12412 285.247C6.80712 279.332 6.67012 268.702 7.59112 265.723C9.6867 258.946 13.7039 247.748 17.6439 241.354C17.4862 223.559 17.1942 153.612 22.1735 140.706C27.8885 125.892 38.2315 106.031 38.2315 106.031L68.9085 126.542L52.4545 153.187L42.1471 235.783ZM154.916 21.6151C154.916 21.6151 162.97 27.3071 168.986 37.4851C177.219 51.4091 172.915 63.4221 160.249 63.4421C146.686 63.4651 131.123 58.8491 124.562 38.3091C121.243 27.9191 118.108 19.7141 118.108 19.7141L154.916 21.6151Z" fill="#E576C6"/>
<path opacity="0.146833" d="M237.387 253.097C237.387 253.097 240.227 263.826 249.974 267.169C253.383 268.338 252.531 282.138 260.886 280.487" stroke="black" stroke-width="3"/>
<path fill-rule="evenodd" clip-rule="evenodd" d="M118.156 19.8395C118.56 20.9069 121.482 28.6672 124.562 38.3092C131.123 58.8492 146.686 63.4652 160.249 63.4422C172.915 63.4222 177.219 51.4092 168.986 37.4852C163.687 28.5207 156.807 23.0362 155.242 21.8559C171.237 22.9369 181.196 24.9452 190.42 33.5968C207.981 50.0668 221.264 97.4368 223.574 125.757L191.595 137.297L184.497 169.047H100.369C100.369 169.047 101.276 159.547 99.4662 147.857C97.1062 132.567 88.5912 121.157 88.5912 121.157L80.1432 133.997L27.6082 103.027C44.8082 71.6648 68.7982 39.3268 84.7932 29.0368C96.5853 21.447 107.653 19.7937 118.156 19.8395V19.8395ZM123.122 19.9732L124.845 20.0622C124.272 20.0298 123.698 19.9999 123.122 19.9732L123.122 19.9732Z" fill="#72A065"/>
<path opacity="0.204148" d="M184.902 169.685C188.11 128.942 209.315 119.327 193.315 73.6338" stroke="black" stroke-width="4"/>
<path opacity="0.204148" d="M154.916 21.6151C154.916 21.6151 162.97 27.3071 168.986 37.4851C177.219 51.4091 172.915 63.4221 160.249 63.4421C146.686 63.4651 131.123 58.8491 124.562 38.3091C121.243 27.9191 118.108 19.7141 118.108 19.7141" stroke="black" stroke-width="4"/>
<path opacity="0.204148" d="M110.161 94.634L90.6741 124.159" stroke="black" stroke-width="4"/>
</svg>
