<svg width="1000" height="350" viewBox="0 0 1000 350" fill="none" xmlns="http://www.w3.org/2000/svg">
<path fill-rule="evenodd" clip-rule="evenodd" d="M646.734 88.5L636.33 192.399H499.729L510.133 88.5H646.734Z" fill="#DCEEFF"/>
<path fill-rule="evenodd" clip-rule="evenodd" d="M646.734 88.5L636.33 192.399H499.729L510.133 88.5H646.734Z" stroke="#DCEEFF" stroke-width="5"/>
<path fill-rule="evenodd" clip-rule="evenodd" d="M643.677 88.5L633.273 192.399H494.131L504.536 88.5H643.677Z" fill="white"/>
<path fill-rule="evenodd" clip-rule="evenodd" d="M643.677 88.5L633.273 192.399H494.131L504.536 88.5H643.677Z" stroke="#DCEEFF" stroke-width="5"/>
<path fill-rule="evenodd" clip-rule="evenodd" d="M614.34 108.882L608.018 172.017H523.469L529.791 108.882H614.34Z" fill="#CCE3FF"/>
<path fill-rule="evenodd" clip-rule="evenodd" d="M359.024 195.219H377.588V122.706H359.024V195.219Z" fill="#DCEEFF"/>
<path fill-rule="evenodd" clip-rule="evenodd" d="M340.459 195.219H359.023V122.706H340.459V195.219Z" fill="#CCE3FF"/>
<path fill-rule="evenodd" clip-rule="evenodd" d="M377.588 195.219H396.151V122.706H377.588V195.219Z" fill="#CCE3FF"/>
<path fill-rule="evenodd" clip-rule="evenodd" d="M444.664 195.219H396.151V122.706H444.664C447.497 122.706 449.793 125.002 449.793 127.835V190.091C449.793 192.923 447.497 195.219 444.664 195.219" fill="#B6D4FF"/>
<path fill-rule="evenodd" clip-rule="evenodd" d="M404.101 140.45H441.844V133.27H404.101V140.45Z" fill="#CCE3FF"/>
<path fill-rule="evenodd" clip-rule="evenodd" d="M412.511 151.526H433.434V144.347H412.511V151.526Z" fill="#CCE3FF"/>
<path fill-rule="evenodd" clip-rule="evenodd" d="M254 212.995H677.178V195.219H254V212.995Z" fill="#DCEEFF"/>
<path fill-rule="evenodd" clip-rule="evenodd" d="M677.178 212.995H746.795V195.219H677.178V212.995Z" fill="#CCE3FF"/>
<path fill-rule="evenodd" clip-rule="evenodd" d="M357.141 212.995L390.188 264.841V212.995H357.141Z" fill="#B6D4FF"/>
<path fill-rule="evenodd" clip-rule="evenodd" d="M338.853 212.995L371.9 264.841H390.188L357.141 212.995H338.853Z" fill="#CCE3FF"/>
<path fill-rule="evenodd" clip-rule="evenodd" d="M599.518 212.995L632.565 264.841V212.995H599.518Z" fill="#B6D4FF"/>
<path fill-rule="evenodd" clip-rule="evenodd" d="M581.229 212.995L614.276 264.841H632.564L599.517 212.995H581.229Z" fill="#CCE3FF"/>
</svg>
