<svg width="1000" height="350" viewBox="0 0 1000 350" fill="none" xmlns="http://www.w3.org/2000/svg">
<path fill-rule="evenodd" clip-rule="evenodd" d="M714.514 137.492C711.035 166.692 686.181 189.346 656.04 189.346C625.899 189.346 601.045 166.692 597.566 137.492H714.514Z" fill="#ECF6FF"/>
<path fill-rule="evenodd" clip-rule="evenodd" d="M488.125 102C484.646 131.2 459.792 153.854 429.65 153.854C399.51 153.854 374.656 131.2 371.177 102H488.125Z" fill="#ECF6FF"/>
<path fill-rule="evenodd" clip-rule="evenodd" d="M488.125 137.492C484.646 166.692 459.792 189.346 429.65 189.346C399.51 189.346 374.656 166.692 371.177 137.492H488.125Z" fill="#ECF6FF"/>
<path fill-rule="evenodd" clip-rule="evenodd" d="M524.819 145.715H572.564L559.708 188.005H537.675L524.819 145.715Z" fill="#DCEEFF"/>
<path fill-rule="evenodd" clip-rule="evenodd" d="M293.435 145.715H341.18L328.324 188.005H306.291L293.435 145.715Z" fill="#DCEEFF"/>
<path fill-rule="evenodd" clip-rule="evenodd" d="M524.819 118.1H572.564L559.708 160.391H537.675L524.819 118.1Z" fill="#DCEEFF"/>
<path fill-rule="evenodd" clip-rule="evenodd" d="M254 198.078H677.178V180.302H254V198.078Z" fill="#DCEEFF"/>
<path fill-rule="evenodd" clip-rule="evenodd" d="M677.178 198.078H746.795V180.302H677.178V198.078Z" fill="#CCE3FF"/>
<path fill-rule="evenodd" clip-rule="evenodd" d="M357.141 198.079L390.188 249.925V198.079H357.141Z" fill="#B6D4FF"/>
<path fill-rule="evenodd" clip-rule="evenodd" d="M338.853 198.079L371.9 249.925H390.188L357.141 198.079H338.853Z" fill="#CCE3FF"/>
<path fill-rule="evenodd" clip-rule="evenodd" d="M599.518 198.079L632.565 249.925V198.079H599.518Z" fill="#B6D4FF"/>
<path fill-rule="evenodd" clip-rule="evenodd" d="M581.23 198.079L614.277 249.925H632.565L599.518 198.079H581.23Z" fill="#CCE3FF"/>
</svg>
