<svg width="1000" height="350" viewBox="0 0 1000 350" fill="none" xmlns="http://www.w3.org/2000/svg">
<path fill-rule="evenodd" clip-rule="evenodd" d="M455.531 206.663H552.018L565.048 76.5H468.561L455.531 206.663Z" fill="#DCEEFF"/>
<path fill-rule="evenodd" clip-rule="evenodd" d="M455.531 206.663H552.018L565.048 76.5H468.561L455.531 206.663Z" stroke="#DCEEFF" stroke-width="5"/>
<path fill-rule="evenodd" clip-rule="evenodd" d="M450.322 206.663H548.604L561.635 76.5H463.352L450.322 206.663Z" fill="white"/>
<path fill-rule="evenodd" clip-rule="evenodd" d="M450.322 206.663H548.604L561.635 76.5H463.352L450.322 206.663Z" stroke="#DCEEFF" stroke-width="5"/>
<path fill-rule="evenodd" clip-rule="evenodd" d="M469.146 189.477H533.221L542.81 93.6865H478.735L469.146 189.477Z" fill="#DCEEFF"/>
<path fill-rule="evenodd" clip-rule="evenodd" d="M710.356 115.213L701.326 205.394H582.762L591.793 115.213H710.356Z" fill="#DCEEFF"/>
<path fill-rule="evenodd" clip-rule="evenodd" d="M710.356 115.213L701.326 205.394H582.762L591.793 115.213H710.356Z" stroke="#DCEEFF" stroke-width="5"/>
<path fill-rule="evenodd" clip-rule="evenodd" d="M707.702 115.213L698.672 205.394H577.902L586.933 115.213H707.702Z" fill="white"/>
<path fill-rule="evenodd" clip-rule="evenodd" d="M707.702 115.213L698.672 205.394H577.902L586.933 115.213H707.702Z" stroke="#DCEEFF" stroke-width="5"/>
<path fill-rule="evenodd" clip-rule="evenodd" d="M682.239 132.904L676.752 187.702H603.367L608.854 132.904H682.239Z" fill="#CCE3FF"/>
<path fill-rule="evenodd" clip-rule="evenodd" d="M309.551 171.688V171.688C309.551 178.591 315.148 184.188 322.052 184.188H434.521V159.187H322.052C315.148 159.187 309.551 164.784 309.551 171.688" fill="#CCE3FF"/>
<path fill-rule="evenodd" clip-rule="evenodd" d="M385.197 171.687V171.687C385.197 175.683 388.436 178.923 392.433 178.923H434.219C434.386 178.923 434.521 178.789 434.521 178.623V164.75C434.521 164.584 434.386 164.45 434.219 164.45H392.433C388.436 164.45 385.197 167.69 385.197 171.687" fill="#DCEEFF"/>
<path fill-rule="evenodd" clip-rule="evenodd" d="M293.855 184.188V209.188H416.614C423.518 209.188 429.115 203.592 429.115 196.689C429.115 189.785 423.518 184.188 416.614 184.188H293.855Z" fill="#CCE3FF"/>
<path fill-rule="evenodd" clip-rule="evenodd" d="M293.855 189.521V203.855H344.329C348.287 203.855 351.496 200.646 351.496 196.688C351.496 192.729 348.287 189.521 344.329 189.521H293.855Z" fill="#DCEEFF"/>
<path fill-rule="evenodd" clip-rule="evenodd" d="M254 225.797H677.178V208.02H254V225.797Z" fill="#DCEEFF"/>
<path fill-rule="evenodd" clip-rule="evenodd" d="M677.178 225.797H746.795V208.02H677.178V225.797Z" fill="#CCE3FF"/>
<path fill-rule="evenodd" clip-rule="evenodd" d="M357.141 225.797L390.188 277.643V225.797H357.141Z" fill="#B6D4FF"/>
<path fill-rule="evenodd" clip-rule="evenodd" d="M338.852 225.797L371.899 277.643H390.187L357.14 225.797H338.852Z" fill="#CCE3FF"/>
<path fill-rule="evenodd" clip-rule="evenodd" d="M599.518 225.797L632.565 277.643V225.797H599.518Z" fill="#B6D4FF"/>
<path fill-rule="evenodd" clip-rule="evenodd" d="M581.23 225.797L614.277 277.643H632.565L599.518 225.797H581.23Z" fill="#CCE3FF"/>
</svg>
