<svg width="945" height="716" viewBox="0 0 945 716" fill="none" xmlns="http://www.w3.org/2000/svg">
<path fill-rule="evenodd" clip-rule="evenodd" d="M478.17 238.894H630.424L650.984 33.5H498.731L478.17 238.894Z" fill="#DCEEFF"/>
<path fill-rule="evenodd" clip-rule="evenodd" d="M478.17 238.894H630.424L650.984 33.5H498.731L478.17 238.894Z" stroke="#DCEEFF" stroke-width="5"/>
<path fill-rule="evenodd" clip-rule="evenodd" d="M469.952 238.894H625.038L645.598 33.5H490.512L469.952 238.894Z" fill="white"/>
<path fill-rule="evenodd" clip-rule="evenodd" d="M469.952 238.894H625.038L645.598 33.5H490.512L469.952 238.894Z" stroke="#DCEEFF" stroke-width="5"/>
<path fill-rule="evenodd" clip-rule="evenodd" d="M499.655 211.774H600.764L615.895 60.6208H514.786L499.655 211.774Z" fill="#DCEEFF"/>
<path fill-rule="evenodd" clip-rule="evenodd" d="M380.432 199.273H373.583C341.645 199.273 315.753 173.381 315.753 141.442H438.262C438.262 173.381 412.37 199.273 380.432 199.273" fill="#ECF6FF"/>
<path fill-rule="evenodd" clip-rule="evenodd" d="M317.669 199.273V199.273C317.669 206.177 323.266 211.774 330.169 211.774H442.638V186.773H330.169C323.266 186.773 317.669 192.37 317.669 199.273" fill="#DCEEFF"/>
<path fill-rule="evenodd" clip-rule="evenodd" d="M393.313 199.273V199.273C393.313 203.27 396.553 206.51 400.55 206.51H442.336C442.502 206.51 442.637 206.376 442.637 206.209V192.337C442.637 192.171 442.502 192.037 442.336 192.037H400.55C396.553 192.037 393.313 195.276 393.313 199.273" fill="#ECF6FF"/>
<path fill-rule="evenodd" clip-rule="evenodd" d="M301.972 211.774V236.775H424.731C431.634 236.775 437.231 231.178 437.231 224.274C437.231 217.371 431.634 211.774 424.731 211.774H301.972Z" fill="#DCEEFF"/>
<path fill-rule="evenodd" clip-rule="evenodd" d="M301.972 217.107V231.442H352.446C356.404 231.442 359.613 228.233 359.613 224.274C359.613 220.316 356.404 217.107 352.446 217.107H301.972Z" fill="#ECF6FF"/>
<path fill-rule="evenodd" clip-rule="evenodd" d="M301.971 686.705H637.932V340.934H301.971V686.705Z" fill="#CCE3FF"/>
<path fill-rule="evenodd" clip-rule="evenodd" d="M616.301 686.705H664.21V350.781H616.301V686.705Z" fill="#DCEEFF"/>
<path fill-rule="evenodd" clip-rule="evenodd" d="M260.476 356.118H664.211V266.58H260.476V356.118Z" fill="#DCEEFF"/>
<path fill-rule="evenodd" clip-rule="evenodd" d="M213 266.581H716.818V235.895H213V266.581Z" fill="#CCE3FF"/>
<path fill-rule="evenodd" clip-rule="evenodd" d="M664.211 686.705H687.586V266.581H664.211V686.705Z" fill="#B6D4FF"/>
<path fill-rule="evenodd" clip-rule="evenodd" d="M308.384 686.705H323.602V356.454H308.384V686.705Z" fill="#B6D4FF"/>
<path fill-rule="evenodd" clip-rule="evenodd" d="M682.846 266.581H731.256V235.895H682.846V266.581Z" fill="#B6D4FF"/>
<path fill-rule="evenodd" clip-rule="evenodd" d="M260.475 686.705H308.384V340.524H260.475V686.705Z" fill="#DCEEFF"/>
<path fill-rule="evenodd" clip-rule="evenodd" d="M247.073 686.705H308.385V602.047H247.073V686.705Z" fill="#DCEEFF"/>
<path fill-rule="evenodd" clip-rule="evenodd" d="M616.301 686.705H678.117V602.047H616.301V686.705Z" fill="#DCEEFF"/>
<path fill-rule="evenodd" clip-rule="evenodd" d="M408.687 673.652C408.687 673.652 353.535 641.316 419.996 547.244C419.996 547.244 454.208 587.194 467.38 539.859C467.38 539.859 504.667 598.972 480.459 634.672" fill="#ECF6FF"/>
<path fill-rule="evenodd" clip-rule="evenodd" d="M530.954 676.934C530.954 676.934 580.61 637.089 540.405 556.884C540.405 556.884 482.765 618.423 468.2 504.372C468.2 504.372 426.109 590.481 452.553 631.808" fill="#ECF6FF"/>
<path fill-rule="evenodd" clip-rule="evenodd" d="M395.637 686.705H545.867V655.561H395.637V686.705Z" fill="#DCEEFF"/>
<path fill-rule="evenodd" clip-rule="evenodd" d="M538.514 637.927L528.209 608.686L405.257 655.537L415.563 684.78L538.514 637.927Z" fill="#DCEEFF"/>
<path fill-rule="evenodd" clip-rule="evenodd" d="M531.027 686.12L541.814 653.52L421.567 610.5L410.781 643.099L531.027 686.12Z" fill="#DCEEFF"/>
<path fill-rule="evenodd" clip-rule="evenodd" d="M674.522 686.705H701.377V602.047H674.522V686.705Z" fill="#B6D4FF"/>
<path fill-rule="evenodd" clip-rule="evenodd" d="M358.033 679.806H395.984V424.67H358.033V679.806Z" stroke="#B6D4FF" stroke-width="5"/>
<path fill-rule="evenodd" clip-rule="evenodd" d="M395.984 679.806H433.935V424.67H395.984V679.806Z" stroke="#B6D4FF" stroke-width="5"/>
<path fill-rule="evenodd" clip-rule="evenodd" d="M433.935 679.806H471.886V424.67H433.935V679.806Z" stroke="#B6D4FF" stroke-width="5"/>
<path fill-rule="evenodd" clip-rule="evenodd" d="M471.887 679.806H509.838V424.67H471.887V679.806Z" stroke="#B6D4FF" stroke-width="5"/>
<path fill-rule="evenodd" clip-rule="evenodd" d="M509.838 679.806H547.789V424.67H509.838V679.806Z" stroke="#B6D4FF" stroke-width="5"/>
<path fill-rule="evenodd" clip-rule="evenodd" d="M547.789 679.806H585.74V424.67H547.789V679.806Z" stroke="#B6D4FF" stroke-width="5"/>
</svg>
