<svg width="22" height="20" viewBox="0 0 22 20" fill="none" xmlns="http://www.w3.org/2000/svg">
<g id="detailedshield_f_01">
<g id="_Elements / _detailedshield_f_base">
<g id="stretchable-items">
<path id="detailedshield01" d="M20.2249 4.93198C20.0391 5.08717 19.8239 5.2948 19.6096 5.56265C19.0438 6.26992 18.5 7.37854 18.5 9C18.5 12.8896 17.2887 15.2454 15.7859 16.6326C14.2709 18.031 12.4007 18.5 11 18.5C9.59982 18.5 7.74427 18.0313 6.24349 16.6341C4.75411 15.2474 3.55557 12.8913 3.55557 9C3.55557 7.37472 2.99523 6.26435 2.414 5.55745C2.19325 5.28897 1.9717 5.08122 1.78083 4.92628L5.20711 1.5H11H16.7929L20.2249 4.93198Z" fill="white" stroke="#5397F0"/>
</g>
<path id="Vector" d="M13.5 11.5V16.5H12.5V13.1129L11.3334 15.2903H10.5833L9.50001 13.1935V16.5H8.5V11.5H9.58332L10.9167 14.2419L12.25 11.5H13.5Z" fill="#5397F0"/>
</g>
</g>
</svg>
