<svg width="19" height="18" viewBox="0 0 19 18" fill="none" xmlns="http://www.w3.org/2000/svg">
<g id="usa_a_MT_01">
<g id="_Elements / _usa_a_base">
<g id="stretchable-items">
<rect id="background-stroke" x="1.5" y="1.5" width="16" height="15" fill="white" stroke="#888B8F"/>
</g>
<g id="non-stretchable-items">
<path id="MT" d="M10.0374 6.45703H9.31738L9.24238 5.05203C9.21905 4.63203 9.20738 4.27536 9.20738 3.98203C9.20738 3.82536 9.20905 3.71203 9.21238 3.64203L8.62738 6.08703H7.93238L7.30738 3.63703C7.32072 3.84036 7.32738 4.0687 7.32738 4.32203C7.32738 4.59203 7.32072 4.84036 7.30738 5.06703L7.23238 6.45703H6.51738L6.78738 2.99703H7.72238L8.29238 5.38203L8.82738 2.99703H9.77238L10.0374 6.45703ZM12.7353 3.57203H11.8603V6.45703H11.1253V3.57203H10.2053V2.99703H12.8153L12.7353 3.57203Z" fill="#888B8F"/>
</g>
</g>
</g>
</svg>
