<svg width="20" height="21" viewBox="0 0 20 21" fill="none" xmlns="http://www.w3.org/2000/svg">
<g id="usa_VT_01">
<g id="_Elements / _usa_VT_base">
<g id="stretchable-items">
<path id="shape02" d="M2.43193 8.16966C2.45198 8.10775 2.4707 8.05109 2.48783 8H17.5122C17.5293 8.05109 17.548 8.10775 17.5681 8.16966C17.6715 8.48915 17.81 8.94713 17.9485 9.49711C18.2266 10.6014 18.5 12.0571 18.5 13.5C18.5 14.9429 18.2266 16.3986 17.9485 17.5029C17.81 18.0529 17.6715 18.5109 17.5681 18.8303C17.548 18.8922 17.5293 18.9489 17.5122 19H2.48783C2.4707 18.9489 2.45198 18.8922 2.43193 18.8303C2.32848 18.5109 2.19004 18.0529 2.05153 17.5029C1.77341 16.3986 1.5 14.9429 1.5 13.5C1.5 12.0571 1.77341 10.6014 2.05153 9.49711C2.19004 8.94713 2.32848 8.48915 2.43193 8.16966Z" fill="white" stroke="#53C2AE"/>
<path id="shape01" d="M1.5 2H18.5V8H1.5V2Z" fill="white" stroke="#53C2AE"/>
</g>
<g id="non-stretchable-items">
<path id="VT" d="M9.12609 6.7793H8.23109L7.20109 3.3193H7.98609L8.69109 6.1693L9.37109 3.3193H10.1211L9.12609 6.7793ZM12.663 3.8943H11.788V6.7793H11.053V3.8943H10.133V3.3193H12.743L12.663 3.8943Z" fill="#53C2AE"/>
</g>
</g>
</g>
</svg>
