<svg width="21" height="21" viewBox="0 0 21 21" fill="none" xmlns="http://www.w3.org/2000/svg">
<g id="usa_d_NM_01">
<g id="_Elements / _usa_d_base">
<g id="stretchable-items">
<g id="NM">
<path id="background" d="M19.5 10.5C19.5 15.4706 15.4706 19.5 10.5 19.5C5.52944 19.5 1.5 15.4706 1.5 10.5C1.5 5.52944 5.52944 1.5 10.5 1.5C15.4706 1.5 19.5 5.52944 19.5 10.5Z" fill="white" stroke="white"/>
<circle id="inner-circle" cx="10.5" cy="10.5" r="8" stroke="#F56C6C"/>
<g id="shape">
<path d="M11 3V1H10V3H11Z" fill="#F56C6C"/>
<path d="M1.5 8H3V9H1.5V8Z" fill="#F56C6C"/>
<path d="M3 10H1V11H3V10Z" fill="#F56C6C"/>
<path d="M3 12H1.5V13H3V12Z" fill="#F56C6C"/>
<path d="M18 11H20V10H18V11Z" fill="#F56C6C"/>
<path d="M19.5 9H18V8H19.5V9Z" fill="#F56C6C"/>
<path d="M18 13H19.5V12H18V13Z" fill="#F56C6C"/>
<path d="M10 20V18H11V20H10Z" fill="#F56C6C"/>
<path d="M12 18V19.5H13V18H12Z" fill="#F56C6C"/>
<path d="M8 19.5V18H9V19.5H8Z" fill="#F56C6C"/>
<path d="M9 1.5V3L8 3V1.5L9 1.5Z" fill="#F56C6C"/>
<path d="M13 3V1.5L12 1.5V3H13Z" fill="#F56C6C"/>
</g>
</g>
</g>
</g>
</g>
</svg>
