<svg width="19" height="19" viewBox="0 0 19 19" fill="none" xmlns="http://www.w3.org/2000/svg">
<g id="usa_c_AL_01">
<g id="_Elements / _usa_c_base">
<g id="stretchable-items">
<path id="AL" d="M5.08601 17L5.33996 16.1419L5.38195 16L5.33996 15.8581L4.89605 14.3581L4.79007 14H4.4166H3.89956H3.47717L3.40659 14.4165L3.06624 16.4248L1.59663 16.262L1.50048 10.9954L2.45 2H16.0812L17.4904 9.91118L16.5974 14H8H7.5V14.5V16.1842C7.5 16.2032 7.49105 16.2648 7.39219 16.3708C7.29428 16.4757 7.14238 16.5856 6.95204 16.6872C6.76498 16.7871 6.56141 16.868 6.37884 16.9231C6.18716 16.981 6.05372 17 6 17H5.08601Z" fill="white" stroke="#888B8F"/>
</g>
</g>
</g>
</svg>
