<svg width="19" height="18" viewBox="0 0 19 18" fill="none" xmlns="http://www.w3.org/2000/svg">
<g id="usa_a_RI_01">
<g id="_Elements / _usa_a_base">
<g id="stretchable-items">
<rect id="background-stroke" x="1.5" y="1.5" width="16" height="15" fill="white" stroke="#888B8F"/>
</g>
<g id="non-stretchable-items">
<path id="RI" d="M8.77627 5.10203H8.40127V6.45703H7.66627V2.99703H8.74627C9.2096 2.99703 9.55794 3.0837 9.79127 3.25703C10.0246 3.42703 10.1413 3.68536 10.1413 4.03203C10.1413 4.2587 10.0846 4.44536 9.97127 4.59203C9.86127 4.7387 9.6896 4.8637 9.45627 4.96703L10.3513 6.45703H9.51627L8.77627 5.10203ZM8.40127 4.58203H8.78627C8.98294 4.58203 9.13127 4.5387 9.23127 4.45203C9.33127 4.36203 9.38127 4.22203 9.38127 4.03203C9.38127 3.85536 9.32794 3.72703 9.22127 3.64703C9.11794 3.5637 8.9546 3.52203 8.73127 3.52203H8.40127V4.58203ZM11.4726 6.45703H10.7376V2.99703H11.4726V6.45703Z" fill="#888B8F"/>
</g>
</g>
</g>
</svg>
