<svg width="21" height="19" viewBox="0 0 21 19" fill="none" xmlns="http://www.w3.org/2000/svg">
<g id="usa_e_TN_01">
<g id="_Elements / _usa_e_base">
<g id="stretchable-items">
<g id="TN-stretchable">
<rect id="background" x="1" y="1" width="19" height="17" fill="#888B8F"/>
<rect id="shape" x="1.5" y="1.5" width="18" height="9" fill="white" stroke="#888B8F"/>
</g>
</g>
<g id="non-stretchable-items">
<g id="TN-non-stretchable">
<path id="shape02" d="M1.7215 17.5L4.3465 10.5H19.2785L16.6535 17.5H1.7215Z" fill="white" stroke="#888B8F"/>
<path id="TN" d="M10.0746 12.8337H9.19963V15.7188H8.46463V12.8337H7.54463V12.2587H10.1546L10.0746 12.8337ZM13.1405 15.7188H12.1955L11.0955 12.9737C11.1255 13.2104 11.1489 13.4337 11.1655 13.6437C11.1855 13.8504 11.1955 14.0937 11.1955 14.3737V15.7188H10.5305V12.2587H11.4555L12.5755 15.0087C12.5089 14.5621 12.4755 14.1521 12.4755 13.7787V12.2587H13.1405V15.7188Z" fill="#888B8F"/>
</g>
</g>
</g>
</g>
</svg>
