<svg width="21" height="18" viewBox="0 0 21 18" fill="none" xmlns="http://www.w3.org/2000/svg">
<g id="usa_f_ND_01">
<g id="_Elements / _usa_f_base">
<g id="stretchable-items">
<g id="ND-stretchable">
<rect id="shape" x="1.5" y="1.5" width="18" height="15" fill="white" stroke="#888B8F"/>
<path id="shape_2" d="M1 1V17H2L2.5 7H18L19 17H20V1H1Z" fill="#888B8F"/>
</g>
</g>
<g id="non-stretchable-items">
<path id="ND-non-stretchable" d="M10.1791 6H9.2341L8.1341 3.255C8.1641 3.49167 8.18743 3.715 8.2041 3.925C8.2241 4.13167 8.2341 4.375 8.2341 4.655V6H7.5691V2.54H8.4941L9.6141 5.29C9.54743 4.84333 9.5141 4.43333 9.5141 4.06V2.54H10.1791V6ZM11.8139 2.54C12.3539 2.54 12.7856 2.66333 13.1089 2.91C13.4356 3.15333 13.5989 3.60167 13.5989 4.255C13.5989 4.895 13.4389 5.34667 13.1189 5.61C12.8023 5.87 12.3956 6 11.8989 6H10.9089V2.54H11.8139ZM11.6439 3.08V5.46H11.9439C12.2273 5.46 12.4456 5.37333 12.5989 5.2C12.7556 5.02333 12.8339 4.70833 12.8339 4.255C12.8339 3.94167 12.7939 3.69833 12.7139 3.525C12.6373 3.35167 12.5339 3.235 12.4039 3.175C12.2739 3.11167 12.1156 3.08 11.9289 3.08H11.6439Z" fill="white"/>
</g>
</g>
</g>
</svg>
