<svg width="21" height="17" viewBox="0 0 21 17" fill="none" xmlns="http://www.w3.org/2000/svg">
<g id="usa_b_HI_01">
<g id="_Elements / _usa_b_base">
<g id="stretchable-items">
<path id="HI" d="M10.4663 1.5C14.3876 1.5 17.009 3.98137 18.3861 6.79813C19.0745 8.20632 19.4377 9.67444 19.4919 10.9096C19.5477 12.1777 19.2753 13.0735 18.8509 13.4817C18.2023 14.1056 17.0229 14.6198 15.494 14.9734C13.9829 15.3228 12.1994 15.5 10.4128 15.5C8.62601 15.5 6.85488 15.3228 5.3683 14.9738C3.86168 14.62 2.7251 14.1074 2.12641 13.4931C1.71377 13.0697 1.45076 12.1583 1.50767 10.8868C1.56315 9.64704 1.92008 8.17982 2.59875 6.77541C3.95586 3.96704 6.5453 1.5 10.4663 1.5Z" fill="white" stroke="#888B8F"/>
</g>
</g>
</g>
</svg>
