<svg width="19" height="19" viewBox="0 0 19 19" fill="none" xmlns="http://www.w3.org/2000/svg">
<g id="usa_f_LA_01">
<g id="_Elements / _usa_f_base">
<g id="stretchable-items">
<path id="LA-stretchable" d="M1.53166 17.4838L1.99911 9.64495L2.00216 9.59383L1.99478 9.54316L1.5 6.14428V1.51758H12.0425V3.41257L11.5519 5.90317L11.4344 6.4998H12.0425H17.4486L17.1483 9.56645L17.1442 9.60809L17.1471 9.64983L17.4981 14.7045L17.1976 17.493L6.58015 17.3343L6.56899 17.3341L6.55783 17.3344L1.53166 17.4838Z" fill="white" stroke="#888B8F"/>
</g>
<g id="non-stretchable-items">
<path id="LA-non-stretchable" d="M4.86318 5.95297H6.23318L6.15318 6.54297H4.12818V3.08297H4.86318V5.95297ZM8.30713 5.76797H7.22213L7.02713 6.54297H6.26213L7.32713 3.08297H8.22213L9.28213 6.54297H8.50213L8.30713 5.76797ZM8.16713 5.22297L7.76213 3.62797L7.36213 5.22297H8.16713Z" fill="#888B8F"/>
</g>
</g>
</g>
</svg>
