<svg width="28" height="28" viewBox="0 0 28 28" fill="none" xmlns="http://www.w3.org/2000/svg">
<g id="hazmat_any_jpn">
<rect width="28" height="28" fill="white" fill-opacity="0.01"/>
<g id="non-stretchable_items">
<g id="truck-icon_base01">
<circle id="outer-ring" cx="14" cy="14" r="13" fill="#FC1959"/>
<circle id="inner-ring" cx="14" cy="14" r="10" fill="white"/>
</g>
<path id="Subtract" fill-rule="evenodd" clip-rule="evenodd" d="M19.6779 18L23.4127 21.7349L21.7355 23.4121L16.3234 18H19.6779ZM10.6779 9L6.09021 4.41235L4.41297 6.08959L7.32338 9H10.6779Z" fill="#FC1959"/>
<g id="Vector">
<path d="M7.5156 15.9394C7.5156 16.1212 7.57259 16.2121 7.68656 16.2121H9.66485C9.86024 16.2121 9.97422 16.0909 10.0068 15.8485L10.0556 15.3939L10.6174 15.5455L10.5197 16.1818C10.4545 16.5859 10.2592 16.7879 9.93351 16.7879H7.54002C7.1981 16.7879 7.02713 16.5657 7.02713 16.1212V13.1212H9.49389V14.9394C9.49389 15.2626 9.36363 15.4243 9.10312 15.4243H8.51696L8.46811 14.8485H8.90773C8.97286 14.8485 9.00542 14.8081 9.00542 14.7273V13.697H7.5156V15.9394ZM8.44369 11.9394H10.3976V12.5152H6.39213V14.0303C6.39213 15.303 6.05834 16.2525 5.39077 16.8788L5.02442 16.3333C5.61058 15.8889 5.90366 15.0909 5.90366 13.9394V12.5152C5.70827 12.7374 5.47218 12.9293 5.19538 13.0909L5 12.4849C5.79783 12.0202 6.35142 11.2121 6.66078 10.0606L7.1981 10.1515C7.26323 10.2121 7.2388 10.2828 7.12483 10.3636L7.02713 10.5758H8.81004L8.90773 10.4546L9.27408 10.7879C9.33921 10.8889 9.30665 10.9495 9.17639 10.9697L8.44369 11.9394ZM6.83175 11.1515C6.70149 11.4142 6.54681 11.6768 6.3677 11.9394H7.88195L8.41926 11.1515H6.83175Z" fill="#333333"/>
<path d="M12.9132 11.8788C13.6621 11.5354 14.2076 10.9192 14.5495 10.0303L15.1357 10.0909C15.1845 10.1313 15.1682 10.1818 15.0868 10.2424C15.5102 10.8687 16.1289 11.3434 16.943 11.6667L16.772 12.3333C15.8602 11.9495 15.209 11.3939 14.8182 10.6667C14.5088 11.4344 13.9471 12.0505 13.133 12.5152L12.9132 11.8788ZM12.6689 14.5758C12.6364 13.9495 12.4817 13.3636 12.2049 12.8182L12.5468 10.9091H11.9606V16.9697H11.4722V10.3333H12.7178L12.8155 10.2424L13.1574 10.6667L13.0597 10.7879L12.6445 12.7576C12.9864 13.3838 13.1655 13.9899 13.1818 14.5758C13.1981 15.3838 13.0109 15.7879 12.6201 15.7879H12.2049L12.156 15.1212H12.4491C12.6119 15.1212 12.6852 14.9394 12.6689 14.5758ZM14.9891 15.3333C14.6961 16.2222 13.9959 16.7778 12.8887 17L12.7422 16.3333C13.8005 16.1313 14.4355 15.6364 14.6472 14.8485H13.4749V13.1212H14.7205V12.6061H13.9389V12.0303H15.9905V12.6061H15.1357V13.1212H16.4057V14.8485H15.2334C15.5265 15.4546 16.1045 15.9091 16.9674 16.2121L16.7965 16.8788C15.9986 16.6364 15.3962 16.1212 14.9891 15.3333ZM15.1357 14.3636H15.9905V13.6061H15.1357V14.3636ZM13.8901 14.3636H14.7205V13.6061H13.8901V14.3636Z" fill="#333333"/>
<path d="M18.2374 11.5455H18.6282V10H19.0923C19.2225 10.0202 19.2307 10.0808 19.1167 10.1818V11.5455H19.8005V12.1212H19.1167V13.7879L19.7517 13.4849L19.8738 14L19.1167 14.3939V17H18.6282V14.6061L17.8711 14.9091C17.8548 15.0505 17.8141 15.0808 17.749 15L17.578 14.3333L18.6282 13.9697V12.1212H18.213C18.1805 12.5051 18.1153 12.8788 18.0176 13.2424L17.5536 13.0303C17.749 12.3232 17.8467 11.5455 17.8467 10.697L18.3351 10.7879C18.384 10.8485 18.3677 10.9091 18.2863 10.9697L18.2374 11.5455ZM23 11.4849L22.9756 15.2121C22.9756 16.2828 22.7313 16.8182 22.2429 16.8182H21.5346L21.4369 16.1515H22.0475C22.3406 16.1919 22.4871 15.8788 22.4871 15.2121L22.5115 12.0606H22.2429C22.2592 13.8384 21.5509 15.4748 20.118 16.9697L19.8005 16.4243C21.0054 15.3131 21.6649 13.8586 21.7788 12.0606H21.3881C21.3229 13.2929 20.8263 14.3838 19.8982 15.3333L19.5563 14.8182C20.3704 14.0303 20.8263 13.1111 20.924 12.0606H20.5332C20.3541 12.6061 20.1262 13.0707 19.8494 13.4546L19.4342 13.0909C20.0041 12.2222 20.3541 11.2222 20.4844 10.0909L20.9973 10.2121C21.0624 10.2929 21.038 10.3434 20.924 10.3636C20.8752 10.7071 20.8019 11.0808 20.7042 11.4849H23Z" fill="#333333"/>
<path fill-rule="evenodd" clip-rule="evenodd" d="M8.90773 14.8485C8.97286 14.8485 9.00542 14.8081 9.00542 14.7273V13.697H7.5156V15.9394C7.5156 16.1212 7.57259 16.2121 7.68656 16.2121H9.66485C9.86024 16.2121 9.97422 16.0909 10.0068 15.8485L10.0556 15.3939L10.6174 15.5455L10.5197 16.1818C10.4545 16.5859 10.2592 16.7879 9.93351 16.7879H7.54002C7.1981 16.7879 7.02713 16.5657 7.02713 16.1212V13.1212H9.49389V14.9394C9.49389 15.2626 9.36363 15.4243 9.10312 15.4243H8.51696L8.46811 14.8485H8.90773ZM7.6156 13.797V15.9394C7.6156 16.0231 7.6293 16.0689 7.64307 16.0908C7.65194 16.105 7.66142 16.1121 7.68656 16.1121H9.66485C9.74019 16.1121 9.78925 16.0897 9.82402 16.0527C9.86128 16.0131 9.89268 15.9455 9.9075 15.8365L9.9687 15.2669L10.7298 15.4722L10.6185 16.197C10.5841 16.4104 10.5132 16.5849 10.3962 16.7059C10.2766 16.8295 10.1188 16.8879 9.93351 16.8879H7.54002C7.3456 16.8879 7.1847 16.8234 7.0761 16.6822C6.97132 16.546 6.92713 16.3535 6.92713 16.1212V13.0212H9.59389V14.9394C9.59389 15.1118 9.55958 15.2597 9.47406 15.3658C9.38522 15.476 9.25519 15.5243 9.10312 15.5243H8.42508L8.35927 14.7485H8.90397C8.90478 14.7435 8.90542 14.7366 8.90542 14.7273V13.797H7.6156ZM9.27408 10.7879C9.33921 10.8889 9.30665 10.9495 9.17639 10.9697L8.44369 11.9394H10.3976V12.5152H6.39213V14.0303C6.39213 15.2559 6.08261 16.1817 5.46359 16.8079C5.43977 16.832 5.4155 16.8556 5.39077 16.8788L5.02442 16.3333C5.61058 15.8889 5.90366 15.0909 5.90366 13.9394V12.5152C5.87143 12.5518 5.8381 12.5876 5.80366 12.6226C5.65175 12.777 5.4783 12.9154 5.2833 13.0377C5.25446 13.0558 5.22516 13.0735 5.19538 13.0909L5 12.4849C5.79783 12.0202 6.35142 11.2121 6.66078 10.0606L7.1981 10.1515C7.26323 10.2121 7.2388 10.2828 7.12483 10.3636L7.02713 10.5758H8.81004L8.90773 10.4546L9.27408 10.7879ZM8.7622 10.4758L8.8965 10.3091L9.35105 10.7227L9.35813 10.7337C9.39533 10.7914 9.43013 10.8754 9.38659 10.9564C9.35404 11.017 9.2925 11.0458 9.23325 11.0603L8.64458 11.8394H10.4976V12.6152H6.49213V14.0303C6.49213 15.3196 6.15378 16.3001 5.45919 16.9517L5.37337 17.0322L4.88876 16.3107L4.964 16.2537C5.51374 15.8368 5.80366 15.0776 5.80366 13.9394V12.7627C5.63948 12.9179 5.45341 13.0561 5.24581 13.1773L5.13838 13.24L4.88013 12.4389L4.94967 12.3984C5.71861 11.9506 6.25961 11.1685 6.56421 10.0347L6.5878 9.94685L7.2443 10.0579L7.26622 10.0783C7.29161 10.1019 7.31411 10.132 7.32567 10.1693C7.33762 10.2078 7.33555 10.2467 7.32315 10.2827C7.30315 10.3405 7.25728 10.3886 7.20491 10.4288L7.18329 10.4758H8.7622ZM12.934 11.8692C12.9271 11.8724 12.9201 11.8756 12.9132 11.8788L13.133 12.5152C13.1626 12.4982 13.192 12.4811 13.221 12.4637C13.4474 12.3284 13.6534 12.1808 13.8389 12.0209C13.873 11.9916 13.9063 11.9618 13.9389 11.9317L13.9404 11.9303C14.2998 11.5981 14.5759 11.2159 14.7686 10.7836C14.7858 10.7451 14.8023 10.7061 14.8182 10.6667C14.8382 10.704 14.859 10.7409 14.8804 10.7774C15.1481 11.2322 15.5228 11.6166 16.0045 11.9303C16.0328 11.9488 16.0614 11.9669 16.0905 11.9849C16.2722 12.0972 16.4684 12.2 16.6791 12.2932C16.7098 12.3068 16.7408 12.3202 16.772 12.3333L16.943 11.6667C16.1289 11.3434 15.5102 10.8687 15.0868 10.2424C15.1682 10.1818 15.1845 10.1313 15.1357 10.0909L14.5495 10.0303C14.2108 10.9109 13.6723 11.5239 12.934 11.8692ZM15.2181 10.2562C15.2342 10.2363 15.2474 10.2143 15.2553 10.1898C15.2654 10.1584 15.2665 10.1236 15.2542 10.0894C15.2425 10.0566 15.2213 10.0319 15.1994 10.0139L15.1761 9.99456L14.4837 9.92297L14.4562 9.99441C14.1359 10.8271 13.6365 11.4074 12.96 11.7455L13.1526 10.832L13.2858 10.6667L12.8259 10.0961L12.6784 10.2333H11.3722V17.0697H12.0606V15.1878L12.1119 15.8879H12.6201C12.7359 15.8879 12.8414 15.8576 12.9323 15.7941C13.0224 15.7311 13.092 15.6398 13.1443 15.5269C13.2476 15.304 13.29 14.9825 13.2818 14.5738C13.2653 13.9793 13.0864 13.368 12.7499 12.7423L12.8847 12.1028L13.0778 12.6618L13.1825 12.602C13.4224 12.4651 13.6413 12.315 13.8389 12.1517V12.7061H14.6205V13.0212H13.3749V14.9485H14.5121C14.2818 15.6156 13.6983 16.049 12.7234 16.2351L12.6225 16.2544L12.8121 17.1174L12.9084 17.0981C13.9558 16.8878 14.6628 16.381 15.0065 15.5714C15.4215 16.2744 16.0091 16.7441 16.7674 16.9745L16.8674 17.0049L17.0871 16.1482L17.0006 16.1178C16.2253 15.8456 15.6972 15.4535 15.4002 14.9485H16.5057V13.0212H15.2357V12.7061H16.0905V12.1019C16.2888 12.2208 16.5031 12.3286 16.7332 12.4255L16.8401 12.4705L17.0617 11.6062L16.9799 11.5737C16.2123 11.269 15.6268 10.8291 15.2181 10.2562ZM15.9905 12.0303H13.9389V12.6061H14.7205V13.1212H13.4749V14.8485H14.6472C14.6381 14.8824 14.6282 14.9157 14.6176 14.9485C14.3879 15.6545 13.7955 16.1096 12.8402 16.3135C12.808 16.3204 12.7753 16.327 12.7422 16.3333L12.8887 17C13.9421 16.7886 14.627 16.2754 14.9435 15.4606C14.9597 15.419 14.9749 15.3765 14.9891 15.3333C15.0101 15.3738 15.0315 15.4136 15.0534 15.4526C15.4414 16.1429 15.9906 16.608 16.7011 16.8482C16.7326 16.8588 16.7644 16.869 16.7965 16.8788L16.9674 16.2121C16.1526 15.926 15.5918 15.5048 15.2851 14.9485C15.267 14.9156 15.2497 14.8823 15.2334 14.8485H16.4057V13.1212H15.1357V12.6061H15.9905V12.0303ZM14.0856 11.9303H15.8261C15.4121 11.6393 15.0797 11.2922 14.8306 10.8884C14.6484 11.2764 14.3998 11.6237 14.0856 11.9303ZM13.0597 10.7879L13.1574 10.6667L12.8155 10.2424L12.7178 10.3333H11.4722V16.9697H11.9606V10.9091H12.5468L12.2049 12.8182C12.4817 13.3636 12.6364 13.9495 12.6689 14.5758C12.6852 14.9394 12.6119 15.1212 12.4491 15.1212H12.156L12.2049 15.7879H12.6201C13.0109 15.7879 13.1981 15.3838 13.1818 14.5758C13.1655 13.9899 12.9864 13.3838 12.6445 12.7576L13.0597 10.7879ZM12.569 14.5806C12.5371 13.9681 12.386 13.396 12.1157 12.8634L12.1005 12.8336L12.4273 11.0091H12.0606V15.0212H12.4491C12.4699 15.0212 12.483 15.0159 12.4934 15.0079C12.505 14.999 12.5197 14.9815 12.5334 14.9475C12.5619 14.8769 12.577 14.7581 12.569 14.5806ZM18.3351 10.7879C18.384 10.8485 18.3677 10.9091 18.2863 10.9697L18.2374 11.5455H18.6282V10H19.0923C19.2225 10.0202 19.2307 10.0808 19.1167 10.1818V11.5455H19.8005V12.1212H19.1167V13.7879L19.7517 13.4849L19.8738 14L19.1167 14.3939V17H18.6282V14.6061L17.8711 14.9091C17.8548 15.0505 17.8141 15.0808 17.749 15L17.578 14.3333L18.6282 13.9697V12.1212H18.213C18.1834 12.4706 18.1268 12.8115 18.0432 13.1442C18.0349 13.177 18.0264 13.2098 18.0176 13.2424L17.5536 13.0303C17.7412 12.3516 17.8387 11.6077 17.8462 10.7986C17.8465 10.7648 17.8467 10.731 17.8467 10.697L18.3351 10.7879ZM18.3043 12.2212C18.269 12.5788 18.2057 12.9279 18.1142 13.2684L18.0835 13.3825L17.4345 13.0858L17.4572 13.0037C17.6499 12.3065 17.7467 11.5378 17.7467 10.697V10.5767L18.3898 10.6963L18.413 10.7251C18.4521 10.7736 18.4746 10.8361 18.4561 10.9047C18.4438 10.9506 18.4158 10.9885 18.3824 11.0197L18.3463 11.4455H18.5282V9.90001H19.1L19.1076 9.90119C19.1456 9.90708 19.1846 9.91719 19.2175 9.93638C19.2524 9.95679 19.2878 9.99261 19.2952 10.0473C19.3018 10.0967 19.2821 10.1392 19.2629 10.1684C19.2503 10.1877 19.2346 10.2065 19.2167 10.2247V11.4455H19.9005V11.9951C20.1441 11.4066 20.3058 10.7682 20.3851 10.0795L20.3979 9.96773L21.0536 10.1227L21.0751 10.1494C21.1109 10.1937 21.1577 10.2716 21.1178 10.3542C21.0992 10.3927 21.0676 10.4169 21.0382 10.4319C21.0303 10.4359 21.022 10.4396 21.0135 10.4428C20.9697 10.7361 20.9087 11.0501 20.8307 11.3849H23.1007L23.0756 15.2121C23.0755 15.7518 23.0145 16.1708 22.8834 16.4582C22.8173 16.6031 22.7314 16.7189 22.6224 16.7986C22.5124 16.879 22.3845 16.9182 22.2429 16.9182H21.4482L21.3212 16.0515H22.0613C22.115 16.0589 22.1548 16.0506 22.1871 16.0306C22.2209 16.0096 22.2555 15.9711 22.2866 15.9046C22.3503 15.7686 22.3871 15.5419 22.3871 15.2121L22.4108 12.1606H22.343C22.3323 13.9297 21.611 15.5566 20.1902 17.0389L20.0984 17.1347L19.6737 16.4052L19.7327 16.3507C20.893 15.2808 21.5402 13.8865 21.6716 12.1606H21.4821C21.3956 13.3803 20.8897 14.4621 19.9697 15.4032L19.8833 15.4917L19.427 14.8042L19.4868 14.7463C20.2566 14.0013 20.697 13.1402 20.8129 12.1606H20.6053C20.4271 12.6844 20.2026 13.1357 19.9305 13.513L19.8783 13.5854L19.9891 14.0528L19.2167 14.4546V17.1H18.5282V14.7538L17.961 14.9808C17.9577 14.9968 17.9539 15.0119 17.9492 15.0258C17.9401 15.0534 17.9232 15.0919 17.8881 15.1181C17.8686 15.1326 17.8445 15.1424 17.8173 15.1439C17.7911 15.1453 17.7682 15.1386 17.7502 15.13C17.7167 15.1141 17.6906 15.087 17.6711 15.0628L17.6575 15.0459L17.4583 14.269L18.5282 13.8985V12.2212H18.3043ZM19.9072 13.3722C19.8881 13.4001 19.8689 13.4275 19.8494 13.4546L19.4342 13.0909C19.9872 12.2479 20.3333 11.2812 20.4723 10.1908C20.4765 10.1576 20.4805 10.1243 20.4844 10.0909L20.9973 10.2121C21.0624 10.2929 21.038 10.3434 20.924 10.3636C20.8792 10.6786 20.8139 11.019 20.728 11.3849C20.7203 11.418 20.7123 11.4513 20.7042 11.4849H23L22.9756 15.2121C22.9756 16.2828 22.7313 16.8182 22.2429 16.8182H21.5346L21.4369 16.1515H22.0475C22.3406 16.1919 22.4871 15.8788 22.4871 15.2121L22.5115 12.0606H22.2429C22.2432 12.094 22.2432 12.1273 22.243 12.1606C22.2325 13.87 21.5481 15.4478 20.1898 16.8941C20.1661 16.9194 20.1422 16.9446 20.118 16.9697L19.8005 16.4243C20.983 15.3338 21.6401 13.9126 21.7719 12.1606C21.7744 12.1274 21.7767 12.0941 21.7788 12.0606H21.3881C21.3246 13.2611 20.8517 14.3274 19.9693 15.2595C19.9459 15.2842 19.9222 15.3088 19.8982 15.3333L19.5563 14.8182C20.3445 14.0554 20.7969 13.1696 20.9136 12.1606C20.9174 12.1274 20.9209 12.0941 20.924 12.0606H20.5332C20.3668 12.5676 20.1581 13.0048 19.9072 13.3722ZM19.6572 13.4192L19.3029 13.1088L19.3506 13.0361C19.5209 12.7765 19.6713 12.5049 19.8018 12.2212H19.2167V13.6294L19.6572 13.4192ZM6.43472 11.8394C6.58568 11.6101 6.71802 11.3808 6.83175 11.1515H8.41926L7.88195 11.9394H6.3677C6.39044 11.9061 6.41278 11.8727 6.43472 11.8394ZM6.5541 11.8394C6.68043 11.6437 6.79356 11.4477 6.89341 11.2515H8.23003L7.82911 11.8394H6.5541ZM15.9905 14.3636H15.1357V13.6061H15.9905V14.3636ZM15.8905 13.7061H15.2357V14.2636H15.8905V13.7061ZM14.7205 14.3636H13.8901V13.6061H14.7205V14.3636ZM14.6205 13.7061H13.9901V14.2636H14.6205V13.7061Z" fill="#333333"/>
</g>
</g>
</g>
</svg>
