<svg width="580" height="629" viewBox="0 0 580 629" fill="none" xmlns="http://www.w3.org/2000/svg">
<path fill-rule="evenodd" clip-rule="evenodd" d="M363.125 529.219L368.649 550.193C368.649 550.193 412.538 531.321 436.211 539.668L357.764 588.817L337.981 530.16L363.125 529.219ZM97.029 466.191L72.5165 490.705C72.5165 490.705 74.7435 504.054 74.8521 519.517C75.0098 541.899 71.9204 563.814 71.9204 563.814L37.0002 483.875L88.5136 441.394L97.029 466.191Z" fill="#0D0B6D"/>
<path fill-rule="evenodd" clip-rule="evenodd" d="M333.193 517.763L358.933 512.964L368.65 550.194L347.914 559.129L333.193 517.763ZM88.155 441.371L90.8492 472.438L72.5165 490.706L57.9608 466.29L88.155 441.371Z" fill="#CF3E83"/>
<path fill-rule="evenodd" clip-rule="evenodd" d="M229.465 371.781C189.506 451.31 120.718 518.731 120.718 518.731L59.1317 427.403C59.1317 427.403 141.179 355.365 179.901 196.289C173.392 170.153 168.766 148.625 167.142 134.827C161.815 89.6438 188.689 59.2207 195.9 51.9611H199.209L280.237 51.9609C281.968 58.4032 288.834 94.5182 286.459 147.72C293.612 171.49 301.987 200.182 311.689 234.625C366.92 430.682 392.535 517.144 392.535 517.144L287.536 554.596C287.536 554.596 257.396 464.344 229.465 371.781V371.781Z" fill="#0D0B6D"/>
<path opacity="0.14688" fill-rule="evenodd" clip-rule="evenodd" d="M392.535 517.144L287.536 554.596C287.536 554.596 255.997 460.152 227.545 365.403C209.776 306.297 191.718 243.701 179.9 196.288C173.392 170.153 168.766 148.624 167.142 134.826C161.815 89.6436 188.689 59.2206 195.9 51.9609H255.352C260.296 65.3167 270.256 93.9609 286.459 147.721C293.612 171.49 301.987 200.182 311.689 234.624C366.92 430.682 392.535 517.144 392.535 517.144" fill="white"/>
</svg>
