<svg width="580" height="629" viewBox="0 0 580 629" fill="none" xmlns="http://www.w3.org/2000/svg">
<path fill-rule="evenodd" clip-rule="evenodd" d="M75.7751 494.745C75.7751 494.745 77.9999 508.206 78.0852 523.795C78.2102 546.361 75.0617 568.45 75.0617 568.45L43.0001 489.562L91.9784 445.055L75.7751 494.745ZM353.555 556.744C353.555 556.744 398.618 539.741 422.079 549.229L342.835 594.328L334.27 563.976L353.555 556.744Z" fill="#0D0B6D"/>
<path fill-rule="evenodd" clip-rule="evenodd" d="M265.302 156.919L266.853 163.966L335.699 475.867L353.555 556.743L334.274 563.974C334.274 563.974 322.167 531.878 304.805 485.27C283.595 428.357 254.561 349.798 230.172 281.63C228.756 277.665 227.361 273.75 225.974 269.862C223.919 274.544 221.787 279.265 219.577 284.005C209.844 304.954 198.657 326.396 185.813 347.917C163.43 385.433 140.504 417.257 121.416 441.589C94.894 475.401 75.7777 494.74 75.7777 494.74L64.0966 470.904C64.0966 470.904 80.8088 455.422 102.717 421.785C131.643 377.367 169.624 301.318 190.136 187.493C191.009 182.685 191.842 177.799 192.647 172.856C191.949 170.664 191.28 168.551 190.65 166.535C190.659 166.535 190.65 166.525 190.65 166.525C186.452 153.098 183.835 143.532 183.302 139.12C178.435 99.1045 199.636 59.8336 199.636 59.8336L203.959 58.332C204.037 56.5683 204.096 54.7837 204.154 53H285.098C284.206 59.0684 281.588 85.6296 273.097 124.551C270.906 134.565 268.337 145.402 265.303 156.918L265.302 156.919Z" fill="#E576C6"/>
<path fill-rule="evenodd" clip-rule="evenodd" d="M274.124 130.281C277.875 151.17 282.412 176.384 287.831 206.532C312.987 346.502 341.07 474.238 341.07 474.238L335.699 475.867L304.805 485.269L292.804 488.915C292.804 488.915 255.919 392.654 223.842 296.801C222.698 299.457 221.525 302.105 220.342 304.75C178.348 398.325 130.809 451.544 130.809 451.544L121.416 441.589L102.717 421.785L98.9651 417.81C98.9651 417.81 155.946 340.929 188.1 179.796C182.633 158.692 178.891 140.768 177.709 128.002C174.461 92.7546 196.505 60.9781 202.544 53L286.483 53C285.378 59.4377 282.276 88.9545 274.124 130.28L274.124 130.281Z" fill="#101016"/>
<path opacity="0.145368" fill-rule="evenodd" clip-rule="evenodd" d="M341.07 474.238L335.699 475.867L304.805 485.269L292.804 488.915C292.804 488.915 255.919 392.654 223.842 296.801C222.407 292.537 220.982 288.27 219.576 284.005C208.273 249.747 197.814 216.09 190.136 187.493C189.428 184.885 188.76 182.316 188.1 179.796C182.633 158.692 178.891 140.768 177.709 128.002C174.461 92.7546 196.505 60.9781 202.544 53H260.223C262.326 64.7005 266.388 87.2688 273.096 124.551C273.426 126.421 273.775 128.331 274.124 130.281C277.875 151.17 282.412 176.384 287.831 206.532C312.987 346.502 341.07 474.238 341.07 474.238" fill="white"/>
</svg>
