<svg width="580" height="629" viewBox="0 0 580 629" fill="none" xmlns="http://www.w3.org/2000/svg">
<path fill-rule="evenodd" clip-rule="evenodd" d="M393.697 324.455L391.116 346.983C391.116 346.983 439.136 359.572 457.189 378.295L367.671 378.45L371.022 313.928L393.697 324.455ZM496.734 219.741L507.045 240.033C507.045 240.033 554.222 223.989 579.702 229.673L505.672 278.805L471.921 223.479L496.734 219.741Z" fill="#0D0B6D"/>
<path fill-rule="evenodd" clip-rule="evenodd" d="M369.937 319.597L393.722 329.05L393.519 347.752L369.206 346.859L369.937 319.597ZM474.197 227.871L499.345 222.619L509.528 238.391L488.677 251.101L474.197 227.871Z" fill="#CF3E83"/>
<path fill-rule="evenodd" clip-rule="evenodd" d="M364.7 3.15444L198.494 52.2564L195.109 83.8064C192.956 114.795 222.986 141.459 254.034 141.459L254.034 141.46L362.869 140.71L360.338 334.724H417.357L429.667 201.1L465.777 253.77L514.161 221.437L426.085 40.8984C406.137 5.38844 395.469 -3.80256 364.7 3.15444Z" fill="#2F2F3D"/>
<path opacity="0.150484" fill-rule="evenodd" clip-rule="evenodd" d="M378.585 63.7446V63.7446L254.033 141.46L362.868 140.71L360.337 334.724H417.356L436.904 122.54C441.727 83.9326 417.565 63.7446 378.585 63.7446" fill="#18181C"/>
</svg>
