<svg width="580" height="629" viewBox="0 0 580 629" fill="none" xmlns="http://www.w3.org/2000/svg">
<path fill-rule="evenodd" clip-rule="evenodd" d="M141.085 546.095L164.424 545.588L167.008 571.584L169.545 601.548H111C118.802 576.679 141.321 572.774 141.321 572.774L141.085 546.095ZM289.432 551.314L287.03 572.272C287.03 572.272 331.706 583.984 348.5 601.404L266.151 601.547L268.337 541.521L289.432 551.314Z" fill="#0D0B6D"/>
<path fill-rule="evenodd" clip-rule="evenodd" d="M144.189 539.07L166.956 547.07L166.827 572.774L141.14 571.584L144.189 539.07ZM267.853 546.079L289.981 554.874L289.79 572.273L267.173 571.442L267.853 546.079Z" fill="#CF3E83"/>
<path fill-rule="evenodd" clip-rule="evenodd" d="M136.07 551.419C137.114 518.908 143.854 313.545 150.78 191.366C155.579 106.681 191.493 60.0559 198.233 52H283.806C283.962 53.0817 295.481 134.617 297.589 305.225C299.481 458.014 297.53 541.529 297.286 551.35L297.286 551.355L300.019 551.351L300.037 564.504L255.725 564.576L255.707 551.422L257.235 551.42L257.235 551.419L234.733 284.049L227.993 204.026L176.833 551.35L176.832 551.353L179.045 551.349L178.273 564.502L132.395 564.576L133.168 551.424L136.07 551.419L136.07 551.419Z" fill="#2B2A38"/>
<path opacity="0.398065" fill-rule="evenodd" clip-rule="evenodd" d="M227.993 204.03L237.2 125.749L234.73 284.047L227.993 204.03Z" fill="#0A0A0F"/>
</svg>
