<svg width="580" height="629" viewBox="0 0 580 629" fill="none" xmlns="http://www.w3.org/2000/svg">
<path fill-rule="evenodd" clip-rule="evenodd" d="M196.326 597.567L220.661 596.347L223.262 627.066H165.242C177.942 602.089 196.326 597.567 196.326 597.567ZM335.522 597.49C335.522 597.49 381.324 609.497 398.542 627.354L316.115 627.502L318.357 596.963L335.522 597.49Z" fill="#0D0B6D"/>
<path fill-rule="evenodd" clip-rule="evenodd" d="M214.158 600.573C209.179 605.793 199.579 613.349 185.558 613.627C172.794 613.881 196.124 597.867 200.177 595.146L175.943 325.054L239.62 295.553L219.873 601.621L214.158 600.573V600.573ZM343.506 598.286L376.336 612.534C356.216 614.737 336.012 606.327 325.591 601.013H319.087L259.193 335.166L313.963 332.609C313.963 332.609 319.705 392.647 326.3 458.243C333.652 531.356 341.622 585.779 343.506 598.286Z" fill="#E576C6"/>
<path fill-rule="evenodd" clip-rule="evenodd" d="M199.3 50.9995C199.3 50.9995 182.327 59.1155 167.558 103.166C147.791 162.124 142 340.704 142 340.704H332.332L283.283 52.2795L199.3 50.9995Z" fill="#2F2F3D"/>
</svg>
