<svg width="580" height="629" viewBox="0 0 580 629" fill="none" xmlns="http://www.w3.org/2000/svg">
<path fill-rule="evenodd" clip-rule="evenodd" d="M403.773 565.373C403.773 565.373 448.784 544.336 473.663 552.248L395.706 604.875L384.507 574.331L403.773 565.373ZM60.458 485.615L33.42 509.466C33.42 509.466 34.864 523.467 33.971 539.523C32.679 562.766 28.047 585.312 28.047 585.312L0 502.066L53.232 459.322L60.458 485.615Z" fill="#0D0B6D"/>
<path fill-rule="evenodd" clip-rule="evenodd" d="M215.784 62.2674L239.29 52H248.53L252.46 65.008L277.22 66.8583C277.079 63.3737 275.638 83.4687 268.479 117.975L329.25 318.939L403.77 565.37L384.51 574.33C384.51 574.33 320.69 437.769 267.22 318.939C254.571 290.81 242.501 263.681 231.991 239.592C215.494 281.165 193.038 326.52 162.494 371.239C101.758 460.161 33.4199 509.465 33.4199 509.465L22.8999 484.177C22.8999 484.177 164.59 368.148 193.623 60.6113L215.784 62.2674Z" fill="#E576C6"/>
<path fill-rule="evenodd" clip-rule="evenodd" d="M349.7 318.939H113.171C113.171 318.939 129.29 200.649 158.16 122.229C177.31 70.2105 194.551 55.6205 200.261 52.0005H282.881C284.671 56.1095 301.841 96.4195 320.44 176.169C343.971 277.019 349.7 318.939 349.7 318.939" fill="#FCBDA4"/>
</svg>
