<svg width="580" height="629" viewBox="0 0 580 629" fill="none" xmlns="http://www.w3.org/2000/svg">
<path fill-rule="evenodd" clip-rule="evenodd" d="M468.362 375.443L533.084 402.738C550.668 418.838 566.108 424.717 544.965 433.094C519.778 443.075 482.591 409.095 482.591 409.095C455.977 407.432 468.362 375.443 468.362 375.443ZM304.534 367.066L323.049 364.028C323.049 364.028 338.01 406.394 341.743 437.962C344.032 457.312 350.257 474.474 332.732 472.128C307.972 468.811 302.266 419.505 299.498 417.562C296.571 415.507 291.966 389.4 292.315 386.648C292.663 383.897 304.534 367.066 304.534 367.066Z" fill="#0D0B6D"/>
<path fill-rule="evenodd" clip-rule="evenodd" d="M387.79 98.7516C405.319 97.0022 423.605 107.298 428.873 127.039C452.267 214.7 486.944 348.146 491.539 367.478L533.085 402.738C533.085 402.738 528.669 409.36 517.631 410.464C506.593 411.568 468.125 377.193 468.125 377.193L468.439 376.969L384.202 202.151C359.407 281.945 332.218 369.164 328.371 380.36C333.177 399.431 339.078 429.353 329.129 430.468C314.485 432.109 301.898 382.981 301.898 382.981L302.042 382.862L325.9 174.618L276.348 160.198L297.713 116.296L352.237 94.8359C365.084 89.7789 377.992 92.0651 387.79 98.7516Z" fill="#E576C6"/>
<path opacity="0.20266" d="M384.198 202.166C384.198 202.166 407.334 140.981 404.052 120.879C400.77 100.776 378.124 96.2627 378.124 96.2627" stroke="black" stroke-width="3"/>
<path fill-rule="evenodd" clip-rule="evenodd" d="M198.071 51C198.071 51 153.049 97.699 166.513 137.289C180.947 179.728 319.439 173.992 319.439 173.992C319.439 173.992 346.447 109.72 416.77 105.628L284.091 52.381L198.071 51Z" fill="#2B2A38"/>
</svg>
