<svg width="580" height="629" viewBox="0 0 580 629" fill="none" xmlns="http://www.w3.org/2000/svg">
<path fill-rule="evenodd" clip-rule="evenodd" d="M367.321 541.721L372.933 563.216C372.933 563.216 417.519 543.874 441.57 552.428L361.873 602.8L341.776 542.684L367.321 541.721ZM96.9852 477.124L72.0823 502.248C72.0823 502.248 74.3448 515.929 74.4552 531.777C74.6148 554.715 71.4762 577.175 71.4762 577.175L36.0005 495.25L88.3341 451.711L96.9852 477.124Z" fill="#0D0B6D"/>
<path fill-rule="evenodd" clip-rule="evenodd" d="M343.036 547.34L368.311 545.353L372.933 563.216L351.866 572.372L343.036 547.34ZM87.9701 451.688L90.7076 483.527L72.0819 502.249L57.2944 477.228L87.9701 451.688Z" fill="#CF3E83"/>
<path fill-rule="evenodd" clip-rule="evenodd" d="M279.259 156.388C284.354 178.708 290.424 205.147 297.647 236.366C344.712 439.72 374.63 551.942 374.63 551.942L370.353 553.242L370.333 553.252L347.629 560.18L347.57 560.19L329.359 565.749C329.359 565.749 274.647 435.435 229.83 314.6C221.118 331.441 211.047 348.311 199.409 364.927C138.706 451.595 84.1033 507.065 84.1033 507.065L78.171 496.127L78.1612 496.117L64.7296 471.354L64.6114 471.136L58.748 460.326C58.748 460.326 148.088 365.675 185.308 184.404C178.4 160.901 173.817 141.675 172.664 129.071C169.265 91.8806 193.319 58.4842 198.305 52H255.944L282.777 52.0001C283.359 56.7006 287.36 98.3058 279.259 156.387L279.259 156.388Z" fill="#101016"/>
<path opacity="0.145182" fill-rule="evenodd" clip-rule="evenodd" d="M374.63 551.942L370.353 553.242L370.333 553.252L347.629 560.18L347.57 560.19L329.359 565.749C329.359 565.749 274.648 435.434 229.83 314.599C212.122 266.845 195.951 220.569 185.308 184.403C178.4 160.901 173.818 141.675 172.665 129.071C169.265 91.8806 193.319 58.4842 198.306 52H255.944C258.831 65.5596 265.444 95.8618 279.259 156.387C284.354 178.707 290.424 205.147 297.648 236.366C344.712 439.72 374.63 551.942 374.63 551.942" fill="white"/>
</svg>
