<svg width="945" height="1250" viewBox="0 0 945 1250" fill="none" xmlns="http://www.w3.org/2000/svg">
<path fill-rule="evenodd" clip-rule="evenodd" d="M312.398 637.981C306.069 619.031 271.379 622.239 271.374 569.398C271.365 489.836 380.938 498.917 387.399 438.97C393.861 379.024 323.451 380.456 321.271 329.894C319.091 279.331 372.63 175 453.861 175C517.913 175 464.862 255.502 516.554 291.502C568.247 327.502 627.286 281.382 656.505 337.992C696.754 415.97 593.835 509.62 603.989 569.398C614.143 629.177 674.476 615.043 676.323 680.725C678.169 746.408 590.527 757.967 598.784 814.289C603.989 849.793 659.454 837.939 662.363 907.947C664.827 967.22 474.259 1040.56 331.106 919.947C187.952 799.33 336.555 710.308 312.398 637.981" fill="#CCE3FF"/>
<path d="M470.176 494.408V1076.94" stroke="#ECF6FF" stroke-width="8" stroke-linecap="square"/>
<path d="M473.176 888.829L548.03 813.975" stroke="#ECF6FF" stroke-width="8" stroke-linecap="square"/>
<path d="M474.176 675.614L512.229 637.562" stroke="#ECF6FF" stroke-width="8" stroke-linecap="square"/>
<path d="M466.175 760.329L406.487 700.641" stroke="#ECF6FF" stroke-width="8" stroke-linecap="square"/>
<path d="M467.554 576.038L438.553 547.038" stroke="#ECF6FF" stroke-width="8" stroke-linecap="square"/>
</svg>
