<svg width="20" height="26" viewBox="0 0 20 26" fill="none" xmlns="http://www.w3.org/2000/svg">
<g id="default / facilities-education-higher-jpn">
<g id="POI-base">
<g id="Category_Master">
<g id="Baseshape_Pin">
<path id="shape" d="M6.12903 20.4794L6.12726 20.4777C3.78964 18.19 2.64527 16.3664 2.07698 14.8457C1.50986 13.3281 1.5 12.0735 1.5 10.8565C1.5 6.24879 5.30485 2.5 9.99133 2.5C14.6791 2.5 18.5 6.25003 18.5 10.8565C18.5 12.0735 18.4901 13.3281 17.923 14.8457C17.3547 16.3664 16.2104 18.19 13.8728 20.4777L13.8717 20.4787L9.99205 24.2977L6.12903 20.4794Z" fill="#C19D95" stroke="#87737B"/>
</g>
</g>
<g id="Icon_Master">
<g id="facilities-education-higher-jpn">
<path id="Vector" d="M14 9C13.5343 8.37902 12.9304 7.875 12.2361 7.52786C11.5418 7.18073 10.7763 7 10 7C9.2238 7 8.45824 7.18073 7.76396 7.52786C7.06968 7.875 6.46576 8.37902 6.00003 9C5.34765 9.86376 4.99638 10.9176 5.00003 12C5.00003 13.3261 5.52681 14.5979 6.46449 15.5355C7.40218 16.4732 8.67395 17 10 17C11.3261 17 12.5979 16.4732 13.5356 15.5355C14.4732 14.5979 15 13.3261 15 12C15.0037 10.9176 14.6524 9.86376 14 9ZM11.295 10L10 11.295L8.70503 10H11.295ZM10.5 9V8.035C11.2938 8.1354 12.0393 8.47154 12.64 9H10.5ZM9.50003 8.035V9H7.36003C7.96079 8.47154 8.70624 8.1354 9.50003 8.035ZM6.54003 10H7.29503L9.29503 12L6.84503 14.45C6.35494 13.8238 6.0639 13.0651 6.00953 12.2718C5.95516 11.4785 6.13995 10.6872 6.54003 10ZM7.54003 15.155L9.99003 12.705L12.44 15.155C11.7407 15.7024 10.8781 15.9998 9.99003 15.9998C9.10192 15.9998 8.23939 15.7024 7.54003 15.155ZM13.155 14.45L10.705 12L12.705 10H13.46C13.8601 10.6872 14.0449 11.4785 13.9905 12.2718C13.9362 13.0651 13.6451 13.8238 13.155 14.45Z" fill="white"/>
</g>
</g>
</g>
</g>
</svg>
