<svg width="20" height="26" viewBox="0 0 20 26" fill="none" xmlns="http://www.w3.org/2000/svg">
<g id="default / facilities-cityhall-jpn">
<g id="POI-base">
<g id="Category_Master">
<g id="Baseshape_Pin">
<path id="shape" d="M6.12903 20.4794L6.12726 20.4777C3.78964 18.19 2.64527 16.3664 2.07698 14.8457C1.50986 13.3281 1.5 12.0735 1.5 10.8565C1.5 6.24879 5.30485 2.5 9.99133 2.5C14.6791 2.5 18.5 6.25003 18.5 10.8565C18.5 12.0735 18.4901 13.3281 17.923 14.8457C17.3547 16.3664 16.2104 18.19 13.8728 20.4777L13.8717 20.4787L9.99205 24.2977L6.12903 20.4794Z" fill="#C19D95" stroke="#87737B"/>
</g>
</g>
<g id="Icon_Master">
<g id="facilities-cityhall-jpn">
<path id="Vector" d="M10 8C10.7911 8 11.5645 8.2346 12.2223 8.67412C12.8801 9.11365 13.3928 9.73836 13.6955 10.4693C13.9983 11.2002 14.0775 12.0044 13.9231 12.7804C13.7688 13.5563 13.3878 14.269 12.8284 14.8284C12.269 15.3878 11.5563 15.7688 10.7804 15.9231C10.0044 16.0775 9.20017 15.9983 8.46927 15.6955C7.73836 15.3928 7.11365 14.8801 6.67412 14.2223C6.2346 13.5645 6 12.7911 6 12C6 10.9391 6.42143 9.92172 7.17158 9.17157C7.92172 8.42143 8.93914 8 10 8ZM10 7C9.0111 7 8.0444 7.29324 7.22215 7.84265C6.39991 8.39206 5.75904 9.17295 5.3806 10.0866C5.00217 11.0002 4.90315 12.0055 5.09608 12.9755C5.289 13.9454 5.76521 14.8363 6.46447 15.5355C7.16373 16.2348 8.05465 16.711 9.02455 16.9039C9.99446 17.0969 10.9998 16.9978 11.9134 16.6194C12.8271 16.241 13.6079 15.6001 14.1573 14.7779C14.7068 13.9556 15 12.9889 15 12C15 11.3434 14.8707 10.6932 14.6194 10.0866C14.3681 9.47995 13.9998 8.92876 13.5355 8.46447C13.0712 8.00017 12.52 7.63188 11.9134 7.3806C11.3068 7.12933 10.6566 7 10 7ZM10 10C10.3956 10 10.7822 10.1173 11.1111 10.3371C11.44 10.5568 11.6964 10.8692 11.8478 11.2346C11.9991 11.6001 12.0387 12.0022 11.9616 12.3902C11.8844 12.7781 11.6939 13.1345 11.4142 13.4142C11.1345 13.6939 10.7781 13.8844 10.3902 13.9616C10.0022 14.0387 9.60009 13.9991 9.23464 13.8478C8.86918 13.6964 8.55683 13.44 8.33706 13.1111C8.1173 12.7822 8 12.3956 8 12C8 11.4696 8.21072 10.9609 8.58579 10.5858C8.96086 10.2107 9.46957 10 10 10ZM10 9C9.40666 9 8.82664 9.17595 8.33329 9.50559C7.83994 9.83524 7.45543 10.3038 7.22836 10.8519C7.0013 11.4001 6.94189 12.0033 7.05765 12.5853C7.1734 13.1672 7.45912 13.7018 7.87868 14.1213C8.29824 14.5409 8.83279 14.8266 9.41473 14.9424C9.99667 15.0581 10.5999 14.9987 11.1481 14.7716C11.6962 14.5446 12.1648 14.1601 12.4944 13.6667C12.8241 13.1734 13 12.5933 13 12C13 11.2044 12.6839 10.4413 12.1213 9.87868C11.5587 9.31607 10.7957 9 10 9Z" fill="white"/>
</g>
</g>
</g>
</g>
</svg>
