<svg width="945" height="716" viewBox="0 0 945 716" fill="none" xmlns="http://www.w3.org/2000/svg">
<path fill-rule="evenodd" clip-rule="evenodd" d="M394.692 574.237C394.692 583.866 386.886 591.673 377.256 591.673C367.627 591.673 359.821 583.866 359.821 574.237C359.821 564.607 367.627 556.8 377.256 556.8C386.886 556.8 394.692 564.607 394.692 574.237" fill="#B6D4FF"/>
<path fill-rule="evenodd" clip-rule="evenodd" d="M525.116 574.237C525.116 583.866 517.309 591.673 507.679 591.673C498.05 591.673 490.244 583.866 490.244 574.237C490.244 564.607 498.05 556.8 507.679 556.8C517.309 556.8 525.116 564.607 525.116 574.237" fill="#B6D4FF"/>
<path fill-rule="evenodd" clip-rule="evenodd" d="M355.821 360.846H529.718V341.938H355.821V360.846Z" fill="#ECF6FF"/>
<path fill-rule="evenodd" clip-rule="evenodd" d="M552.652 360.846H471.667L456.667 263.846V188.999C456.667 152.549 486.215 122.999 522.667 122.999C559.118 122.999 588.667 152.549 588.667 188.999V263.846L596.649 310.316C600.358 337.022 579.614 360.846 552.652 360.846" fill="#ECF6FF"/>
<path fill-rule="evenodd" clip-rule="evenodd" d="M470.869 354.846H419.859C446.659 354.846 467.329 331.296 463.92 304.785L470.869 354.846Z" fill="#ECF6FF"/>
<path fill-rule="evenodd" clip-rule="evenodd" d="M496.745 187.932C496.745 201.252 507.546 212.052 520.865 212.052C521.525 212.052 522.185 212.022 522.825 211.972C523.336 211.932 523.836 211.872 524.336 211.792C536.006 210.122 544.975 200.072 544.975 187.932C544.975 175.802 536.006 165.752 524.336 164.082C523.836 164.002 523.336 163.942 522.825 163.902C522.185 163.852 521.525 163.822 520.865 163.822C507.546 163.822 496.745 174.622 496.745 187.932" fill="#B6D4FF"/>
<path fill-rule="evenodd" clip-rule="evenodd" d="M503.716 187.932C503.716 200.062 512.676 210.102 524.336 211.792C536.006 210.122 544.976 200.072 544.976 187.932C544.976 175.802 536.006 165.752 524.336 164.082C512.676 165.772 503.716 175.812 503.716 187.932" fill="white"/>
<path fill-rule="evenodd" clip-rule="evenodd" d="M553.794 577.733H381.486C374.887 577.733 369.486 572.333 369.486 565.733C369.486 559.132 374.887 553.733 381.486 553.733H553.794C560.395 553.733 565.794 559.132 565.794 565.733C565.794 572.333 560.395 577.733 553.794 577.733" fill="#CCE3FF"/>
<path fill-rule="evenodd" clip-rule="evenodd" d="M462.179 572.026H473.102V360.846H462.179V572.026Z" fill="#CCE3FF"/>
<path fill-rule="evenodd" clip-rule="evenodd" d="M528.231 360.846L467.641 388.44L407.051 360.846H528.231Z" fill="#CCE3FF"/>
<path fill-rule="evenodd" clip-rule="evenodd" d="M460.282 577.733H437.924C431.323 577.733 425.924 572.333 425.924 565.733C425.924 559.132 431.323 553.733 437.924 553.733H460.282C466.883 553.733 472.282 559.132 472.282 565.733C472.282 572.333 466.883 577.733 460.282 577.733" fill="#B6D4FF"/>
<path fill-rule="evenodd" clip-rule="evenodd" d="M445.616 574.237C445.616 583.866 437.809 591.673 428.179 591.673C418.55 591.673 410.744 583.866 410.744 574.237C410.744 564.607 418.55 556.8 428.179 556.8C437.809 556.8 445.616 564.607 445.616 574.237" fill="#B6D4FF"/>
<path fill-rule="evenodd" clip-rule="evenodd" d="M576.616 574.237C576.616 583.866 568.809 591.673 559.179 591.673C549.55 591.673 541.744 583.866 541.744 574.237C541.744 564.607 549.55 556.8 559.179 556.8C568.809 556.8 576.616 564.607 576.616 574.237" fill="#B6D4FF"/>
<path fill-rule="evenodd" clip-rule="evenodd" d="M502.67 344.846H363.231C354.267 344.846 346.999 337.579 346.999 328.616V328.615C346.999 319.651 354.267 312.384 363.231 312.384H502.67C511.635 312.384 518.901 319.651 518.901 328.615V328.616C518.901 337.579 511.635 344.846 502.67 344.846" fill="#CCE3FF"/>
<path fill-rule="evenodd" clip-rule="evenodd" d="M558.715 344.846H475.748C466.784 344.846 459.518 337.579 459.518 328.616V328.615C459.518 319.651 466.784 312.384 475.748 312.384H558.715C567.679 312.384 574.946 319.651 574.946 328.615V328.616C574.946 337.579 567.679 344.846 558.715 344.846" fill="#B6D4FF"/>
</svg>
