<svg width="945" height="716" viewBox="0 0 945 716" fill="none" xmlns="http://www.w3.org/2000/svg">
<path fill-rule="evenodd" clip-rule="evenodd" d="M602.646 354.94V356.6C602.646 370.45 591.901 381.669 578.658 381.669H390.754C361.77 381.669 339.465 353.86 343.465 322.7L364.679 149.08C366.516 134.7 377.836 124 391.213 124H446.904C460.272 124 471.591 134.7 473.439 149.08L494.653 322.7C494.815 323.94 494.93 325.18 494.998 326.41L495.112 326.39C495.112 326.39 499.036 354.94 535.511 354.94H602.646Z" fill="#DCEEFF"/>
<path fill-rule="evenodd" clip-rule="evenodd" d="M402.607 577.242C402.607 586.097 395.427 593.276 386.572 593.276C377.716 593.276 370.538 586.097 370.538 577.242C370.538 568.387 377.716 561.207 386.572 561.207C395.427 561.207 402.607 568.387 402.607 577.242" fill="#B6D4FF"/>
<path fill-rule="evenodd" clip-rule="evenodd" d="M548.923 580.456H390.462C384.393 580.456 379.427 575.49 379.427 569.421C379.427 563.352 384.393 558.385 390.462 558.385H548.923C554.992 558.385 559.958 563.352 559.958 569.421C559.958 575.49 554.992 580.456 548.923 580.456" fill="#CCE3FF"/>
<path fill-rule="evenodd" clip-rule="evenodd" d="M461.562 575.208H477.824V381H461.562V575.208Z" fill="#CCE3FF"/>
<path fill-rule="evenodd" clip-rule="evenodd" d="M525.414 381L469.693 406.376L413.973 381H525.414Z" fill="#CCE3FF"/>
<path fill-rule="evenodd" clip-rule="evenodd" d="M470.925 580.456H450.363C444.293 580.456 439.327 575.49 439.327 569.421C439.327 563.352 444.293 558.385 450.363 558.385H470.925C476.994 558.385 481.96 563.352 481.96 569.421C481.96 575.49 476.994 580.456 470.925 580.456" fill="#B6D4FF"/>
<path fill-rule="evenodd" clip-rule="evenodd" d="M457.437 577.242C457.437 586.097 450.258 593.276 441.403 593.276C432.546 593.276 425.368 586.097 425.368 577.242C425.368 568.387 432.546 561.207 441.403 561.207C450.258 561.207 457.437 568.387 457.437 577.242" fill="#B6D4FF"/>
<path fill-rule="evenodd" clip-rule="evenodd" d="M569.91 577.242C569.91 586.097 562.731 593.276 553.875 593.276C545.019 593.276 537.841 586.097 537.841 577.242C537.841 568.387 545.019 561.207 553.875 561.207C562.731 561.207 569.91 568.387 569.91 577.242" fill="#B6D4FF"/>
</svg>
