<svg width="945" height="716" viewBox="0 0 945 716" fill="none" xmlns="http://www.w3.org/2000/svg">
<path fill-rule="evenodd" clip-rule="evenodd" d="M459.002 378.1L405.131 594.885H417.716L471.588 378.1H459.002Z" fill="#CCE3FF"/>
<path d="M522.581 485.475L552.382 380.301" stroke="#B6D4FF" stroke-width="7"/>
<path d="M499.262 380.301L576.912 485.182" stroke="#B6D4FF" stroke-width="7"/>
<path fill-rule="evenodd" clip-rule="evenodd" d="M499.262 380.301L387.904 484.01Z" fill="white"/>
<path d="M499.262 380.301L387.904 484.01" stroke="#B6D4FF" stroke-width="7"/>
<path fill-rule="evenodd" clip-rule="evenodd" d="M545.816 377.97L598.911 594.885H611.314L558.22 377.97H545.816Z" fill="#CCE3FF"/>
<path d="M412.269 380.301L522.581 484.01" stroke="#B6D4FF" stroke-width="7"/>
<path fill-rule="evenodd" clip-rule="evenodd" d="M405.86 378.1L351.989 594.885H364.574L418.445 378.1H405.86Z" fill="#DCEEFF"/>
<path fill-rule="evenodd" clip-rule="evenodd" d="M492.762 378.1L546.633 594.885H559.218L505.347 378.1H492.762Z" fill="#DCEEFF"/>
<path fill-rule="evenodd" clip-rule="evenodd" d="M334 353.941V355.601C334 369.451 345.229 380.67 359.07 380.67H555.439C585.729 380.67 609.04 352.861 604.859 321.701L582.689 148.081C580.77 133.701 568.939 123.001 554.96 123.001H496.76C482.79 123.001 470.96 133.701 469.03 148.081L446.859 321.701C446.689 322.941 446.57 324.18 446.5 325.411L446.38 325.391C446.38 325.391 442.28 353.941 404.16 353.941H334Z" fill="#DCEEFF"/>
<path fill-rule="evenodd" clip-rule="evenodd" d="M544.062 352.95H415.692C443.142 347.929 446.382 325.39 446.382 325.39L446.501 325.41C446.572 324.18 446.692 322.94 446.862 321.7L469.032 148.08C470.961 133.7 482.791 123 496.762 123H552.961C560.632 123 567.063 124.529 572.8 129.666L593.482 293.98C597.662 325.14 574.352 352.95 544.062 352.95" fill="#ECF6FF"/>
</svg>
