<svg width="945" height="716" viewBox="0 0 945 716" fill="none" xmlns="http://www.w3.org/2000/svg">
<path fill-rule="evenodd" clip-rule="evenodd" d="M448.043 378.1L394.172 594.885H406.756L460.628 378.1H448.043Z" fill="#CCE3FF"/>
<path d="M511.622 485.475L541.423 380.301" stroke="#B6D4FF" stroke-width="7"/>
<path d="M488.303 380.301L565.954 485.182" stroke="#B6D4FF" stroke-width="7"/>
<path fill-rule="evenodd" clip-rule="evenodd" d="M488.302 380.301L376.944 484.01Z" fill="white"/>
<path d="M488.302 380.301L376.944 484.01" stroke="#B6D4FF" stroke-width="7"/>
<path fill-rule="evenodd" clip-rule="evenodd" d="M534.856 377.97L587.951 594.885H600.356L547.261 377.97H534.856Z" fill="#CCE3FF"/>
<path d="M401.31 380.301L511.622 484.01" stroke="#B6D4FF" stroke-width="7"/>
<path fill-rule="evenodd" clip-rule="evenodd" d="M394.9 378.1L341.03 594.885H353.615L407.487 378.1H394.9Z" fill="#DCEEFF"/>
<path fill-rule="evenodd" clip-rule="evenodd" d="M481.803 378.1L535.673 594.885H548.26L494.389 378.1H481.803Z" fill="#DCEEFF"/>
<path fill-rule="evenodd" clip-rule="evenodd" d="M608.346 353.941V355.6C608.346 369.451 597.116 380.67 583.276 380.67H386.906C356.616 380.67 333.306 352.861 337.486 321.701L359.656 148.081C361.575 133.701 373.406 123.001 387.386 123.001H445.586C459.556 123.001 471.386 133.701 473.316 148.081L495.486 321.701C495.656 322.941 495.776 324.18 495.846 325.411L495.966 325.39C495.966 325.39 500.066 353.941 538.186 353.941H608.346Z" fill="#DCEEFF"/>
</svg>
