<svg width="945" height="716" viewBox="0 0 945 716" fill="none" xmlns="http://www.w3.org/2000/svg">
<path fill-rule="evenodd" clip-rule="evenodd" d="M665.813 483.61L703.557 572.313H720.673L697.966 479.262L665.813 483.61Z" fill="#B6D4FF"/>
<path fill-rule="evenodd" clip-rule="evenodd" d="M473 483.61L510.743 572.313H527.859L505.152 479.262L473 483.61Z" fill="#B6D4FF"/>
<path fill-rule="evenodd" clip-rule="evenodd" d="M185 572.313H202.116L239.859 483.61L207.707 479.262L185 572.313Z" fill="#B6D4FF"/>
<path fill-rule="evenodd" clip-rule="evenodd" d="M377.813 572.313H394.929L432.673 483.61L400.52 479.262L377.813 572.313Z" fill="#B6D4FF"/>
<path fill-rule="evenodd" clip-rule="evenodd" d="M206.047 276.02V490.8L429.26 491.277L465.967 278.816L206.047 276.02ZM223.047 293.204L445.816 295.6L414.95 474.247L223.047 473.837V293.204Z" fill="#B6D4FF"/>
<path fill-rule="evenodd" clip-rule="evenodd" d="M498.958 143.999L438.959 491.277H700.708L760.709 143.999H498.958Z" fill="#CCE3FF"/>
<path fill-rule="evenodd" clip-rule="evenodd" d="M428.572 143.999L368.572 491.277H627.147L687.147 143.999H428.572Z" fill="#DCEEFF"/>
<path fill-rule="evenodd" clip-rule="evenodd" d="M364.461 491.277H672.255C687.969 491.277 700.708 478.538 700.708 462.823V397.247C700.708 381.532 687.969 368.793 672.255 368.793H364.461C348.746 368.793 336.007 381.532 336.007 397.247V462.823C336.007 478.538 348.746 491.277 364.461 491.277" fill="#CCE3FF"/>
<path fill-rule="evenodd" clip-rule="evenodd" d="M204.891 491.277H477.495V368.793H204.891V491.277Z" fill="#DCEEFF"/>
<path fill-rule="evenodd" clip-rule="evenodd" d="M477.495 276.02V490.8L700.708 491.277L737.416 278.816L477.495 276.02ZM494.495 293.204L717.264 295.6L686.398 474.247L494.495 473.837V293.204Z" fill="#B6D4FF"/>
</svg>
