<svg width="945" height="716" viewBox="0 0 945 716" fill="none" xmlns="http://www.w3.org/2000/svg">
<path fill-rule="evenodd" clip-rule="evenodd" d="M219.556 553.148H237.921V185.458H219.556V553.148Z" fill="#DCEEFF"/>
<path fill-rule="evenodd" clip-rule="evenodd" d="M201.19 553.148H219.555V185.458H201.19V553.148Z" fill="#B6D4FF"/>
<path fill-rule="evenodd" clip-rule="evenodd" d="M363.799 553.148H382.164V185.458H363.799V553.148Z" fill="#DCEEFF"/>
<path fill-rule="evenodd" clip-rule="evenodd" d="M345.433 553.148H363.798V185.458H345.433V553.148Z" fill="#B6D4FF"/>
<path fill-rule="evenodd" clip-rule="evenodd" d="M219.556 339.941H363.799V185.458H219.556V339.941Z" fill="#DCEEFF"/>
<path fill-rule="evenodd" clip-rule="evenodd" d="M152 185.458H634.049V161.001H152V185.458Z" fill="#B6D4FF"/>
<path fill-rule="evenodd" clip-rule="evenodd" d="M598.068 185.458H792.178V161.001H598.068V185.458Z" fill="#DCEEFF"/>
<path fill-rule="evenodd" clip-rule="evenodd" d="M724.233 553.148H743.871V185.458H724.233V553.148Z" fill="#DCEEFF"/>
<path fill-rule="evenodd" clip-rule="evenodd" d="M704.595 553.148H724.234V185.458H704.595V553.148Z" fill="#B6D4FF"/>
<path fill-rule="evenodd" clip-rule="evenodd" d="M569.399 553.148H589.037V185.458H569.399V553.148Z" fill="#DCEEFF"/>
<path fill-rule="evenodd" clip-rule="evenodd" d="M569.399 372.146H724.233V185.564H569.399V372.146Z" fill="#DCEEFF"/>
<path fill-rule="evenodd" clip-rule="evenodd" d="M421.448 372.058H549.76V185.476H421.448V372.058Z" fill="#B6D4FF"/>
<path fill-rule="evenodd" clip-rule="evenodd" d="M549.76 553.148H569.399V185.458H549.76V553.148Z" fill="#B6D4FF"/>
<path fill-rule="evenodd" clip-rule="evenodd" d="M549.76 218.151H743.871V185.458H549.76V218.151Z" fill="#B6D4FF"/>
<path fill-rule="evenodd" clip-rule="evenodd" d="M201.19 218.151H382.165V185.458H201.19V218.151Z" fill="#B6D4FF"/>
<path fill-rule="evenodd" clip-rule="evenodd" d="M442.176 267.91H529.033V203.245H442.176V267.91Z" fill="#DCEEFF"/>
<path fill-rule="evenodd" clip-rule="evenodd" d="M442.176 349.875H529.033V285.21H442.176V349.875Z" fill="#DCEEFF"/>
<path fill-rule="evenodd" clip-rule="evenodd" d="M499.209 235.577C499.209 243.236 493.118 249.446 485.605 249.446C478.091 249.446 472.001 243.236 472.001 235.577C472.001 227.918 478.091 221.709 485.605 221.709C493.118 221.709 499.209 227.918 499.209 235.577" fill="#B6D4FF"/>
<path fill-rule="evenodd" clip-rule="evenodd" d="M499.209 317.542C499.209 325.201 493.118 331.411 485.605 331.411C478.091 331.411 472.001 325.201 472.001 317.542C472.001 309.883 478.091 303.674 485.605 303.674C493.118 303.674 499.209 309.883 499.209 317.542" fill="#B6D4FF"/>
</svg>
