<svg width="945" height="716" viewBox="0 0 945 716" fill="none" xmlns="http://www.w3.org/2000/svg">
<path d="M332.304 253.929L286.39 156.612" stroke="#CCE3FF" stroke-width="12"/>
<path d="M383.268 101.208L286.391 156.611" stroke="#CCE3FF" stroke-width="12"/>
<path d="M382.141 102.405H421.658" stroke="#CCE3FF" stroke-width="12"/>
<path fill-rule="evenodd" clip-rule="evenodd" d="M302.761 262.78H388.921C388.921 254.943 382.568 248.59 374.731 248.59H316.951C309.114 248.59 302.761 254.943 302.761 262.78" fill="#DCEEFF"/>
<path fill-rule="evenodd" clip-rule="evenodd" d="M457.959 134.855C457.959 114.806 441.706 98.5529 421.657 98.5529C401.607 98.5529 385.354 114.806 385.354 134.855" fill="#DCEEFF"/>
<path fill-rule="evenodd" clip-rule="evenodd" d="M202.885 619.897H211.022L261.022 286.787H232.885L202.885 619.897Z" fill="#B6D4FF"/>
<path fill-rule="evenodd" clip-rule="evenodd" d="M345.332 619.897H353.469L403.469 286.787H375.332L345.332 619.897Z" fill="#B6D4FF"/>
<path fill-rule="evenodd" clip-rule="evenodd" d="M544.922 160.799H666.563L638.021 254.895H516.381L544.922 160.799Z" fill="#DCEEFF"/>
<path fill-rule="evenodd" clip-rule="evenodd" d="M658 166.852L633.634 247.195H524.78L549.146 166.852H658Z" fill="white"/>
<path fill-rule="evenodd" clip-rule="evenodd" d="M638.132 191.581L636.971 195.422H547.619L548.779 191.581H638.132Z" fill="#B6D4FF"/>
<path fill-rule="evenodd" clip-rule="evenodd" d="M632.432 199.406L631.271 203.247H544.844L546.004 199.406H632.432Z" fill="#B6D4FF"/>
<path fill-rule="evenodd" clip-rule="evenodd" d="M605.356 207.231L604.196 211.073H542.144L543.304 207.231H605.356Z" fill="#B6D4FF"/>
<path fill-rule="evenodd" clip-rule="evenodd" d="M427.436 262.633H549.076V254.895H427.436V262.633Z" fill="#DCEEFF"/>
<path fill-rule="evenodd" clip-rule="evenodd" d="M549.076 262.633H637.978V254.895H549.076V262.633Z" fill="#ECF6FF"/>
<path fill-rule="evenodd" clip-rule="evenodd" d="M666.462 160.799H673.937L645.396 254.895H637.921L666.462 160.799Z" fill="#ECF6FF"/>
<path fill-rule="evenodd" clip-rule="evenodd" d="M170 286.787H629.5V262.634H170V286.787Z" fill="#B6D4FF"/>
<path fill-rule="evenodd" clip-rule="evenodd" d="M596.269 286.787H775.539V262.634H596.269V286.787Z" fill="#DCEEFF"/>
<path fill-rule="evenodd" clip-rule="evenodd" d="M752.788 619.897H760.925L730.925 286.787H702.788L752.788 619.897Z" fill="#DCEEFF"/>
<path fill-rule="evenodd" clip-rule="evenodd" d="M609.792 619.897H617.929L587.929 286.787H559.792L609.792 619.897Z" fill="#DCEEFF"/>
<path fill-rule="evenodd" clip-rule="evenodd" d="M642.594 176.401L641.434 180.243H552.081L553.241 176.401H642.594Z" fill="#B6D4FF"/>
<path fill-rule="evenodd" clip-rule="evenodd" d="M630.703 184.226L629.543 188.068H549.94L551.101 184.226H630.703Z" fill="#B6D4FF"/>
<path fill-rule="evenodd" clip-rule="evenodd" d="M612.109 165.843L596.906 167.684L595.688 165.772L596.49 164.028L595.333 162.64L609.536 160.799L611.681 162.08L609.885 163.875L612.109 165.843Z" fill="#B6D4FF"/>
</svg>
