<svg width="203" height="193" viewBox="0 0 203 193" fill="none" xmlns="http://www.w3.org/2000/svg">
<path fill-rule="evenodd" clip-rule="evenodd" d="M66.8623 14.5148C68.7846 24.2639 62.44 33.7255 52.6909 35.6479C42.9418 37.5711 33.4793 31.2264 31.557 21.4773C29.6346 11.7273 35.9793 2.26572 45.7284 0.343403C55.4775 -1.57892 64.94 4.76573 66.8623 14.5148" fill="#2437A8"/>
<path fill-rule="evenodd" clip-rule="evenodd" d="M108.95 191.992L108.102 162.675C108.102 162.675 143.724 165.512 151.343 161.553C151.343 161.553 160.657 113.565 149.55 86.9897L149.325 85.954L74.1522 77.1603L69.4292 119.704C66.8971 112.234 46.5076 104.361 41.0451 115.058C29.2067 138.235 71.5353 153.842 71.5353 153.842L67.2371 192.345" fill="#E576C6"/>
<path opacity="0.397786" fill-rule="evenodd" clip-rule="evenodd" d="M108.102 162.675L84.0815 157.524L107.986 173.674L108.102 162.675Z" fill="black"/>
<path fill-rule="evenodd" clip-rule="evenodd" d="M127.916 114.767L136.216 135.061L126.268 135.188L127.916 114.767Z" fill="#405FD3"/>
<path fill-rule="evenodd" clip-rule="evenodd" d="M118.452 120.534C118.947 123.267 117.131 125.883 114.399 126.377C111.666 126.871 109.05 125.057 108.555 122.324C108.061 119.591 109.877 116.976 112.609 116.481C115.342 115.986 117.957 117.801 118.452 120.534" fill="#0D0B6D"/>
<path fill-rule="evenodd" clip-rule="evenodd" d="M144.558 120.534C145.053 123.267 143.238 125.883 140.506 126.377C137.773 126.871 135.157 125.057 134.662 122.324C134.167 119.591 135.983 116.976 138.715 116.481C141.449 115.986 144.064 117.801 144.558 120.534" fill="#0D0B6D"/>
<path fill-rule="evenodd" clip-rule="evenodd" d="M117.595 140.935C117.595 140.935 121.072 146.573 127.958 146.095Z" fill="white"/>
<path d="M117.595 140.935C117.595 140.935 121.072 146.573 127.958 146.095" stroke="#252535" stroke-width="4"/>
<path fill-rule="evenodd" clip-rule="evenodd" d="M61.8008 113.945L62.6187 96.962L97.9303 90.8039C95.0394 110.272 82.2417 119.23 72.5584 123.272C69.1112 118.829 65.2714 115.888 61.8008 113.945Z" fill="#19141E"/>
<path fill-rule="evenodd" clip-rule="evenodd" d="M35.9567 91.6829C35.9567 91.6829 23.9255 48.5141 58.5505 24.6909C101.408 -4.7966 151.014 72.6748 151.014 72.6748" fill="#CE3D29"/>
<path fill-rule="evenodd" clip-rule="evenodd" d="M27.132 96.6463L30.3489 114.695C31.1578 119.24 35.4748 122.287 40.0284 121.527L157.112 101.987C162.098 101.155 165.235 96.1499 163.808 91.3008L157.364 69.3972C156.128 65.1954 151.877 62.6419 147.587 63.5231L33.7302 86.9169C29.2578 87.8356 26.3311 92.1508 27.132 96.6463" fill="#2437A8"/>
<path fill-rule="evenodd" clip-rule="evenodd" d="M33.953 72.6264L53.7887 45.3871L84.0816 60.8166L101.501 34.7184L132.59 49.2059" fill="#2437A8"/>
</svg>
