<svg width="203" height="193" viewBox="0 0 203 193" fill="none" xmlns="http://www.w3.org/2000/svg">
<path fill-rule="evenodd" clip-rule="evenodd" d="M81.4741 84.7762L149.251 85.6051C149.251 85.6051 141.29 46.9181 88.6741 53.8262C44.6023 59.6129 48.3002 96.0907 51.4477 110.181C54.0293 110.771 63.3849 113.511 70.6114 123.409L81.4741 120.7V84.7762Z" fill="#FCBDA4"/>
<path fill-rule="evenodd" clip-rule="evenodd" d="M108.555 192.265L107.7 162.776C107.7 162.776 143.606 165.629 151.287 161.647C151.287 161.647 158.874 113.101 149.252 85.6049L73.4779 76.7596L67.942 120.813C65.3896 113.299 45.613 104.12 40.1059 114.879C28.1728 138.192 70.8409 153.89 70.8409 153.89L66.5083 192.619" fill="#E576C6"/>
<path opacity="0.402158" fill-rule="evenodd" clip-rule="evenodd" d="M107.699 162.775L83.4875 157.594L107.582 173.839L107.699 162.775Z" fill="black"/>
<path fill-rule="evenodd" clip-rule="evenodd" d="M127.672 114.586L136.039 135L126.01 135.127L127.672 114.586Z" fill="#405FD3"/>
<path fill-rule="evenodd" clip-rule="evenodd" d="M118.132 120.387C118.631 123.136 116.801 125.768 114.047 126.264C111.292 126.762 108.655 124.936 108.157 122.188C107.659 119.439 109.488 116.807 112.242 116.31C114.997 115.813 117.633 117.638 118.132 120.387" fill="#0D0B6D"/>
<path fill-rule="evenodd" clip-rule="evenodd" d="M144.447 120.387C144.946 123.136 143.116 125.768 140.362 126.264C137.607 126.762 134.97 124.936 134.473 122.188C133.974 119.439 135.804 116.807 138.558 116.31C141.313 115.813 143.949 117.638 144.447 120.387" fill="#0D0B6D"/>
<path fill-rule="evenodd" clip-rule="evenodd" d="M117.268 140.907C117.268 140.907 120.773 146.579 127.714 146.098Z" fill="white"/>
<path d="M117.268 140.907C117.268 140.907 120.773 146.579 127.714 146.098" stroke="#252535" stroke-width="4"/>
</svg>
