<svg width="203" height="193" viewBox="0 0 203 193" fill="none" xmlns="http://www.w3.org/2000/svg">
<path fill-rule="evenodd" clip-rule="evenodd" d="M108.555 191.845L107.699 162.483C107.699 162.483 143.606 165.324 151.287 161.359C151.287 161.359 159.567 118.111 149.251 85.6436L73.4784 76.8364L68.0874 120.133C65.535 112.652 45.6126 104.079 40.1055 114.792C28.1733 138.005 70.8405 153.636 70.8405 153.636L66.5079 192.198" fill="#5E93D1"/>
<path opacity="0.399344" fill-rule="evenodd" clip-rule="evenodd" d="M107.699 162.483L83.4872 157.324L107.583 173.499L107.699 162.483Z" fill="black"/>
<path fill-rule="evenodd" clip-rule="evenodd" d="M127.671 114.5L136.039 134.826L126.011 134.953L127.671 114.5Z" fill="#2437A8"/>
<path fill-rule="evenodd" clip-rule="evenodd" d="M118.132 120.277C118.63 123.014 116.801 125.634 114.047 126.128C111.292 126.624 108.656 124.806 108.157 122.07C107.658 119.332 109.488 116.712 112.242 116.217C114.997 115.722 117.634 117.539 118.132 120.277" fill="#0D0B6D"/>
<path fill-rule="evenodd" clip-rule="evenodd" d="M144.447 120.277C144.946 123.014 143.116 125.634 140.362 126.128C137.607 126.624 134.971 124.806 134.472 122.07C133.974 119.332 135.803 116.712 138.557 116.217C141.312 115.722 143.949 117.539 144.447 120.277" fill="#0D0B6D"/>
<path fill-rule="evenodd" clip-rule="evenodd" d="M117.268 140.709C117.268 140.709 120.772 146.356 127.714 145.877Z" fill="white"/>
<path d="M117.268 140.709C117.268 140.709 120.772 146.356 127.714 145.877" stroke="#252535" stroke-width="4"/>
<path fill-rule="evenodd" clip-rule="evenodd" d="M53.7666 110.879C58.1957 112.325 66.1975 116.09 72.2269 125.406C83.2159 122.871 80.7824 114.81 80.7824 114.81C103.49 116.185 97.9508 92.2473 97.9508 92.2473C137.967 93.6235 149.251 85.6443 149.251 85.6443C149.251 85.6443 135.613 25.4554 128.413 16.1688C123.681 10.0657 108.06 2.89306 80.3666 12.7985C47.6813 24.4896 41.3201 35.6362 39.6596 44.7162C38.2252 52.551 50.4017 98.4453 53.7666 110.879Z" fill="#19141E"/>
</svg>
