<svg width="203" height="193" viewBox="0 0 203 193" fill="none" xmlns="http://www.w3.org/2000/svg">
<path fill-rule="evenodd" clip-rule="evenodd" d="M153.23 95.3756L50.0469 97.989L49.9676 96.3357L48.7389 71.0379L47.8032 51.7845C47.5005 45.6156 52.6743 40.5756 58.8435 41.029L141.815 47.109C147.016 47.4823 151.102 51.6779 151.36 56.869L151.805 65.9623L153.034 91.429L153.23 95.3756Z" fill="#2437A8"/>
<path fill-rule="evenodd" clip-rule="evenodd" d="M153.034 91.4285C138.112 93.4285 120.704 95.0019 102.097 95.8997C83.0791 96.8241 65.2454 96.9219 49.967 96.3352L48.7383 71.0374C63.8832 68.9752 81.6457 67.3485 100.672 66.433C119.281 65.5352 136.749 65.4197 151.805 65.9619L153.034 91.4285Z" fill="#5E93D1"/>
<path fill-rule="evenodd" clip-rule="evenodd" d="M108.446 191.453L107.599 162.266C107.599 162.266 143.121 165.09 150.72 161.149C150.72 161.149 160.006 113.374 148.93 86.9169L148.706 85.8858L73.7454 78.9089L68.7303 119.001C66.2053 111.565 46.1783 104.211 40.7303 114.86C28.926 137.935 71.1358 153.472 71.1358 153.472L66.8496 191.804" fill="#E576C6"/>
<path opacity="0.398112" fill-rule="evenodd" clip-rule="evenodd" d="M107.599 162.266L83.6469 157.138L107.484 173.216L107.599 162.266Z" fill="black"/>
<path fill-rule="evenodd" clip-rule="evenodd" d="M127.358 114.57L135.635 134.775L125.714 134.901L127.358 114.57Z" fill="#405FD3"/>
<path fill-rule="evenodd" clip-rule="evenodd" d="M117.921 120.312C118.413 123.033 116.604 125.637 113.879 126.129C111.153 126.621 108.545 124.815 108.052 122.094C107.559 119.373 109.369 116.77 112.093 116.277C114.819 115.785 117.427 117.591 117.921 120.312" fill="#0D0B6D"/>
<path fill-rule="evenodd" clip-rule="evenodd" d="M143.954 120.312C144.446 123.033 142.637 125.637 139.912 126.129C137.186 126.621 134.579 124.815 134.085 122.094C133.592 119.373 135.402 116.77 138.127 116.277C140.852 115.785 143.461 117.591 143.954 120.312" fill="#0D0B6D"/>
<path fill-rule="evenodd" clip-rule="evenodd" d="M117.066 140.622C117.066 140.622 120.532 146.235 127.399 145.76Z" fill="white"/>
<path d="M117.066 140.622C117.066 140.622 120.532 146.235 127.399 145.76" stroke="#252535" stroke-width="4"/>
<path fill-rule="evenodd" clip-rule="evenodd" d="M152.919 101.774C182.973 97.7612 203.029 92.0271 202.765 86.5861C202.37 78.4475 156.659 74.0466 100.668 76.7559C44.6768 79.4661 -0.392735 88.2599 0.00258079 96.3986C0.36489 103.858 38.7905 108.177 88.3097 106.761L89.3391 101.573L88.5048 90.7184C88.5048 90.7184 149.703 87.6375 151.739 95.7077L152.919 101.774Z" fill="#2437A8"/>
<path fill-rule="evenodd" clip-rule="evenodd" d="M77.2344 131.535C83.2079 131.187 88.4113 130.331 89.8903 128.481C92.2676 125.512 88.5041 90.718 88.5041 90.718C88.5041 90.718 49.9501 93.0735 50.5546 100.46C50.5546 100.46 51.0475 104.78 51.6936 110.186C55.4769 110.84 69.1813 114.313 76.9983 131.015C77.0808 131.191 77.1595 131.364 77.2344 131.535Z" fill="#19141E"/>
</svg>
