<svg width="203" height="193" viewBox="0 0 203 193" fill="none" xmlns="http://www.w3.org/2000/svg">
<path fill-rule="evenodd" clip-rule="evenodd" d="M108.34 191.758L107.487 162.456C107.487 162.456 143.285 165.291 150.942 161.334C150.942 161.334 160.301 113.37 149.139 86.8086L148.912 85.7743L73.3703 76.9841L69.9385 121.23C67.3939 113.765 45.5893 104.171 40.0999 114.862C28.2031 138.028 70.7404 153.627 70.7404 153.627L66.421 192.111" fill="#CE3D29"/>
<path opacity="0.403344" fill-rule="evenodd" clip-rule="evenodd" d="M107.487 162.456L83.348 157.307L107.371 173.449L107.487 162.456Z" fill="black"/>
<path fill-rule="evenodd" clip-rule="evenodd" d="M127.398 114.572L135.739 134.856L125.743 134.983L127.398 114.572Z" fill="#405FD3"/>
<path fill-rule="evenodd" clip-rule="evenodd" d="M117.888 120.336C118.385 123.067 116.561 125.682 113.815 126.176C111.069 126.67 108.44 124.857 107.944 122.125C107.447 119.393 109.271 116.779 112.016 116.285C114.763 115.791 117.392 117.604 117.888 120.336" fill="#0D0B6D"/>
<path fill-rule="evenodd" clip-rule="evenodd" d="M144.123 120.336C144.62 123.067 142.796 125.682 140.05 126.176C137.304 126.67 134.675 124.857 134.179 122.125C133.682 119.393 135.506 116.779 138.251 116.285C140.998 115.791 143.627 117.604 144.123 120.336" fill="#0D0B6D"/>
<path fill-rule="evenodd" clip-rule="evenodd" d="M90.7237 92.4451C90.7237 92.4451 107.032 91.7303 135.693 92.3639C190.384 93.5723 160.761 52.0005 160.761 52.0005C160.761 52.0005 158.91 55.2952 125.305 55.2952C117.884 55.2952 110.678 55.1306 103.898 54.9758C85.1108 54.5467 69.6006 54.1925 61.8678 57.6235C51.4721 62.2355 46.8127 78.3282 49.4775 95.9353C50.318 101.5 52.8494 106.784 56.0603 111.508C61.9362 113.649 70.8818 118.807 76.6489 131.081C76.82 131.445 76.9749 131.797 77.1142 132.137L90.7237 92.4451Z" fill="#19141E"/>
<path fill-rule="evenodd" clip-rule="evenodd" d="M120.953 147.906C120.953 147.906 126.099 152.105 132.488 149.414Z" fill="white"/>
<path d="M120.953 147.906C120.953 147.906 126.099 152.105 132.488 149.414" stroke="#252535" stroke-width="4"/>
<path fill-rule="evenodd" clip-rule="evenodd" d="M112.264 143.523C112.264 143.523 115.047 136.286 128.23 136.829C141.412 137.371 143.047 146.338 143.047 146.338L112.264 143.523Z" fill="#19141E"/>
</svg>
