<svg width="203" height="193" viewBox="0 0 203 193" fill="none" xmlns="http://www.w3.org/2000/svg">
<path fill-rule="evenodd" clip-rule="evenodd" d="M157.749 89.0757C157.749 103.412 148.531 115.033 137.16 115.033C125.791 115.033 116.573 103.412 116.573 89.0757C116.573 74.7396 125.791 63.1185 137.16 63.1185C148.531 63.1185 157.749 74.7396 157.749 89.0757" fill="#19141E"/>
<path fill-rule="evenodd" clip-rule="evenodd" d="M109.028 191.906L108.167 162.092C108.167 162.092 144.314 164.977 152.047 160.951C152.047 160.951 161.498 112.149 150.226 85.1241L149.998 84.0717L73.7164 75.1291L69.4399 119C66.8704 111.404 45.6636 102.791 40.1204 113.668C28.1073 137.238 71.0608 153.109 71.0608 153.109L66.6991 192.263" fill="#E576C6"/>
<path opacity="0.398926" fill-rule="evenodd" clip-rule="evenodd" d="M108.167 162.092L83.7919 156.854L108.05 173.277L108.167 162.092Z" fill="black"/>
<path fill-rule="evenodd" clip-rule="evenodd" d="M127.652 118.443L136.074 139.081L125.98 139.21L127.652 118.443Z" fill="#405FD3"/>
<path fill-rule="evenodd" clip-rule="evenodd" d="M118.67 119.237C119.172 122.016 117.33 124.677 114.557 125.179C111.784 125.682 109.129 123.836 108.628 121.057C108.126 118.278 109.967 115.618 112.741 115.115C115.514 114.613 118.168 116.458 118.67 119.237" fill="#0D0B6D"/>
<path fill-rule="evenodd" clip-rule="evenodd" d="M146.974 119.237C147.476 122.016 145.634 124.677 142.861 125.179C140.088 125.682 137.433 123.836 136.932 121.057C136.43 118.278 138.271 115.618 141.045 115.115C143.818 114.613 146.472 116.458 146.974 119.237" fill="#0D0B6D"/>
<path fill-rule="evenodd" clip-rule="evenodd" d="M86.424 91.82C86.7058 85.7448 87.5511 83.6482 120.435 92.0062C166.406 103.69 183.27 57.6974 165.14 47.1921C160.116 44.2822 154.888 45.9759 148.861 47.9283C142.159 50.0995 134.469 52.5906 124.975 49.4257C98.1563 40.4913 79.8343 47.0732 69.2083 51.8228C58.7109 56.5161 45.7147 72.8606 48.4056 90.7749C49.409 97.4685 50.8372 103.762 52.7104 109.189C57.4074 110.298 67.8717 114.082 75.1043 126.488C82.4568 123.01 85.5123 111.457 86.424 91.82Z" fill="#19141E"/>
<path fill-rule="evenodd" clip-rule="evenodd" d="M113.629 139.977C113.629 139.977 116.87 145.879 123.875 145.739Z" fill="white"/>
<path d="M113.629 139.977C113.629 139.977 116.87 145.879 123.875 145.739" stroke="#252535" stroke-width="4"/>
<path fill-rule="evenodd" clip-rule="evenodd" d="M125.206 119.484C125.206 125.945 119.979 131.182 113.531 131.182C107.085 131.182 101.858 125.945 101.858 119.484C101.858 113.023 107.085 107.785 113.531 107.785C119.979 107.785 125.206 113.023 125.206 119.484Z" stroke="#252535" stroke-width="4"/>
<path fill-rule="evenodd" clip-rule="evenodd" d="M154.6 119.484C154.6 125.945 149.373 131.182 142.927 131.182C136.479 131.182 131.252 125.945 131.252 119.484C131.252 113.023 136.479 107.785 142.927 107.785C149.373 107.785 154.6 113.023 154.6 119.484Z" stroke="#252535" stroke-width="4"/>
<path d="M130.301 120.026H125.254" stroke="#252535" stroke-width="4"/>
<path d="M101.858 119.484H73.0205" stroke="#252535" stroke-width="4"/>
</svg>
