<svg width="203" height="193" viewBox="0 0 203 193" fill="none" xmlns="http://www.w3.org/2000/svg">
<path fill-rule="evenodd" clip-rule="evenodd" d="M108.978 190.893L108.117 161.204C108.117 161.204 144.24 164.076 151.968 160.067C151.968 160.067 161.411 111.469 150.148 84.557L149.92 83.5091L73.691 74.6028L68.9485 117.762C66.3808 110.198 45.6588 102.149 40.1186 112.981C28.1138 136.453 71.0373 152.257 71.0373 152.257L66.6796 191.25" fill="#5E93D1"/>
<path opacity="0.400274" fill-rule="evenodd" clip-rule="evenodd" d="M108.117 161.203L83.7603 155.987L108.001 172.342L108.117 161.203Z" fill="black"/>
<path fill-rule="evenodd" clip-rule="evenodd" d="M128.21 112.687L136.627 133.239L126.54 133.367L128.21 112.687Z" fill="#2437A8"/>
<path fill-rule="evenodd" clip-rule="evenodd" d="M118.613 118.527C119.115 121.295 117.274 123.943 114.503 124.444C111.732 124.945 109.079 123.107 108.579 120.34C108.077 117.573 109.917 114.923 112.688 114.422C115.46 113.922 118.112 115.76 118.613 118.527" fill="#0D0B6D"/>
<path fill-rule="evenodd" clip-rule="evenodd" d="M145.087 118.527C145.588 121.295 143.748 123.943 140.976 124.444C138.206 124.945 135.553 123.107 135.052 120.34C134.551 117.573 136.39 114.923 139.162 114.422C141.933 113.922 144.585 115.76 145.087 118.527" fill="#0D0B6D"/>
<path fill-rule="evenodd" clip-rule="evenodd" d="M117.744 139.187C117.744 139.187 121.27 144.897 128.253 144.413Z" fill="white"/>
<path d="M117.744 139.187C117.744 139.187 121.27 144.897 128.253 144.413" stroke="#252535" stroke-width="4"/>
<path fill-rule="evenodd" clip-rule="evenodd" d="M69.4089 118.222C63.7168 112.328 57.5218 109.83 53.7642 108.793L54.481 93.9186L90.2889 87.6824C87.8214 104.277 78.2368 113.33 69.4089 118.222V118.222Z" fill="#EACB47"/>
<path fill-rule="evenodd" clip-rule="evenodd" d="M152.261 90.3601C149.035 87.2948 128.009 86.3454 102.734 88.2895C96.855 88.7416 91.2189 89.3112 86.0073 89.9713C68.7784 92.1323 56.1018 95.2065 54.0384 97.9101C51.7495 64.1295 72.4643 44.0112 99.5857 42.1395C117.379 40.9098 133.515 47.845 143.174 62.2939C148.116 69.6993 151.369 79.0848 152.261 90.3601" fill="#393954"/>
<mask id="mask0" mask-type="alpha" maskUnits="userSpaceOnUse" x="86" y="61" width="86" height="31">
<path fill-rule="evenodd" clip-rule="evenodd" d="M86.0076 61.5556H171.893V91.029H86.0076V61.5556Z" fill="white"/>
</mask>
<g mask="url(#mask0)">
<path fill-rule="evenodd" clip-rule="evenodd" d="M152.669 91.029H152.66C152.625 90.7939 152.487 90.5678 152.262 90.3599C149.036 87.2947 128.009 86.3453 102.734 88.2893C96.8543 88.7414 91.2191 89.311 86.0076 89.9711C93.421 82.9365 106.982 71.8149 122.98 66.8238C129.821 64.6899 136.758 63.1347 143.174 62.2938C158.747 60.2322 171.242 62.348 171.866 70.4225C172.672 80.9292 155.357 89.7269 152.669 91.029" fill="#161629"/>
</g>
</svg>
