<svg width="203" height="193" viewBox="0 0 203 193" fill="none" xmlns="http://www.w3.org/2000/svg">
<path fill-rule="evenodd" clip-rule="evenodd" d="M156.066 77.2797C156.066 77.2797 181.43 110.427 146.994 119.225L156.066 77.2797Z" fill="#19141E"/>
<path fill-rule="evenodd" clip-rule="evenodd" d="M108.809 191.226L107.966 161.999C107.966 161.999 144.264 164.827 151.839 160.88C151.839 160.88 157.597 125.365 152.122 100.185L122.318 73.1952L74.2165 76.7467L68.7571 120.408C66.2399 112.962 43.3272 103.627 37.8269 120.332C30.7343 141.873 71.615 153.192 71.615 153.192L67.3431 191.577" fill="#E576C6"/>
<path fill-rule="evenodd" clip-rule="evenodd" d="M49.9415 111.023C49.9415 111.023 26.5895 101.494 53.7963 73.2633C81.004 45.0326 105.25 59.682 105.25 59.682C105.25 59.682 112.088 30.9181 131.016 31.0009C157.981 31.1175 162.143 72.901 162.143 72.901C162.143 72.901 175.734 50.1774 183.462 53.4254C191.19 56.6743 191.403 132.149 84.1131 95.3674C84.1131 95.3674 93.3386 116.182 68.7572 120.409C68.7572 120.409 64.4702 111.525 49.9415 111.023" fill="#19141E"/>
<path d="M60.1998 50.9642L63.5788 69.8167L56.5377 73.1956L43.5259 59.9018" stroke="#19141E" stroke-width="9"/>
<path opacity="0.4" fill-rule="evenodd" clip-rule="evenodd" d="M107.966 161.998L84.0872 156.863L107.851 172.964L107.966 161.998Z" fill="black"/>
<path fill-rule="evenodd" clip-rule="evenodd" d="M128.117 118.021L136.368 138.254L126.479 138.38L128.117 118.021Z" fill="#125475"/>
<path fill-rule="evenodd" clip-rule="evenodd" d="M118.254 119.987C118.746 122.711 116.941 125.319 114.225 125.812C111.508 126.305 108.908 124.496 108.417 121.771C107.925 119.047 109.729 116.439 112.446 115.947C115.163 115.453 117.762 117.262 118.254 119.987" fill="#0D0B6D"/>
<path fill-rule="evenodd" clip-rule="evenodd" d="M144.206 119.987C144.698 122.711 142.893 125.319 140.177 125.812C137.461 126.305 134.86 124.496 134.369 121.771C133.877 119.047 135.681 116.439 138.398 115.947C141.115 115.453 143.714 117.262 144.206 119.987" fill="#0D0B6D"/>
<path fill-rule="evenodd" clip-rule="evenodd" d="M115.336 141.574C115.336 141.574 118.511 147.36 125.373 147.223Z" fill="white"/>
<path d="M115.336 141.574C115.336 141.574 118.511 147.36 125.373 147.223" stroke="#252535" stroke-width="4"/>
</svg>
