<svg width="412" height="463" viewBox="0 0 412 463" fill="none" xmlns="http://www.w3.org/2000/svg">
<path fill-rule="evenodd" clip-rule="evenodd" d="M117.668 260.852C125.429 264.975 131.134 272.687 132.282 281.909C132.409 282.927 132.479 283.938 132.496 284.938C132.571 289.474 126.855 291.461 124.09 287.866C120.935 283.764 116.756 281.398 112.386 281.785C104.001 282.528 98.091 293.133 99.183 305.477C99.185 305.503 99.187 305.529 99.19 305.555C99.524 309.234 95.77 311.892 92.461 310.253C84.079 306.104 77.995 297.814 77.11 287.812C76.051 275.848 82.7521 264.986 93.053 260.199V65.055C84.3367 60.3659 78.4118 51.1588 78.4118 40.5681C78.4118 29.0512 85.4183 19.1705 95.4018 14.9567C99.0173 7.87687 106.39 3.00049 114.845 3.00049H287.7C295.403 3.00049 302.207 7.04642 306.091 13.1182C318.81 11.1114 331.626 18.2019 336.375 30.7178C341.499 44.2242 335.405 59.2344 322.703 65.4899V262.406C331.888 267.793 337.528 278.246 336.241 289.502C335.1 299.479 328.806 307.609 320.321 311.543C316.969 313.097 313.286 310.343 313.714 306.675C313.717 306.648 313.719 306.622 313.723 306.597C315.132 294.285 309.495 283.531 301.132 282.574C296.773 282.076 292.534 284.335 289.275 288.353C286.419 291.877 280.756 289.744 280.947 285.212C280.989 284.212 281.086 283.203 281.238 282.189C282.72 272.348 289.382 264.372 298.088 260.734V79.7363C294.995 81.4245 291.455 82.3855 287.7 82.3855H117.668V260.852V260.852Z" fill="#6CA1FF"/>
<path fill-rule="evenodd" clip-rule="evenodd" d="M204.135 60.9866C197.535 60.9866 192.135 55.5866 192.135 48.9866V33.5386C192.135 26.9386 197.535 21.5386 204.135 21.5386H270.516C277.116 21.5386 282.516 26.9386 282.516 33.5386V48.9866C282.516 55.5866 277.116 60.9866 270.516 60.9866H204.135ZM201.7 41.2625C201.7 48.8205 207.827 54.9475 215.385 54.9475C222.942 54.9475 229.069 48.8205 229.069 41.2625C229.069 33.7045 222.942 27.5785 215.385 27.5785C207.827 27.5785 201.7 33.7045 201.7 41.2625ZM239.256 41.2625C239.256 48.8205 245.383 54.9475 252.941 54.9475C260.498 54.9475 266.625 48.8205 266.625 41.2625C266.625 33.7045 260.498 27.5785 252.941 27.5785C245.383 27.5785 239.256 33.7045 239.256 41.2625Z" fill="#19141E"/>
<path opacity="0.401228" fill-rule="evenodd" clip-rule="evenodd" d="M298.088 260.319V79.7989C301.016 77.0544 302.973 75.0651 303.96 73.8309C305.474 71.9365 306.778 70.1037 307.563 69.1385C307.769 68.8842 308.009 68.4596 308.056 68.37C308.103 68.2805 308.092 68.2744 308.178 68.2811C309.052 68.3491 309.659 68.37 310.395 68.37C312.103 68.37 314.178 68.1791 316.496 67.6893C317.263 67.5273 318.339 67.2178 319.657 66.7761C320.275 66.569 321.291 66.1421 322.703 65.4956V260.319H298.088ZM306.091 13.1182C318.81 11.1114 331.626 18.2019 336.375 30.7178C341.819 45.0658 334.602 61.1108 320.253 66.5548C316.246 68.0755 312.106 68.6085 308.102 68.2743C309.014 65.8766 309.514 63.2801 309.514 60.5725V24.8145C309.514 20.5193 308.256 16.5038 306.091 13.1182H306.091ZM99.5184 67.5468C99.7173 67.5914 99.921 67.6334 100.13 67.6722C100.905 67.8165 101.805 68.0054 102.828 68.1527C103.933 68.2863 105.058 68.3551 106.199 68.3551C121.546 68.3551 133.986 55.9141 133.986 40.5681C133.986 25.2221 121.546 12.7811 106.199 12.7811C102.369 12.7811 98.721 13.5557 95.4018 14.9567C99.0173 7.87687 106.39 3.00049 114.845 3.00049H142.216C154.213 3.00049 164.029 12.8165 164.029 24.8145V60.5725C164.029 72.5695 154.213 82.3855 142.216 82.3855H117.668V260.319H93.053V65.0666C93.2246 65.1563 93.3928 65.2429 93.5577 65.3266L93.5561 65.3191C95.4302 66.2783 97.4277 67.0309 99.5184 67.5468V67.5468Z" fill="black"/>
<path d="M322.703 235.127H325.203V232.627H322.703V235.127ZM298.088 235.127V232.627H295.588V235.127H298.088ZM322.703 240.127V242.627H325.203V240.127H322.703ZM298.088 240.127H295.588V242.627H298.088V240.127ZM322.703 214.127H325.203V211.627H322.703V214.127ZM298.088 214.127V211.627H295.588V214.127H298.088ZM322.703 219.127V221.627H325.203V219.127H322.703ZM298.088 219.127H295.588V221.627H298.088V219.127ZM322.703 193.127H325.203V190.627H322.703V193.127ZM298.088 193.127V190.627H295.588V193.127H298.088ZM322.703 198.127V200.627H325.203V198.127H322.703ZM298.088 198.127H295.588V200.627H298.088V198.127ZM322.703 172.127H325.203V169.627H322.703V172.127ZM298.088 172.127V169.627H295.588V172.127H298.088ZM322.703 177.127V179.627H325.203V177.127H322.703ZM298.088 177.127H295.588V179.627H298.088V177.127ZM322.703 151.127H325.203V148.627H322.703V151.127ZM298.088 151.127V148.627H295.588V151.127H298.088ZM322.703 156.127V158.627H325.203V156.127H322.703ZM298.088 156.127H295.588V158.627H298.088V156.127ZM322.703 130.127H325.203V127.627H322.703V130.127ZM298.088 130.127V127.627H295.588V130.127H298.088ZM322.703 135.127V137.627H325.203V135.127H322.703ZM298.088 135.127H295.588V137.627H298.088V135.127ZM322.703 109.127H325.203V106.627H322.703V109.127ZM298.088 109.127V106.627H295.588V109.127H298.088ZM322.703 114.127V116.627H325.203V114.127H322.703ZM298.088 114.127H295.588V116.627H298.088V114.127ZM322.703 88.127H325.203V85.627H322.703V88.127ZM298.088 88.127V85.627H295.588V88.127H298.088ZM322.703 93.127V95.627H325.203V93.127H322.703ZM298.088 93.127H295.588V95.627H298.088V93.127ZM117.667 235.127H120.167V232.627H117.667V235.127ZM93.0525 235.127V232.627H90.5525V235.127H93.0525ZM117.667 240.127V242.627H120.167V240.127H117.667ZM93.0525 240.127H90.5525V242.627H93.0525V240.127ZM117.667 214.127H120.167V211.627H117.667V214.127ZM93.0525 214.127V211.627H90.5525V214.127H93.0525ZM117.667 219.127V221.627H120.167V219.127H117.667ZM93.0525 219.127H90.5525V221.627H93.0525V219.127ZM117.667 193.127H120.167V190.627H117.667V193.127ZM93.0525 193.127V190.627H90.5525V193.127H93.0525ZM117.667 198.127V200.627H120.167V198.127H117.667ZM93.0525 198.127H90.5525V200.627H93.0525V198.127ZM117.667 172.127H120.167V169.627H117.667V172.127ZM93.0525 172.127V169.627H90.5525V172.127H93.0525ZM117.667 177.127V179.627H120.167V177.127H117.667ZM93.0525 177.127H90.5525V179.627H93.0525V177.127ZM117.667 151.127H120.167V148.627H117.667V151.127ZM93.0525 151.127V148.627H90.5525V151.127H93.0525ZM117.667 156.127V158.627H120.167V156.127H117.667ZM93.0525 156.127H90.5525V158.627H93.0525V156.127ZM117.667 130.127H120.167V127.627H117.667V130.127ZM93.0525 130.127V127.627H90.5525V130.127H93.0525ZM117.667 135.127V137.627H120.167V135.127H117.667ZM93.0525 135.127H90.5525V137.627H93.0525V135.127ZM117.667 109.127H120.167V106.627H117.667V109.127ZM93.0525 109.127V106.627H90.5525V109.127H93.0525ZM117.667 114.127V116.627H120.167V114.127H117.667ZM93.0525 114.127H90.5525V116.627H93.0525V114.127ZM117.667 88.127H120.167V85.627H117.667V88.127ZM93.0525 88.127V85.627H90.5525V88.127H93.0525ZM117.667 93.127V95.627H120.167V93.127H117.667ZM93.0525 93.127H90.5525V95.627H93.0525V93.127ZM322.703 232.627H298.088V237.627H322.703V232.627ZM325.203 240.127V235.127H320.203V240.127H325.203ZM298.088 242.627H322.703V237.627H298.088V242.627ZM295.588 235.127V240.127H300.588V235.127H295.588ZM322.703 211.627H298.088V216.627H322.703V211.627ZM325.203 219.127V214.127H320.203V219.127H325.203ZM298.088 221.627H322.703V216.627H298.088V221.627ZM295.588 214.127V219.127H300.588V214.127H295.588ZM322.703 190.627H298.088V195.627H322.703V190.627ZM325.203 198.127V193.127H320.203V198.127H325.203ZM298.088 200.627H322.703V195.627H298.088V200.627ZM295.588 193.127V198.127H300.588V193.127H295.588ZM322.703 169.627H298.088V174.627H322.703V169.627ZM325.203 177.127V172.127H320.203V177.127H325.203ZM298.088 179.627H322.703V174.627H298.088V179.627ZM295.588 172.127V177.127H300.588V172.127H295.588ZM322.703 148.627H298.088V153.627H322.703V148.627ZM325.203 156.127V151.127H320.203V156.127H325.203ZM298.088 158.627H322.703V153.627H298.088V158.627ZM295.588 151.127V156.127H300.588V151.127H295.588ZM322.703 127.627H298.088V132.627H322.703V127.627ZM325.203 135.127V130.127H320.203V135.127H325.203ZM298.088 137.627H322.703V132.627H298.088V137.627ZM295.588 130.127V135.127H300.588V130.127H295.588ZM322.703 106.627H298.088V111.627H322.703V106.627ZM325.203 114.127V109.127H320.203V114.127H325.203ZM298.088 116.627H322.703V111.627H298.088V116.627ZM295.588 109.127V114.127H300.588V109.127H295.588ZM322.703 85.627H298.088V90.627H322.703V85.627ZM325.203 93.127V88.127H320.203V93.127H325.203ZM298.088 95.627H322.703V90.627H298.088V95.627ZM295.588 88.127V93.127H300.588V88.127H295.588ZM117.667 232.627H93.0525V237.627H117.667V232.627ZM120.167 240.127V235.127H115.167V240.127H120.167ZM93.0525 242.627H117.667V237.627H93.0525V242.627ZM90.5525 235.127V240.127H95.5525V235.127H90.5525ZM117.667 211.627H93.0525V216.627H117.667V211.627ZM120.167 219.127V214.127H115.167V219.127H120.167ZM93.0525 221.627H117.667V216.627H93.0525V221.627ZM90.5525 214.127V219.127H95.5525V214.127H90.5525ZM117.667 190.627H93.0525V195.627H117.667V190.627ZM120.167 198.127V193.127H115.167V198.127H120.167ZM93.0525 200.627H117.667V195.627H93.0525V200.627ZM90.5525 193.127V198.127H95.5525V193.127H90.5525ZM117.667 169.627H93.0525V174.627H117.667V169.627ZM120.167 177.127V172.127H115.167V177.127H120.167ZM93.0525 179.627H117.667V174.627H93.0525V179.627ZM90.5525 172.127V177.127H95.5525V172.127H90.5525ZM117.667 148.627H93.0525V153.627H117.667V148.627ZM120.167 156.127V151.127H115.167V156.127H120.167ZM93.0525 158.627H117.667V153.627H93.0525V158.627ZM90.5525 151.127V156.127H95.5525V151.127H90.5525ZM117.667 127.627H93.0525V132.627H117.667V127.627ZM120.167 135.127V130.127H115.167V135.127H120.167ZM93.0525 137.627H117.667V132.627H93.0525V137.627ZM90.5525 130.127V135.127H95.5525V130.127H90.5525ZM117.667 106.627H93.0525V111.627H117.667V106.627ZM120.167 114.127V109.127H115.167V114.127H120.167ZM93.0525 116.627H117.667V111.627H93.0525V116.627ZM90.5525 109.127V114.127H95.5525V109.127H90.5525ZM117.667 85.627H93.0525V90.627H117.667V85.627ZM120.167 93.127V88.127H115.167V93.127H120.167ZM93.0525 95.627H117.667V90.627H93.0525V95.627ZM90.5525 88.127V93.127H95.5525V88.127H90.5525Z" fill="#19141E"/>
<path fill-rule="evenodd" clip-rule="evenodd" d="M183 134.168H217.77V79H183V134.168Z" fill="#19141E"/>
</svg>
