<svg width="415" height="463" viewBox="0 0 415 463" fill="none" xmlns="http://www.w3.org/2000/svg">
<path d="M357.801 211.479L334.531 40.8696" stroke="#19141E" stroke-width="27" stroke-linecap="round"/>
<path fill-rule="evenodd" clip-rule="evenodd" d="M141.122 190.423H286.232L308.36 166.602H118.994L141.122 190.423Z" fill="#19141E"/>
<path d="M54.8213 205.808L79.3523 35.3745" stroke="#19141E" stroke-width="27" stroke-linecap="round"/>
<path fill-rule="evenodd" clip-rule="evenodd" d="M346.626 84.3713V132.475C346.626 154.305 328.765 172.167 306.934 172.167H120.421C98.5899 172.167 80.7289 154.305 80.7289 132.475V80.6386C59.5711 79.6868 42.7099 62.2322 42.7099 40.8395C42.7099 18.8365 60.5469 0.999512 82.5499 0.999512C90.2205 0.999512 97.3848 3.1673 103.464 6.92367C108.613 4.47059 114.364 3.09571 120.421 3.09571H306.934C313.658 3.09571 320.006 4.79034 325.571 7.77364C326.417 7.46922 327.278 7.19107 328.155 6.94041C349.31 0.890411 371.364 13.1364 377.412 34.2914C383.461 55.4474 371.216 77.5004 350.061 83.5494C348.918 83.8763 347.772 84.1497 346.626 84.3713V84.3713ZM388.042 404.963C393.464 411.716 396.566 420.38 396.198 429.712C395.668 443.169 388.061 454.672 377.104 460.78C372.778 463.192 367.576 459.877 367.782 454.928C367.784 454.893 367.785 454.858 367.787 454.822C368.441 438.216 359.829 424.396 348.548 423.951C342.669 423.719 337.224 427.163 333.268 432.862C329.799 437.861 322.011 435.574 321.815 429.493C321.772 428.151 321.8 426.792 321.903 425.421C322.585 416.338 326.581 408.176 332.634 402.085C319.238 392.641 310.423 377.073 310.364 359.529L310.002 251.625C309.906 222.885 333.342 199.292 362.081 199.195C390.821 199.099 414.415 222.534 414.511 251.274L414.873 359.178C414.939 378.768 404.071 395.967 388.042 404.963H388.042ZM44.5392 406.099C26.3063 399.026 12.7195 381.95 11.1745 361.24L3.1455 253.635C1.0065 224.974 22.7075 199.775 51.3675 197.637C80.0275 195.498 105.227 217.198 107.366 245.859L115.394 353.464C116.736 371.458 108.683 388.088 95.4091 398.503C104.591 405.022 110.749 415.584 111.173 427.499C111.222 428.873 111.196 430.232 111.1 431.571C110.664 437.64 102.794 439.618 99.5238 434.487C95.7948 428.636 90.4898 424.98 84.6068 424.98C73.3178 424.98 64.1668 438.45 64.1668 455.07V455.176C64.1788 460.129 58.8498 463.237 54.6208 460.656C43.9138 454.121 36.7668 442.327 36.7668 428.86C36.7668 420.287 39.6665 412.391 44.5392 406.099V406.099ZM179.508 213.3V190.3H247.847V213.3H179.508Z" fill="#6CA1FF"/>
<path opacity="0.394764" fill-rule="evenodd" clip-rule="evenodd" d="M111.173 427.498C111.222 428.872 111.196 430.231 111.1 431.57C110.664 437.639 102.794 439.617 99.5238 434.486C95.7948 428.635 90.4898 424.979 84.6068 424.979C73.3178 424.979 64.1668 438.449 64.1668 455.069V455.175C64.1788 460.128 58.8498 463.236 54.6208 460.655C43.9138 454.12 36.7668 442.326 36.7668 428.859C36.7668 407.929 54.0498 391.034 75.1328 391.667C94.5568 392.25 110.483 408.078 111.173 427.498ZM293.83 84.72C293.83 110.22 275.269 131.38 250.92 135.44C250.569 135.38 250.229 135.32 249.88 135.25C226.04 130.79 208 109.86 208 84.72C208 59.58 226.04 38.65 249.88 34.19C250.229 34.12 250.569 34.06 250.92 34C275.269 38.06 293.83 59.22 293.83 84.72ZM212.389 84.7886C212.389 101.241 225.725 114.577 242.177 114.577C258.629 114.577 271.965 101.241 271.965 84.7886C271.965 68.3366 258.629 54.9996 242.177 54.9996C225.725 54.9996 212.389 68.3366 212.389 84.7886ZM42.5 40.84C42.5 18.837 60.337 1 82.34 1C104.343 1 122.18 18.837 122.18 40.84C122.18 62.843 104.343 80.68 82.34 80.68C60.337 80.68 42.5 62.843 42.5 40.84ZM52.1123 33.4553C52.1123 44.1293 60.7653 52.7823 71.4393 52.7823C82.1133 52.7823 90.7663 44.1293 90.7663 33.4553C90.7663 22.7813 82.1133 14.1283 71.4393 14.1283C60.7653 14.1283 52.1123 22.7813 52.1123 33.4553ZM325.5 7.87904C326.345 7.57462 327.207 7.29647 328.083 7.04581C349.238 0.99581 371.292 13.2418 377.34 34.3968C383.389 55.5528 371.144 77.6058 349.989 83.6548C348.846 83.9817 347.7 84.2551 346.555 84.4767V42.8931C346.555 27.7866 338.002 14.581 325.5 7.87904ZM388.041 404.768C393.463 411.521 396.564 420.185 396.197 429.517C395.667 442.974 388.06 454.477 377.103 460.585C372.777 462.997 367.575 459.682 367.781 454.733C367.783 454.698 367.784 454.663 367.786 454.627C368.44 438.021 359.828 424.201 348.547 423.756C342.668 423.524 337.223 426.968 333.267 432.667C329.798 437.666 322.01 435.379 321.814 429.298C321.771 427.956 321.799 426.597 321.902 425.226C322.584 416.143 326.579 407.981 332.633 401.89C319.237 392.446 310.422 376.878 310.362 359.334L310 251.43C309.904 222.69 333.34 199.097 362.079 199C390.819 198.904 414.413 222.339 414.509 251.079L414.871 358.983C414.937 378.573 404.069 395.772 388.041 404.768H388.041ZM180.709 125.975C180.709 120.325 185.29 115.744 190.94 115.744C196.591 115.744 201.171 120.325 201.171 125.975C201.171 131.625 196.591 136.206 190.94 136.206C185.29 136.206 180.709 131.625 180.709 125.975ZM151.139 125.975C151.139 120.325 155.72 115.744 161.369 115.744C167.02 115.744 171.601 120.325 171.601 125.975C171.601 131.625 167.02 136.206 161.369 136.206C155.72 136.206 151.139 131.625 151.139 125.975ZM16.3349 261.628C15.8979 255.994 20.1109 251.074 25.7449 250.637C31.3789 250.201 36.2999 254.414 36.7359 260.047C37.1729 265.681 32.9589 270.601 27.3259 271.038C21.6919 271.474 16.7719 267.261 16.3349 261.628ZM18.5224 289.851C18.0854 284.217 22.2984 279.297 27.9314 278.86C33.5654 278.424 38.4864 282.637 38.9224 288.27C39.3594 293.904 35.1464 298.824 29.5124 299.261C23.8784 299.697 18.9594 295.484 18.5224 289.851ZM20.7617 318.757C20.3247 313.124 24.5377 308.203 30.1717 307.766C35.8057 307.33 40.7257 311.543 41.1617 317.176C41.5987 322.81 37.3857 327.731 31.7527 328.167C26.1187 328.604 21.1987 324.391 20.7617 318.757ZM179 213V190H248V213H179Z" fill="black"/>
<path fill-rule="evenodd" clip-rule="evenodd" d="M250.68 135.506C275.029 131.446 293.59 110.286 293.59 84.7862C293.59 59.2862 275.029 38.1262 250.68 34.0662C253.44 33.6062 256.279 33.3662 259.17 33.3662C287.569 33.3662 310.59 56.3862 310.59 84.7862C310.59 113.186 287.569 136.206 259.17 136.206C256.279 136.206 253.44 135.966 250.68 135.506V135.506Z" fill="#19141E"/>
</svg>
