<svg width="412" height="463" viewBox="0 0 412 463" fill="none" xmlns="http://www.w3.org/2000/svg">
<path d="M83.0783 391.378L62.0043 368.525L92.5573 329.259L129.238 361.082L116.009 389.021" stroke="#19141E" stroke-width="15"/>
<path d="M311.936 389.494L293.045 364.807L327.068 328.506L360.678 363.555L344.945 390.165" stroke="#19141E" stroke-width="15"/>
<path d="M327.444 224.706L312.299 113.668" stroke="#19141E" stroke-width="27" stroke-linecap="round"/>
<path d="M85.5598 221.323L101.526 110.401" stroke="#19141E" stroke-width="27" stroke-linecap="round"/>
<path fill-rule="evenodd" clip-rule="evenodd" d="M264.007 159.422H220.89C214.465 159.422 209.257 154.214 209.257 147.789V104.672C209.257 98.2476 214.465 93.0396 220.89 93.0396H264.007C270.431 93.0396 275.639 98.2476 275.639 104.672V147.789C275.639 154.214 270.431 159.422 264.007 159.422" fill="#19141E"/>
<path fill-rule="evenodd" clip-rule="evenodd" d="M253.007 159.422H220.89C214.465 159.422 209.257 154.214 209.257 147.789V104.672C209.257 98.2476 214.465 93.0396 220.89 93.0396H253.007C259.431 93.0396 264.639 98.2476 264.639 104.672V147.789C264.639 154.214 259.431 159.422 253.007 159.422" fill="#405FD3"/>
<path fill-rule="evenodd" clip-rule="evenodd" d="M103.286 145.876C102.983 145.883 102.68 145.887 102.375 145.887C82.3331 145.887 66.0861 129.639 66.0861 109.597C66.0861 89.5551 82.3331 73.3071 102.375 73.3071C106.656 73.3071 110.764 74.0484 114.577 75.4096C132.459 43.2337 166.795 21.4609 206.216 21.4609C243.82 21.4609 276.796 41.272 295.278 71.0259C298.944 69.7805 302.873 69.1049 306.959 69.1049C327.001 69.1049 343.249 85.3529 343.249 105.395C343.249 124.457 328.551 140.086 309.871 141.569C302.449 192.16 258.869 231 206.216 231C155.068 231 112.481 194.348 103.286 145.876V145.876ZM40.0754 246.084C38.9744 231.336 50.0384 218.489 64.7864 217.388L101.837 214.624C116.585 213.523 129.432 224.587 130.532 239.334L136.834 323.79C137.934 338.538 126.871 351.385 112.124 352.486L75.0724 355.251C60.3244 356.351 47.4774 345.287 46.3774 330.54L40.0754 246.084ZM281.715 239.443C281.793 224.654 293.846 212.73 308.634 212.809L345.788 213.006C360.576 213.086 372.501 225.138 372.422 239.926L371.971 324.615C371.893 339.404 359.84 351.329 345.052 351.25L307.898 351.052C293.11 350.973 281.185 338.921 281.264 324.132L281.715 239.443Z" fill="#6CA1FF"/>
<path fill-rule="evenodd" clip-rule="evenodd" d="M166.21 29.461H246.223V3H166.21V29.461Z" fill="#19141E"/>
<path fill-rule="evenodd" clip-rule="evenodd" d="M253.007 159.422C259.431 159.422 264.639 154.214 264.639 147.789V104.672C264.639 98.2476 259.431 93.0396 253.007 93.0396H264.007C270.431 93.0396 275.639 98.2476 275.639 104.672V147.789C275.639 154.214 270.431 159.422 264.007 159.422H253.007Z" fill="#19141E"/>
<path opacity="0.401762" d="M60.4861 244.055L64.9722 243.702L64.9722 243.702L60.4861 244.055ZM55.6468 239.923L55.2935 235.436L55.2935 235.436L55.6468 239.923ZM67.1381 328.535L62.652 328.889L62.652 328.889L67.1381 328.535ZM63.0052 333.375L62.652 328.889L63.0052 333.375ZM58.1659 329.242L53.6798 329.595L53.6798 329.595L58.1659 329.242ZM51.5139 244.762L47.0278 245.115L47.0278 245.115L51.5139 244.762ZM76.9743 242.647L81.4604 242.294L81.4604 242.294L76.9743 242.647ZM72.135 238.514L71.7817 234.028L71.7817 234.028L72.135 238.514ZM83.6263 327.127L79.1402 327.48L79.1402 327.48L83.6263 327.127ZM79.4934 331.966L79.1402 327.48L79.4934 331.966ZM74.6541 327.833L70.168 328.186L70.168 328.186L74.6541 327.833ZM68.0021 243.353L63.516 243.706L63.516 243.706L68.0021 243.353ZM64.9722 243.702C64.5821 238.747 60.2487 235.046 55.2935 235.436L56 244.409L56 244.409L64.9722 243.702ZM71.6242 328.182L64.9722 243.702L56 244.409L62.652 328.889L71.6242 328.182ZM63.3585 337.861C68.3137 337.471 72.0144 333.137 71.6242 328.182L62.652 328.889L62.652 328.889L63.3585 337.861ZM53.6798 329.595C54.0699 334.55 58.4032 338.251 63.3585 337.861L62.652 328.889L62.652 328.889L53.6798 329.595ZM47.0278 245.115L53.6798 329.595L62.652 328.889L56 244.409L47.0278 245.115ZM55.2935 235.436C50.3383 235.827 46.6376 240.16 47.0278 245.115L56 244.409L56 244.409L55.2935 235.436ZM81.4604 242.294C81.0703 237.338 76.7369 233.638 71.7817 234.028L72.4882 243L72.4882 243L81.4604 242.294ZM88.1124 326.774L81.4604 242.294L72.4882 243L79.1402 327.48L88.1124 326.774ZM79.8467 336.452C84.8019 336.062 88.5026 331.729 88.1124 326.774L79.1402 327.48L79.1402 327.48L79.8467 336.452ZM70.168 328.186C70.5581 333.142 74.8914 336.842 79.8467 336.452L79.1402 327.48L79.1402 327.48L70.168 328.186ZM63.516 243.706L70.168 328.186L79.1402 327.48L72.4882 243L63.516 243.706ZM71.7817 234.028C66.8265 234.418 63.1258 238.751 63.516 243.706L72.4882 243L72.4882 243L71.7817 234.028Z" fill="black"/>
<path opacity="0.397763" fill-rule="evenodd" clip-rule="evenodd" d="M253.05 159.382H220.933C214.508 159.382 209.3 154.174 209.3 147.749V104.632C209.3 98.208 214.508 93 220.933 93H253.05C259.474 93 264.682 98.208 264.682 104.632V147.749C264.682 154.174 259.474 159.382 253.05 159.382ZM226.427 122.855C231.081 122.855 234.855 119.082 234.855 114.427C234.855 109.773 231.081 106 226.427 106C221.773 106 218 109.773 218 114.427C218 119.082 221.773 122.855 226.427 122.855ZM250.376 122.855C255.03 122.855 258.804 119.082 258.804 114.427C258.804 109.773 255.03 106 250.376 106C245.722 106 241.948 109.773 241.948 114.427C241.948 119.082 245.722 122.855 250.376 122.855ZM226.427 147.213C231.081 147.213 234.855 143.44 234.855 138.785C234.855 134.131 231.081 130.358 226.427 130.358C221.773 130.358 218 134.131 218 138.785C218 143.44 221.773 147.213 226.427 147.213Z" fill="black"/>
<path opacity="0.404204" fill-rule="evenodd" clip-rule="evenodd" d="M65 109.29C65 129.332 81.247 145.58 101.289 145.58C121.331 145.58 137.579 129.332 137.579 109.29C137.579 89.248 121.331 73 101.289 73C81.247 73 65 89.248 65 109.29" fill="black"/>
<path opacity="0.398763" fill-rule="evenodd" clip-rule="evenodd" d="M282.451 239.634L282 324.323C281.921 339.112 293.846 351.164 308.634 351.243L345.788 351.441C360.576 351.52 372.629 339.595 372.707 324.806L373.158 240.117C373.237 225.329 361.312 213.277 346.524 213.197L309.37 213C294.582 212.921 282.529 224.845 282.451 239.634" fill="black"/>
<path opacity="0.397856" fill-rule="evenodd" clip-rule="evenodd" d="M295 71.421C298.665 70.1755 302.594 69.5 306.681 69.5C326.723 69.5 342.971 85.748 342.971 105.79C342.971 124.852 328.273 140.481 309.593 141.964C310.327 136.958 310.707 131.836 310.707 126.626C310.707 106.367 304.957 87.4511 295 71.421H295Z" fill="black"/>
<path opacity="0.598121" fill-rule="evenodd" clip-rule="evenodd" d="M226.427 147.205C231.081 147.205 234.855 143.432 234.855 138.777C234.855 134.123 231.081 130.35 226.427 130.35C221.773 130.35 218 134.123 218 138.777C218 143.432 221.773 147.205 226.427 147.205" fill="black"/>
</svg>
