<svg width="412" height="463" viewBox="0 0 412 463" fill="none" xmlns="http://www.w3.org/2000/svg">
<path d="M273.838 178.627L318.67 275.438" stroke="#19141E" stroke-width="16" stroke-linecap="round"/>
<path fill-rule="evenodd" clip-rule="evenodd" d="M186.201 200H220.971V172H186.201V200Z" fill="#19141E"/>
<path d="M105.318 285.46L114.935 179.915" stroke="#19141E" stroke-width="16" stroke-linecap="round"/>
<path fill-rule="evenodd" clip-rule="evenodd" d="M142.699 173.236L142.009 174.599C135.859 186.756 120.883 191.671 108.727 185.522L106.678 184.486C94.5221 178.337 89.6071 163.36 95.7561 151.203L130.546 82.4243C135.226 73.1706 145.022 68.113 154.795 68.9368C159.413 67.0441 164.46 65.9995 169.739 65.9995H237.432C246.945 65.9995 255.704 69.3911 262.56 75.0248C271.6 77.0283 279.186 84.0396 281.404 93.6194L298.802 168.708C301.876 181.979 293.533 195.353 280.262 198.428L278.025 198.946C265.385 201.875 252.652 194.446 248.812 182.265C245.203 183.353 241.383 183.938 237.432 183.938H169.739C159.318 183.938 149.8 179.867 142.699 173.236ZM327.929 316.8L316.739 326.789C316.228 326.216 315.419 325.249 314.412 323.939C312.765 321.799 311.122 319.428 309.582 316.874C305.422 309.977 302.718 302.996 302.245 296.064C301.61 286.743 305.196 278.456 313.381 272.483C321.574 266.505 330.114 265.99 337.423 270.698C342.633 274.054 346.649 279.621 349.953 286.788C351.621 290.407 353.002 294.227 354.127 298.041C354.519 299.372 354.854 300.612 355.131 301.734C355.303 302.429 355.422 302.947 355.488 303.26L340.814 306.371C340.782 306.218 340.701 305.864 340.571 305.338C340.344 304.424 340.068 303.396 339.74 302.285C338.806 299.12 337.665 295.962 336.33 293.068C334.112 288.256 331.622 284.804 329.3 283.308C327.367 282.063 325.549 282.173 322.223 284.6C318.333 287.439 316.915 290.714 317.21 295.044C317.494 299.198 319.389 304.091 322.426 309.127C323.655 311.165 324.98 313.076 326.3 314.792C326.756 315.385 327.176 315.907 327.546 316.35C327.752 316.596 327.884 316.749 327.929 316.8ZM75.062 324.589L90.0359 323.704C90.0337 323.666 90.0276 323.533 90.0205 323.313C89.9694 321.713 89.9998 319.659 90.1748 317.338C90.4267 313.999 90.9397 310.738 91.7565 307.757C94.1807 298.909 98.3556 294.634 105.552 294.918C111.752 295.162 113.294 298.032 112.172 306.098C111.734 309.247 110.817 312.732 109.563 316.317C108.903 318.202 108.194 319.988 107.488 321.607C107.245 322.167 107.02 322.662 106.822 323.086C106.711 323.323 106.638 323.473 106.611 323.527L120.047 330.198C120.307 329.674 120.722 328.788 121.24 327.599C122.087 325.655 122.931 323.528 123.72 321.273C125.279 316.821 126.438 312.411 127.029 308.166C127.977 301.352 127.432 295.333 124.739 290.322C121.28 283.888 114.811 280.271 106.143 279.929C90.7509 279.323 81.3595 288.939 77.2897 303.793C75.3732 310.788 74.839 317.87 75.0282 323.792C75.0396 324.15 75.052 324.418 75.062 324.589Z" fill="#6CA1FF"/>
<path fill-rule="evenodd" clip-rule="evenodd" d="M204.356 145.282H237.586C244.187 145.282 249.586 139.882 249.586 133.282V113.795C249.586 107.195 244.187 101.795 237.586 101.795H204.356C197.755 101.795 192.356 107.195 192.356 113.795V133.282C192.356 139.882 197.755 145.282 204.356 145.282" fill="#19141E"/>
<path opacity="0.399182" fill-rule="evenodd" clip-rule="evenodd" d="M130.442 82.5746C136.59 70.4176 151.568 65.5026 163.724 71.6516L165.772 72.6876C177.928 78.8366 182.844 93.8136 176.695 105.971L141.905 174.75C135.755 186.907 120.779 191.822 108.623 185.673L106.574 184.637C94.4176 178.488 89.5026 163.511 95.6516 151.354L130.442 82.5746ZM268.896 184.13C265.143 181.83 263.481 177.412 264.506 173.357C260.126 177.402 254.841 180.48 249 182.24C252.84 194.421 265.574 201.85 278.214 198.922L280.451 198.404C293.722 195.329 302.065 181.955 298.991 168.684L281.593 93.5947C279.374 84.0148 271.789 77.0035 262.748 75C271.626 82.2951 277.314 93.3496 277.314 105.668V144.221C277.314 152.538 274.721 160.279 270.304 166.675C273.099 165.533 276.383 165.69 279.155 167.389C283.778 170.222 285.229 176.266 282.396 180.889C279.563 185.512 273.519 186.963 268.896 184.13ZM316.566 326.252L327.756 316.263C327.71 316.212 327.578 316.06 327.373 315.813C327.002 315.37 326.583 314.848 326.126 314.255C324.806 312.54 323.482 310.628 322.253 308.591C319.216 303.555 317.32 298.662 317.037 294.507C316.742 290.178 318.159 286.902 322.049 284.063C325.376 281.636 327.194 281.527 329.126 282.771C331.449 284.268 333.939 287.719 336.157 292.531C337.491 295.425 338.632 298.583 339.566 301.748C339.894 302.86 340.171 303.888 340.397 304.802C340.527 305.328 340.608 305.682 340.641 305.834L355.315 302.723C355.248 302.41 355.13 301.892 354.958 301.197C354.68 300.076 354.346 298.835 353.953 297.504C352.828 293.691 351.447 289.87 349.779 286.251C346.475 279.084 342.46 273.517 337.249 270.161C329.941 265.454 321.401 265.968 313.208 271.946C305.022 277.919 301.436 286.206 302.072 295.527C302.544 302.46 305.248 309.44 309.408 316.337C310.949 318.892 312.591 321.262 314.239 323.403C315.246 324.712 316.054 325.679 316.566 326.252ZM122.689 151.536C127.879 153.104 130.814 158.583 129.247 163.773C127.679 168.963 122.2 171.898 117.01 170.331C111.82 168.762 108.884 163.284 110.452 158.094C112.02 152.903 117.499 149.968 122.689 151.536ZM161.894 99.2309C163.462 94.0409 160.526 88.5629 155.336 86.9939C150.146 85.4259 144.667 88.3619 143.099 93.5519C141.531 98.7419 144.467 104.22 149.657 105.789C154.847 107.357 160.326 104.421 161.894 99.2309ZM75.0696 324.687L90.0435 323.802C90.0413 323.764 90.0351 323.631 90.0281 323.411C89.977 321.811 90.0074 319.757 90.1824 317.436C90.4343 314.097 90.9473 310.836 91.764 307.855C94.1883 299.007 98.3632 294.732 105.559 295.015C111.759 295.26 113.302 298.13 112.179 306.196C111.741 309.344 110.825 312.83 109.57 316.415C108.91 318.3 108.202 320.085 107.496 321.705C107.252 322.265 107.028 322.76 106.83 323.183C106.718 323.421 106.646 323.571 106.619 323.625L120.054 330.296C120.314 329.771 120.729 328.886 121.247 327.697C122.094 325.753 122.938 323.626 123.728 321.37C125.286 316.919 126.445 312.509 127.036 308.264C127.984 301.45 127.44 295.43 124.746 290.419C121.288 283.986 114.818 280.369 106.15 280.027C90.7585 279.421 81.3671 289.037 77.2972 303.891C75.3808 310.886 74.8466 317.968 75.0357 323.89C75.0472 324.248 75.0595 324.516 75.0696 324.687Z" fill="black"/>
<path opacity="0.601772" fill-rule="evenodd" clip-rule="evenodd" d="M129.217 163.751C127.649 168.941 122.17 171.876 116.98 170.309C111.79 168.74 108.854 163.262 110.422 158.072C111.99 152.881 117.469 149.946 122.659 151.514C127.849 153.082 130.784 158.561 129.217 163.751ZM161.864 99.2094C160.296 104.399 154.817 107.335 149.627 105.767C144.437 104.198 141.501 98.7204 143.069 93.5304C144.637 88.3404 150.116 85.4044 155.306 86.9724C160.496 88.5414 163.432 94.0194 161.864 99.2094ZM282.388 180.948C279.555 185.571 273.511 187.022 268.888 184.189C264.266 181.356 262.815 175.312 265.648 170.689C268.48 166.067 274.524 164.615 279.147 167.448C283.77 170.281 285.221 176.325 282.388 180.948Z" fill="black"/>
</svg>
