<svg width="945" height="1250" viewBox="0 0 945 1250" fill="none" xmlns="http://www.w3.org/2000/svg">
<path fill-rule="evenodd" clip-rule="evenodd" d="M605.369 894.774H621.369V182.911H605.369V894.774Z" fill="#D7EBFF"/>
<path fill-rule="evenodd" clip-rule="evenodd" d="M440.973 201.028L314.353 159.054C309.064 157.301 306.17 151.538 307.924 146.249L314.24 127.195C315.994 121.906 321.756 119.013 327.045 120.766L453.665 162.74C458.954 164.493 461.848 170.256 460.094 175.545L453.778 194.599C452.025 199.888 446.262 202.781 440.973 201.028" fill="#ECF6FF"/>
<path fill-rule="evenodd" clip-rule="evenodd" d="M582.704 1158.7H644.034V922.773H582.704V1158.7Z" fill="#CCE3FF"/>
<path fill-rule="evenodd" clip-rule="evenodd" d="M595.703 966.772H631.035V886.047H595.703V966.772Z" fill="#CCE3FF"/>
<path fill-rule="evenodd" clip-rule="evenodd" d="M598.668 199.928H628.072V165.7H598.668V199.928Z" fill="#CCE3FF"/>
<path d="M398.046 144.644C398.046 144.644 613.369 192.253 613.369 307.97" stroke="#DCEEFF" stroke-width="15" stroke-linejoin="bevel"/>
<path fill-rule="evenodd" clip-rule="evenodd" d="M455.111 188.155L316.302 142.14C303.88 138.023 297.086 124.489 301.203 112.067L302.45 108.305C306.568 95.8833 320.101 89.0883 332.524 93.2063L471.333 139.22C483.755 143.338 490.549 156.871 486.431 169.294L485.184 173.056C481.066 185.478 467.533 192.273 455.111 188.155" fill="#CCE3FF"/>
</svg>
