<svg width="945" height="1250" viewBox="0 0 945 1250" fill="none" xmlns="http://www.w3.org/2000/svg">
<path fill-rule="evenodd" clip-rule="evenodd" d="M476.784 178.966H467.247C462.659 178.966 458.939 182.685 458.939 187.274V875.076H485.092V187.274C485.092 182.685 481.372 178.966 476.784 178.966" fill="#D7EBFF"/>
<path fill-rule="evenodd" clip-rule="evenodd" d="M451.096 938.341H492.937V867.406H451.096V938.341Z" fill="#CCE3FF"/>
<path fill-rule="evenodd" clip-rule="evenodd" d="M439.739 1106.99H504.292V899.678H439.739V1106.99Z" fill="#D7EBFF"/>
<path fill-rule="evenodd" clip-rule="evenodd" d="M498.923 1079.53H445.11C434.234 1079.53 425.417 1088.34 425.417 1099.22V1107.87H518.614V1099.22C518.614 1088.34 509.798 1079.53 498.923 1079.53" fill="#CCE3FF"/>
<path fill-rule="evenodd" clip-rule="evenodd" d="M504.288 897.728H439.746C434.396 897.728 430.059 902.064 430.059 907.414V908.607C430.059 913.957 434.396 918.293 439.746 918.293H504.288C509.638 918.293 513.974 913.957 513.974 908.607V907.414C513.974 902.064 509.638 897.728 504.288 897.728" fill="#CCE3FF"/>
<path fill-rule="evenodd" clip-rule="evenodd" d="M472.015 142V142C462.4 142 454.605 149.795 454.605 159.41V161.556C454.605 171.171 462.4 178.966 472.015 178.966C481.631 178.966 489.425 171.171 489.425 161.556V159.41C489.425 149.795 481.631 142 472.015 142" fill="#CCE3FF"/>
<path fill-rule="evenodd" clip-rule="evenodd" d="M497.755 345.029H446.277C440.928 345.029 436.591 349.365 436.591 354.715V355.908C436.591 361.258 440.928 365.594 446.277 365.594H497.755C503.104 365.594 507.441 361.258 507.441 355.908V354.715C507.441 349.365 503.104 345.029 497.755 345.029" fill="#CCE3FF"/>
<path fill-rule="evenodd" clip-rule="evenodd" d="M490.726 365.594H453.304C449.792 365.594 446.945 368.441 446.945 371.953V372.737C446.945 376.248 449.792 379.095 453.304 379.095H490.726C494.239 379.095 497.085 376.248 497.085 372.737V371.953C497.085 368.441 494.239 365.594 490.726 365.594" fill="#CCE3FF"/>
<path fill-rule="evenodd" clip-rule="evenodd" d="M521.447 208.763L493.174 345.028H450.872L422.586 208.763H521.447Z" fill="#ECF6FF"/>
<path fill-rule="evenodd" clip-rule="evenodd" d="M530.032 215.985L517.635 191.595H426.396L414 215.985H530.032Z" fill="#CCE3FF"/>
</svg>
