<svg width="20" height="20" viewBox="0 0 20 20" fill="none" xmlns="http://www.w3.org/2000/svg">
<path d="M1.5 10C1.5 5.30558 5.30558 1.5 10 1.5C14.6944 1.5 18.5 5.30558 18.5 10C18.5 14.6944 14.6944 18.5 10 18.5C5.30558 18.5 1.5 14.6944 1.5 10Z" fill="#FFBD09" stroke="#B38A19"/>
<path fill-rule="evenodd" clip-rule="evenodd" d="M8 7.625C8 7.00368 8.53726 6.5 9.2 6.5H10.8C11.4627 6.5 12 7.00368 12 7.625V14.375C12 14.9963 11.4627 15.5 10.8 15.5H9.2C8.53726 15.5 8 14.9963 8 14.375V7.625ZM10 9.5C10.5523 9.5 11 9.05228 11 8.5C11 7.94772 10.5523 7.5 10 7.5C9.44772 7.5 9 7.94772 9 8.5C9 9.05228 9.44772 9.5 10 9.5ZM11 11C11 11.5523 10.5523 12 10 12C9.44772 12 9 11.5523 9 11C9 10.4477 9.44772 10 10 10C10.5523 10 11 10.4477 11 11ZM10 14.5C10.5523 14.5 11 14.0523 11 13.5C11 12.9477 10.5523 12.5 10 12.5C9.44772 12.5 9 12.9477 9 13.5C9 14.0523 9.44772 14.5 10 14.5Z" fill="#333B47"/>
<path fill-rule="evenodd" clip-rule="evenodd" d="M12.5 8.5C12.5 8.22386 12.7239 8 13 8L13.5 8C13.7761 8 14 8.22386 14 8.5C14 8.77614 13.7761 9 13.5 9L13 9C12.7239 9 12.5 8.77614 12.5 8.5Z" fill="#333B47"/>
<path fill-rule="evenodd" clip-rule="evenodd" d="M6 8.5C6 8.22386 6.22386 8 6.5 8L7 8C7.27614 8 7.5 8.22386 7.5 8.5C7.5 8.77614 7.27614 9 7 9L6.5 9C6.22386 9 6 8.77614 6 8.5Z" fill="#333B47"/>
<path fill-rule="evenodd" clip-rule="evenodd" d="M10 6C9.72386 6 9.5 5.77614 9.5 5.5L9.5 5C9.5 4.72386 9.72386 4.5 10 4.5C10.2761 4.5 10.5 4.72386 10.5 5L10.5 5.5C10.5 5.77614 10.2761 6 10 6Z" fill="#333B47"/>
<path fill-rule="evenodd" clip-rule="evenodd" d="M11.7677 6.73222C11.5725 6.53695 11.5725 6.22037 11.7677 6.02511L12.1213 5.67156C12.3166 5.47629 12.6331 5.47629 12.8284 5.67156C13.0237 5.86682 13.0237 6.1834 12.8284 6.37866L12.4748 6.73222C12.2796 6.92748 11.963 6.92748 11.7677 6.73222Z" fill="#333B47"/>
<path fill-rule="evenodd" clip-rule="evenodd" d="M7.17159 5.67155C7.36686 5.47628 7.68344 5.47628 7.8787 5.67155L8.23225 6.0251C8.42752 6.22036 8.42752 6.53694 8.23225 6.73221C8.03699 6.92747 7.72041 6.92747 7.52515 6.73221L7.17159 6.37865C6.97633 6.18339 6.97633 5.86681 7.17159 5.67155Z" fill="#333B47"/>
</svg>
