<svg width="265" height="279" viewBox="0 0 265 279" fill="none" xmlns="http://www.w3.org/2000/svg">
<path fill-rule="evenodd" clip-rule="evenodd" d="M224.886 116.193C224.943 153.359 194.133 183.532 156.07 183.587C118.006 183.643 87.1044 153.559 87.0474 116.394C86.9904 79.2283 117.8 49.0553 155.864 48.9993C193.927 48.9443 224.829 79.0273 224.886 116.193" fill="#19141E"/>
<path fill-rule="evenodd" clip-rule="evenodd" d="M86.9997 116.511L87.1047 191.564L224.945 191.347L224.84 116.294L86.9997 116.511Z" fill="#19141E"/>
<path fill-rule="evenodd" clip-rule="evenodd" d="M167.019 184.151C167.019 184.151 154.088 184.533 148.577 181.522L166.332 192.67L167.019 184.151Z" fill="#CF3E83"/>
<path fill-rule="evenodd" clip-rule="evenodd" d="M195.84 179.82C188.97 183.76 177.239 184.74 167.02 184.15L164.67 213.19L131.3 199.46C131.3 199.46 134.5 167.42 135.89 155.12C129.18 149.03 117.76 146.21 117.739 135.87C117.73 132.3 119.819 126.1 127.539 126.09C137.909 126.08 136.43 138.49 136.43 138.49C148.14 143.05 160.13 103.67 167.05 94.7397C170.829 89.8697 199.85 100.79 199.85 100.79L217.3 105.46C217.3 105.46 217.909 167.15 195.84 179.82" fill="#5E93D1"/>
<path fill-rule="evenodd" clip-rule="evenodd" d="M195.129 138.47L202.529 156.41L193.943 156.238L195.129 138.47Z" fill="#2437A8"/>
<path fill-rule="evenodd" clip-rule="evenodd" d="M187.25 139.248C187.065 142.832 184.958 145.624 182.542 145.485C180.126 145.346 178.317 142.328 178.502 138.744C178.686 135.16 180.794 132.367 183.21 132.506C185.625 132.646 187.435 135.664 187.25 139.248" fill="#0D0B6D"/>
<path fill-rule="evenodd" clip-rule="evenodd" d="M209.936 138.675C209.752 142.259 207.644 145.051 205.228 144.912C202.813 144.773 201.003 141.755 201.188 138.171C201.373 134.587 203.48 131.794 205.896 131.934C208.312 132.073 210.121 135.091 209.936 138.675" fill="#0D0B6D"/>
<path d="M191.837 164.831C191.837 164.831 186.243 166.636 180.638 160.404" stroke="#1C295E" stroke-width="3"/>
<path opacity="0.395159" fill-rule="evenodd" clip-rule="evenodd" d="M166.998 184.15C166.998 184.15 154.067 184.532 148.556 181.522L166.311 192.669L166.998 184.15Z" fill="black"/>
<path fill-rule="evenodd" clip-rule="evenodd" d="M138.206 138.854C138.206 138.854 193.943 135.769 220.22 101.769C236.406 80.8231 143.023 75.2561 143.023 75.2561L138.206 138.854Z" fill="#19141E"/>
</svg>
