<svg width="265" height="279" viewBox="0 0 265 279" fill="none" xmlns="http://www.w3.org/2000/svg">
<path fill-rule="evenodd" clip-rule="evenodd" d="M53.0005 161.397C53.0005 172.665 82.5385 202.737 180.794 205.485C246.213 207.314 261.134 203.56 264.23 193.239C268.119 180.278 246.333 48.6037 161.388 46.0247C100.156 44.1657 53.0005 148.815 53.0005 161.397" fill="#2437A8"/>
<path fill-rule="evenodd" clip-rule="evenodd" d="M167.38 184.732C167.38 184.732 154.449 185.114 148.938 182.104L166.693 193.251L167.38 184.732Z" fill="#CF3E83"/>
<path fill-rule="evenodd" clip-rule="evenodd" d="M196.197 180.401C189.607 184.781 177.607 185.321 167.378 184.731L165.038 213.771L132.658 203.041C132.658 203.041 135.868 169.011 137.258 156.701C130.548 150.611 118.118 146.791 118.097 136.451C118.097 132.881 120.187 126.681 127.908 126.671C138.267 126.661 136.798 139.071 136.798 139.071C148.508 143.631 160.498 104.251 167.408 95.3208C171.187 90.4508 200.208 101.371 200.208 101.371L216.677 119.791C216.998 122.051 215.838 167.341 196.197 180.401" fill="#E576C6"/>
<path fill-rule="evenodd" clip-rule="evenodd" d="M195.49 139.052L202.89 156.992L194.304 156.82L195.49 139.052Z" fill="#405FD3"/>
<path fill-rule="evenodd" clip-rule="evenodd" d="M187.611 139.829C187.426 143.413 185.319 146.205 182.903 146.066C180.487 145.927 178.678 142.909 178.863 139.325C179.047 135.741 181.155 132.949 183.571 133.088C185.987 133.227 187.796 136.245 187.611 139.829" fill="#0D0B6D"/>
<path fill-rule="evenodd" clip-rule="evenodd" d="M210.298 139.257C210.113 142.841 208.005 145.633 205.59 145.494C203.174 145.355 201.364 142.337 201.549 138.753C201.734 135.169 203.841 132.376 206.257 132.515C208.673 132.654 210.482 135.673 210.298 139.257" fill="#0D0B6D"/>
<path d="M192.198 165.412C192.198 165.412 186.604 167.218 180.999 160.985" stroke="#1C295E" stroke-width="3"/>
<path opacity="0.398182" fill-rule="evenodd" clip-rule="evenodd" d="M167.359 184.732C167.359 184.732 154.428 185.114 148.917 182.104L166.672 193.251L167.359 184.732Z" fill="black"/>
<path fill-rule="evenodd" clip-rule="evenodd" d="M151.563 92.8357C151.563 92.8357 215.529 118.682 222.297 153.144C229.067 187.606 220.888 84.6577 220.888 84.6577L151.563 92.8357Z" fill="#2437A8"/>
</svg>
