<svg width="265" height="279" viewBox="0 0 265 279" fill="none" xmlns="http://www.w3.org/2000/svg">
<path fill-rule="evenodd" clip-rule="evenodd" d="M223.796 117.868C223.796 154.299 195.606 183.832 160.83 183.832C126.055 183.832 97.864 154.299 97.864 117.868C97.864 81.4375 123.002 54.0005 157.777 54.0005C192.552 54.0005 223.796 81.4375 223.796 117.868" fill="#19141E"/>
<path fill-rule="evenodd" clip-rule="evenodd" d="M112.291 83.9027C119.342 83.7087 121.321 74.1857 115.036 70.9837C109.25 68.0347 101.941 65.7347 93.0101 65.4257C75.1181 64.8067 46.8001 77.9347 41.5831 107.032C35.7671 139.469 59.3921 154.62 38.0001 181.825L96.2861 202.519C96.2861 202.519 107.183 184.065 94.7431 156.541C83.6011 131.889 66.7121 85.1527 112.291 83.9027" fill="#19141E"/>
<path fill-rule="evenodd" clip-rule="evenodd" d="M166.982 185.575C166.982 185.575 154.051 185.957 148.54 182.947L166.295 194.094L166.982 185.575Z" fill="#CF3E83"/>
<path fill-rule="evenodd" clip-rule="evenodd" d="M195.799 181.241C189.209 185.621 177.209 186.161 166.979 185.571L164.639 214.621L131.259 200.881C131.259 200.881 134.469 168.821 135.86 156.531C129.15 150.451 117.719 147.631 117.699 137.301C117.699 133.721 119.789 127.531 127.509 127.511C137.869 127.501 136.389 139.921 136.389 139.921C148.11 144.471 160.099 105.091 167.009 96.171C170.789 91.291 199.809 102.211 199.809 102.211L216.279 120.631C216.599 122.901 215.439 168.181 195.799 181.241" fill="#ED4848"/>
<path fill-rule="evenodd" clip-rule="evenodd" d="M195.091 139.894L202.491 157.834L193.906 157.662L195.091 139.894Z" fill="#405FD3"/>
<path fill-rule="evenodd" clip-rule="evenodd" d="M187.212 140.672C187.028 144.256 184.92 147.048 182.504 146.909C180.089 146.77 178.279 143.752 178.464 140.168C178.649 136.584 180.756 133.792 183.172 133.931C185.588 134.07 187.397 137.089 187.212 140.672" fill="#0D0B6D"/>
<path fill-rule="evenodd" clip-rule="evenodd" d="M209.9 140.1C209.715 143.684 207.608 146.476 205.192 146.337C202.776 146.198 200.967 143.18 201.151 139.596C201.336 136.012 203.443 133.219 205.859 133.358C208.275 133.497 210.084 136.516 209.9 140.1" fill="#0D0B6D"/>
<path d="M191.8 166.255C191.8 166.255 186.206 168.061 180.6 161.828" stroke="#1C295E" stroke-width="3"/>
<path opacity="0.402786" fill-rule="evenodd" clip-rule="evenodd" d="M166.96 185.575C166.96 185.575 154.03 185.957 148.518 182.946L166.273 194.093L166.96 185.575Z" fill="black"/>
<path fill-rule="evenodd" clip-rule="evenodd" d="M136.394 139.916C136.394 139.916 180.968 143.654 204.08 90.9362L153.002 82.0132" fill="#19141E"/>
<path fill-rule="evenodd" clip-rule="evenodd" d="M196.335 83.6541C196.335 83.6541 196.284 120.372 217.105 138.629L219.464 115.244" fill="#19141E"/>
</svg>
