<svg width="265" height="279" viewBox="0 0 265 279" fill="none" xmlns="http://www.w3.org/2000/svg">
<path fill-rule="evenodd" clip-rule="evenodd" d="M251.391 113.69C251.391 121.3 250.601 128.73 249.09 135.9C238.861 184.72 195.561 201.38 143.691 201.38C84.2195 201.38 35.9995 173.17 35.9995 113.69C35.9995 54.2098 84.2195 5.99976 143.691 5.99976C184.58 5.99976 220.151 28.7798 238.391 62.3498C246.68 77.6098 251.391 95.0998 251.391 113.69" fill="#EACB47"/>
<path fill-rule="evenodd" clip-rule="evenodd" d="M162.158 185.34C162.158 185.34 149.227 185.722 143.716 182.711L161.471 193.859L162.158 185.34Z" fill="#CF3E83"/>
<path fill-rule="evenodd" clip-rule="evenodd" d="M157.835 103.594C156.767 105.787 155.636 108.234 154.453 110.796C147.866 125.05 139.652 142.826 131.57 139.682C131.57 139.682 133.047 127.266 122.683 127.281C114.962 127.293 112.871 133.486 112.877 137.063C112.888 144.459 118.365 148.382 123.863 152.319C127.343 154.811 130.83 157.308 132.944 160.695C137.006 167.182 129.42 202.48 129.42 202.48L159.813 214.383L162.158 185.34C172.383 185.93 184.386 185.39 190.977 181.007C204.93 171.726 209.555 146.175 210.948 131.35C189.068 124.501 170.429 114.428 157.835 103.594Z" fill="#5E93D1"/>
<path fill-rule="evenodd" clip-rule="evenodd" d="M190.267 139.659L197.667 157.599L189.082 157.427L190.267 139.659Z" fill="#2437A8"/>
<path fill-rule="evenodd" clip-rule="evenodd" d="M182.388 140.437C182.203 144.021 180.096 146.813 177.68 146.674C175.264 146.535 173.455 143.517 173.639 139.933C173.824 136.349 175.932 133.556 178.347 133.695C180.763 133.835 182.573 136.853 182.388 140.437" fill="#1D1D23"/>
<path fill-rule="evenodd" clip-rule="evenodd" d="M205.075 139.864C204.89 143.448 202.783 146.24 200.367 146.101C197.951 145.962 196.142 142.944 196.327 139.36C196.512 135.776 198.619 132.983 201.035 133.123C203.451 133.262 205.26 136.28 205.075 139.864" fill="#1D1D23"/>
<path d="M186.975 166.02C186.975 166.02 181.381 167.825 175.776 161.593" stroke="#24242B" stroke-width="3"/>
<path opacity="0.399019" fill-rule="evenodd" clip-rule="evenodd" d="M162.137 185.34C162.137 185.34 149.206 185.722 143.695 182.712L161.45 193.859L162.137 185.34Z" fill="black"/>
</svg>
