<svg width="268" height="279" viewBox="0 0 268 279" fill="none" xmlns="http://www.w3.org/2000/svg">
<path fill-rule="evenodd" clip-rule="evenodd" d="M224.699 111.117C224.699 146.528 193.085 175.234 154.087 175.234C115.089 175.234 83.4749 146.528 83.4749 111.117C83.4749 75.7058 115.089 46.9998 154.087 46.9998C193.085 46.9998 224.699 75.7058 224.699 111.117" fill="#FCBDA4"/>
<path fill-rule="evenodd" clip-rule="evenodd" d="M98.9626 269.754L46.9076 262.41C17.2136 258.221 -3.6544 230.499 0.535602 200.805C4.7246 171.111 32.4466 150.243 62.1406 154.432L114.196 161.776C143.89 165.965 164.757 193.688 160.568 223.381C156.379 253.075 128.657 273.943 98.9626 269.754" fill="#FCBDA4"/>
<path fill-rule="evenodd" clip-rule="evenodd" d="M107.06 180.059L63.9397 173.976C42.6777 170.976 27.7357 151.125 30.7357 129.863C33.7347 108.601 53.5857 93.6587 74.8477 96.6587L117.967 102.742C139.229 105.741 154.172 125.592 151.172 146.854C148.173 168.117 128.322 183.059 107.06 180.059" fill="#FCBDA4"/>
<path fill-rule="evenodd" clip-rule="evenodd" d="M93.4904 120.877V120.877C74.6114 118.213 61.3434 100.587 64.0064 81.7077H64.0074C66.6704 62.8287 84.2964 49.5607 103.175 52.2247C122.054 54.8877 135.323 72.5137 132.659 91.3937C129.995 110.273 112.369 123.541 93.4904 120.877" fill="#FCBDA4"/>
<path fill-rule="evenodd" clip-rule="evenodd" d="M164.846 187.895C164.846 187.895 151.916 188.277 146.404 185.267L164.159 196.414L164.846 187.895Z" fill="#CF3E83"/>
<path fill-rule="evenodd" clip-rule="evenodd" d="M136.632 162.25C140.694 168.737 139.03 177.284 136.715 182.278C135.933 183.995 130.849 198.383 130.108 199.035C127.226 201.562 162.502 216.938 162.502 216.938L164.846 187.895C175.072 188.485 187.074 187.945 193.666 183.561C213.301 170.501 214.463 125.217 214.142 122.953L197.674 104.53C197.674 104.53 168.653 93.6152 164.873 98.4872C157.96 107.413 145.97 146.793 134.258 142.236C134.258 142.236 135.735 129.82 125.372 129.836C117.651 129.847 115.559 136.041 115.565 139.618C115.583 151.695 131.178 153.511 136.632 162.25" fill="#ED4848"/>
<path fill-rule="evenodd" clip-rule="evenodd" d="M192.956 142.214L200.356 160.154L191.771 159.982L192.956 142.214Z" fill="#405FD3"/>
<path fill-rule="evenodd" clip-rule="evenodd" d="M185.077 142.992C184.892 146.576 182.785 149.368 180.369 149.229C177.953 149.09 176.144 146.072 176.328 142.488C176.513 138.904 178.62 136.112 181.036 136.251C183.452 136.39 185.261 139.409 185.077 142.992" fill="#0D0B6D"/>
<path fill-rule="evenodd" clip-rule="evenodd" d="M207.764 142.42C207.579 146.004 205.472 148.796 203.056 148.657C200.64 148.518 198.831 145.5 199.015 141.916C199.2 138.332 201.307 135.539 203.723 135.678C206.139 135.817 207.948 138.836 207.764 142.42" fill="#0D0B6D"/>
<path d="M189.664 168.575C189.664 168.575 184.07 170.381 178.465 164.148" stroke="#1C295E" stroke-width="3"/>
<path opacity="0.401762" fill-rule="evenodd" clip-rule="evenodd" d="M164.825 187.895C164.825 187.895 151.894 188.277 146.383 185.266L164.138 196.413L164.825 187.895Z" fill="black"/>
<path fill-rule="evenodd" clip-rule="evenodd" d="M167.631 99.0475C169.095 103.885 171.406 108.262 174.366 112.073C174.749 112.543 175.137 113.034 175.554 113.493C178.245 116.621 181.388 119.324 184.861 121.534C194.227 127.478 206.036 129.852 217.884 127.47C218.49 127.346 219.082 127.215 219.679 127.058L215.222 112.34L215.21 112.343C215.082 111.881 214.946 111.432 214.808 110.972C209.307 92.8065 197.596 78.1225 182.467 68.3325C179.654 66.5075 176.719 64.8645 173.684 63.3945C169.568 69.2395 166.949 75.9825 166.165 83.0295C165.572 88.2865 166.014 93.7075 167.631 99.0475" fill="#FCBDA4"/>
<path fill-rule="evenodd" clip-rule="evenodd" d="M134.258 142.188C134.258 142.188 168.661 147.667 180.702 104.437C193.158 59.7176 115.565 89.5996 115.565 89.5996L138.785 117.395L134.258 142.188Z" fill="#FCBDA4"/>
<path fill-rule="evenodd" clip-rule="evenodd" d="M146.389 178.504C146.389 190.529 136.64 200.278 124.615 200.278C112.589 200.278 102.841 190.529 102.841 178.504C102.841 166.479 112.589 156.73 124.615 156.73C136.64 156.73 146.389 166.479 146.389 178.504" fill="#FCBDA4"/>
</svg>
