<svg width="265" height="279" viewBox="0 0 265 279" fill="none" xmlns="http://www.w3.org/2000/svg">
<path fill-rule="evenodd" clip-rule="evenodd" d="M249.076 195.405H71.046C71.046 195.405 69.156 166.719 89.616 143.277C95.536 136.491 96.476 130.567 96.316 124.065C96.176 118.472 95.236 112.443 95.966 105.061C100.326 73.9723 124.506 49.9993 158.596 49.9993C188.716 49.9993 218.515 68.6103 226.756 94.4713C232.087 111.201 231.531 120.819 229.83 133.987C226.6 159.006 241.369 159.152 247.882 176.236C252.32 187.878 249.076 195.405 249.076 195.405" fill="#FFE8C0"/>
<path fill-rule="evenodd" clip-rule="evenodd" d="M166.262 182.79C166.262 182.79 153.331 183.172 147.82 180.162L165.575 191.309L166.262 182.79Z" fill="#CF3E83"/>
<path fill-rule="evenodd" clip-rule="evenodd" d="M138.047 157.146C142.109 163.633 136.445 172.18 134.13 177.174C133.347 178.891 131.612 201.948 130.87 202.6C127.989 205.127 163.917 211.834 163.917 211.834L166.261 182.791C176.487 183.381 188.489 182.84 195.08 178.457C214.715 165.397 215.878 120.113 215.557 117.848L199.089 99.4255C199.089 99.4255 174.255 87.9575 170.476 92.8305C163.563 101.756 147.385 141.689 135.673 137.132C135.673 137.132 137.15 124.716 126.787 124.731C119.065 124.743 116.974 130.937 116.98 134.514C116.997 146.591 132.592 148.407 138.047 157.146" fill="#E576C6"/>
<path fill-rule="evenodd" clip-rule="evenodd" d="M194.37 137.109L201.77 155.05L193.185 154.877L194.37 137.109Z" fill="#405FD3"/>
<path fill-rule="evenodd" clip-rule="evenodd" d="M186.492 137.887C186.308 141.471 184.2 144.263 181.784 144.124C179.368 143.985 177.559 140.967 177.743 137.383C177.928 133.799 180.036 131.006 182.451 131.146C184.867 131.285 186.677 134.303 186.492 137.887" fill="#0D0B6D"/>
<path fill-rule="evenodd" clip-rule="evenodd" d="M209.179 137.315C208.994 140.899 206.887 143.691 204.471 143.552C202.055 143.413 200.246 140.395 200.43 136.811C200.615 133.227 202.722 130.435 205.138 130.574C207.554 130.713 209.363 133.732 209.179 137.315" fill="#0D0B6D"/>
<path fill-rule="evenodd" clip-rule="evenodd" d="M191.663 90.8462C191.045 95.0982 191.217 99.2992 192.069 103.293C192.186 103.792 192.302 104.309 192.449 104.812C193.342 108.184 194.719 111.39 196.515 114.333C201.363 122.258 209.279 128.3 218.897 130.689C219.39 130.809 219.875 130.919 220.372 131.011L222.251 118.071L222.242 118.069C222.31 117.666 222.368 117.272 222.426 116.868C224.746 100.896 219.165 87.1912 211.401 74.2442C209.958 71.8352 208.045 70.5312 206.314 68.3152C201.205 71.3552 199.279 72.8152 196.217 77.9702C193.926 81.8122 192.345 86.1512 191.663 90.8462" fill="#FFE8C0"/>
<path d="M191.079 163.47C191.079 163.47 185.485 165.275 179.879 159.043" stroke="#1C295E" stroke-width="3"/>
<path opacity="0.397507" fill-rule="evenodd" clip-rule="evenodd" d="M166.24 182.79C166.24 182.79 153.31 183.172 147.798 180.162L165.553 191.309L166.24 182.79Z" fill="black"/>
<path fill-rule="evenodd" clip-rule="evenodd" d="M202.563 123.703C180.153 165.935 153.987 134.599 142.893 151.729C131.201 169.784 157.746 175.663 157.746 195.406H82.3962L128.496 153.054L101.826 121.04C101.826 121.04 114.776 99.2507 133.066 92.3227C174.336 76.6887 230.143 71.7267 202.563 123.703" fill="#FFE8C0"/>
</svg>
