<svg width="265" height="279" viewBox="0 0 265 279" fill="none" xmlns="http://www.w3.org/2000/svg">
<path fill-rule="evenodd" clip-rule="evenodd" d="M230.232 121.239C231.406 149.521 246.368 166.469 247.765 192.864C249.563 226.813 230.095 223.225 231.57 251.084C232.335 265.522 103.716 300.375 67.4679 254.976C44.2079 225.844 67.2789 222.212 65.1869 182.688C63.1149 143.563 91.2819 137.69 90.1899 117.063C88.7369 89.6137 110.788 53.0407 146.787 51.1277C190.633 48.7987 228.457 78.4927 230.232 121.239" fill="#19141E"/>
<path fill-rule="evenodd" clip-rule="evenodd" d="M164.685 187.644C164.685 187.644 151.793 188.711 146.129 185.996L164.45 196.187L164.685 187.644Z" fill="#CF3E83"/>
<path fill-rule="evenodd" clip-rule="evenodd" d="M135.152 163.53C139.552 169.793 138.343 178.416 136.296 183.526C135.606 185.281 131.292 199.919 130.586 200.609C127.842 203.285 163.882 216.771 163.882 216.771L164.685 187.644C174.928 187.692 186.885 186.517 193.235 181.79C212.151 167.709 210.913 122.427 210.472 120.182L193.051 102.658C193.051 102.658 167.645 92.5217 164.129 97.5877C157.698 106.866 143.658 147.601 131.721 143.67C131.721 143.67 132.539 131.194 122.191 131.758C114.481 132.178 112.721 138.474 112.916 142.046C113.573 154.105 129.243 155.092 135.152 163.53" fill="#72A065"/>
<path fill-rule="evenodd" clip-rule="evenodd" d="M190.434 142.286L198.774 159.809L190.192 160.092L190.434 142.286Z" fill="#125475"/>
<path fill-rule="evenodd" clip-rule="evenodd" d="M182.608 143.48C182.614 147.069 180.657 149.969 178.237 149.958C175.817 149.947 173.851 147.028 173.845 143.44C173.839 139.851 175.796 136.951 178.216 136.962C180.636 136.973 182.602 139.892 182.608 143.48" fill="#0D0B6D"/>
<path fill-rule="evenodd" clip-rule="evenodd" d="M205.232 141.707C205.238 145.296 203.281 148.196 200.861 148.185C198.441 148.174 196.475 145.255 196.469 141.667C196.463 138.078 198.42 135.178 200.84 135.189C203.26 135.2 205.226 138.119 205.232 141.707" fill="#0D0B6D"/>
<path fill-rule="evenodd" clip-rule="evenodd" d="M187.197 98.5336C187.431 102.825 188.428 106.909 190.051 110.656C190.266 111.121 190.481 111.606 190.724 112.07C192.265 115.2 194.248 118.071 196.59 120.601C202.906 127.413 211.859 131.773 221.76 132.217C222.267 132.238 222.764 132.25 223.27 132.242L222.558 119.185H222.548C222.535 118.777 222.514 118.379 222.491 117.971C221.613 101.856 215.114 87.3526 204.947 76.1936C203.057 74.1156 201.034 72.1616 198.9 70.3306C194.492 74.3206 191.104 79.3536 189.12 85.0116C187.633 89.2306 186.939 93.7966 187.197 98.5336" fill="#19141E"/>
<path d="M188.543 168.784C188.543 168.784 183.053 170.883 177.125 164.956" stroke="#1C295E" stroke-width="3"/>
<path fill-rule="evenodd" clip-rule="evenodd" d="M131.722 143.67C131.722 143.67 155.864 151.25 192.277 96.1149C228.69 40.9809 110.269 92.1459 110.269 92.1459L134.93 118.671L131.722 143.67Z" fill="#19141E"/>
<path opacity="0.396996" fill-rule="evenodd" clip-rule="evenodd" d="M164.664 187.645C164.664 187.645 151.772 188.711 146.108 185.997L164.429 196.188L164.664 187.645Z" fill="black"/>
<path fill-rule="evenodd" clip-rule="evenodd" d="M115.78 201.976C115.78 201.976 125.184 198.632 131.265 199.064L133.703 191.656C133.703 191.656 107.24 192.466 107.396 192.509C107.552 192.552 115.78 201.976 115.78 201.976" fill="#240040"/>
<path fill-rule="evenodd" clip-rule="evenodd" d="M136.443 165.957C136.443 165.957 156.739 212.333 77.0359 224.27Z" fill="#19141E"/>
</svg>
