<svg width="265" height="279" viewBox="0 0 265 279" fill="none" xmlns="http://www.w3.org/2000/svg">
<path fill-rule="evenodd" clip-rule="evenodd" d="M226.098 124.6C226.16 165.773 192.831 199.201 151.659 199.262C110.485 199.323 77.0577 165.996 76.9957 124.822C76.9347 83.649 110.263 50.222 151.436 50.161C192.609 50.099 226.036 83.427 226.098 124.6" fill="#19141E"/>
<path fill-rule="evenodd" clip-rule="evenodd" d="M62 41.0853C62.033 63.1903 79.98 81.0843 102.085 81.0503C124.19 81.0183 142.084 63.0713 142.051 40.9653C142.018 18.8603 124.071 0.96729 101.966 1.00029C79.86 1.03329 61.967 18.9803 62 41.0853" fill="#19141E"/>
<path fill-rule="evenodd" clip-rule="evenodd" d="M77.0029 130.036L77.1909 255.945L226.293 255.723L226.105 129.814L77.0029 130.036Z" fill="#19141E"/>
<path fill-rule="evenodd" clip-rule="evenodd" d="M191.102 183.096C184.502 187.486 172.502 188.026 162.282 187.436L159.932 216.476C159.932 216.476 143.342 209.236 133.842 203.876C132.202 202.956 130.782 202.086 129.692 201.316C129.872 199.606 130.282 195.626 130.802 190.656V190.636C131.742 181.686 133.022 169.516 133.862 161.496C128.262 153.006 113.012 151.096 112.992 139.156C112.992 135.576 115.082 129.386 122.802 129.376C133.162 129.356 131.692 141.776 131.692 141.776C143.402 146.336 159.582 106.396 166.492 97.4755C170.272 92.5955 195.102 104.066 195.102 104.066L211.572 122.496C211.892 124.756 210.732 170.036 191.102 183.096" fill="#E576C6"/>
<path fill-rule="evenodd" clip-rule="evenodd" d="M190.393 145.502L197.793 163.442L189.208 163.27L190.393 145.502Z" fill="#405FD3"/>
<path fill-rule="evenodd" clip-rule="evenodd" d="M182.514 146.28C182.329 149.864 180.222 152.656 177.806 152.517C175.39 152.378 173.581 149.36 173.765 145.776C173.95 142.192 176.057 139.399 178.473 139.539C180.889 139.678 182.698 142.696 182.514 146.28" fill="#0D0B6D"/>
<path fill-rule="evenodd" clip-rule="evenodd" d="M205.201 145.708C205.016 149.291 202.909 152.084 200.493 151.945C198.077 151.806 196.268 148.787 196.452 145.204C196.637 141.62 198.744 138.827 201.16 138.966C203.576 139.105 205.385 142.124 205.201 145.708" fill="#0D0B6D"/>
<path fill-rule="evenodd" clip-rule="evenodd" d="M189.483 103.864C189.49 108.821 190.325 113.585 191.848 118.001C192.05 118.551 192.253 119.122 192.487 119.671C193.956 123.37 195.913 126.798 198.273 129.856C204.638 138.089 213.96 143.659 224.515 144.777C225.056 144.832 225.587 144.876 226.128 144.897L226.105 129.815H226.094C226.104 129.343 226.104 128.884 226.103 128.413C226.075 109.798 219.951 92.6937 209.716 79.2187C207.814 76.7097 205.763 74.3357 203.585 72.0957C198.649 76.4207 194.743 82.0107 192.302 88.4067C190.475 93.1757 189.475 98.3907 189.483 103.864" fill="#19141E"/>
<path fill-rule="evenodd" clip-rule="evenodd" d="M131.633 102.991C131.649 113.764 141.412 122.83 154.735 125.595C155.79 125.82 156.863 126 157.964 126.135C159.731 126.371 161.553 126.482 163.403 126.479C180.931 126.453 195.123 115.897 195.103 102.897C195.101 101.647 194.97 100.419 194.709 99.226C192.315 87.968 179.177 79.373 163.333 79.397C145.972 79.423 131.891 89.785 131.642 102.616C131.633 102.741 131.633 102.866 131.633 102.991" fill="#19141E"/>
<path d="M187.101 171.863C187.101 171.863 181.507 173.669 175.902 167.436" stroke="#1C295E" stroke-width="3"/>
<path opacity="0.401344" fill-rule="evenodd" clip-rule="evenodd" d="M162.277 187.433C162.277 187.433 149.347 187.815 143.835 184.804L161.59 195.952L162.277 187.433Z" fill="black"/>
<path fill-rule="evenodd" clip-rule="evenodd" d="M178.45 199.085C178.45 199.085 175.068 198.933 169.867 199.262C162.587 199.721 161.285 199.734 161.285 199.734L162.141 189.13L181.802 191.72L178.45 199.085Z" fill="#19141E"/>
</svg>
