<svg width="945" height="716" viewBox="0 0 945 716" fill="none" xmlns="http://www.w3.org/2000/svg">
<path fill-rule="evenodd" clip-rule="evenodd" d="M520.834 301.461V301.461C520.834 308.981 514.739 315.076 507.22 315.076H399.464V287.847H507.22C514.739 287.847 520.834 293.942 520.834 301.461" fill="#CCE3FF"/>
<path fill-rule="evenodd" clip-rule="evenodd" d="M447.367 301.461V301.461C447.367 305.814 443.838 309.343 439.485 309.343H399.627C399.536 309.343 399.463 309.27 399.463 309.179V293.743C399.463 293.653 399.536 293.58 399.627 293.58H439.485C443.838 293.58 447.367 297.108 447.367 301.461" fill="#DCEEFF"/>
<path fill-rule="evenodd" clip-rule="evenodd" d="M536.079 315.076V342.305H418.329C410.81 342.305 404.715 336.209 404.715 328.69C404.715 321.171 410.81 315.076 418.329 315.076H536.079Z" fill="#CCE3FF"/>
<path fill-rule="evenodd" clip-rule="evenodd" d="M536.079 320.884V336.496H487.904C483.593 336.496 480.098 333.001 480.098 328.69C480.098 324.379 483.593 320.884 487.904 320.884H536.079Z" fill="#DCEEFF"/>
<path d="M865.313 150V565.238" stroke="#CCE3FF" stroke-width="24"/>
<path d="M632.442 150V565.238" stroke="#CCE3FF" stroke-width="24"/>
<path fill-rule="evenodd" clip-rule="evenodd" d="M840.16 470.308H635.237V284C635.237 224.438 683.521 176.154 743.083 176.154C796.697 176.154 840.16 219.617 840.16 273.231V470.308Z" fill="#DCEEFF"/>
<path d="M608.93 150V565.238" stroke="#DCEEFF" stroke-width="24"/>
<path d="M842.16 150V565.238" stroke="#DCEEFF" stroke-width="24"/>
<path fill-rule="evenodd" clip-rule="evenodd" d="M814 347.846H585.692C572.438 347.846 561.692 337.101 561.692 323.846C561.692 310.591 572.438 299.846 585.692 299.846H814C827.255 299.846 838 310.591 838 323.846C838 337.101 827.255 347.846 814 347.846" fill="#ECF6FF"/>
<path fill-rule="evenodd" clip-rule="evenodd" d="M814 347.846H699.743C686.488 347.846 675.743 337.101 675.743 323.846C675.743 310.591 686.488 299.846 699.743 299.846H814C827.255 299.846 838 310.591 838 323.846C838 337.101 827.255 347.846 814 347.846" fill="#E3F1FF"/>
<path fill-rule="evenodd" clip-rule="evenodd" d="M357.897 470.308H592.461V342.308H357.897V470.308Z" fill="#B6D4FF"/>
<path d="M369.385 150V565.238" stroke="#CCE3FF" stroke-width="24"/>
<path d="M136.513 150V565.238" stroke="#CCE3FF" stroke-width="24"/>
<path fill-rule="evenodd" clip-rule="evenodd" d="M344.231 470.308H139.308V284C139.308 224.438 187.592 176.154 247.154 176.154C300.768 176.154 344.231 219.617 344.231 273.231V470.308Z" fill="#DCEEFF"/>
<path fill-rule="evenodd" clip-rule="evenodd" d="M695.231 491.231H606.616C589.962 491.231 576.462 477.731 576.462 461.077V342.308H725.385V461.077C725.385 477.731 711.885 491.231 695.231 491.231" fill="#CCE3FF"/>
<path d="M113 150V565.238" stroke="#DCEEFF" stroke-width="24"/>
<path d="M346.231 150V565.238" stroke="#DCEEFF" stroke-width="24"/>
<path fill-rule="evenodd" clip-rule="evenodd" d="M725.385 470.308H841.385V347.847H725.385V470.308Z" fill="#B6D4FF"/>
<path fill-rule="evenodd" clip-rule="evenodd" d="M486.361 256.924C492.458 267.169 489.096 280.417 478.851 286.514C468.605 292.612 455.357 289.249 449.26 279.004C443.163 268.759 446.525 255.511 456.77 249.413C467.016 243.316 480.264 246.679 486.361 256.924" fill="#CCE3FF"/>
<path fill-rule="evenodd" clip-rule="evenodd" d="M467.412 239.283C464.989 246.394 457.228 250.183 457.228 250.183C457.228 250.183 453.397 242.444 455.82 235.333C458.244 228.222 466.004 224.432 466.004 224.432C466.004 224.432 469.835 232.172 467.412 239.283" fill="#CCE3FF"/>
</svg>
