<svg width="1600" height="1250" viewBox="0 0 1600 1250" fill="none" xmlns="http://www.w3.org/2000/svg">
<path fill-rule="evenodd" clip-rule="evenodd" d="M612.027 766.277H1348.47C1364.13 766.277 1377.51 755.007 1380.18 739.579L1429.06 456.654C1432.46 436.985 1417.31 419 1397.35 419H660.908C645.252 419 631.868 430.27 629.202 445.698L580.32 728.623C576.922 748.292 592.066 766.277 612.027 766.277" fill="#B6D4FF"/>
<path fill-rule="evenodd" clip-rule="evenodd" d="M541.64 766.277H1274.91C1290.57 766.277 1303.95 755.007 1306.62 739.579L1355.5 456.654C1358.9 436.985 1343.75 419 1323.79 419H590.522C574.865 419 561.481 430.27 558.815 445.698L509.933 728.623C506.536 748.292 521.679 766.277 541.64 766.277" fill="#DCEEFF"/>
<path fill-rule="evenodd" clip-rule="evenodd" d="M1039.32 766.277H1347.11C1362.83 766.277 1375.56 753.538 1375.56 737.823V672.247C1375.56 656.533 1362.83 643.794 1347.11 643.794H1039.32C1023.6 643.794 1010.86 656.533 1010.86 672.247V737.823C1010.86 753.538 1023.6 766.277 1039.32 766.277" fill="#B6D4FF"/>
<path d="M1310.54 766.277V831.257" stroke="#CCE3FF" stroke-width="10"/>
<path d="M1082.18 766.277V831.257" stroke="#CCE3FF" stroke-width="10"/>
<path d="M470.676 766.277V831.257" stroke="#CCE3FF" stroke-width="10"/>
<path d="M242.316 766.277V831.257" stroke="#CCE3FF" stroke-width="10"/>
<path fill-rule="evenodd" clip-rule="evenodd" d="M210.164 766.277H1113.19C1134.82 766.277 1152.35 748.743 1152.35 727.113V682.957C1152.35 661.328 1134.82 643.794 1113.19 643.794H210.164C188.534 643.794 171 661.328 171 682.957V727.113C171 748.743 188.534 766.277 210.164 766.277" fill="#CCE3FF"/>
<path fill-rule="evenodd" clip-rule="evenodd" d="M1066.41 643.794H1159.81C1178.15 643.794 1193.94 630.851 1197.55 612.867L1212.13 540.063C1216.9 516.245 1198.68 494.019 1174.39 494.019H1080.99C1062.65 494.019 1046.86 506.962 1043.26 524.946L1028.68 597.75C1023.91 621.567 1042.12 643.794 1066.41 643.794" fill="#B6D4FF"/>
<path fill-rule="evenodd" clip-rule="evenodd" d="M533.027 643.794H626.425C644.766 643.794 660.559 630.851 664.161 612.867L678.744 540.063C683.514 516.245 665.298 494.019 641.008 494.019H547.61C529.269 494.019 513.476 506.962 509.875 524.946L495.292 597.75C490.521 621.567 508.737 643.794 533.027 643.794" fill="#B6D4FF"/>
<path fill-rule="evenodd" clip-rule="evenodd" d="M935.412 643.794H1028.81C1047.15 643.794 1062.94 630.851 1066.55 612.867L1081.13 540.063C1085.9 516.245 1067.68 494.019 1043.39 494.019H949.995C931.654 494.019 915.861 506.962 912.26 524.946L897.677 597.75C892.906 621.567 911.122 643.794 935.412 643.794" fill="#CCE3FF"/>
</svg>
