<svg width="1335" height="1250" viewBox="0 0 1335 1250" fill="none" xmlns="http://www.w3.org/2000/svg">
<path fill-rule="evenodd" clip-rule="evenodd" d="M412.641 729.179H977.016V595.507H412.641V729.179Z" fill="#B6D4FF"/>
<path fill-rule="evenodd" clip-rule="evenodd" d="M570.975 623.794H977.863C999.041 623.794 1016.72 607.623 1018.59 586.527L1031.32 443.514C1033.45 419.595 1014.6 399 990.587 399H583.699C562.52 399 544.846 415.171 542.969 436.267L530.246 579.28C528.118 603.199 546.961 623.794 570.975 623.794" fill="#B6D4FF"/>
<path fill-rule="evenodd" clip-rule="evenodd" d="M236.075 794.124H394.436C417.86 794.124 436.262 774.068 434.25 750.729L421.14 598.678C419.359 578.015 402.066 562.149 381.327 562.149H222.966C199.541 562.149 181.139 582.205 183.151 605.543L196.261 757.595C198.043 778.258 215.335 794.124 236.075 794.124" fill="#B6D4FF"/>
<path fill-rule="evenodd" clip-rule="evenodd" d="M448.554 623.794H900.583C921.762 623.794 939.436 607.623 941.313 586.527L954.036 443.514C956.164 419.595 937.321 399 913.307 399H461.278C440.099 399 422.425 415.171 420.548 436.267L407.824 579.28C405.697 603.199 424.54 623.794 448.554 623.794" fill="#DCEEFF"/>
<path fill-rule="evenodd" clip-rule="evenodd" d="M252.795 794.124H943.034V724.122H252.795V794.124Z" fill="#CCE3FF"/>
<path fill-rule="evenodd" clip-rule="evenodd" d="M347.029 724.122H832.662C856.781 724.122 876.333 704.57 876.333 680.452C876.333 656.334 856.781 636.782 832.662 636.782H347.029C322.911 636.782 303.359 656.334 303.359 680.452C303.359 704.57 322.911 724.122 347.029 724.122" fill="#DCEEFF"/>
<path fill-rule="evenodd" clip-rule="evenodd" d="M1074.2 850.84H1090.77L1083.77 794.124H1053.2L1074.2 850.84Z" fill="#B6D4FF"/>
<path fill-rule="evenodd" clip-rule="evenodd" d="M931.846 850.84H948.409L941.409 794.124H910.846L931.846 850.84Z" fill="#B6D4FF"/>
<path fill-rule="evenodd" clip-rule="evenodd" d="M255.409 850.84H238.846L245.846 794.124H276.409L255.409 850.84Z" fill="#B6D4FF"/>
<path fill-rule="evenodd" clip-rule="evenodd" d="M397.769 850.84H381.205L388.205 794.124H418.769L397.769 850.84Z" fill="#B6D4FF"/>
<path fill-rule="evenodd" clip-rule="evenodd" d="M236.075 794.124H259.804C283.229 794.124 301.631 774.068 299.619 750.729L286.51 598.678C284.728 578.015 267.435 562.149 246.695 562.149H222.966C199.541 562.149 181.139 582.205 183.151 605.543L196.261 757.595C198.043 778.258 215.335 794.124 236.075 794.124" fill="#CCE3FF"/>
<path fill-rule="evenodd" clip-rule="evenodd" d="M919.888 794.124H1098.25C1118.99 794.124 1136.28 778.258 1138.06 757.595L1151.17 605.543C1153.18 582.205 1134.78 562.149 1111.36 562.149H932.997C912.258 562.149 894.965 578.015 893.184 598.678L880.075 750.729C878.062 774.068 896.463 794.124 919.888 794.124" fill="#B6D4FF"/>
<path fill-rule="evenodd" clip-rule="evenodd" d="M919.888 794.124H943.617C964.358 794.124 981.651 778.258 983.432 757.595L996.541 605.543C998.553 582.205 980.152 562.149 956.727 562.149H932.997C912.258 562.149 894.965 578.015 893.184 598.678L880.075 750.729C878.062 774.068 896.463 794.124 919.888 794.124" fill="#CCE3FF"/>
</svg>
