<svg width="1335" height="1250" viewBox="0 0 1335 1250" fill="none" xmlns="http://www.w3.org/2000/svg">
<path fill-rule="evenodd" clip-rule="evenodd" d="M962.021 627.246L1004.46 824.925H1032.53L990.094 627.246H962.021Z" fill="#CCE3FF"/>
<path fill-rule="evenodd" clip-rule="evenodd" d="M279.785 627.245H1006.42V596.666H279.785V627.245Z" fill="#D7EBFF"/>
<path fill-rule="evenodd" clip-rule="evenodd" d="M852.348 737.987H994.019V707.407H852.348V737.987Z" fill="#D7EBFF"/>
<path fill-rule="evenodd" clip-rule="evenodd" d="M429.92 426L398.074 596.666H436.505L468.351 426H429.92Z" fill="#CCE3FF"/>
<path fill-rule="evenodd" clip-rule="evenodd" d="M983.825 426L951.979 596.666H990.409L1022.25 426H983.825Z" fill="#CCE3FF"/>
<path fill-rule="evenodd" clip-rule="evenodd" d="M836.025 627.246H1006.42V596.667H836.025V627.246Z" fill="#B6D4FF"/>
<path fill-rule="evenodd" clip-rule="evenodd" d="M1060.58 537.25L1054.88 567.836H1016.45L1022.16 537.25H1060.58Z" fill="#CCE3FF"/>
<path fill-rule="evenodd" clip-rule="evenodd" d="M1022.16 537.25L1016.45 567.836H369.711L375.419 537.25H1022.16Z" fill="#D7EBFF"/>
<path fill-rule="evenodd" clip-rule="evenodd" d="M1070.96 481.627L1065.26 512.202H1026.82L1032.53 481.627H1070.96Z" fill="#CCE3FF"/>
<path fill-rule="evenodd" clip-rule="evenodd" d="M1032.53 481.627L1026.82 512.202H380.086L385.794 481.627H1032.53Z" fill="#D7EBFF"/>
<path fill-rule="evenodd" clip-rule="evenodd" d="M1042.91 426.004L1037.21 456.58H1075.64L1081.33 426.004H1042.91Z" fill="#CCE3FF"/>
<path fill-rule="evenodd" clip-rule="evenodd" d="M396.181 426.004L390.473 456.58H1037.21L1042.91 426.004H396.181Z" fill="#D7EBFF"/>
<path fill-rule="evenodd" clip-rule="evenodd" d="M852.347 627.246L809.91 824.925H837.984L880.42 627.246H852.347Z" fill="#CCE3FF"/>
<path fill-rule="evenodd" clip-rule="evenodd" d="M406.111 627.246L448.548 824.925H476.62L434.184 627.246H406.111Z" fill="#CCE3FF"/>
<path fill-rule="evenodd" clip-rule="evenodd" d="M296.436 737.986H438.108V707.407H296.436V737.986Z" fill="#D7EBFF"/>
<path fill-rule="evenodd" clip-rule="evenodd" d="M296.436 627.246L254 824.925H282.074L324.509 627.246H296.436Z" fill="#CCE3FF"/>
</svg>
