<svg width="500" height="350" viewBox="0 0 500 350" fill="none" xmlns="http://www.w3.org/2000/svg">
<path fill-rule="evenodd" clip-rule="evenodd" d="M327.402 175.763C327.402 214.844 295.72 246.526 256.638 246.526C217.557 246.526 185.876 214.844 185.876 175.763C185.876 136.681 217.557 105 256.638 105C295.72 105 327.402 136.681 327.402 175.763" fill="#CCE3FF"/>
<path fill-rule="evenodd" clip-rule="evenodd" d="M313.527 175.763C313.527 214.844 281.844 246.526 242.763 246.526C203.682 246.526 172.001 214.844 172.001 175.763C172.001 136.681 203.682 105 242.763 105C281.844 105 313.527 136.681 313.527 175.763" fill="#DCEEFF"/>
<path fill-rule="evenodd" clip-rule="evenodd" d="M296.387 175.758C296.387 203.38 275.51 226.118 248.685 229.065C246.738 229.28 244.769 229.387 242.769 229.387C213.147 229.387 189.139 205.38 189.139 175.758C189.139 146.147 213.147 122.139 242.769 122.139C244.769 122.139 246.738 122.247 248.685 122.462C275.51 125.409 296.387 148.147 296.387 175.758" fill="#CCE3FF"/>
<path fill-rule="evenodd" clip-rule="evenodd" d="M296.387 175.758C296.387 203.38 275.51 226.118 248.685 229.065C221.848 226.118 200.971 203.38 200.971 175.758C200.971 148.147 221.848 125.409 248.685 122.462C275.51 125.409 296.387 148.147 296.387 175.758" fill="#ECF6FF"/>
<path d="M245.089 145.943L262.464 183.838" stroke="#CCE3FF" stroke-width="8"/>
<path d="M264.12 167.951L226.06 209.321" stroke="#CCE3FF" stroke-width="8"/>
</svg>
