<svg width="1335" height="1250" viewBox="0 0 1335 1250" fill="none" xmlns="http://www.w3.org/2000/svg">
<path d="M442.082 552.689V838.854" stroke="#DCEEFF" stroke-width="7"/>
<path d="M585.165 695.772H299" stroke="#DCEEFF" stroke-width="7"/>
<path d="M543.258 594.597L340.908 796.946" stroke="#DCEEFF" stroke-width="7"/>
<path d="M543.258 796.946L340.908 594.597" stroke="#DCEEFF" stroke-width="7"/>
<path d="M919.077 555.023L867.598 836.52" stroke="#DCEEFF" stroke-width="7"/>
<path d="M1034.08 721.511L752.588 670.032" stroke="#DCEEFF" stroke-width="7"/>
<path d="M1011.06 614.449L775.611 777.095" stroke="#DCEEFF" stroke-width="7"/>
<path d="M974.661 813.496L812.014 578.046" stroke="#DCEEFF" stroke-width="7"/>
<path fill-rule="evenodd" clip-rule="evenodd" d="M840.979 695.772C840.979 724.507 864.274 747.801 893.009 747.801C921.745 747.801 945.039 724.507 945.039 695.772C945.039 667.037 921.745 643.742 893.009 643.742C864.274 643.742 840.979 667.037 840.979 695.772" fill="#DCEEFF"/>
<path fill-rule="evenodd" clip-rule="evenodd" d="M840.979 695.772C840.979 724.507 864.274 747.801 893.009 747.801C921.745 747.801 945.039 724.507 945.039 695.772C945.039 667.037 921.745 643.742 893.009 643.742C864.274 643.742 840.979 667.037 840.979 695.772Z" stroke="#CCE3FF" stroke-width="16"/>
<path fill-rule="evenodd" clip-rule="evenodd" d="M416.947 695.772C416.947 709.653 428.2 720.906 442.082 720.906C455.963 720.906 467.216 709.653 467.216 695.772C467.216 681.89 455.963 670.637 442.082 670.637C428.2 670.637 416.947 681.89 416.947 695.772" fill="#DCEEFF"/>
<path fill-rule="evenodd" clip-rule="evenodd" d="M416.947 695.772C416.947 709.653 428.2 720.906 442.082 720.906C455.963 720.906 467.216 709.653 467.216 695.772C467.216 681.89 455.963 670.637 442.082 670.637C428.2 670.637 416.947 681.89 416.947 695.772Z" stroke="#CCE3FF" stroke-width="16"/>
<path fill-rule="evenodd" clip-rule="evenodd" d="M749.926 695.772C749.926 774.793 813.987 838.854 893.009 838.854C972.031 838.854 1036.09 774.793 1036.09 695.772C1036.09 616.75 972.031 552.689 893.009 552.689C813.987 552.689 749.926 616.75 749.926 695.772Z" stroke="#B6D4FF" stroke-width="14"/>
<path fill-rule="evenodd" clip-rule="evenodd" d="M299 695.772C299 774.793 363.061 838.854 442.083 838.854C521.105 838.854 585.165 774.793 585.165 695.772C585.165 616.75 521.105 552.689 442.083 552.689C363.061 552.689 299 616.75 299 695.772Z" stroke="#B6D4FF" stroke-width="14"/>
<path d="M779.735 458.926L710.09 695.772L489.863 504.702L767.811 501.742L893.008 695.772H710.09" stroke="#DCEEFF" stroke-width="15" stroke-linejoin="bevel"/>
<path d="M602.508 418.278H515.791L442.082 697.533" stroke="#DCEEFF" stroke-width="15"/>
<path fill-rule="evenodd" clip-rule="evenodd" d="M732.935 473.182L815.905 482.037C824.86 482.993 832.741 476.775 832.741 468.754V459.9C832.741 452.511 826.005 446.522 817.698 446.522H734.727C726.419 446.522 719.684 452.511 719.684 459.9C719.684 466.671 725.374 472.375 732.935 473.182" fill="#CCE3FF"/>
<path d="M706.434 695.772V758.913H732.38H680.469" stroke="#CCE3FF" stroke-width="13"/>
<path fill-rule="evenodd" clip-rule="evenodd" d="M551.293 431.286H608.742V405H551.293V431.286Z" fill="#CCE3FF"/>
<path fill-rule="evenodd" clip-rule="evenodd" d="M478.515 513.145L450.936 518.493V469.43L478.515 474.779C486.363 476.3 492.03 483.172 492.03 491.166V496.757C492.03 504.751 486.363 511.624 478.515 513.145" fill="#CCE3FF"/>
</svg>
