<svg width="945" height="716" viewBox="0 0 945 716" fill="none" xmlns="http://www.w3.org/2000/svg">
<path d="M356.77 669.206L407.078 45.2056" stroke="#CCE3FF" stroke-width="18"/>
<path d="M609.734 669.206L559.426 45.2056" stroke="#CCE3FF" stroke-width="18"/>
<path d="M374.189 71.6832H586.579" stroke="#CCE3FF" stroke-width="18"/>
<path d="M359.77 208.298H601" stroke="#CCE3FF" stroke-width="18"/>
<path d="M348.385 371.991H612.385" stroke="#CCE3FF" stroke-width="18"/>
<path d="M329 519.683H631.769" stroke="#CCE3FF" stroke-width="18"/>
<path fill-rule="evenodd" clip-rule="evenodd" d="M526.277 319.76H456.495C453.333 319.76 450.77 317.197 450.77 314.036V204.305C450.77 201.144 453.333 198.581 456.495 198.581H526.277C529.438 198.581 532.001 201.144 532.001 204.305V314.036C532.001 317.197 529.438 319.76 526.277 319.76" fill="#CCE3FF"/>
<path fill-rule="evenodd" clip-rule="evenodd" d="M479.66 472.38H409.879C406.717 472.38 404.154 469.817 404.154 466.655V367.54C404.154 364.379 406.717 361.816 409.879 361.816H479.66C482.822 361.816 485.385 364.379 485.385 367.54V466.655C485.385 469.817 482.822 472.38 479.66 472.38" fill="#CCE3FF"/>
<path d="M338.77 669.206L389.078 45.2056" stroke="#DCEEFF" stroke-width="30"/>
<path d="M591.734 669.206L541.426 45.2056" stroke="#DCEEFF" stroke-width="30"/>
<path d="M359.189 71.6832H571.579" stroke="#DCEEFF" stroke-width="18"/>
<path d="M344.77 208.298H586" stroke="#DCEEFF" stroke-width="18"/>
<path d="M333.385 371.991H597.385" stroke="#DCEEFF" stroke-width="18"/>
<path d="M314 519.683H616.769" stroke="#DCEEFF" stroke-width="18"/>
<path fill-rule="evenodd" clip-rule="evenodd" d="M467.231 438.73H398.307C394.909 438.73 392.154 435.975 392.154 432.576V367.97C392.154 364.571 394.909 361.815 398.307 361.815H473.384V432.576C473.384 435.975 470.629 438.73 467.231 438.73" fill="#ECF6FF"/>
<path fill-rule="evenodd" clip-rule="evenodd" d="M392.154 425.611H473.384V405.246H392.154V425.611Z" fill="#DCEEFF"/>
<path fill-rule="evenodd" clip-rule="evenodd" d="M479.383 361.821C476.072 361.821 473.383 364.501 473.383 367.821V361.821H479.383Z" fill="#ECF6FF"/>
<path fill-rule="evenodd" clip-rule="evenodd" d="M513.847 282.879H444.924C441.525 282.879 438.77 280.124 438.77 276.725V204.734C438.77 201.335 441.525 198.58 444.924 198.58H520V276.725C520 280.124 517.245 282.879 513.847 282.879" fill="#ECF6FF"/>
<path fill-rule="evenodd" clip-rule="evenodd" d="M438.77 268.501H520V259.171H438.77V268.501Z" fill="#DCEEFF"/>
<path fill-rule="evenodd" clip-rule="evenodd" d="M438.77 250.06H520V240.73H438.77V250.06Z" fill="#DCEEFF"/>
<path fill-rule="evenodd" clip-rule="evenodd" d="M525.998 198.586C522.688 198.586 519.998 201.523 519.998 205.162V198.586H525.998Z" fill="#ECF6FF"/>
</svg>
