<svg width="945" height="716" viewBox="0 0 945 716" fill="none" xmlns="http://www.w3.org/2000/svg">
<path d="M548.55 214.935C548.55 214.935 552.506 194.331 566.019 195.651C594.21 198.407 559.681 288.985 617.691 294.802C675.699 300.618 681.724 209.882 681.724 209.882" stroke="#CCE3FF" stroke-width="7"/>
<path d="M550.635 154.62V684.319" stroke="#DCEEFF" stroke-width="15"/>
<path d="M681.724 209.882L335.554 60.6646" stroke="#DCEEFF" stroke-width="15"/>
<path fill-rule="evenodd" clip-rule="evenodd" d="M483.968 684.319H617.302V677.755C617.302 669.266 610.42 662.384 601.931 662.384H499.338C490.85 662.384 483.968 669.266 483.968 677.755V684.319Z" fill="#DCEEFF"/>
<path fill-rule="evenodd" clip-rule="evenodd" d="M263 136.777L376.442 161.474L380.11 129.777L272.841 106.424L263 136.777Z" fill="#B6D4FF"/>
<path fill-rule="evenodd" clip-rule="evenodd" d="M313.709 89.2908L347.53 96.6538L357.186 52.3058C359.116 43.4368 353.491 34.6808 344.622 32.7498L342.919 32.3788C334.05 30.4478 325.294 36.0728 323.363 44.9428L313.709 89.2908Z" fill="#B6D4FF"/>
<path fill-rule="evenodd" clip-rule="evenodd" d="M380.111 129.777L346.457 85.6437L321.797 80.2747L272.841 106.424L380.111 129.777Z" fill="#B6D4FF"/>
</svg>
