<svg width="945" height="716" viewBox="0 0 945 716" fill="none" xmlns="http://www.w3.org/2000/svg">
<path fill-rule="evenodd" clip-rule="evenodd" d="M573.246 248.751L554.643 518.216H391.276L372.675 248.751C372.088 240.312 378.776 233.146 387.233 233.146H558.687C567.144 233.146 573.833 240.312 573.246 248.751" fill="#DCEEFF"/>
<path d="M472.961 293.918V475.643" stroke="#B6D4FF" stroke-width="16" stroke-linecap="round"/>
<path d="M530.911 293.918L518.275 475.643" stroke="#B6D4FF" stroke-width="16" stroke-linecap="round"/>
<path d="M415.011 293.918L427.647 475.643" stroke="#B6D4FF" stroke-width="16" stroke-linecap="round"/>
<path fill-rule="evenodd" clip-rule="evenodd" d="M580.227 250.089H364.999V238.662C364.999 228.332 373.373 219.958 383.704 219.958H561.523C571.853 219.958 580.227 228.332 580.227 238.662V250.089Z" fill="#DCEEFF"/>
<path d="M372.639 256.71H573.283" stroke="#CCE3FF" stroke-width="14"/>
<path fill-rule="evenodd" clip-rule="evenodd" d="M433.37 223.915H442.063V204.614H433.37V223.915Z" fill="#DCEEFF"/>
<path fill-rule="evenodd" clip-rule="evenodd" d="M500.786 222.11H509.479V202.809H500.786V222.11Z" fill="#DCEEFF"/>
<path fill-rule="evenodd" clip-rule="evenodd" d="M433.37 207.692H509.479V197H433.37V207.692Z" fill="#DCEEFF"/>
</svg>
