<svg width="595" height="716" viewBox="0 0 595 716" fill="none" xmlns="http://www.w3.org/2000/svg">
<path fill-rule="evenodd" clip-rule="evenodd" d="M520.436 486.937L520.722 460.549L488.99 443.411L484.384 518.845H594.324C575.618 496.255 520.436 486.937 520.436 486.937ZM344.38 485.892L344.683 454.506L310.414 452.763L307.296 484.157L299.327 518.595H379.012C368.994 489.338 344.38 485.892 344.38 485.892Z" fill="#0D0B6D"/>
<path fill-rule="evenodd" clip-rule="evenodd" d="M307.296 484.157L311.079 443.679L344.683 454.506L344.381 485.892L307.296 484.157ZM486.432 485.298L488.99 450.326L520.722 460.549L520.436 486.936L486.432 485.298Z" fill="#CF3E83"/>
<path fill-rule="evenodd" clip-rule="evenodd" d="M307.98 183H215V207.78C215 238.572 240.169 263.533 271.217 263.533H298.794H312.208L302.426 471.69H360.228L381.722 263.533H482.126L479.419 471.69H538.209L565.975 258.18C570.948 218.255 539.847 183 499.657 183H341.186H307.98Z" fill="#18181C"/>
<path opacity="0.101632" fill-rule="evenodd" clip-rule="evenodd" d="M215 183H341.186C367.254 183 387.635 205.303 385.078 231.032L360.228 471.69H302.426L312.208 263.533H271.217C240.169 263.533 215 238.572 215 207.78V183Z" fill="white"/>
</svg>
