<svg width="595" height="716" viewBox="0 0 595 716" fill="none" xmlns="http://www.w3.org/2000/svg">
<path fill-rule="evenodd" clip-rule="evenodd" d="M319.775 683.346L320.058 658.898L288.674 643.02L284.119 712.911H392.852C374.351 691.979 319.775 683.346 319.775 683.346ZM193.549 684.299L193.831 656.838L163.74 677.965L158.915 682.781L151.472 712.911H225.892C216.535 687.313 193.549 684.299 193.549 684.299Z" fill="#0D0B6D"/>
<path fill-rule="evenodd" clip-rule="evenodd" d="M158.914 682.78L165.459 647.366L196.843 656.839L193.549 684.298L158.914 682.78ZM286.145 681.827L288.674 649.425L320.059 658.899L319.775 683.345L286.145 681.827Z" fill="#CF3E83"/>
<path fill-rule="evenodd" clip-rule="evenodd" d="M322.88 183H349.525L341.685 645.814H345.917V673.057H262.938V645.814H267.633L262.936 472.246L227.07 645.312H231.996L228.984 673.559H146.004L149.016 645.312H154.506L216.291 183L255.11 183L255.11 183H322.88Z" fill="#2F2F3D"/>
<path opacity="0.200358" fill-rule="evenodd" clip-rule="evenodd" d="M261.547 488.292L296.123 264.467L264.682 552.941L261.547 488.292Z" fill="black"/>
</svg>
