<svg width="595" height="716" viewBox="0 0 595 716" fill="none" xmlns="http://www.w3.org/2000/svg">
<path fill-rule="evenodd" clip-rule="evenodd" d="M101.282 598.475L131.723 570.435L121.148 542.073L55.9998 590.663L108.774 683.197C108.774 683.197 110.47 660.202 107.71 634.729C105.804 617.132 101.282 598.475 101.282 598.475ZM394.602 659.731L387.65 637.22L358.215 638.782L382.713 700.605L476.814 645.844C448.889 637.353 394.602 659.731 394.602 659.731Z" fill="#0D0B6D"/>
<path fill-rule="evenodd" clip-rule="evenodd" d="M83.2063 570.55L120.702 542.046L124.049 577.58L101.281 598.475L83.2063 570.55ZM370.517 669.822L359.774 643.656L388.875 641.023L394.603 659.73L370.517 669.822Z" fill="#CF3E83"/>
<path fill-rule="evenodd" clip-rule="evenodd" d="M392.552 653.05L414.912 647.32L333.732 282.751C333.732 282.751 333.732 282.75 333.732 282.75C343.982 241.85 347.792 206.04 349.172 181.96H311.292L311.292 181.96H216.832C216.832 183.31 217.012 200.24 225.822 237.19C227.361 243.67 233.351 263.92 241.992 292.289C241.992 292.289 241.992 292.29 241.992 292.29C192.832 438 83.5719 541.58 83.5719 541.58L96.1919 560.68L113.642 587.09L113.662 587.12L120.922 598.11C120.922 598.11 169.742 555.81 249.531 456.85C260.762 442.92 270.742 428.6 279.601 414.11C316.012 531.02 357.372 662.07 357.372 662.07L366.382 659.76L366.512 659.73L392.542 653.05H392.552Z" fill="#101016"/>
<path fill-rule="evenodd" clip-rule="evenodd" d="M414.912 647.32L392.552 653.05H392.542L366.512 659.73L366.382 659.76L357.372 662.07C357.372 662.07 316.012 531.02 279.601 414.11C265.391 368.47 251.941 324.99 241.992 292.29C233.351 263.921 227.361 243.67 225.822 237.19C217.012 200.24 216.832 183.31 216.832 181.96H311.292L333.731 282.75L414.912 647.32Z" fill="white" fill-opacity="0.1"/>
</svg>
