<svg width="595" height="716" viewBox="0 0 595 716" fill="none" xmlns="http://www.w3.org/2000/svg">
<path fill-rule="evenodd" clip-rule="evenodd" d="M325.878 673.692L326.158 649.579L295.149 633.92L290.649 702.849H398.082C379.802 682.206 325.878 673.692 325.878 673.692ZM191.237 674.631L191.517 647.549L159.895 646.044L157.017 673.133L149.663 702.849H223.195C213.95 677.605 191.237 674.631 191.237 674.631Z" fill="#0D0B6D"/>
<path fill-rule="evenodd" clip-rule="evenodd" d="M157.017 673.133L160.508 638.206L191.517 647.549L191.238 674.63L157.017 673.133ZM292.649 672.194L295.148 640.237L326.157 649.58L325.879 673.691L292.649 672.194Z" fill="#CF3E83"/>
<path fill-rule="evenodd" clip-rule="evenodd" d="M204.794 663.496L277.562 302.889L284.982 662.506L293.296 662.387H293.415L326.014 661.902L343.137 661.654L347.73 187H300.955H275.171H215.736L149 663.496H204.794Z" fill="#2F2F3D"/>
<path opacity="0.200893" fill-rule="evenodd" clip-rule="evenodd" d="M277.762 300.217L290.313 244.429L280.869 413.562L277.762 300.217Z" fill="black"/>
</svg>
