<svg width="595" height="716" viewBox="0 0 595 716" fill="none" xmlns="http://www.w3.org/2000/svg">
<path fill-rule="evenodd" clip-rule="evenodd" d="M90.9662 582.015L122.758 555.382L113.503 526.5L46.0005 572.07L94.487 667.157C94.487 667.157 97.2642 644.223 95.6987 618.601C94.6163 600.9 90.9662 582.015 90.9662 582.015ZM413.73 664.495L406.762 641.941L377.262 643.506L401.814 705.449L496.125 650.582C468.137 642.075 413.73 664.495 413.73 664.495Z" fill="#0D0B6D"/>
<path fill-rule="evenodd" clip-rule="evenodd" d="M74.1807 553.218L113.059 526.452L114.74 562.173L90.9659 582.015L74.1807 553.218ZM389.589 674.606L376.818 643.382L404.982 635.733L413.73 664.495L389.589 674.606Z" fill="#CF3E83"/>
<path fill-rule="evenodd" clip-rule="evenodd" d="M235.207 291.597C227.432 265.867 221.94 246.705 220.135 238.337C212.11 201.133 212.127 183.352 212.127 182.001H239.948L344.761 182C344.19 191.952 345.842 218.342 342.109 254.883L423.492 619.448L431.705 618.01L438.85 646.346L349.833 664.187L338.987 634.246L344.305 633.315C332.424 597.401 306.477 517.678 281.301 438.812C278.159 444.066 274.862 449.338 271.402 454.622C224.489 526.263 177.666 567.713 152.015 587.186L155.807 592.632L130.075 609.07L73.489 528.224L98.4544 510.259L102.664 516.306C133.116 488.177 193.946 422.037 229.808 315.775C232.211 308.657 233.946 300.462 235.207 291.597V291.597Z" fill="#101016"/>
<path fill-rule="evenodd" clip-rule="evenodd" d="M344.305 633.315C318.823 556.288 228.631 277.726 220.135 238.337C212.126 201.21 212.127 183.426 212.127 182.009C212.127 182.006 212.127 182.003 212.127 182.001H325.839L423.492 619.448L431.705 618.01L438.85 646.346L349.833 664.187L338.988 634.246L344.305 633.315Z" fill="white" fill-opacity="0.1"/>
</svg>
