<svg width="595" height="716" viewBox="0 0 595 716" fill="none" xmlns="http://www.w3.org/2000/svg">
<path fill-rule="evenodd" clip-rule="evenodd" d="M331.048 684.836L331.331 660.283L299.828 644.337L295.256 714.528H404.402C385.831 693.506 331.048 684.836 331.048 684.836ZM191.237 685.793L191.521 658.215L170.982 675.02L154.455 684.268L149.001 714.528H223.703C214.311 688.82 191.237 685.793 191.237 685.793Z" fill="#0D0B6D"/>
<path fill-rule="evenodd" clip-rule="evenodd" d="M154.454 684.267L160.018 648.701L191.521 658.215L191.237 685.793L154.454 684.267ZM297.288 683.311L299.828 650.77L331.331 660.283L331.048 684.836L297.288 683.311Z" fill="#CF3E83"/>
<path fill-rule="evenodd" clip-rule="evenodd" d="M345.682 639.803L350.047 182.167H277.218L277.221 182.341L217.09 182.341L150.55 639.056C149.827 644.021 151.93 648.669 155.558 651.495L151.808 675.02H195.378L198.095 653.713C202.639 652.325 206.217 648.561 207.235 643.713L279.51 299.12L286.198 640.442C286.312 645.774 289.638 650.288 294.293 652.164L293.565 675.02H335.119L335.846 652.232C341.455 650.855 345.622 645.821 345.682 639.803Z" fill="#2F2F3D"/>
<path opacity="0.197824" fill-rule="evenodd" clip-rule="evenodd" d="M279.14 304.529L291.892 247.72L282.298 419.948L279.14 304.529Z" fill="black"/>
<path fill-rule="evenodd" clip-rule="evenodd" d="M232.647 182.771L239.626 183.916L163.516 649.34L156.516 648.166L232.647 182.771Z" fill="#EFEFEF"/>
<mask id="mask0" mask-type="alpha" maskUnits="userSpaceOnUse" x="156" y="182" width="84" height="468">
<path fill-rule="evenodd" clip-rule="evenodd" d="M232.647 182.771L239.626 183.916L163.516 649.34L156.516 648.166L232.647 182.771Z" fill="white"/>
</mask>
<g mask="url(#mask0)">
<rect x="154.039" y="182.341" width="85.6693" height="466.833" fill="#EFEFEF"/>
</g>
</svg>
