<svg width="595" height="716" viewBox="0 0 595 716" fill="none" xmlns="http://www.w3.org/2000/svg">
<path fill-rule="evenodd" clip-rule="evenodd" d="M124.552 546.764L151.223 522.223L141.958 497.399L84.8755 539.927L131.116 620.917C131.116 620.917 132.602 600.79 130.184 578.495C128.514 563.094 124.552 546.764 124.552 546.764ZM379.669 601.052L373.578 581.349L347.787 582.716L369.252 636.826L451.703 588.897C427.235 581.466 379.669 601.052 379.669 601.052Z" fill="#0D0B6D"/>
<path fill-rule="evenodd" clip-rule="evenodd" d="M108.713 522.324L141.568 497.376L144.5 528.478L124.551 546.765L108.713 522.324ZM358.565 609.883L349.152 586.983L374.65 584.678L379.669 601.051L358.565 609.883Z" fill="#CF3E83"/>
<path fill-rule="evenodd" clip-rule="evenodd" d="M245.088 292.595L211.222 182H298.133L343.88 182.001C343.966 209.053 340.793 253.612 323.997 304.35L377.322 556.568C377.985 559.735 376.864 562.897 374.588 564.944L382.691 593.836L349.572 603.519L341.683 576.595L341.477 576.663C336.781 578.221 331.725 575.604 330.279 570.878L277.594 398.807C271.653 407.603 265.179 416.381 258.142 425.098C213.589 480.291 185.821 510.057 171.54 524.377C166.442 529.498 158.511 529.748 153.133 525.564L132.768 542.404L112.547 514.471L132.673 497.829C129.447 492.634 129.978 485.881 134.101 481.271C154.621 458.278 212.371 388.058 245.088 292.595L245.088 292.595Z" fill="#101016"/>
<path opacity="0.0987491" fill-rule="evenodd" clip-rule="evenodd" d="M341.684 576.595L341.477 576.663C336.781 578.221 331.725 575.604 330.279 570.878L277.594 398.806L245.088 292.596L211.223 182H298.133L323.997 304.35L377.322 556.568C377.985 559.735 376.864 562.897 374.588 564.944L382.692 593.836L349.573 603.519L341.684 576.595Z" fill="white"/>
<path fill-rule="evenodd" clip-rule="evenodd" d="M359.448 569.906L345.499 574.878L289.528 379.998L254.997 259.774L232.663 182.001H260.973L265.95 201.614L304.301 352.673L359.448 569.906Z" fill="#EFEFEF"/>
</svg>
