<svg width="595" height="717" viewBox="0 0 595 717" fill="none" xmlns="http://www.w3.org/2000/svg">
<path fill-rule="evenodd" clip-rule="evenodd" d="M289.818 359.379C276.55 359.379 265.794 374.976 265.794 394.216C265.794 413.457 276.55 429.054 289.818 429.054C303.086 429.054 313.842 413.457 313.842 394.216C313.842 374.976 303.086 359.379 289.818 359.379" fill="#202128"/>
<path d="M289.97 396.035V10.5923" stroke="#202128" stroke-width="20"/>
<path fill-rule="evenodd" clip-rule="evenodd" d="M119.546 200.523H309.914V2.43414H119.546V200.523Z" fill="#3D3E44"/>
<path d="M118.261 396.035V10.5923L48.0776 31.8534" stroke="#202128" stroke-width="20" stroke-linejoin="round"/>
<path d="M206.644 287.364L372.991 501.069" stroke="#202128" stroke-width="7"/>
<path d="M372.991 287.364L206.644 501.069" stroke="#202128" stroke-width="7"/>
<path d="M189.95 394.216H389.685" stroke="#202128" stroke-width="7"/>
<path d="M289.818 238.514V549.919" stroke="#202128" stroke-width="7"/>
<path fill-rule="evenodd" clip-rule="evenodd" d="M289.969 224.54C224.656 224.54 171.709 301.32 171.709 396.035C171.709 490.749 224.656 567.529 289.969 567.529C355.283 567.529 408.23 490.749 408.23 396.035C408.23 301.32 355.283 224.54 289.969 224.54M289.969 251.401C312.447 251.401 334.282 265.111 351.45 290.008C360.68 303.391 367.971 319.132 373.123 336.795C378.577 355.496 381.342 375.426 381.342 396.035C381.342 416.642 378.577 436.573 373.123 455.273C367.971 472.936 360.68 488.678 351.45 502.061C334.282 526.958 312.447 540.668 289.969 540.668C267.491 540.668 245.657 526.958 228.488 502.061C219.259 488.678 211.968 472.936 206.816 455.273C201.362 436.573 198.596 416.642 198.596 396.035C198.596 375.426 201.362 355.496 206.816 336.795C211.968 319.132 219.259 303.391 228.488 290.008C245.657 265.111 267.491 251.401 289.969 251.401" fill="#868B9B"/>
<path d="M118.108 238.514V549.919" stroke="#202128" stroke-width="7"/>
<path d="M442.481 477.359V193.009" stroke="#202128" stroke-width="20"/>
<path fill-rule="evenodd" clip-rule="evenodd" d="M446.943 466.389C427.683 466.389 412.071 489.03 412.071 516.959C412.071 544.887 427.683 567.529 446.943 567.529C466.203 567.529 481.815 544.887 481.815 516.959C481.815 489.03 466.203 466.389 446.943 466.389M446.943 488.453C450.654 488.453 459.729 498.442 459.729 516.959C459.729 535.476 450.654 545.465 446.943 545.465C443.233 545.465 434.157 535.476 434.157 516.959C434.157 498.442 443.233 488.453 446.943 488.453" fill="#202128"/>
<path fill-rule="evenodd" clip-rule="evenodd" d="M164.643 300.942H442.481V257.854H164.643V300.942Z" fill="#202128"/>
<path fill-rule="evenodd" clip-rule="evenodd" d="M122.392 300.942H273.011V257.854H122.392V300.942Z" fill="#3D3E44"/>
<path fill-rule="evenodd" clip-rule="evenodd" d="M500.205 474.633L500.48 449.394L470.009 433.003L465.587 505.152H571.158C553.195 483.545 500.205 474.633 500.205 474.633ZM369.556 473.633L369.847 443.614L336.939 441.947L333.945 471.973L326.293 504.912H402.812C393.192 476.93 369.556 473.633 369.556 473.633Z" fill="#0D0B6D"/>
<path fill-rule="evenodd" clip-rule="evenodd" d="M333.945 471.973L337.578 433.258L369.847 443.614L369.556 473.633L333.945 471.973ZM467.553 473.065L470.009 439.616L500.48 449.394L500.205 474.632L467.553 473.065Z" fill="#CF3E83"/>
<path fill-rule="evenodd" clip-rule="evenodd" d="M316.739 528.765H579.179V505.152H316.739V528.765Z" fill="#202128"/>
<path fill-rule="evenodd" clip-rule="evenodd" d="M306.368 528.766H394.219V505.153H306.368V528.766Z" fill="#3D3E44"/>
<path fill-rule="evenodd" clip-rule="evenodd" d="M118.26 224.54C52.9471 224.54 0 301.32 0 396.035C0 490.749 52.9471 567.529 118.26 567.529C183.574 567.529 236.521 490.749 236.521 396.035C236.521 301.32 183.574 224.54 118.26 224.54M118.26 251.401C140.738 251.401 162.573 265.111 179.741 290.008C188.97 303.391 196.262 319.132 201.414 336.795C206.868 355.496 209.634 375.426 209.634 396.035C209.634 416.642 206.868 436.573 201.414 455.273C196.262 472.936 188.97 488.678 179.741 502.061C162.573 526.958 140.738 540.668 118.26 540.668C95.7816 540.668 73.9481 526.958 56.7795 502.061C47.5504 488.678 40.2591 472.936 35.1073 455.273C29.653 436.573 26.8874 416.642 26.8874 396.035C26.8874 375.426 29.653 355.496 35.1073 336.795C40.2591 319.132 47.5504 303.391 56.7795 290.008C73.9481 265.111 95.7816 251.401 118.26 251.401" fill="#BFC4D6"/>
<path d="M263.087 477.359L262.806 260.956" stroke="#3D3E44" stroke-width="20"/>
<path fill-rule="evenodd" clip-rule="evenodd" d="M275.234 466.389C255.974 466.389 240.362 489.03 240.362 516.959C240.362 544.887 255.974 567.529 275.234 567.529C294.493 567.529 310.106 544.887 310.106 516.959C310.106 489.03 294.493 466.389 275.234 466.389M275.234 488.453C278.945 488.453 288.02 498.442 288.02 516.959C288.02 535.476 278.945 545.465 275.234 545.465C271.524 545.465 262.448 535.476 262.448 516.959C262.448 498.442 271.524 488.453 275.234 488.453" fill="#3D3E44"/>
<path fill-rule="evenodd" clip-rule="evenodd" d="M117.219 358.236C103.951 358.236 93.1953 373.834 93.1953 393.073C93.1953 412.314 103.951 427.912 117.219 427.912C130.487 427.912 141.243 412.314 141.243 393.073C141.243 373.834 130.487 358.236 117.219 358.236" fill="#202128"/>
<path d="M45.5039 300.943L188.934 485.205" stroke="#202128" stroke-width="7"/>
<path d="M187.88 304.582L42.8643 490.88" stroke="#202128" stroke-width="7"/>
<path d="M21.9326 394.216H209.061" stroke="#202128" stroke-width="7"/>
<path fill-rule="evenodd" clip-rule="evenodd" d="M296.191 183.93H216.508V207.63C216.508 237.081 240.677 260.956 270.492 260.956H287.37H338.663L329.268 460.051H384.774L405.413 260.956H463.418L460.818 460.051H517.272L543.936 255.836C548.71 217.649 518.846 183.93 480.252 183.93H366.488H296.191Z" fill="#18181C"/>
<path fill-rule="evenodd" clip-rule="evenodd" d="M216.508 183.93H366.488C391.52 183.93 411.092 205.261 408.636 229.87L384.774 460.051H329.268L338.663 260.956H270.492C240.677 260.956 216.508 237.081 216.508 207.63V183.93Z" fill="white" fill-opacity="0.1"/>
</svg>
