<svg width="945" height="716" viewBox="0 0 945 716" fill="none" xmlns="http://www.w3.org/2000/svg">
<path fill-rule="evenodd" clip-rule="evenodd" d="M518.854 190.334C518.854 220.894 500.274 245.667 477.354 245.667C454.434 245.667 435.854 220.894 435.854 190.334C435.854 159.774 454.434 135.001 477.354 135.001C500.274 135.001 518.854 159.774 518.854 190.334" fill="#CCE3FF"/>
<path d="M477.664 480.963V193.147" stroke="#DCEEFF" stroke-width="9"/>
<path fill-rule="evenodd" clip-rule="evenodd" d="M432.971 271.617C452.568 291.215 456.54 319.016 441.842 333.715C427.144 348.412 399.342 344.441 379.744 324.844C360.147 305.246 356.176 277.444 370.873 262.746C385.572 248.048 413.373 252.02 432.971 271.617" fill="#CCE3FF"/>
<path fill-rule="evenodd" clip-rule="evenodd" d="M572.901 311.881C588.704 327.684 584.434 357.576 563.363 378.647C542.293 399.717 512.401 403.987 496.598 388.184" fill="#CCE3FF"/>
<path d="M551.611 339.719L478.893 412.645" stroke="#DCEEFF" stroke-width="9"/>
<path d="M530.599 269.98L477.457 322.497" stroke="#DCEEFF" stroke-width="9"/>
<path d="M422.277 385.258L477.794 441.4" stroke="#DCEEFF" stroke-width="9"/>
<path d="M403.141 295.391L477.354 370.488" stroke="#DCEEFF" stroke-width="9"/>
<path fill-rule="evenodd" clip-rule="evenodd" d="M499.919 579.809H455.412C421.227 579.809 393.258 551.84 393.258 517.655V459.169H562.073V517.655C562.073 551.84 534.104 579.809 499.919 579.809" fill="#ECF6FF"/>
<path d="M562.072 491.676H393.257" stroke="#DCEEFF" stroke-width="9"/>
<path d="M562.072 524.282H393.257" stroke="#DCEEFF" stroke-width="9"/>
</svg>
