<svg width="945" height="716" viewBox="0 0 945 716" fill="none" xmlns="http://www.w3.org/2000/svg">
<path fill-rule="evenodd" clip-rule="evenodd" d="M477.806 240.39C481.932 268.319 467.906 292.14 467.906 292.14C467.906 292.14 447.189 270.68 443.062 242.75C438.936 214.821 452.963 191 452.963 191C452.963 191 473.68 212.461 477.806 240.39" fill="#E9F6FF"/>
<path fill-rule="evenodd" clip-rule="evenodd" d="M471.771 258.635C490.224 283.76 489.556 309.406 489.556 309.406C489.556 309.406 458.969 294.317 440.516 269.192C422.063 244.067 422.731 218.42 422.731 218.42C422.731 218.42 453.318 233.51 471.771 258.635" fill="#E9F6FF"/>
<path fill-rule="evenodd" clip-rule="evenodd" d="M494.937 243.428C490.036 271.3 468.726 292.492 468.726 292.492C468.726 292.492 455.364 268.495 460.265 240.624C465.166 212.752 486.476 191.56 486.476 191.56C486.476 191.56 499.838 215.556 494.937 243.428" fill="#E9F6FF"/>
<path fill-rule="evenodd" clip-rule="evenodd" d="M510.304 263.619C494.861 289.661 466.144 306.355 466.144 306.355C466.144 306.355 462.465 280.827 477.908 254.785C493.35 228.742 522.067 212.048 522.067 212.048C522.067 212.048 525.746 237.577 510.304 263.619" fill="#E9F6FF"/>
<path fill-rule="evenodd" clip-rule="evenodd" d="M617.635 346.722C617.635 401.91 552.696 446.65 472.589 446.65C392.482 446.65 327.543 401.91 327.543 346.722C327.543 291.533 392.482 246.794 472.589 246.794C552.696 246.794 617.635 291.533 617.635 346.722" fill="#CCE3FF"/>
<path fill-rule="evenodd" clip-rule="evenodd" d="M562.43 524.855H397.451C372.131 524.855 351.605 504.329 351.605 479.009V471.107C351.605 445.788 372.131 425.261 397.451 425.261H562.43C587.75 425.261 608.276 445.788 608.276 471.107V479.009C608.276 504.329 587.75 524.855 562.43 524.855" fill="#DCEEFF"/>
<path d="M389.705 276.205L362.969 255.484" stroke="#B6D4FF" stroke-width="9"/>
<path d="M351.606 383.419L327.543 399.899" stroke="#B6D4FF" stroke-width="9"/>
<path d="M421.541 374.43L463.066 381.168" stroke="#B6D4FF" stroke-width="9"/>
<path d="M527.727 272.834L552.799 242.026" stroke="#B6D4FF" stroke-width="9"/>
<path d="M573.52 306.355L600.925 288.904" stroke="#B6D4FF" stroke-width="9"/>
<path d="M578.867 396.519L604.935 413.229" stroke="#B6D4FF" stroke-width="9"/>
<path d="M433.594 313.258L421.19 284.58" stroke="white" stroke-width="9"/>
<path d="M552.26 344.533L522.451 358.646" stroke="white" stroke-width="9"/>
<path d="M408.066 328.131L379.687 309.356" stroke="white" stroke-width="9"/>
<path d="M351.605 465.052L402.936 485.064L454.269 465.052L505.6 485.064L556.938 465.052L608.276 485.064" stroke="#B6D4FF" stroke-width="9"/>
</svg>
