<svg width="945" height="716" viewBox="0 0 945 716" fill="none" xmlns="http://www.w3.org/2000/svg">
<path fill-rule="evenodd" clip-rule="evenodd" d="M550.042 191.149C550.042 191.149 473.368 360.38 464.213 544.38C464.213 544.38 507.127 357.919 550.042 191.149" fill="#DCEEFF"/>
<path fill-rule="evenodd" clip-rule="evenodd" d="M412.855 321.201C412.855 321.201 468.042 322.637 476.444 506.637C476.444 506.637 452.893 367.765 412.855 321.201" fill="#DCEEFF"/>
<path fill-rule="evenodd" clip-rule="evenodd" d="M469.21 135.999C469.21 135.999 501.426 330.673 469.716 528.765C469.716 528.765 471.6 321.871 469.21 135.999" fill="#DCEEFF"/>
<path fill-rule="evenodd" clip-rule="evenodd" d="M512.667 580.859H432.99C432.392 580.859 431.796 580.848 431.202 580.826C394.871 579.468 374.658 533.514 395.234 500.36L413.487 470.952H532.17L550.422 500.36C570.999 533.514 550.786 579.468 514.455 580.826C513.861 580.848 513.266 580.859 512.667 580.859" fill="#ECF6FF"/>
<path d="M387 538.589H558.657" stroke="#B6D4FF" stroke-width="9"/>
<path d="M390.984 510.167H555.225" stroke="#B6D4FF" stroke-width="9"/>
</svg>
