<svg width="462" height="536" viewBox="0 0 462 536" fill="none" xmlns="http://www.w3.org/2000/svg">
<path fill-rule="evenodd" clip-rule="evenodd" d="M420.82 413.534H9.15527e-05C1.94409 361.444 32.6111 339.188 79.3801 337.957C110.252 250.676 177.895 339.724 182.764 270.684C188.485 189.495 190.13 93.8047 190.13 93.8047L230.01 94.4937C230.01 94.4937 233.34 145.724 240.25 250.095C245.15 324.024 295.07 255.461 360.64 300.264C393.739 322.881 392.263 377.595 392.263 377.595C392.263 377.595 420.82 379.086 420.82 413.534" fill="#B5B8BC"/>
<path fill-rule="evenodd" clip-rule="evenodd" d="M144.59 413.534H41.3703C45.8603 390.434 65.0303 373.584 87.6103 371.274C91.9403 370.845 96.3903 370.934 100.89 371.614C103.48 372.014 106 372.584 108.44 373.334C115.13 375.385 121.19 378.704 126.37 382.984C135.72 390.675 142.24 401.474 144.59 413.534" fill="#D7DADD"/>
<path fill-rule="evenodd" clip-rule="evenodd" d="M374 413.534H318.14C320.43 402.904 327.72 394.294 337.31 391.024C339.57 390.254 341.96 389.774 344.45 389.644C345.88 389.564 347.3 389.604 348.68 389.754C360.85 391.044 371.02 400.664 374 413.534" fill="#D7DADD"/>
<path fill-rule="evenodd" clip-rule="evenodd" d="M283.18 413.534H123.56C122.9 406.954 123.05 400.194 124.09 393.364C124.63 389.814 125.4 386.345 126.37 382.984C137.41 344.925 175.22 320.004 215.46 326.124C224.97 327.574 233.83 330.635 241.81 334.994C269.48 350.074 286.55 380.714 283.18 413.534" fill="#D7DADD"/>
<path fill-rule="evenodd" clip-rule="evenodd" d="M156.442 262.172C155.133 270.775 147.098 276.687 138.496 275.378C129.893 274.069 123.981 266.034 125.29 257.432C126.599 248.829 134.633 242.917 143.236 244.226C151.838 245.535 157.751 253.569 156.442 262.172" fill="#D7DADD"/>
<path fill-rule="evenodd" clip-rule="evenodd" d="M270.833 265.16C270.293 268.71 266.977 271.15 263.427 270.61C259.876 270.069 257.436 266.754 257.977 263.203C258.517 259.653 261.833 257.213 265.383 257.753C268.933 258.294 271.373 261.609 270.833 265.16" fill="#D7DADD"/>
<path fill-rule="evenodd" clip-rule="evenodd" d="M457.882 373.269C456.635 381.461 448.983 387.092 440.79 385.846C432.597 384.599 426.966 376.947 428.213 368.754C429.46 360.561 437.112 354.93 445.305 356.177C453.498 357.423 459.129 365.076 457.882 373.269" fill="#D7DADD"/>
<path fill-rule="evenodd" clip-rule="evenodd" d="M238.092 105.159H185.169L165.169 63.0007H258.092L238.092 105.159ZM259.271 63.0005H163.989C158.466 63.0005 153.989 58.5225 153.989 53.0005C153.989 47.4775 158.466 43.0005 163.989 43.0005H259.271C264.794 43.0005 269.271 47.4775 269.271 53.0005C269.271 58.5225 264.794 63.0005 259.271 63.0005Z" fill="#6CA1FF"/>
<path opacity="0.402158" fill-rule="evenodd" clip-rule="evenodd" d="M237.923 105.158H185L165 63H257.923L237.923 105.158Z" fill="black"/>
</svg>
