<svg width="462" height="536" viewBox="0 0 462 536" fill="none" xmlns="http://www.w3.org/2000/svg">
<path d="M242.461 45.5068L260.589 245.36" stroke="#19141E" stroke-width="16" stroke-linecap="round"/>
<path d="M260.59 263.411L253.052 493.155" stroke="#19141E" stroke-width="16" stroke-linecap="round"/>
<path d="M170.41 44.0508L169.41 243.396" stroke="#19141E" stroke-width="16" stroke-linecap="round"/>
<path d="M169.41 251.924L142.513 499.616" stroke="#19141E" stroke-width="16" stroke-linecap="round"/>
<path fill-rule="evenodd" clip-rule="evenodd" d="M175.367 51.22H238.942C246.702 51.22 253.052 44.871 253.052 37.11C253.052 29.35 246.702 23 238.942 23H175.367C167.606 23 161.257 29.35 161.257 37.11C161.257 44.871 167.606 51.22 175.367 51.22ZM235.269 247.36C235.269 233.989 243.608 223.109 254 222.753V222.744H254.391C254.417 222.744 254.443 222.744 254.47 222.744C254.488 222.744 254.507 222.744 254.526 222.744C254.571 222.744 254.616 222.744 254.661 222.744H264.454C264.499 222.744 264.544 222.744 264.59 222.744C275.225 222.744 283.847 233.765 283.847 247.36C283.847 260.954 275.225 271.974 264.59 271.975V271.975H254V271.966C243.608 271.609 235.269 260.73 235.269 247.36ZM122 517.59H201.846L134.615 485.282L122 517.59ZM317.329 517.59H237.483L250.098 485.282L317.329 517.59ZM163.833 222.753C153.441 223.108 145.102 233.989 145.102 247.36C145.102 260.73 153.441 271.61 163.833 271.966V271.975H174.423V271.975C185.059 271.974 193.679 260.954 193.679 247.36C193.679 233.765 185.058 222.744 174.422 222.744C174.377 222.744 174.332 222.744 174.287 222.744H164.493C164.448 222.744 164.403 222.744 164.358 222.744C164.313 222.744 164.268 222.744 164.223 222.744H163.833V222.753Z" fill="#6CA1FF"/>
<path opacity="0.403041" fill-rule="evenodd" clip-rule="evenodd" d="M253.731 271.822C243.339 271.466 235 260.586 235 247.216C235 233.846 243.339 222.965 253.731 222.609V222.601H254.121C254.166 222.6 254.212 222.6 254.257 222.6C254.302 222.6 254.348 222.6 254.393 222.601H264.185C264.23 222.6 264.275 222.6 264.32 222.6C274.955 222.6 283.577 233.621 283.577 247.216C283.577 260.811 274.956 271.831 264.321 271.831L253.731 271.832V271.822ZM241.629 247.216C241.629 255.174 245.94 261.626 251.257 261.626C256.575 261.626 260.885 255.174 260.885 247.216C260.885 239.257 256.575 232.805 251.257 232.805C245.94 232.805 241.629 239.257 241.629 247.216ZM163.731 271.922C153.339 271.567 145 260.687 145 247.316C145 233.946 153.339 223.065 163.731 222.709V222.701H164.12C164.165 222.7 164.211 222.7 164.256 222.7C164.301 222.7 164.347 222.7 164.392 222.701H174.184C174.229 222.7 174.275 222.7 174.32 222.7C184.956 222.7 193.577 233.721 193.577 247.316C193.577 260.911 184.957 271.93 174.321 271.931L163.731 271.932V271.922V271.922ZM151.628 247.316C151.628 255.274 155.939 261.726 161.256 261.726C166.574 261.726 170.884 255.274 170.884 247.316C170.884 239.357 166.574 232.905 161.256 232.905C155.939 232.905 151.628 239.357 151.628 247.316Z" fill="black"/>
<path opacity="0.602888" fill-rule="evenodd" clip-rule="evenodd" d="M151.65 247.411C151.65 255.369 155.961 261.821 161.278 261.821C166.596 261.821 170.906 255.369 170.906 247.411C170.906 239.452 166.596 233 161.278 233C155.961 233 151.65 239.452 151.65 247.411" fill="black"/>
<path opacity="0.603864" fill-rule="evenodd" clip-rule="evenodd" d="M241.7 247.211C241.7 255.169 246.011 261.621 251.328 261.621C256.646 261.621 260.956 255.169 260.956 247.211C260.956 239.252 256.646 232.8 251.328 232.8C246.011 232.8 241.7 239.252 241.7 247.211" fill="black"/>
<path opacity="0.39588" fill-rule="evenodd" clip-rule="evenodd" d="M201.846 517.808H122L134.615 485.5L201.846 517.808Z" fill="black"/>
<path opacity="0.39588" fill-rule="evenodd" clip-rule="evenodd" d="M317.329 517.808H237.483L250.098 485.5L317.329 517.808Z" fill="black"/>
</svg>
