<svg width="462" height="536" viewBox="0 0 462 536" fill="none" xmlns="http://www.w3.org/2000/svg">
<path fill-rule="evenodd" clip-rule="evenodd" d="M263.408 94.5534H247.482V38.204C247.482 29.807 240.675 23 232.278 23H183.203C174.807 23 168 29.807 168 38.204V93H154C149.029 93 145 97.0294 145 102V284.796C145 289.767 149.029 293.796 154 293.796H182.463C187.434 293.796 191.463 289.767 191.463 284.796C191.463 279.825 187.434 275.796 182.463 275.796H163V236.422C168.334 228.275 175.04 223.423 182.323 223.423C199.709 223.423 213.802 251.065 213.802 285.164C213.802 319.263 199.709 346.906 182.323 346.906C166.424 346.906 153.277 323.784 151.147 293.748C147.503 292.597 144.861 289.189 144.861 285.164V182.595C128.596 205.49 118 242.9 118 285.164C118 354.843 146.799 411.329 182.324 411.329C183.178 411.329 184.029 411.296 184.875 411.232H232.309C233.155 411.296 234.005 411.329 234.86 411.329C270.386 411.329 299.184 354.843 299.184 285.164C299.184 242.973 288.625 205.619 272.408 182.714V103.553C272.408 98.5828 268.378 94.5534 263.408 94.5534ZM247.482 123.209V112.553H254.408V164.931C248.243 161.079 241.675 159 234.86 159C234.793 159 234.726 159 234.659 159.001H182.525C182.458 159 182.391 159 182.324 159C175.591 159 169.1 161.029 163 164.792V111H168V123.209C168 131.606 174.807 138.413 183.203 138.413H232.278C240.675 138.413 247.482 131.606 247.482 123.209Z" fill="#6CA1FF"/>
<path fill-rule="evenodd" clip-rule="evenodd" d="M151.306 293.386C152.157 293.652 153.062 293.796 154 293.796H182.463C187.434 293.796 191.463 289.767 191.463 284.796C191.463 279.825 187.434 275.796 182.463 275.796H163V236.237C168.359 227.947 175.124 223 182.478 223C199.864 223 213.957 250.642 213.957 284.741C213.957 318.84 199.864 346.483 182.478 346.483C166.59 346.483 153.45 323.392 151.306 293.386L151.306 293.386Z" fill="#19141E"/>
<path fill-rule="evenodd" clip-rule="evenodd" d="M167.735 81.1502H247.217V53.9282H167.735V81.1502Z" fill="#19141E"/>
<path opacity="0.395764" fill-rule="evenodd" clip-rule="evenodd" d="M255.01 165.011C254.741 164.83 254.468 164.648 254.191 164.466V113H247V95H263.191C268.161 95 272.191 99.0294 272.191 104C272.334 138.542 272.406 164.514 272.408 181.916C271.913 181.265 271.413 180.627 270.908 180.003C270.526 179.479 270.153 178.962 269.811 178.592C269.722 178.496 269.635 178.402 269.551 178.31C287.64 200.639 299.659 240.148 299.659 285.164C299.659 354.843 270.861 411.329 235.335 411.329C234.481 411.329 233.63 411.296 232.784 411.232H185.35C219.693 408.605 247.123 353.167 247.123 285.164C247.123 215.616 218.433 159.213 183 159L235.135 159.001C235.201 159 235.268 159 235.335 159C242.198 159 248.809 161.108 255.01 165.011V165.011ZM265.534 173.74C266.016 174.244 266.495 174.759 266.969 175.285C266.546 174.794 266.094 174.296 265.534 173.74L265.534 173.74ZM163 275.796H182.463C187.434 275.796 191.463 279.825 191.463 284.796C191.463 289.767 187.434 293.796 182.463 293.796H154C149.029 293.796 145 289.767 145 284.796V102C145 97.0294 149.029 93 154 93H182.463C187.434 93 191.463 97.0294 191.463 102C191.463 106.971 187.434 111 182.463 111H163V275.796Z" fill="black"/>
</svg>
