<svg width="462" height="536" viewBox="0 0 462 536" fill="none" xmlns="http://www.w3.org/2000/svg">
<path d="M261.165 271.488L248.065 392.124" stroke="#19141E" stroke-width="23" stroke-linecap="round"/>
<path d="M158.704 271.488L145.604 392.124" stroke="#19141E" stroke-width="23" stroke-linecap="round"/>
<path d="M242.551 55.2251L260.679 255.078" stroke="#19141E" stroke-width="23" stroke-linecap="round"/>
<path d="M149 53.7114C149.032 47.3602 154.206 42.2373 160.557 42.2692C166.908 42.3011 172.031 47.4755 171.999 53.8267L170.999 253.173C170.968 259.524 165.793 264.647 159.442 264.615C153.091 264.583 147.968 259.409 148 253.057L149 53.7114Z" fill="#19141E"/>
<path fill-rule="evenodd" clip-rule="evenodd" d="M136.03 47.0387C136.065 57.4012 141.136 66.6266 148.906 72.3919L149 53.7114C149.031 47.3602 154.206 42.2374 160.557 42.2692C166.908 42.3011 172.031 47.4756 171.999 53.8268L171.875 78.6091L239.48 78.3827C256.91 78.3237 271.124 64.0147 271.065 46.5847C271.007 29.1547 256.698 14.9417 239.267 14.9997L167.615 15.2407C150.184 15.2987 135.971 29.6077 136.03 47.0387ZM279.589 475.761L293.459 348.031C294.179 341.401 289.389 335.451 282.759 334.731L231.519 329.161C224.879 328.441 218.929 333.231 218.209 339.861L203.569 474.721L201.077 497.613C195.819 486.712 185.812 478.533 173.74 475.761L187.61 348.031C188.33 341.401 183.54 335.451 176.91 334.731L125.67 329.161C119.03 328.441 113.08 333.231 112.36 339.861L97.7199 474.721H97.7198L93.3198 515.131L91.9999 527.31L91.9998 527.311H197.849H205.07H310.919V515.152V515.131C310.909 495.941 297.529 479.881 279.589 475.761ZM156.541 290.064C172.42 290.064 185.294 277.191 185.294 261.311C185.294 245.431 172.42 232.558 156.541 232.558C140.661 232.558 127.787 245.431 127.787 261.311C127.787 277.191 140.661 290.064 156.541 290.064ZM291.024 261.311C291.024 277.191 278.15 290.064 262.271 290.064C246.391 290.064 233.517 277.191 233.517 261.311C233.517 245.431 246.391 232.558 262.271 232.558C278.15 232.558 291.024 245.431 291.024 261.311Z" fill="#6CA1FF"/>
<path opacity="0.397182" fill-rule="evenodd" clip-rule="evenodd" d="M204.993 515.041C204.99 508.764 203.556 502.822 201 497.523L203.493 474.631L218.133 339.772C218.853 333.142 224.803 328.352 231.443 329.072L282.683 334.642C289.313 335.362 294.103 341.312 293.383 347.942L279.513 475.671C297.453 479.791 310.833 495.851 310.843 515.041V527.221H92L93.32 515.041H204.993Z" fill="black"/>
<path opacity="0.401204" fill-rule="evenodd" clip-rule="evenodd" d="M291.007 261.253C291.007 277.133 278.133 290.006 262.254 290.006C246.374 290.006 233.5 277.133 233.5 261.253C233.5 245.373 246.374 232.5 262.254 232.5C278.133 232.5 291.007 245.373 291.007 261.253" fill="black"/>
<path opacity="0.596656" fill-rule="evenodd" clip-rule="evenodd" d="M137.546 356.306C137.546 360.893 133.828 364.611 129.241 364.611C124.654 364.611 120.935 360.893 120.935 356.306C120.935 351.719 124.654 348 129.241 348C133.828 348 137.546 351.719 137.546 356.306ZM134.611 383.391C134.611 387.978 130.893 391.697 126.306 391.697C121.719 391.697 118 387.978 118 383.391C118 378.804 121.719 375.086 126.306 375.086C130.893 375.086 134.611 378.804 134.611 383.391Z" fill="black"/>
<path opacity="0.396019" fill-rule="evenodd" clip-rule="evenodd" d="M128.853 485.926C128.853 491.961 123.961 496.853 117.927 496.853C111.892 496.853 107 491.961 107 485.926C107 479.892 111.892 475 117.927 475C123.961 475 128.853 479.892 128.853 485.926" fill="black"/>
</svg>
