<svg width="945" height="1250" viewBox="0 0 945 1250" fill="none" xmlns="http://www.w3.org/2000/svg">
<path fill-rule="evenodd" clip-rule="evenodd" d="M272 1155.36H660.308V318.437H272V1155.36Z" fill="#DCEEFF"/>
<path fill-rule="evenodd" clip-rule="evenodd" d="M318.154 1155.36H627.077V355.36H318.154V1155.36Z" fill="#CCE3FF"/>
<path fill-rule="evenodd" clip-rule="evenodd" d="M430.34 1070.58H514.891V879.042H430.34V1070.58Z" fill="#DCEEFF"/>
<path fill-rule="evenodd" clip-rule="evenodd" d="M430.34 625.425H514.891V433.888H430.34V625.425Z" fill="#DCEEFF"/>
<path fill-rule="evenodd" clip-rule="evenodd" d="M430.34 848.002H514.891V656.464H430.34V848.002Z" fill="#DCEEFF"/>
<path d="M347.099 702.476H403.943" stroke="#B6D4FF" stroke-width="14"/>
<path fill-rule="evenodd" clip-rule="evenodd" d="M660.309 1155.36H672.924V318.437H660.309V1155.36Z" fill="#B6D4FF"/>
<path fill-rule="evenodd" clip-rule="evenodd" d="M305.538 1155.36H318.153V355.36H305.538V1155.36Z" fill="#B6D4FF"/>
<path fill-rule="evenodd" clip-rule="evenodd" d="M344.118 769.439V769.439C336.808 769.439 330.883 763.514 330.883 756.205V695.802C330.883 688.493 336.808 682.568 344.118 682.568C351.428 682.568 357.353 688.493 357.353 695.802V756.205C357.353 763.514 351.428 769.439 344.118 769.439" fill="#B6D4FF"/>
<path fill-rule="evenodd" clip-rule="evenodd" d="M672.923 289.458C672.923 182.725 586.399 96.2004 479.665 96.2004C372.931 96.2004 286.407 182.725 286.407 289.458H672.923Z" fill="#B6D4FF"/>
<path fill-rule="evenodd" clip-rule="evenodd" d="M658.516 288.258C658.516 181.525 571.991 94.9992 465.258 94.9992C358.524 94.9992 272 181.525 272 288.258H658.516Z" fill="#DCEEFF"/>
<path fill-rule="evenodd" clip-rule="evenodd" d="M658.516 289.458C658.516 182.725 571.991 96.2004 465.258 96.2004C358.524 96.2004 272 182.725 272 289.458H658.516Z" fill="#DCEEFF"/>
<path fill-rule="evenodd" clip-rule="evenodd" d="M607.842 257.055H305.859C321.502 184.422 383.162 130.214 456.851 130.214C530.54 130.214 592.199 184.422 607.842 257.055" fill="#B6D4FF"/>
<path fill-rule="evenodd" clip-rule="evenodd" d="M623.449 257.055H321.466C337.109 184.422 398.769 130.214 472.458 130.214C546.147 130.214 607.806 184.422 623.449 257.055" fill="white"/>
</svg>
