<svg width="945" height="1250" viewBox="0 0 945 1250" fill="none" xmlns="http://www.w3.org/2000/svg">
<path fill-rule="evenodd" clip-rule="evenodd" d="M272 1043.92H660.308V207H272V1043.92Z" fill="#DCEEFF"/>
<path fill-rule="evenodd" clip-rule="evenodd" d="M318.154 1043.92H627.077V243.923H318.154V1043.92Z" fill="#CCE3FF"/>
<path fill-rule="evenodd" clip-rule="evenodd" d="M358.77 734.149H586.462V284.538H358.77V734.149Z" fill="#DCEEFF"/>
<path fill-rule="evenodd" clip-rule="evenodd" d="M358.77 1007.62H586.462V867.82H358.77V1007.62Z" fill="#DCEEFF"/>
<path fill-rule="evenodd" clip-rule="evenodd" d="M358.77 842.103H586.462V759.073H358.77V842.103Z" fill="#DCEEFF"/>
<path d="M340.098 611.039H381.846" stroke="#B6D4FF" stroke-width="9"/>
<path fill-rule="evenodd" clip-rule="evenodd" d="M351.889 611.039C351.889 617.551 346.61 622.829 340.098 622.829C333.586 622.829 328.307 617.551 328.307 611.039C328.307 604.527 333.586 599.248 340.098 599.248C346.61 599.248 351.889 604.527 351.889 611.039" fill="#B6D4FF"/>
<path fill-rule="evenodd" clip-rule="evenodd" d="M351.889 652.587C351.889 659.099 346.61 664.378 340.098 664.378C333.586 664.378 328.307 659.099 328.307 652.587C328.307 646.075 333.586 640.797 340.098 640.797C346.61 640.797 351.889 646.075 351.889 652.587" fill="#B6D4FF"/>
<path fill-rule="evenodd" clip-rule="evenodd" d="M660.309 1043.92H672.924V207H660.309V1043.92Z" fill="#B6D4FF"/>
<path fill-rule="evenodd" clip-rule="evenodd" d="M305.537 1043.92H318.153V243.923H305.537V1043.92Z" fill="#B6D4FF"/>
</svg>
