<svg width="189" height="191" viewBox="0 0 189 191" fill="none" xmlns="http://www.w3.org/2000/svg">
<path fill-rule="evenodd" clip-rule="evenodd" d="M141.859 122.308H155.21C160.519 122.308 164.863 117.964 164.863 112.654C164.863 107.345 160.519 103 155.21 103H141.859C136.549 103 132.205 107.345 132.205 112.654C132.205 117.964 136.549 122.308 141.859 122.308" fill="#19141E"/>
<path d="M89.6571 140.554C91.6724 135.099 99.3172 131.878 106.732 133.361C114.147 134.844 118.525 140.468 116.509 145.924L106.343 173.446C104.328 178.901 103.65 180.465 94.5 180.465C90.6264 180.465 84.7197 180.465 81.3784 180.465C76.5987 180.465 75.131 177.376 79.4905 168.076L89.6571 140.554Z" fill="#19141E"/>
<path fill-rule="evenodd" clip-rule="evenodd" d="M101.094 166.539C78.2058 166.539 59.4788 147.812 59.4788 124.924V102.462C59.4788 79.5738 78.2058 60.8468 101.094 60.8468H105.094C127.983 60.8468 146.71 79.5738 146.71 102.462V124.924C146.71 147.812 127.983 166.539 105.094 166.539H101.094ZM127.325 37.385C127.325 31.65 131.974 27.001 137.71 27.001C143.445 27.001 148.095 31.65 148.095 37.385C148.095 43.12 143.445 47.77 137.71 47.77C131.974 47.77 127.325 43.12 127.325 37.385Z" fill="#6CA1FF"/>
<path d="M133.537 46.8976C126.728 52.8264 122.853 59.3825 121.684 68.3126C121.469 69.9555 119.963 71.1129 118.32 70.8978C116.677 70.6827 115.52 69.1766 115.735 67.5338C117.081 57.2497 121.493 49.6315 128.94 42.9502C130.041 44.6815 131.641 46.0647 133.537 46.8976Z" fill="#19141E"/>
<path fill-rule="evenodd" clip-rule="evenodd" d="M116.718 105.381C117.242 108.347 115.263 111.175 112.297 111.699C109.332 112.223 106.503 110.244 105.979 107.278C105.455 104.313 107.434 101.484 110.4 100.96C113.365 100.436 116.195 102.415 116.718 105.381" fill="#19141E"/>
<path fill-rule="evenodd" clip-rule="evenodd" d="M145.028 105.497C145.552 108.463 143.572 111.291 140.607 111.815C137.641 112.339 134.813 110.36 134.289 107.394C133.765 104.429 135.744 101.6 138.71 101.076C141.675 100.552 144.504 102.532 145.028 105.497" fill="#19141E"/>
<path opacity="0.403971" fill-rule="evenodd" clip-rule="evenodd" d="M123.12 99.4922L136.88 121.326L122.069 121.684L123.12 99.4922Z" fill="black"/>
<path fill-rule="evenodd" clip-rule="evenodd" d="M53.6539 120.243H66.6069V100.935H53.6539C48.3439 100.935 43.9999 105.28 43.9999 110.589C43.9999 115.899 48.3439 120.243 53.6539 120.243" fill="#19141E"/>
<path d="M120.321 131.871C113.769 132.981 107.644 129.239 106.979 125.317" stroke="#19141E" stroke-width="4"/>
</svg>
