<svg width="189" height="191" viewBox="0 0 189 191" fill="none" xmlns="http://www.w3.org/2000/svg">
<path d="M158.671 103.247H128.206" stroke="#19141E" stroke-width="5" stroke-linecap="round"/>
<path d="M65.6756 61.6987C59.8836 61.6987 55.1436 66.4377 55.1436 72.2307" stroke="white" stroke-width="5" stroke-linecap="round"/>
<path d="M20.5242 103.247H57.9952" stroke="#19141E" stroke-width="5" stroke-linecap="round"/>
<path fill-rule="evenodd" clip-rule="evenodd" d="M45.7523 144.583V66.2825C45.7523 58.9765 51.7303 52.9995 59.0353 52.9995H133.05C140.356 52.9995 146.333 58.9765 146.333 66.2825V144.583C152.525 145.672 157.268 151.11 157.268 157.602V159.501C162.8 159.896 167.166 164.509 167.166 170.141V174.936H157.268H34.8172H24.9198V170.141C24.9198 164.509 29.2846 159.896 34.8172 159.501V157.602C34.8172 151.11 39.5603 145.672 45.7523 144.583ZM179.848 103.246C179.848 110.373 174.071 116.151 166.944 116.151C159.817 116.151 154.039 110.373 154.039 103.246C154.039 96.1194 159.817 90.3424 166.944 90.3424C174.071 90.3424 179.848 96.1194 179.848 103.246ZM7.99982 103.246C7.99982 110.373 13.7778 116.151 20.9048 116.151C28.0318 116.151 33.8098 110.373 33.8098 103.246C33.8098 96.1194 28.0318 90.3424 20.9048 90.3424C13.7778 90.3424 7.99982 96.1194 7.99982 103.246Z" fill="#6CA1FF"/>
<path opacity="0.395926" fill-rule="evenodd" clip-rule="evenodd" d="M34.8172 159.501V156.207C35.3966 150.233 40.7652 144.384 48.0352 144.384H144.05C151.32 144.384 156.464 149.783 157.268 155.776V159.501C162.8 159.895 167.166 164.509 167.166 170.141V174.936H24.9198V170.141C24.9198 164.509 29.2846 159.895 34.8172 159.501V159.501ZM179.848 103.246C179.848 110.373 174.071 116.151 166.944 116.151C159.817 116.151 154.039 110.373 154.039 103.246C154.039 96.1193 159.817 90.3423 166.944 90.3423C174.071 90.3423 179.848 96.1193 179.848 103.246ZM7.99982 103.246C7.99982 96.1193 13.7778 90.3423 20.9048 90.3423C28.0318 90.3423 33.8098 96.1193 33.8098 103.246C33.8098 110.373 28.0318 116.151 20.9048 116.151C13.7778 116.151 7.99982 110.373 7.99982 103.246Z" fill="black"/>
<path d="M35.66 159.818H156.969" stroke="#19141E" stroke-width="5"/>
<path d="M66.4569 124.292H146.333" stroke="#19141E" stroke-width="7"/>
<path fill-rule="evenodd" clip-rule="evenodd" d="M87.3333 86.3211C81.7033 90.9551 80.8963 99.2761 85.5303 104.906C90.1643 110.536 98.4853 111.343 104.115 106.709C109.745 102.075 110.552 93.7541 105.918 88.1241C101.284 82.4941 92.9633 81.6871 87.3333 86.3211" fill="white"/>
<path fill-rule="evenodd" clip-rule="evenodd" d="M94.3885 91.9735C91.8025 94.1025 91.4315 97.9245 93.5605 100.511C95.6895 103.097 99.5115 103.468 102.097 101.339C104.684 99.2105 105.055 95.3885 102.926 92.8015C100.797 90.2155 96.9745 89.8445 94.3885 91.9735" fill="#19141E"/>
<path fill-rule="evenodd" clip-rule="evenodd" d="M122.064 86.3211C116.434 90.9551 115.627 99.2761 120.261 104.906C124.895 110.536 133.216 111.343 138.846 106.709C144.476 102.075 145.283 93.7541 140.649 88.1241C136.015 82.4941 127.694 81.6871 122.064 86.3211" fill="white"/>
<path fill-rule="evenodd" clip-rule="evenodd" d="M129.119 91.9735C126.533 94.1025 126.162 97.9245 128.291 100.511C130.42 103.097 134.242 103.468 136.828 101.339C139.415 99.2105 139.786 95.3885 137.657 92.8015C135.528 90.2155 131.705 89.8445 129.119 91.9735" fill="#19141E"/>
</svg>
