<svg width="189" height="191" viewBox="0 0 189 191" fill="none" xmlns="http://www.w3.org/2000/svg">
<path d="M72.7279 49.4229C72.7279 49.4229 90.1899 60.9719 92.1109 80.9529" stroke="#19141E" stroke-width="5" stroke-linecap="round"/>
<path fill-rule="evenodd" clip-rule="evenodd" d="M73.7528 133.45H20.8752C9.39424 133.45 0.000244141 124.056 0.000244141 112.575V98.5016C0.000244141 87.0206 9.39424 77.6266 20.8752 77.6266H154.211C165.692 77.6266 175.086 87.0206 175.086 98.5016V112.575C175.086 124.056 165.692 133.45 154.211 133.45H104.112V175.326H73.7528V133.45ZM81.614 47.538C81.614 53.358 76.896 58.077 71.076 58.077C65.256 58.077 60.537 53.358 60.537 47.538C60.537 41.718 65.256 37 71.076 37C76.896 37 81.614 41.718 81.614 47.538Z" fill="#6CA1FF"/>
<path opacity="0.399042" fill-rule="evenodd" clip-rule="evenodd" d="M73.7529 175.326H104.112V133.326H73.7529V175.326Z" fill="black"/>
<path opacity="0.400367" fill-rule="evenodd" clip-rule="evenodd" d="M73.7533 161.742L104.112 151.742V133.158H73.7533V161.742Z" fill="black"/>
<path fill-rule="evenodd" clip-rule="evenodd" d="M20.8749 133.449V133.449C9.39388 133.449 -0.00012207 124.055 -0.00012207 112.574V98.5015C-0.00012207 87.0205 9.39388 77.6265 20.8749 77.6265C32.3559 77.6265 41.7499 87.0205 41.7499 98.5015V112.574C41.7499 124.055 32.3559 133.449 20.8749 133.449" fill="#19141E"/>
<path fill-rule="evenodd" clip-rule="evenodd" d="M53.6151 105.539C53.6151 114.378 60.7811 121.544 69.6201 121.544C78.4601 121.544 85.6261 114.378 85.6261 105.539C85.6261 96.6987 78.4601 89.5327 69.6201 89.5327C60.7811 89.5327 53.6151 96.6987 53.6151 105.539" fill="white"/>
<path fill-rule="evenodd" clip-rule="evenodd" d="M64.3407 103.29C64.3407 107.351 67.6327 110.643 71.6937 110.643C75.7547 110.643 79.0467 107.351 79.0467 103.29C79.0467 99.2285 75.7547 95.9365 71.6937 95.9365C67.6327 95.9365 64.3407 99.2285 64.3407 103.29" fill="#19141E"/>
<path fill-rule="evenodd" clip-rule="evenodd" d="M131.665 105.539C131.665 114.378 138.831 121.544 147.671 121.544C156.511 121.544 163.677 114.378 163.677 105.539C163.677 96.6987 156.511 89.5327 147.671 89.5327C138.831 89.5327 131.665 96.6987 131.665 105.539" fill="white"/>
<path fill-rule="evenodd" clip-rule="evenodd" d="M142.391 103.29C142.391 107.351 145.683 110.643 149.744 110.643C153.805 110.643 157.097 107.351 157.097 103.29C157.097 99.2285 153.805 95.9365 149.744 95.9365C145.683 95.9365 142.391 99.2285 142.391 103.29" fill="#19141E"/>
<path fill-rule="evenodd" clip-rule="evenodd" d="M104.988 94.5679L119.304 105.431L104.988 116.509" fill="#19141E"/>
</svg>
