<svg width="192" height="191" viewBox="0 0 192 191" fill="none" xmlns="http://www.w3.org/2000/svg">
<path d="M160.971 113.128V43.2822" stroke="#19141E" stroke-width="7"/>
<path fill-rule="evenodd" clip-rule="evenodd" d="M167.256 142.774H138.376V99.7271H167.256C179.094 99.7271 188.779 109.412 188.779 121.25C188.779 133.088 179.094 142.774 167.256 142.774" fill="#19141E"/>
<path fill-rule="evenodd" clip-rule="evenodd" d="M145.486 29.5778C146.485 21.9163 153.037 16 160.971 16C169.595 16 176.587 22.992 176.587 31.617C176.587 40.242 169.595 47.234 160.971 47.234C154.663 47.234 149.228 43.4938 146.764 38.1101L135.873 29.7775L121.053 41.1159L106.245 29.7782L91.4317 41.1162L76.6227 29.7783L61.8109 41.1162L53.635 34.8574C52.1433 41.9274 45.8695 47.234 38.3555 47.234C29.7305 47.234 22.7385 40.242 22.7385 31.617C22.7385 22.992 29.7305 16 38.3555 16C45.3866 16 51.3318 20.6465 53.2891 27.0364L61.811 33.56L76.6231 22.2219L91.4322 33.56L106.245 22.222L121.055 33.5603L135.873 22.2227L145.486 29.5778ZM155.33 174.584H42.9198C33.9698 174.584 26.7148 167.329 26.7148 158.379V84.1228C26.7148 75.1728 33.9698 67.9168 42.9198 67.9168H155.33C164.28 67.9168 171.535 75.1728 171.535 84.1228V158.379C171.535 167.329 164.28 174.584 155.33 174.584ZM144.852 189.282H53.3963C49.3383 189.282 46.0473 185.992 46.0473 181.933C46.0473 177.874 49.3383 174.584 53.3963 174.584H144.852C148.911 174.584 152.201 177.874 152.201 181.933C152.201 185.992 148.911 189.282 144.852 189.282Z" fill="#6CA1FF"/>
<path opacity="0.404367" d="M76.6228 29.7785L61.8109 41.1164L53.6355 34.9177L53.2504 27.0097L61.8111 33.5603L76.6232 22.2222L91.4322 33.5602L106.245 22.2222L121.055 33.5605L135.873 22.223L145.354 29.7777L146.931 38.1615L135.873 29.7777L121.053 41.1161L106.245 29.7784L91.4318 41.1164L76.6228 29.7785Z" fill="black"/>
<path opacity="0.395624" fill-rule="evenodd" clip-rule="evenodd" d="M144.852 189.282H53.3964C49.3384 189.282 46.0474 185.992 46.0474 181.933C46.0474 177.874 49.3384 174.584 53.3964 174.584H144.852C148.911 174.584 152.201 177.874 152.201 181.933C152.201 185.992 148.911 189.282 144.852 189.282" fill="black"/>
<path fill-rule="evenodd" clip-rule="evenodd" d="M21.5238 142.774H50.4028V99.7271H21.5238C9.68576 99.7271 -0.000244141 109.412 -0.000244141 121.25C-0.000244141 133.088 9.68576 142.774 21.5238 142.774" fill="#19141E"/>
<path fill-rule="evenodd" clip-rule="evenodd" d="M160.971 121.25C160.971 137.71 150.311 151.054 137.162 151.054C124.013 151.054 113.354 137.71 113.354 121.25C113.354 104.79 124.013 91.4463 137.162 91.4463C150.311 91.4463 160.971 104.79 160.971 121.25" fill="#19141E"/>
<path fill-rule="evenodd" clip-rule="evenodd" d="M125.974 151.054H137.162V91.4463H125.974V151.054Z" fill="#19141E"/>
<path fill-rule="evenodd" clip-rule="evenodd" d="M149.782 121.25C149.782 137.71 139.123 151.054 125.973 151.054C112.824 151.054 102.165 137.71 102.165 121.25C102.165 104.79 112.824 91.4463 125.973 91.4463C139.123 91.4463 149.782 104.79 149.782 121.25" fill="white"/>
<path fill-rule="evenodd" clip-rule="evenodd" d="M138.162 119.25C138.162 125.044 134.41 129.742 129.781 129.742C125.152 129.742 121.4 125.044 121.4 119.25C121.4 113.456 125.152 108.758 129.781 108.758C134.41 108.758 138.162 113.456 138.162 119.25" fill="#19141E"/>
<path d="M38.3552 113.128V46.5001" stroke="#19141E" stroke-width="7"/>
</svg>
