<svg width="945" height="1250" viewBox="0 0 945 1250" fill="none" xmlns="http://www.w3.org/2000/svg">
<path fill-rule="evenodd" clip-rule="evenodd" d="M592.057 232.5L571.533 437.503H355.339L375.863 232.5H592.057Z" fill="#DCEEFF"/>
<path fill-rule="evenodd" clip-rule="evenodd" d="M592.057 232.5L571.533 437.503H355.339L375.863 232.5H592.057Z" stroke="#DCEEFF" stroke-width="5"/>
<path fill-rule="evenodd" clip-rule="evenodd" d="M584.407 232.5L563.884 437.503H343.671L364.194 232.5H584.407Z" fill="white"/>
<path fill-rule="evenodd" clip-rule="evenodd" d="M584.407 232.5L563.884 437.503H343.671L364.194 232.5H584.407Z" stroke="#DCEEFF" stroke-width="5"/>
<path fill-rule="evenodd" clip-rule="evenodd" d="M538.371 271.703L525.697 398.301H389.707L402.381 271.703H538.371Z" fill="#DCEEFF"/>
<path fill-rule="evenodd" clip-rule="evenodd" d="M285.757 1020.56H668.498V986.47H285.757V1020.56Z" fill="#B6D4FF"/>
<path fill-rule="evenodd" clip-rule="evenodd" d="M275.757 1020.56H294.082V718.855H275.757V1020.56Z" fill="#DCEEFF"/>
<path fill-rule="evenodd" clip-rule="evenodd" d="M531.017 1020.56H549.563V718.855H531.017V1020.56Z" fill="#DCEEFF"/>
<path fill-rule="evenodd" clip-rule="evenodd" d="M275.757 998.075H294.082V986.471H275.757V998.075Z" fill="#CCE3FF"/>
<path fill-rule="evenodd" clip-rule="evenodd" d="M531.017 998.075H549.564V986.471H531.017V998.075Z" fill="#CCE3FF"/>
<path fill-rule="evenodd" clip-rule="evenodd" d="M592.334 333.818C596.325 368.495 583.347 398.125 583.347 398.125C583.347 398.125 563.897 371.532 559.905 336.855C555.915 302.178 568.894 272.548 568.894 272.548C568.894 272.548 588.343 299.141 592.334 333.818" fill="#CCE3FF"/>
<path fill-rule="evenodd" clip-rule="evenodd" d="M583.913 361.641C601.267 392.791 600.77 424.648 600.77 424.648C600.77 424.648 572.137 405.998 554.783 374.848C537.429 343.697 537.926 311.841 537.926 311.841C537.926 311.841 566.559 330.491 583.913 361.641" fill="#CCE3FF"/>
<path fill-rule="evenodd" clip-rule="evenodd" d="M608.342 337.539C603.904 372.172 584.113 398.559 584.113 398.559C584.113 398.559 571.517 368.794 575.955 334.161C580.394 299.528 600.185 273.143 600.185 273.143C600.185 273.143 612.78 302.906 608.342 337.539" fill="#CCE3FF"/>
<path fill-rule="evenodd" clip-rule="evenodd" d="M622.791 362.57C608.501 394.964 581.771 415.785 581.771 415.785C581.771 415.785 578.209 384.089 592.498 351.696C606.788 319.303 633.519 298.481 633.519 298.481C633.519 298.481 637.08 330.177 622.791 362.57" fill="#CCE3FF"/>
<path fill-rule="evenodd" clip-rule="evenodd" d="M545.371 371.967H627.397L618.737 436.593H554.031L545.371 371.967Z" fill="#ECF6FF"/>
<path fill-rule="evenodd" clip-rule="evenodd" d="M266.59 986.919H559.325V461.804H266.59V986.919Z" fill="#DCEEFF"/>
<path fill-rule="evenodd" clip-rule="evenodd" d="M285.757 960.488H540.158V882.63H285.757V960.488Z" fill="#CCE3FF"/>
<path fill-rule="evenodd" clip-rule="evenodd" d="M285.757 861.417H540.158V783.559H285.757V861.417Z" fill="#CCE3FF"/>
<path fill-rule="evenodd" clip-rule="evenodd" d="M285.757 762.346H540.158V684.488H285.757V762.346Z" fill="#CCE3FF"/>
<path fill-rule="evenodd" clip-rule="evenodd" d="M285.757 663.276H540.158V585.418H285.757V663.276Z" fill="#CCE3FF"/>
<path fill-rule="evenodd" clip-rule="evenodd" d="M285.757 564.206H540.158V486.347H285.757V564.206Z" fill="#CCE3FF"/>
<path fill-rule="evenodd" clip-rule="evenodd" d="M559.324 986.919H676.027V461.804H559.324V986.919Z" fill="#B6D4FF"/>
<path fill-rule="evenodd" clip-rule="evenodd" d="M252 461.804H571.526V436.723H252V461.804Z" fill="#CCE3FF"/>
<path fill-rule="evenodd" clip-rule="evenodd" d="M571.234 461.804H692.786V436.723H571.234V461.804Z" fill="#B6D4FF"/>
<path fill-rule="evenodd" clip-rule="evenodd" d="M398.222 525.276C398.222 533.414 404.82 540.011 412.958 540.011C421.096 540.011 427.694 533.414 427.694 525.276C427.694 517.137 421.096 510.541 412.958 510.541C404.82 510.541 398.222 517.137 398.222 525.276" fill="#B6D4FF"/>
<path fill-rule="evenodd" clip-rule="evenodd" d="M398.222 624.346C398.222 632.485 404.82 639.081 412.958 639.081C421.096 639.081 427.694 632.485 427.694 624.346C427.694 616.208 421.096 609.611 412.958 609.611C404.82 609.611 398.222 616.208 398.222 624.346" fill="#B6D4FF"/>
<path fill-rule="evenodd" clip-rule="evenodd" d="M398.222 723.418C398.222 731.556 404.82 738.153 412.958 738.153C421.096 738.153 427.694 731.556 427.694 723.418C427.694 715.279 421.096 708.682 412.958 708.682C404.82 708.682 398.222 715.279 398.222 723.418" fill="#B6D4FF"/>
<path fill-rule="evenodd" clip-rule="evenodd" d="M398.222 822.488C398.222 830.626 404.82 837.223 412.958 837.223C421.096 837.223 427.694 830.626 427.694 822.488C427.694 814.349 421.096 807.753 412.958 807.753C404.82 807.753 398.222 814.349 398.222 822.488" fill="#B6D4FF"/>
<path fill-rule="evenodd" clip-rule="evenodd" d="M398.222 921.558C398.222 929.697 404.82 936.293 412.958 936.293C421.096 936.293 427.694 929.697 427.694 921.558C427.694 913.42 421.096 906.823 412.958 906.823C404.82 906.823 398.222 913.42 398.222 921.558" fill="#B6D4FF"/>
</svg>
