<svg width="945" height="716" viewBox="0 0 945 716" fill="none" xmlns="http://www.w3.org/2000/svg">
<path fill-rule="evenodd" clip-rule="evenodd" d="M302 536.057H328.535V449.855H302V536.057Z" fill="#DCEEFF"/>
<path fill-rule="evenodd" clip-rule="evenodd" d="M523.016 536.057H549.551V449.855H523.016V536.057Z" fill="#DCEEFF"/>
<path fill-rule="evenodd" clip-rule="evenodd" d="M395.548 536.057H422.083V449.855H395.548V536.057Z" fill="#B6D4FF"/>
<path fill-rule="evenodd" clip-rule="evenodd" d="M616.564 536.057H643.098V449.855H616.564V536.057Z" fill="#B6D4FF"/>
<path fill-rule="evenodd" clip-rule="evenodd" d="M395.959 465.15H643.508V292.072H395.959V465.15Z" fill="#B6D4FF"/>
<path fill-rule="evenodd" clip-rule="evenodd" d="M302 465.15H549.55V292.072H302V465.15Z" fill="#DCEEFF"/>
<path fill-rule="evenodd" clip-rule="evenodd" d="M324.967 442.743H526.583V314.477H324.967V442.743Z" fill="#ECF6FF"/>
<path fill-rule="evenodd" clip-rule="evenodd" d="M460.52 314.477V314.477C460.52 323.597 453.126 330.991 444.006 330.991H407.544C398.424 330.991 391.031 323.597 391.031 314.477H460.52Z" fill="#CCE3FF"/>
<path fill-rule="evenodd" clip-rule="evenodd" d="M536.035 292.385H587.522V218.538H536.035V292.385Z" fill="#CCE3FF"/>
<path fill-rule="evenodd" clip-rule="evenodd" d="M570.029 292.385H487.829L518.859 181H601.059L570.029 292.385Z" fill="#DCEEFF"/>
<path fill-rule="evenodd" clip-rule="evenodd" d="M553.029 292.385H470.829L501.859 181H584.059L553.029 292.385Z" fill="#ECF6FF"/>
<path fill-rule="evenodd" clip-rule="evenodd" d="M542.695 275.197H490.74L512.193 198.187H564.148L542.695 275.197Z" fill="#CCE3FF"/>
<path fill-rule="evenodd" clip-rule="evenodd" d="M421.655 292.385H458.068V240.159H421.655V292.385Z" fill="#CCE3FF"/>
<path fill-rule="evenodd" clip-rule="evenodd" d="M442.697 292.385H384.563L406.509 213.612H464.642L442.697 292.385Z" fill="#DCEEFF"/>
<path fill-rule="evenodd" clip-rule="evenodd" d="M430.674 292.385H372.54L394.486 213.612H452.619L430.674 292.385Z" fill="#ECF6FF"/>
<path fill-rule="evenodd" clip-rule="evenodd" d="M421.789 276.25H390.415L403.37 229.745H434.745L421.789 276.25Z" fill="#DCEEFF"/>
</svg>
