<svg width="945" height="716" viewBox="0 0 945 716" fill="none" xmlns="http://www.w3.org/2000/svg">
<path fill-rule="evenodd" clip-rule="evenodd" d="M566.064 332.154H496.935V192.722C496.935 186.8 501.736 182.001 507.658 182.001H555.341C561.263 182.001 566.064 186.8 566.064 192.722V332.154Z" fill="#CCE3FF"/>
<path fill-rule="evenodd" clip-rule="evenodd" d="M656.182 314.112C656.182 320.972 653.732 327.262 649.652 332.152H606.302C602.222 327.262 599.772 320.972 599.772 314.112C599.772 298.532 612.402 285.902 627.982 285.902C643.552 285.902 656.182 298.532 656.182 314.112" fill="#DCEEFF"/>
<path fill-rule="evenodd" clip-rule="evenodd" d="M618.235 294.112H637.721V277.496H618.235V294.112Z" fill="#DCEEFF"/>
<path fill-rule="evenodd" clip-rule="evenodd" d="M613.105 277.496H642.849V268.881H613.105V277.496Z" fill="#DCEEFF"/>
<path fill-rule="evenodd" clip-rule="evenodd" d="M616.484 332.154H574.855L595.67 299.605L616.484 332.154Z" fill="#B6D4FF"/>
<path fill-rule="evenodd" clip-rule="evenodd" d="M496.934 313.879H566.063V232.214H496.934V313.879Z" fill="#B6D4FF"/>
<path fill-rule="evenodd" clip-rule="evenodd" d="M506.986 326.625H530.704V321.086H506.986V326.625Z" fill="#B6D4FF"/>
<path fill-rule="evenodd" clip-rule="evenodd" d="M496.934 198.701H566.063V196.831H496.934V198.701Z" fill="#B6D4FF"/>
<path d="M713.18 485.693V533.442" stroke="#CCE3FF" stroke-width="11"/>
<path d="M637.487 485.693V533.442" stroke="#CCE3FF" stroke-width="11"/>
<path d="M307.642 485.693V533.442" stroke="#CCE3FF" stroke-width="11"/>
<path d="M231.949 485.693V533.442" stroke="#CCE3FF" stroke-width="11"/>
<path fill-rule="evenodd" clip-rule="evenodd" d="M198 485.693H604.154V332.154H198V485.693Z" fill="#DCEEFF"/>
<path fill-rule="evenodd" clip-rule="evenodd" d="M221.384 468.578H390.82V349.193H221.384V468.578Z" fill="#CCE3FF"/>
<path fill-rule="evenodd" clip-rule="evenodd" d="M411.332 468.578H580.769V349.193H411.332V468.578Z" fill="#CCE3FF"/>
<path fill-rule="evenodd" clip-rule="evenodd" d="M604.155 485.693H746.513V332.154H604.155V485.693Z" fill="#B6D4FF"/>
<path fill-rule="evenodd" clip-rule="evenodd" d="M298.312 294.652V294.653C298.312 301.556 303.91 307.153 310.814 307.153H423.283V282.152H310.814C303.91 282.152 298.312 287.749 298.312 294.652" fill="#CCE3FF"/>
<path fill-rule="evenodd" clip-rule="evenodd" d="M373.958 294.652V294.653C373.958 298.649 377.198 301.889 381.194 301.889H422.981C423.147 301.889 423.282 301.755 423.282 301.589V287.716C423.282 287.55 423.147 287.416 422.981 287.416H381.194C377.198 287.416 373.958 290.656 373.958 294.652" fill="#DCEEFF"/>
<path fill-rule="evenodd" clip-rule="evenodd" d="M282.615 307.153V332.154H405.374C412.278 332.154 417.875 326.557 417.875 319.654C417.875 312.75 412.278 307.153 405.374 307.153H282.615Z" fill="#CCE3FF"/>
<path fill-rule="evenodd" clip-rule="evenodd" d="M282.615 312.486V326.821H333.089C337.048 326.821 340.257 323.612 340.257 319.654C340.257 315.695 337.048 312.486 333.089 312.486H282.615Z" fill="#DCEEFF"/>
<path fill-rule="evenodd" clip-rule="evenodd" d="M340.846 349.193V349.193C340.846 358.313 333.453 365.706 324.333 365.706H287.87C278.751 365.706 271.358 358.313 271.358 349.193H340.846Z" fill="#B6D4FF"/>
<path fill-rule="evenodd" clip-rule="evenodd" d="M530.796 349.193V349.193C530.796 358.313 523.402 365.706 514.282 365.706H477.82C468.7 365.706 461.307 358.313 461.307 349.193H530.796Z" fill="#B6D4FF"/>
</svg>
