<svg width="945" height="716" viewBox="0 0 945 716" fill="none" xmlns="http://www.w3.org/2000/svg">
<path fill-rule="evenodd" clip-rule="evenodd" d="M544.577 216.821C544.577 240.295 531.306 259.324 514.935 259.324C498.565 259.324 485.295 240.295 485.295 216.821C485.295 193.347 498.565 174.318 514.935 174.318C531.306 174.318 544.577 193.347 544.577 216.821" fill="#CCE3FF"/>
<path fill-rule="evenodd" clip-rule="evenodd" d="M563.166 184.737H466.705L484.058 86.0005H545.814L563.166 184.737Z" fill="#DCEEFF"/>
<path fill-rule="evenodd" clip-rule="evenodd" d="M320.18 336.94H474.871V245.855H320.18V336.94Z" fill="#B6D4FF"/>
<path fill-rule="evenodd" clip-rule="evenodd" d="M333.948 320.017H461.948V260.017H333.948V320.017Z" fill="#DCEEFF"/>
<path fill-rule="evenodd" clip-rule="evenodd" d="M325.026 630.932H312.001L342.001 336.94H365.026L325.026 630.932Z" fill="#B6D4FF"/>
<path fill-rule="evenodd" clip-rule="evenodd" d="M425.026 630.932H412.001L432.001 336.94H455.026L425.026 630.932Z" fill="#B6D4FF"/>
<path fill-rule="evenodd" clip-rule="evenodd" d="M533.68 630.932H520.654L490.654 336.94H513.68L533.68 630.932Z" fill="#DCEEFF"/>
<path fill-rule="evenodd" clip-rule="evenodd" d="M633.68 630.932H620.654L580.654 336.94H603.68L633.68 630.932Z" fill="#DCEEFF"/>
<path fill-rule="evenodd" clip-rule="evenodd" d="M474.875 336.943H625.645V245.853H474.875V336.943Z" fill="#DCEEFF"/>
<path fill-rule="evenodd" clip-rule="evenodd" d="M432.693 260.017V260.017C432.693 269.137 425.3 276.531 416.18 276.531H379.717C370.598 276.531 363.205 269.137 363.205 260.017H432.693Z" fill="#CCE3FF"/>
<path fill-rule="evenodd" clip-rule="evenodd" d="M465.326 233.178V233.665C465.326 240.396 459.869 245.853 453.138 245.853H353.025V220.991H453.138C459.869 220.991 465.326 226.448 465.326 233.178" fill="#CCE3FF"/>
<path fill-rule="evenodd" clip-rule="evenodd" d="M397.35 233.28V233.562C397.35 237.459 394.191 240.618 390.294 240.618H353.172C353.091 240.618 353.026 240.552 353.026 240.471V226.372C353.026 226.291 353.091 226.224 353.172 226.224H390.294C394.191 226.224 397.35 229.384 397.35 233.28" fill="#DCEEFF"/>
</svg>
