<svg width="945" height="716" viewBox="0 0 945 716" fill="none" xmlns="http://www.w3.org/2000/svg">
<path fill-rule="evenodd" clip-rule="evenodd" d="M404.979 282.551V282.551C404.979 289.454 410.576 295.051 417.479 295.051H529.948V270.05H417.479C410.576 270.05 404.979 275.647 404.979 282.551" fill="#CCE3FF"/>
<path fill-rule="evenodd" clip-rule="evenodd" d="M480.624 282.552V282.552C480.624 286.548 483.864 289.788 487.861 289.788H529.647C529.813 289.788 529.948 289.654 529.948 289.488V275.615C529.948 275.449 529.813 275.315 529.647 275.315H487.861C483.864 275.315 480.624 278.555 480.624 282.552" fill="#DCEEFF"/>
<path fill-rule="evenodd" clip-rule="evenodd" d="M389.282 295.052V320.053H512.041C518.944 320.053 524.541 314.456 524.541 307.553C524.541 300.649 518.944 295.052 512.041 295.052H389.282Z" fill="#CCE3FF"/>
<path fill-rule="evenodd" clip-rule="evenodd" d="M389.282 300.385V314.719H439.756C443.714 314.719 446.923 311.51 446.923 307.552C446.923 303.593 443.714 300.385 439.756 300.385H389.282Z" fill="#DCEEFF"/>
<path fill-rule="evenodd" clip-rule="evenodd" d="M436.444 254.808L444.428 176.999H469.396L477.381 254.808C478.217 262.962 471.819 270.05 463.623 270.05H450.202C442.006 270.05 435.607 262.962 436.444 254.808" fill="#DCEEFF"/>
<path fill-rule="evenodd" clip-rule="evenodd" d="M346 498.201H498V320.053H346V498.201Z" fill="#DCEEFF"/>
<path fill-rule="evenodd" clip-rule="evenodd" d="M498 498.201H599.144V320.053H498V498.201Z" fill="#B6D4FF"/>
<path fill-rule="evenodd" clip-rule="evenodd" d="M359.624 481.149H481.76V415.789H359.624V481.149Z" fill="#CCE3FF"/>
<path fill-rule="evenodd" clip-rule="evenodd" d="M359.624 401.101H481.76V335.741H359.624V401.101Z" fill="#CCE3FF"/>
<path fill-rule="evenodd" clip-rule="evenodd" d="M346 540.312H360.891V498.201H346V540.312Z" fill="#DCEEFF"/>
<path fill-rule="evenodd" clip-rule="evenodd" d="M584.253 540.312H599.144V498.201H584.253V540.312Z" fill="#B6D4FF"/>
<path fill-rule="evenodd" clip-rule="evenodd" d="M483.108 540.312H498V498.201H483.108V540.312Z" fill="#DCEEFF"/>
<path fill-rule="evenodd" clip-rule="evenodd" d="M445.538 540.312H460.429V498.201H445.538V540.312Z" fill="#B6D4FF"/>
<path fill-rule="evenodd" clip-rule="evenodd" d="M408.577 368.422C408.577 375.112 414.001 380.536 420.692 380.536C427.383 380.536 432.806 375.112 432.806 368.422C432.806 361.731 427.383 356.307 420.692 356.307C414.001 356.307 408.577 361.731 408.577 368.422" fill="#B6D4FF"/>
<path fill-rule="evenodd" clip-rule="evenodd" d="M408.577 448.469C408.577 455.159 414.001 460.583 420.692 460.583C427.383 460.583 432.806 455.159 432.806 448.469C432.806 441.778 427.383 436.354 420.692 436.354C414.001 436.354 408.577 441.778 408.577 448.469" fill="#B6D4FF"/>
</svg>
