<svg width="20" height="26" viewBox="0 0 20 26" fill="none" xmlns="http://www.w3.org/2000/svg">
<g id="default / emergency-firedepartment-jpn">
<g id="POI-base">
<g id="Category_Master">
<g id="Baseshape_Pin">
<path id="shape" d="M6.12903 20.4794L6.12726 20.4777C3.78964 18.19 2.64527 16.3664 2.07698 14.8457C1.50986 13.3281 1.5 12.0735 1.5 10.8565C1.5 6.24879 5.30485 2.5 9.99133 2.5C14.6791 2.5 18.5 6.25003 18.5 10.8565C18.5 12.0735 18.4901 13.3281 17.923 14.8457C17.3547 16.3664 16.2104 18.19 13.8728 20.4777L13.8717 20.4787L9.99205 24.2977L6.12903 20.4794Z" fill="#FC5A72" stroke="#B04462"/>
</g>
</g>
<g id="Icon_Master">
<g id="emergency-firedepartment-jpn">
<path id="Vector" d="M14.5 8H13.5C13.5 8.92826 13.1313 9.8185 12.4749 10.4749C11.8185 11.1313 10.9283 11.5 10 11.5C9.07174 11.5 8.1815 11.1313 7.52513 10.4749C6.86875 9.8185 6.5 8.92826 6.5 8H5.5C5.50053 9.10653 5.90873 10.1741 6.64661 10.9987C7.38449 11.8232 8.40032 12.3471 9.5 12.47V16H10.5V12.47C11.5997 12.3471 12.6155 11.8232 13.3534 10.9987C14.0913 10.1741 14.4995 9.10653 14.5 8Z" fill="white"/>
</g>
</g>
</g>
</g>
</svg>
