<svg width="20" height="26" viewBox="0 0 20 26" fill="none" xmlns="http://www.w3.org/2000/svg">
<g id="default / emergency-police-jpn">
<g id="POI-base">
<g id="Category_Master">
<g id="Baseshape_Pin">
<path id="shape" d="M6.12903 20.4794L6.12726 20.4777C3.78964 18.19 2.64527 16.3664 2.07698 14.8457C1.50986 13.3281 1.5 12.0735 1.5 10.8565C1.5 6.24879 5.30485 2.5 9.99133 2.5C14.6791 2.5 18.5 6.25003 18.5 10.8565C18.5 12.0735 18.4901 13.3281 17.923 14.8457C17.3547 16.3664 16.2104 18.19 13.8728 20.4777L13.8717 20.4787L9.99205 24.2977L6.12903 20.4794Z" fill="#FC5A72" stroke="#B04462"/>
</g>
</g>
<g id="Icon_Master">
<g id="emergency-police-jpn">
<path id="Vector" d="M10 7C9.0111 7 8.0444 7.29324 7.22215 7.84265C6.39991 8.39206 5.75904 9.17295 5.3806 10.0866C5.00217 11.0002 4.90315 12.0055 5.09608 12.9755C5.289 13.9454 5.76521 14.8363 6.46447 15.5355C7.16373 16.2348 8.05465 16.711 9.02455 16.9039C9.99446 17.0969 10.9998 16.9978 11.9134 16.6194C12.8271 16.241 13.6079 15.6001 14.1573 14.7779C14.7068 13.9556 15 12.9889 15 12C15 11.3434 14.8707 10.6932 14.6194 10.0866C14.3681 9.47995 13.9998 8.92876 13.5355 8.46447C13.0712 8.00017 12.52 7.63188 11.9134 7.3806C11.3068 7.12933 10.6566 7 10 7ZM10.705 12L13.155 9.55C13.7024 10.2494 13.9998 11.1119 13.9998 12C13.9998 12.8881 13.7024 13.7506 13.155 14.45L10.705 12ZM12.45 8.845L10 11.295L7.55 8.845C8.24936 8.29761 9.11189 8.0002 10 8.0002C10.8881 8.0002 11.7506 8.29761 12.45 8.845ZM6.845 9.55L9.295 12L6.845 14.45C6.29761 13.7506 6.0002 12.8881 6.0002 12C6.0002 11.1119 6.29761 10.2494 6.845 9.55ZM7.55 15.155L10 12.705L12.45 15.155C11.7506 15.7024 10.8881 15.9998 10 15.9998C9.11189 15.9998 8.24936 15.7024 7.55 15.155Z" fill="white"/>
</g>
</g>
</g>
</g>
</svg>
