<svg width="20" height="26" viewBox="0 0 20 26" fill="none" xmlns="http://www.w3.org/2000/svg">
<g id="default / facilities-office-prefectural-jpn">
<g id="POI-base">
<g id="Category_Master">
<g id="Baseshape_Pin">
<path id="shape" d="M6.12903 20.4794L6.12726 20.4777C3.78964 18.19 2.64527 16.3664 2.07698 14.8457C1.50986 13.3281 1.5 12.0735 1.5 10.8565C1.5 6.24879 5.30485 2.5 9.99133 2.5C14.6791 2.5 18.5 6.25003 18.5 10.8565C18.5 12.0735 18.4901 13.3281 17.923 14.8457C17.3547 16.3664 16.2104 18.19 13.8728 20.4777L13.8717 20.4787L9.99205 24.2977L6.12903 20.4794Z" fill="#C19D95" stroke="#87737B"/>
</g>
</g>
<g id="Icon_Master">
<g id="facilities-office-prefectural-jpn">
<path id="Vector" d="M10 9C12.205 9 14 10.345 14 12C14 13.655 12.205 15 10 15C7.795 15 6 13.655 6 12C6 10.345 7.795 9 10 9ZM10 8C7.24 8 5 9.79 5 12C5 14.21 7.24 16 10 16C12.76 16 15 14.21 15 12C15 9.79 12.76 8 10 8ZM10 11C11.22 11 12 11.59 12 12C12 12.41 11.22 13 10 13C8.78 13 8 12.41 8 12C8 11.59 8.78 11 10 11ZM10 10C8.345 10 7 10.895 7 12C7 13.105 8.345 14 10 14C11.655 14 13 13.105 13 12C13 10.895 11.655 10 10 10Z" fill="white"/>
</g>
</g>
</g>
</g>
</svg>
