<svg width="20" height="26" viewBox="0 0 20 26" fill="none" xmlns="http://www.w3.org/2000/svg">
<g id="default / transport-shinkansen-jpn">
<g id="POI-base">
<g id="Category_Master">
<g id="Baseshape_Dot">
<path id="Outline Outside" d="M1.5 12C1.5 7.30558 5.30558 3.5 10 3.5C14.6944 3.5 18.5 7.30558 18.5 12C18.5 16.6944 14.6944 20.5 10 20.5C5.30558 20.5 1.5 16.6944 1.5 12Z" fill="#6BC9FF" stroke="#4A91C5"/>
</g>
</g>
<g id="Icon_Master">
<g id="transport-shinkansen-jpn">
<path id="Vector" d="M14.5649 9.39C14.537 9.01154 14.3668 8.65769 14.0885 8.39976C13.8101 8.14183 13.4444 7.99898 13.0649 8H12.4999C12.267 7.68951 11.965 7.4375 11.6179 7.26393C11.2708 7.09036 10.888 7 10.4999 7H9.49988C9.11176 7 8.72898 7.09036 8.38184 7.26393C8.0347 7.4375 7.73274 7.68951 7.49988 8H6.92988C6.5504 7.99898 6.18463 8.14183 5.90629 8.39976C5.62794 8.65769 5.4577 9.01154 5.42988 9.39L5.20988 12.315C5.17242 12.8903 5.33492 13.4608 5.66988 13.93L5.83488 15.25C5.89609 15.736 6.13354 16.1826 6.50219 16.5052C6.87083 16.8278 7.34504 17.0038 7.83488 17H12.1849C12.6747 17.0038 13.1489 16.8278 13.5176 16.5052C13.8862 16.1826 14.1237 15.736 14.1849 15.25L14.3499 13.93C14.6848 13.4608 14.8473 12.8903 14.8099 12.315L14.5649 9.39ZM13.1699 15.125C13.1393 15.368 13.0205 15.5913 12.8362 15.7526C12.6519 15.9139 12.4148 16.0019 12.1699 16H7.82488C7.57996 16.0019 7.34285 15.9139 7.15853 15.7526C6.97421 15.5913 6.85548 15.368 6.82488 15.125L6.78988 14.82C7.08291 14.9359 7.39477 14.9969 7.70988 15H12.2899C12.6033 14.9963 12.9134 14.9353 13.2049 14.82L13.1699 15.125ZM13.3899 13.5C13.2512 13.6551 13.0818 13.7796 12.8924 13.8657C12.7031 13.9517 12.4979 13.9975 12.2899 14H7.70988C7.50328 14.0006 7.29881 13.9584 7.10926 13.8763C6.91971 13.7941 6.74917 13.6737 6.60835 13.5225C6.46752 13.3714 6.35943 13.1927 6.29087 12.9979C6.2223 12.803 6.19472 12.596 6.20988 12.39L6.42488 9.465C6.43375 9.33855 6.49032 9.22019 6.58314 9.13386C6.67597 9.04754 6.79811 8.99969 6.92488 9H7.04988C7.0179 9.16478 7.00116 9.33215 6.99988 9.5V10H7.99988V9.5C7.99988 9.10218 8.15791 8.72064 8.43921 8.43934C8.72052 8.15804 9.10205 8 9.49988 8H10.4999C10.8977 8 11.2792 8.15804 11.5605 8.43934C11.8418 8.72064 11.9999 9.10218 11.9999 9.5V10H12.9999V9.5C12.9986 9.33215 12.9818 9.16478 12.9499 9H13.0699C13.1966 8.99969 13.3188 9.04754 13.4116 9.13386C13.5044 9.22019 13.561 9.33855 13.5699 9.465L13.7849 12.39C13.7974 12.5921 13.7688 12.7946 13.7009 12.9854C13.633 13.1762 13.5272 13.3512 13.3899 13.5ZM9.49988 12H7.99988V11H9.49988V12ZM11.9999 12H10.4999V11H11.9999V12ZM10.9999 10H8.99988V9H10.9999V10Z" fill="white"/>
</g>
</g>
</g>
</g>
</svg>
